<svg xmlns="http://www.w3.org/2000/svg" viewBox="0 0 361 724">
  <defs>
    <linearGradient id="active-task-with-long-task-a" x1="50%" x2="50%" y1="0%" y2="100%">
      <stop offset="0%" stop-color="#101010" stop-opacity="0"/>
      <stop offset="100%" stop-color="#101010"/>
    </linearGradient>
  </defs>
  <g fill="none" fill-rule="evenodd">
    <path fill="#D0021B" d="M359,185.983274 L359,665.03064 C359,685.535571 356.865011,692.971155 352.855948,700.467451 C348.846885,707.963747 342.963747,713.846885 335.467451,717.855948 C327.971155,721.865011 320.535571,724 300.03064,724 L61.9693596,724 C41.4644286,724 34.0288451,721.865011 26.5325488,717.855948 C19.0362525,713.846885 13.1531153,707.963747 9.14405219,700.467451 C5.13498906,692.971155 3,685.535571 3,665.03064 L3,244 L2.5638852,244 C1.67236646,244 1.34908022,243.907174 1.0231543,243.732867 C0.697228371,243.55856 0.441439796,243.302772 0.267132704,242.976846 C0.0928256111,242.65092 4.01235366e-17,242.327634 -6.90560205e-17,241.436115 L6.90560205e-17,199.563885 C-4.01235366e-17,198.672366 0.0928256111,198.34908 0.267132704,198.023154 C0.441439796,197.697228 0.697228371,197.44144 1.0231543,197.267133 C1.34908022,197.092826 1.67236646,197 2.5638852,197 L3,197 L3,186 L2.5638852,186 C1.67236646,186 1.34908022,185.907174 1.0231543,185.732867 C0.697228371,185.55856 0.441439796,185.302772 0.267132704,184.976846 C0.0928256111,184.65092 4.01235366e-17,184.327634 -6.90560205e-17,183.436115 L6.90560205e-17,141.563885 C-4.01235366e-17,140.672366 0.0928256111,140.34908 0.267132704,140.023154 C0.441439796,139.697228 0.697228371,139.44144 1.0231543,139.267133 C1.34908022,139.092826 1.67236646,139 2.5638852,139 L3,139 L3,112 L2.5638852,112 C1.67236646,112 1.34908022,111.907174 1.0231543,111.732867 C0.697228371,111.55856 0.441439796,111.302772 0.267132704,110.976846 C0.0928256111,110.65092 4.01235366e-17,110.327634 -6.90560205e-17,109.436115 L6.90560205e-17,88.5638852 C-4.01235366e-17,87.6723665 0.0928256111,87.3490802 0.267132704,87.0231543 C0.441439796,86.6972284 0.697228371,86.4414398 1.0231543,86.2671327 C1.34908022,86.0928256 1.67236646,86 2.5638852,86 L3,86 L3,58.9693596 C3,38.4644286 5.13498906,31.0288451 9.14405219,23.5325488 C13.1531153,16.0362525 19.0362525,10.1531153 26.5325488,6.14405219 C34.0288451,2.13498906 41.4644286,1.38426201e-15 61.9693596,-2.38243271e-15 L300.03064,2.38243271e-15 C320.535571,-1.38426201e-15 327.971155,2.13498906 335.467451,6.14405219 C342.963747,10.1531153 348.846885,16.0362525 352.855948,23.5325488 C356.865011,31.0288451 359,38.4644286 359,58.9693596 L359,139.016726 C359.487053,139.050672 359.7312,139.13576 359.976846,139.267133 C360.302772,139.44144 360.55856,139.697228 360.732867,140.023154 C360.907174,140.34908 361,140.672366 361,141.563885 L361,183.436115 C361,184.327634 360.907174,184.65092 360.732867,184.976846 C360.55856,185.302772 360.302772,185.55856 359.976846,185.732867 C359.7312,185.86424 359.487053,185.949328 359,185.983274 Z M181,704 C194.030976,704 205,693.030976 205,680 C205,665.969024 194.030976,655 181,655 C166.969024,655 156,665.969024 156,680 C156,693.030976 166.969024,704 181,704 Z M181,702 C168.073593,702 158,691.926407 158,680 C158,667.073593 168.073593,657 181,657 C192.926407,657 203,667.073593 203,680 C203,691.926407 192.926407,702 181,702 Z M119.5,49 C122.537566,49 125,46.5375661 125,43.5 C125,40.4624339 122.537566,38 119.5,38 C116.462434,38 114,40.4624339 114,43.5 C114,46.5375661 116.462434,49 119.5,49 Z M181,27 C182.656854,27 184,25.6568542 184,24 C184,22.3431458 182.656854,21 181,21 C179.343146,21 178,22.3431458 178,24 C178,25.6568542 179.343146,27 181,27 Z M151.5,41 C150.119288,41 149,42.1192881 149,43.5 C149,44.8807119 150.119288,46 151.5,46 L210.5,46 C211.880712,46 213,44.8807119 213,43.5 C213,42.1192881 211.880712,41 210.5,41 L151.5,41 Z"/>
    <rect width="317" height="561" x="22" y="81" fill="#0A0A0A" rx="2"/>
    <path fill="#EEE3C1" d="M121.386719 615.321289C113.098633 615.321289 106.251953 611.557617 102.208008 604.670898 99.0048828 599.786133 97.3632812 593.259766 97.3632812 585.572266 97.3632812 566.433594 106.652344 554.902344 121.586914 554.902344 132.597656 554.902344 141.206055 561.428711 142.807617 570.87793L130.916016 570.87793C129.754883 567.03418 126.03125 564.47168 121.506836 564.47168 113.458984 564.47168 108.574219 572.199219 108.854492 585.251953L109.094727 585.251953C111.416992 579.606445 117.102539 575.842773 124.469727 575.842773 135.44043 575.842773 143.568359 583.930664 143.568359 594.901367 143.568359 606.792969 134.319336 615.321289 121.386719 615.321289zM121.266602 605.671875C127.152344 605.671875 131.796875 601.067383 131.796875 595.261719 131.796875 589.295898 127.352539 584.931641 121.306641 584.931641 115.300781 584.931641 110.736328 589.295898 110.736328 595.141602 110.736328 601.027344 115.34082 605.671875 121.266602 605.671875zM151.341797 614.480469C147.738281 614.480469 144.895508 611.597656 144.895508 608.03418 144.895508 604.430664 147.738281 601.587891 151.341797 601.587891 154.905273 601.587891 157.788086 604.430664 157.788086 608.03418 157.788086 611.597656 154.905273 614.480469 151.341797 614.480469zM171.046875 614L171.046875 567.314453 170.806641 567.314453 156.072266 577.484375 156.072266 566.59375 171.006836 556.223633 183.018555 556.223633 183.018555 614 171.046875 614zM204.405273 614L204.405273 567.314453 204.165039 567.314453 189.430664 577.484375 189.430664 566.59375 204.365234 556.223633 216.376953 556.223633 216.376953 614 204.405273 614zM233.525391 614L233.525391 556.223633 245.016602 556.223633 245.016602 578.725586 245.256836 578.725586C247.539062 573.320312 252.223633 570.277344 258.75 570.277344 268.279297 570.277344 273.724609 576.443359 273.724609 586.373047L273.724609 614 262.033203 614 262.033203 588.855469C262.033203 583.330078 259.310547 579.966797 253.985352 579.966797 248.459961 579.966797 245.216797 583.850586 245.216797 589.496094L245.216797 614 233.525391 614zM34 556L58 556 58 614 34 614 34 556zM60 556L84 556 84 614 60 614 60 556z"/>
    <rect width="297" height="100" x="32" y="542" fill="url(#active-task-with-long-task-a)"/>
    <path fill="#D0021B" d="M60,593 L84,593 L84,595 L60,595 L60,619 L58,619 L58,595 L34,595 L34,593 L58,593 L58,569 L60,569 L60,593 Z"/>
    <path fill="#D0021B" fill-rule="nonzero" d="M180.5,567 C195.411688,567 207.5,579.088312 207.5,594 C207.5,608.911688 195.411688,621 180.5,621 C165.588312,621 153.5,608.911688 153.5,594 C153.5,579.088312 165.588312,567 180.5,567 Z"/>
    <path fill="#0A0A0A" d="M181.544434,604 L181.544434,600.760742 L170.797363,600.760742 L170.797363,595.447754 C172.75,591.633301 174.929688,587.955078 178.729004,582.157715 L187.599121,582.157715 L187.599121,595.841309 L190.202637,595.841309 L190.202637,600.760742 L187.599121,600.760742 L187.599121,604 L181.544434,604 Z M176.125488,595.916992 L176.125488,596.098633 L181.726074,596.098633 L181.726074,586.365723 L181.60498,586.365723 C179.379883,589.786621 177.926758,592.102539 176.125488,595.916992 Z"/>
    <path fill="#D0021B" fill-rule="nonzero" d="M279,571 L279,617 L325,617 L325,571 L279,571 Z M277,569 L327,569 L327,619 L277,619 L277,569 Z"/>
    <path fill="#EEE3C1" d="M37.0629883 496.021973L37.0629883 503.783203C37.0629883 505.592773 38.25 506.904297 40.3251953 506.904297 42.4003906 506.904297 43.5874023 505.592773 43.5874023 503.783203L43.5874023 496.021973 45.081543 496.021973 45.081543 503.882812C45.081543 506.439453 43.296875 508.282227 40.3251953 508.282227 37.3535156 508.282227 35.5688477 506.439453 35.5688477 503.882812L35.5688477 496.021973 37.0629883 496.021973zM52.0810273 498.894043C54.3637422 498.894043 55.8412813 500.711914 55.8412813 503.525879 55.8412813 506.323242 54.3554414 508.157715 52.0810273 508.157715 50.802707 508.157715 49.7734102 507.601562 49.2836641 506.655273L49.1508516 506.655273 49.1508516 510.988281 47.7231172 510.988281 47.7231172 499.051758 49.0844453 499.051758 49.0844453 500.545898 49.2172578 500.545898C49.7900117 499.516602 50.8608125 498.894043 52.0810273 498.894043zM51.7406953 506.871094C53.38425 506.871094 54.3637422 505.617676 54.3637422 503.525879 54.3637422 501.434082 53.38425 500.180664 51.7489961 500.180664 50.1303438 500.180664 49.1093477 501.467285 49.1093477 503.525879 49.1093477 505.576172 50.1303438 506.871094 51.7406953 506.871094zM57.8935 508L57.8935 495.499023 59.3212344 495.499023 59.3212344 508 57.8935 508zM65.4989414 508.157715C62.9506016 508.157715 61.3734531 506.397949 61.3734531 503.525879 61.3734531 500.645508 62.9506016 498.894043 65.4989414 498.894043 68.0472812 498.894043 69.6244297 500.645508 69.6244297 503.525879 69.6244297 506.397949 68.0472812 508.157715 65.4989414 508.157715zM65.4989414 506.871094C67.1923008 506.871094 68.1468906 505.642578 68.1468906 503.525879 68.1468906 501.400879 67.1923008 500.180664 65.4989414 500.180664 63.805582 500.180664 62.8509922 501.400879 62.8509922 503.525879 62.8509922 505.642578 63.805582 506.871094 65.4989414 506.871094zM74.3495 506.904297C75.8187383 506.904297 76.9061406 505.941406 76.9061406 504.663086L76.9061406 503.841309 74.4989141 503.999023C73.1375859 504.090332 72.5399297 504.563477 72.5399297 505.459961 72.5399297 506.373047 73.3119023 506.904297 74.3495 506.904297zM74.083875 508.157715C72.3490117 508.157715 71.0623906 507.128418 71.0623906 505.493164 71.0623906 503.891113 72.2411016 502.969727 74.3245977 502.845215L76.9061406 502.6875 76.9061406 501.874023C76.9061406 500.77002 76.2171758 500.164062 74.88075 500.164062 73.8099492 500.164062 73.0628789 500.570801 72.8636602 501.276367L71.4193242 501.276367C71.6102422 499.840332 73.021375 498.894043 74.9305547 498.894043 77.1136602 498.894043 78.333875 500.014648 78.333875 501.874023L78.333875 508 76.9725469 508 76.9725469 506.680176 76.8397344 506.680176C76.2586797 507.634766 75.2791875 508.157715 74.083875 508.157715zM84.0135352 508.157715C81.7225195 508.157715 80.2532813 506.339844 80.2532813 503.525879 80.2532813 500.720215 81.7391211 498.894043 84.0135352 498.894043 85.2586523 498.894043 86.3128516 499.483398 86.8191992 500.462891L86.9437109 500.462891 86.9437109 495.499023 88.3714453 495.499023 88.3714453 508 87.0101172 508 87.0101172 506.572266 86.8773047 506.572266C86.3128516 507.568359 85.2503516 508.157715 84.0135352 508.157715zM84.3455664 500.180664C82.7186133 500.180664 81.7308203 501.442383 81.7308203 503.525879 81.7308203 505.617676 82.7103125 506.871094 84.3455664 506.871094 85.9725195 506.871094 86.9769141 505.592773 86.9769141 503.525879 86.9769141 501.475586 85.9642188 500.180664 84.3455664 500.180664zM95.1902383 501.500488C95.1902383 500.014648 96.6262734 498.894043 98.5271523 498.894043 100.403129 498.894043 101.706352 499.82373 101.89727 501.292969L100.486137 501.292969C100.295219 500.579102 99.5979531 500.105957 98.5188516 500.105957 97.4563516 500.105957 96.6262734 500.645508 96.6262734 501.442383 96.6262734 502.056641 97.1243203 502.438477 98.1785195 502.695801L99.5564492 503.027832C101.241508 503.43457 102.054984 504.165039 102.054984 505.45166 102.054984 507.053711 100.502738 508.157715 98.4690469 508.157715 96.4768594 508.157715 95.1072305 507.203125 94.9495156 505.717285L96.4187539 505.717285C96.6594766 506.472656 97.3733438 506.954102 98.5188516 506.954102 99.7224648 506.954102 100.585746 506.381348 100.585746 505.55957 100.585746 504.945312 100.120902 504.530273 99.1663125 504.297852L97.630668 503.924316C95.9539102 503.517578 95.1902383 502.79541 95.1902383 501.500488zM111.428492 501.791016L109.984156 501.791016C109.751734 500.902832 108.96316 500.180664 107.676539 500.180664 106.066187 500.180664 105.053492 501.467285 105.053492 503.492676 105.053492 505.55957 106.082789 506.871094 107.676539 506.871094 108.880152 506.871094 109.718531 506.314941 109.984156 505.302246L111.428492 505.302246C111.171168 506.945801 109.834742 508.157715 107.68484 508.157715 105.178004 508.157715 103.575953 506.339844 103.575953 503.492676 103.575953 500.703613 105.169703 498.894043 107.676539 498.894043 109.851344 498.894043 111.179469 500.197266 111.428492 501.791016zM113.264891 508L113.264891 499.051758 114.626219 499.051758 114.626219 500.379883 114.759031 500.379883C115.024656 499.508301 116.053953 498.894043 117.240965 498.894043 117.473387 498.894043 117.772215 498.910645 117.954832 498.935547L117.954832 500.363281C117.838621 500.330078 117.323973 500.280273 117.041746 500.280273 115.680418 500.280273 114.692625 501.193359 114.692625 502.455078L114.692625 508 113.264891 508zM122.787812 500.155762C121.360078 500.155762 120.363984 501.20166 120.256074 502.787109L125.186738 502.787109C125.153535 501.20166 124.207246 500.155762 122.787812 500.155762zM125.145234 505.684082L126.572969 505.684082C126.141328 507.219727 124.763398 508.157715 122.804414 508.157715 120.32248 508.157715 118.770234 506.364746 118.770234 503.53418 118.770234 500.720215 120.347383 498.894043 122.804414 498.894043 125.219941 498.894043 126.68918 500.612305 126.68918 503.393066L126.68918 503.940918 120.256074 503.940918 120.256074 504.007324C120.330781 505.775391 121.318574 506.895996 122.837617 506.895996 123.991426 506.895996 124.771699 506.472656 125.145234 505.684082zM132.227727 500.155762C130.799992 500.155762 129.803898 501.20166 129.695988 502.787109L134.626652 502.787109C134.593449 501.20166 133.64716 500.155762 132.227727 500.155762zM134.585148 505.684082L136.012883 505.684082C135.581242 507.219727 134.203312 508.157715 132.244328 508.157715 129.762395 508.157715 128.210148 506.364746 128.210148 503.53418 128.210148 500.720215 129.787297 498.894043 132.244328 498.894043 134.659855 498.894043 136.129094 500.612305 136.129094 503.393066L136.129094 503.940918 129.695988 503.940918 129.695988 504.007324C129.770695 505.775391 130.758488 506.895996 132.277531 506.895996 133.43134 506.895996 134.211613 506.472656 134.585148 505.684082zM138.098305 508L138.098305 499.051758 139.459633 499.051758 139.459633 500.462891 139.592445 500.462891C140.040687 499.475098 140.91227 498.894043 142.281898 498.894043 144.290687 498.894043 145.411293 500.081055 145.411293 502.206055L145.411293 508 143.983559 508 143.983559 502.554688C143.983559 500.944336 143.302895 500.180664 141.87516 500.180664 140.447426 500.180664 139.526039 501.135254 139.526039 502.704102L139.526039 508 138.098305 508zM147.538219 501.500488C147.538219 500.014648 148.974254 498.894043 150.875133 498.894043 152.751109 498.894043 154.054332 499.82373 154.24525 501.292969L152.834117 501.292969C152.643199 500.579102 151.945934 500.105957 150.866832 500.105957 149.804332 500.105957 148.974254 500.645508 148.974254 501.442383 148.974254 502.056641 149.472301 502.438477 150.5265 502.695801L151.90443 503.027832C153.589488 503.43457 154.402965 504.165039 154.402965 505.45166 154.402965 507.053711 152.850719 508.157715 150.817027 508.157715 148.82484 508.157715 147.455211 507.203125 147.297496 505.717285L148.766734 505.717285C149.007457 506.472656 149.721324 506.954102 150.866832 506.954102 152.070445 506.954102 152.933727 506.381348 152.933727 505.55957 152.933727 504.945312 152.468883 504.530273 151.514293 504.297852L149.978648 503.924316C148.301891 503.517578 147.538219 502.79541 147.538219 501.500488zM156.455184 508L156.455184 495.499023 157.882918 495.499023 157.882918 500.462891 158.01573 500.462891C158.463973 499.475098 159.401961 498.894043 160.77159 498.894043 162.664168 498.894043 163.85948 500.105957 163.85948 502.206055L163.85948 508 162.431746 508 162.431746 502.554688C162.431746 500.969238 161.717879 500.180664 160.364852 500.180664 158.762801 500.180664 157.882918 501.193359 157.882918 502.704102L157.882918 508 156.455184 508zM169.871172 508.157715C167.322832 508.157715 165.745684 506.397949 165.745684 503.525879 165.745684 500.645508 167.322832 498.894043 169.871172 498.894043 172.419512 498.894043 173.99666 500.645508 173.99666 503.525879 173.99666 506.397949 172.419512 508.157715 169.871172 508.157715zM169.871172 506.871094C171.564531 506.871094 172.519121 505.642578 172.519121 503.525879 172.519121 501.400879 171.564531 500.180664 169.871172 500.180664 168.177812 500.180664 167.223223 501.400879 167.223223 503.525879 167.223223 505.642578 168.177812 506.871094 169.871172 506.871094zM176.563527 496.73584L177.991262 496.73584 177.991262 499.051758 179.983449 499.051758 179.983449 500.24707 177.991262 500.24707 177.991262 505.310547C177.991262 506.364746 178.389699 506.812988 179.319387 506.812988 179.576711 506.812988 179.717824 506.804688 179.983449 506.779785L179.983449 507.983398C179.701223 508.033203 179.427297 508.066406 179.14507 508.066406 177.302297 508.066406 176.563527 507.385742 176.563527 505.675781L176.563527 500.24707 175.119191 500.24707 175.119191 499.051758 176.563527 499.051758 176.563527 496.73584zM181.496117 501.500488C181.496117 500.014648 182.932152 498.894043 184.833031 498.894043 186.709008 498.894043 188.01223 499.82373 188.203148 501.292969L186.792016 501.292969C186.601098 500.579102 185.903832 500.105957 184.82473 500.105957 183.76223 500.105957 182.932152 500.645508 182.932152 501.442383 182.932152 502.056641 183.430199 502.438477 184.484398 502.695801L185.862328 503.027832C187.547387 503.43457 188.360863 504.165039 188.360863 505.45166 188.360863 507.053711 186.808617 508.157715 184.774926 508.157715 182.782738 508.157715 181.413109 507.203125 181.255395 505.717285L182.724633 505.717285C182.965355 506.472656 183.679223 506.954102 184.82473 506.954102 186.028344 506.954102 186.891625 506.381348 186.891625 505.55957 186.891625 504.945312 186.426781 504.530273 185.472191 504.297852L183.936547 503.924316C182.259789 503.517578 181.496117 502.79541 181.496117 501.500488zM195.453582 496.73584L196.881316 496.73584 196.881316 499.051758 198.873504 499.051758 198.873504 500.24707 196.881316 500.24707 196.881316 505.310547C196.881316 506.364746 197.279754 506.812988 198.209441 506.812988 198.466766 506.812988 198.607879 506.804688 198.873504 506.779785L198.873504 507.983398C198.591277 508.033203 198.317352 508.066406 198.035125 508.066406 196.192352 508.066406 195.453582 507.385742 195.453582 505.675781L195.453582 500.24707 194.009246 500.24707 194.009246 499.051758 195.453582 499.051758 195.453582 496.73584zM204.312441 508.157715C201.764102 508.157715 200.186953 506.397949 200.186953 503.525879 200.186953 500.645508 201.764102 498.894043 204.312441 498.894043 206.860781 498.894043 208.43793 500.645508 208.43793 503.525879 208.43793 506.397949 206.860781 508.157715 204.312441 508.157715zM204.312441 506.871094C206.005801 506.871094 206.960391 505.642578 206.960391 503.525879 206.960391 501.400879 206.005801 500.180664 204.312441 500.180664 202.619082 500.180664 201.664492 501.400879 201.664492 503.525879 201.664492 505.642578 202.619082 506.871094 204.312441 506.871094zM215.530648 496.73584L216.958383 496.73584 216.958383 499.051758 218.95057 499.051758 218.95057 500.24707 216.958383 500.24707 216.958383 505.310547C216.958383 506.364746 217.35682 506.812988 218.286508 506.812988 218.543832 506.812988 218.684945 506.804688 218.95057 506.779785L218.95057 507.983398C218.668344 508.033203 218.394418 508.066406 218.112191 508.066406 216.269418 508.066406 215.530648 507.385742 215.530648 505.675781L215.530648 500.24707 214.086312 500.24707 214.086312 499.051758 215.530648 499.051758 215.530648 496.73584zM220.919781 508L220.919781 495.499023 222.347516 495.499023 222.347516 500.462891 222.480328 500.462891C222.92857 499.475098 223.866559 498.894043 225.236187 498.894043 227.128766 498.894043 228.324078 500.105957 228.324078 502.206055L228.324078 508 226.896344 508 226.896344 502.554688C226.896344 500.969238 226.182477 500.180664 224.829449 500.180664 223.227398 500.180664 222.347516 501.193359 222.347516 502.704102L222.347516 508 220.919781 508zM234.227859 500.155762C232.800125 500.155762 231.804031 501.20166 231.696121 502.787109L236.626785 502.787109C236.593582 501.20166 235.647293 500.155762 234.227859 500.155762zM236.585281 505.684082L238.013016 505.684082C237.581375 507.219727 236.203445 508.157715 234.244461 508.157715 231.762527 508.157715 230.210281 506.364746 230.210281 503.53418 230.210281 500.720215 231.78743 498.894043 234.244461 498.894043 236.659988 498.894043 238.129227 500.612305 238.129227 503.393066L238.129227 503.940918 231.696121 503.940918 231.696121 504.007324C231.770828 505.775391 232.758621 506.895996 234.277664 506.895996 235.431473 506.895996 236.211746 506.472656 236.585281 505.684082zM252.593039 508L251.389426 504.571777 246.624777 504.571777 245.421164 508 243.852316 508 248.268332 496.021973 249.745871 496.021973 254.161887 508 252.593039 508zM248.940695 497.956055L247.064719 503.301758 250.949484 503.301758 249.073508 497.956055 248.940695 497.956055zM260.165277 498.894043C262.447992 498.894043 263.925531 500.711914 263.925531 503.525879 263.925531 506.323242 262.439691 508.157715 260.165277 508.157715 258.886957 508.157715 257.85766 507.601562 257.367914 506.655273L257.235102 506.655273 257.235102 510.988281 255.807367 510.988281 255.807367 499.051758 257.168695 499.051758 257.168695 500.545898 257.301508 500.545898C257.874262 499.516602 258.945063 498.894043 260.165277 498.894043zM259.824945 506.871094C261.4685 506.871094 262.447992 505.617676 262.447992 503.525879 262.447992 501.434082 261.4685 500.180664 259.833246 500.180664 258.214594 500.180664 257.193598 501.467285 257.193598 503.525879 257.193598 505.576172 258.214594 506.871094 259.824945 506.871094zM270.252652 498.894043C272.535367 498.894043 274.012906 500.711914 274.012906 503.525879 274.012906 506.323242 272.527066 508.157715 270.252652 508.157715 268.974332 508.157715 267.945035 507.601562 267.455289 506.655273L267.322477 506.655273 267.322477 510.988281 265.894742 510.988281 265.894742 499.051758 267.25607 499.051758 267.25607 500.545898 267.388883 500.545898C267.961637 499.516602 269.032438 498.894043 270.252652 498.894043zM269.91232 506.871094C271.555875 506.871094 272.535367 505.617676 272.535367 503.525879 272.535367 501.434082 271.555875 500.180664 269.920621 500.180664 268.301969 500.180664 267.280973 501.467285 267.280973 503.525879 267.280973 505.576172 268.301969 506.871094 269.91232 506.871094zM280.117832 504.870605L281.628574 504.870605C281.811191 506.124023 283.006504 506.920898 284.708164 506.920898 286.318516 506.920898 287.505527 506.049316 287.505527 504.862305 287.505527 503.841309 286.758457 503.193848 285.106602 502.778809L283.570957 502.380371C281.404453 501.83252 280.466465 500.853027 280.466465 499.151367 280.466465 497.117676 282.168125 495.739746 284.699863 495.739746 287.015781 495.739746 288.742344 497.117676 288.866855 499.051758L287.364414 499.051758C287.156895 497.823242 286.144199 497.092773 284.650059 497.092773 283.056309 497.092773 282.002109 497.889648 282.002109 499.101562 282.002109 500.039551 282.657871 500.579102 284.309727 501.002441L285.563145 501.334473C288.045078 501.957031 289.041172 502.919922 289.041172 504.679688 289.041172 506.879395 287.306309 508.282227 284.567051 508.282227 282.027012 508.282227 280.275547 506.9375 280.117832 504.870605zM291.666145 496.73584L293.093879 496.73584 293.093879 499.051758 295.086066 499.051758 295.086066 500.24707 293.093879 500.24707 293.093879 505.310547C293.093879 506.364746 293.492316 506.812988 294.422004 506.812988 294.679328 506.812988 294.820441 506.804688 295.086066 506.779785L295.086066 507.983398C294.80384 508.033203 294.529914 508.066406 294.247688 508.066406 292.404914 508.066406 291.666145 507.385742 291.666145 505.675781L291.666145 500.24707 290.221809 500.24707 290.221809 499.051758 291.666145 499.051758 291.666145 496.73584zM300.525004 508.157715C297.976664 508.157715 296.399516 506.397949 296.399516 503.525879 296.399516 500.645508 297.976664 498.894043 300.525004 498.894043 303.073344 498.894043 304.650492 500.645508 304.650492 503.525879 304.650492 506.397949 303.073344 508.157715 300.525004 508.157715zM300.525004 506.871094C302.218363 506.871094 303.172953 505.642578 303.172953 503.525879 303.172953 501.400879 302.218363 500.180664 300.525004 500.180664 298.831645 500.180664 297.877055 501.400879 297.877055 503.525879 297.877055 505.642578 298.831645 506.871094 300.525004 506.871094zM306.619703 508L306.619703 499.051758 307.981031 499.051758 307.981031 500.379883 308.113844 500.379883C308.379469 499.508301 309.408766 498.894043 310.595777 498.894043 310.828199 498.894043 311.127027 498.910645 311.309645 498.935547L311.309645 500.363281C311.193434 500.330078 310.678785 500.280273 310.396559 500.280273 309.03523 500.280273 308.047438 501.193359 308.047438 502.455078L308.047438 508 306.619703 508zM316.142625 500.155762C314.714891 500.155762 313.718797 501.20166 313.610887 502.787109L318.541551 502.787109C318.508348 501.20166 317.562059 500.155762 316.142625 500.155762zM318.500047 505.684082L319.927781 505.684082C319.496141 507.219727 318.118211 508.157715 316.159227 508.157715 313.677293 508.157715 312.125047 506.364746 312.125047 503.53418 312.125047 500.720215 313.702195 498.894043 316.159227 498.894043 318.574754 498.894043 320.043992 500.612305 320.043992 503.393066L320.043992 503.940918 313.610887 503.940918 313.610887 504.007324C313.685594 505.775391 314.673387 506.895996 316.19243 506.895996 317.346238 506.895996 318.126512 506.472656 318.500047 505.684082zM112.538086 474L112.538086 427.314453 112.297852 427.314453 97.5634766 437.484375 97.5634766 426.59375 112.498047 416.223633 124.509766 416.223633 124.509766 474 112.538086 474zM137.768555 474.480469C134.165039 474.480469 131.322266 471.597656 131.322266 468.03418 131.322266 464.430664 134.165039 461.587891 137.768555 461.587891 141.332031 461.587891 144.214844 464.430664 144.214844 468.03418 144.214844 471.597656 141.332031 474.480469 137.768555 474.480469zM175.571289 474L175.571289 463.709961 146.823242 463.709961 146.823242 453.419922C151.868164 443.810547 158.154297 433.680664 170.005859 416.223633L187.0625 416.223633 187.0625 454.020508 194.589844 454.020508 194.589844 463.709961 187.0625 463.709961 187.0625 474 175.571289 474zM157.433594 454.060547L157.433594 454.380859 175.811523 454.380859 175.811523 424.791992 175.571289 424.791992C167.163086 437.124023 162.118164 445.011719 157.433594 454.060547zM217.37793 475.28125C204.96582 475.28125 196.037109 467.914062 195.676758 457.463867L206.847656 457.463867C207.52832 462.348633 211.852539 465.711914 217.458008 465.711914 223.78418 465.711914 228.148438 461.307617 228.148438 455.021484 228.148438 448.615234 223.78418 444.130859 217.538086 444.130859 213.173828 444.130859 209.410156 446.132812 207.408203 449.456055L196.597656 449.456055 199.44043 416.223633 236.196289 416.223633 236.196289 425.833008 208.929688 425.833008 207.608398 441.648438 207.848633 441.648438C210.210938 437.764648 214.81543 435.322266 220.701172 435.322266 231.751953 435.322266 239.679688 443.450195 239.679688 454.701172 239.679688 466.953125 230.630859 475.28125 217.37793 475.28125zM250.62207 474L250.62207 416.223633 262.113281 416.223633 262.113281 438.725586 262.353516 438.725586C264.635742 433.320312 269.320312 430.277344 275.84668 430.277344 285.375977 430.277344 290.821289 436.443359 290.821289 446.373047L290.821289 474 279.129883 474 279.129883 448.855469C279.129883 443.330078 276.407227 439.966797 271.082031 439.966797 265.556641 439.966797 262.313477 443.850586 262.313477 449.496094L262.313477 474 250.62207 474zM34 416L58 416 58 474 34 474 34 416zM60 416L84 416 84 474 60 474 60 416z"/>
    <rect width="293" height="1" x="34" y="532" fill="#2C2A25" fill-rule="nonzero"/>
    <rect width="293" height="1" x="34" y="392" fill="#2C2A25" fill-rule="nonzero"/>
    <rect width="293" height="1" x="34" y="252" fill="#2C2A25" fill-rule="nonzero"/>
    <rect width="293" height="1" x="34" y="112" fill="#2C2A25" fill-rule="nonzero"/>
    <path fill="#EEE3C1" d="M40.565918 355.739746C43.9692383 355.739746 46.0444336 358.163574 46.0444336 362.006836 46.0444336 365.833496 43.9858398 368.282227 40.565918 368.282227 37.1293945 368.282227 35.0625 365.841797 35.0625 362.006836 35.0625 358.155273 37.1791992 355.739746 40.565918 355.739746zM40.565918 357.117676C38.1254883 357.117676 36.5981445 359.010254 36.5981445 362.006836 36.5981445 364.978516 38.0756836 366.904297 40.565918 366.904297 43.0229492 366.904297 44.5087891 364.978516 44.5087891 362.006836 44.5087891 359.010254 43.0146484 357.117676 40.565918 357.117676zM52.5375703 358.894043C54.8202852 358.894043 56.2978242 360.711914 56.2978242 363.525879 56.2978242 366.323242 54.8119844 368.157715 52.5375703 368.157715 51.25925 368.157715 50.2299531 367.601562 49.740207 366.655273L49.6073945 366.655273 49.6073945 370.988281 48.1796602 370.988281 48.1796602 359.051758 49.5409883 359.051758 49.5409883 360.545898 49.6738008 360.545898C50.2465547 359.516602 51.3173555 358.894043 52.5375703 358.894043zM52.1972383 366.871094C53.840793 366.871094 54.8202852 365.617676 54.8202852 363.525879 54.8202852 361.434082 53.840793 360.180664 52.2055391 360.180664 50.5868867 360.180664 49.5658906 361.467285 49.5658906 363.525879 49.5658906 365.576172 50.5868867 366.871094 52.1972383 366.871094zM58.8646914 356.73584L60.2924258 356.73584 60.2924258 359.051758 62.2846133 359.051758 62.2846133 360.24707 60.2924258 360.24707 60.2924258 365.310547C60.2924258 366.364746 60.6908633 366.812988 61.6205508 366.812988 61.877875 366.812988 62.0189883 366.804688 62.2846133 366.779785L62.2846133 367.983398C62.0023867 368.033203 61.7284609 368.066406 61.4462344 368.066406 59.6034609 368.066406 58.8646914 367.385742 58.8646914 365.675781L58.8646914 360.24707 57.4203555 360.24707 57.4203555 359.051758 58.8646914 359.051758 58.8646914 356.73584zM64.2040195 368L64.2040195 359.051758 65.6317539 359.051758 65.6317539 368 64.2040195 368zM64.9178867 357.233887C64.3700352 357.233887 63.921793 356.785645 63.921793 356.237793 63.921793 355.689941 64.3700352 355.241699 64.9178867 355.241699 65.4657383 355.241699 65.9139805 355.689941 65.9139805 356.237793 65.9139805 356.785645 65.4657383 357.233887 64.9178867 357.233887zM68.0824102 368L68.0824102 359.051758 69.4437383 359.051758 69.4437383 360.462891 69.5765508 360.462891C69.9832891 359.466797 70.8797734 358.894043 72.0750859 358.894043 73.287 358.894043 74.1336797 359.533203 74.5487188 360.462891L74.6815313 360.462891C75.1629766 359.516602 76.1839727 358.894043 77.4207891 358.894043 79.2469609 358.894043 80.267957 359.939941 80.267957 361.815918L80.267957 368 78.8402227 368 78.8402227 362.147949C78.8402227 360.828125 78.2176641 360.180664 76.9559453 360.180664 75.7108281 360.180664 74.88075 361.110352 74.88075 362.247559L74.88075 368 73.4530156 368 73.4530156 361.923828C73.4530156 360.861328 72.7142461 360.180664 71.5853398 360.180664 70.4149297 360.180664 69.5101445 361.193359 69.5101445 362.455078L69.5101445 368 68.0824102 368zM82.6356055 368L82.6356055 359.051758 84.0633398 359.051758 84.0633398 368 82.6356055 368zM83.3494727 357.233887C82.8016211 357.233887 82.3533789 356.785645 82.3533789 356.237793 82.3533789 355.689941 82.8016211 355.241699 83.3494727 355.241699 83.8973242 355.241699 84.3455664 355.689941 84.3455664 356.237793 84.3455664 356.785645 83.8973242 357.233887 83.3494727 357.233887zM86.3064766 368L86.3064766 366.954102 91.4695625 360.379883 91.4695625 360.24707 86.3147773 360.24707 86.3147773 359.051758 93.1712227 359.051758 93.1712227 360.122559 88.0330391 366.671875 88.0330391 366.804688 93.196125 366.804688 93.196125 368 86.3064766 368zM98.7263711 360.155762C97.2986367 360.155762 96.302543 361.20166 96.1946328 362.787109L101.125297 362.787109C101.092094 361.20166 100.145805 360.155762 98.7263711 360.155762zM101.083793 365.684082L102.511527 365.684082C102.079887 367.219727 100.701957 368.157715 98.7429727 368.157715 96.2610391 368.157715 94.708793 366.364746 94.708793 363.53418 94.708793 360.720215 96.2859414 358.894043 98.7429727 358.894043 101.1585 358.894043 102.627738 360.612305 102.627738 363.393066L102.627738 363.940918 96.1946328 363.940918 96.1946328 364.007324C96.2693398 365.775391 97.2571328 366.895996 98.7761758 366.895996 99.9299844 366.895996 100.710258 366.472656 101.083793 365.684082zM109.156004 368L109.156004 359.051758 110.583738 359.051758 110.583738 368 109.156004 368zM109.869871 357.233887C109.32202 357.233887 108.873777 356.785645 108.873777 356.237793 108.873777 355.689941 109.32202 355.241699 109.869871 355.241699 110.417723 355.241699 110.865965 355.689941 110.865965 356.237793 110.865965 356.785645 110.417723 357.233887 109.869871 357.233887zM113.034395 368L113.034395 359.051758 114.395723 359.051758 114.395723 360.462891 114.528535 360.462891C114.935273 359.466797 115.831758 358.894043 117.02707 358.894043 118.238984 358.894043 119.085664 359.533203 119.500703 360.462891L119.633516 360.462891C120.114961 359.516602 121.135957 358.894043 122.372773 358.894043 124.198945 358.894043 125.219941 359.939941 125.219941 361.815918L125.219941 368 123.792207 368 123.792207 362.147949C123.792207 360.828125 123.169648 360.180664 121.90793 360.180664 120.662812 360.180664 119.832734 361.110352 119.832734 362.247559L119.832734 368 118.405 368 118.405 361.923828C118.405 360.861328 117.66623 360.180664 116.537324 360.180664 115.366914 360.180664 114.462129 361.193359 114.462129 362.455078L114.462129 368 113.034395 368zM130.310246 366.904297C131.779484 366.904297 132.866887 365.941406 132.866887 364.663086L132.866887 363.841309 130.45966 363.999023C129.098332 364.090332 128.500676 364.563477 128.500676 365.459961 128.500676 366.373047 129.272648 366.904297 130.310246 366.904297zM130.044621 368.157715C128.309758 368.157715 127.023137 367.128418 127.023137 365.493164 127.023137 363.891113 128.201848 362.969727 130.285344 362.845215L132.866887 362.6875 132.866887 361.874023C132.866887 360.77002 132.177922 360.164062 130.841496 360.164062 129.770695 360.164062 129.023625 360.570801 128.824406 361.276367L127.38007 361.276367C127.570988 359.840332 128.982121 358.894043 130.891301 358.894043 133.074406 358.894043 134.294621 360.014648 134.294621 361.874023L134.294621 368 132.933293 368 132.933293 366.680176 132.80048 366.680176C132.219426 367.634766 131.239934 368.157715 130.044621 368.157715zM140.28141 366.605469C141.941566 366.605469 142.93766 365.34375 142.93766 363.393066 142.93766 361.442383 141.933266 360.180664 140.28141 360.180664 138.621254 360.180664 137.691566 361.442383 137.691566 363.393066 137.691566 365.34375 138.621254 366.605469 140.28141 366.605469zM140.347816 371.436523C138.189613 371.436523 136.811684 370.465332 136.595863 368.987793L138.106605 368.987793C138.26432 369.718262 139.061195 370.191406 140.347816 370.191406 141.949867 370.191406 142.904457 369.402832 142.904457 368.083008L142.904457 366.323242 142.771645 366.323242C142.207191 367.311035 141.194496 367.867188 139.96598 367.867188 137.650062 367.867188 136.214027 366.074219 136.214027 363.393066 136.214027 360.711914 137.666664 358.894043 139.96598 358.894043 141.219398 358.894043 142.323402 359.508301 142.838051 360.471191L142.970863 360.471191 142.970863 359.051758 144.332191 359.051758 144.332191 368.157715C144.332191 370.158203 142.788246 371.436523 140.347816 371.436523zM150.31898 360.155762C148.891246 360.155762 147.895152 361.20166 147.787242 362.787109L152.717906 362.787109C152.684703 361.20166 151.738414 360.155762 150.31898 360.155762zM152.676402 365.684082L154.104137 365.684082C153.672496 367.219727 152.294566 368.157715 150.335582 368.157715 147.853648 368.157715 146.301402 366.364746 146.301402 363.53418 146.301402 360.720215 147.878551 358.894043 150.335582 358.894043 152.751109 358.894043 154.220348 360.612305 154.220348 363.393066L154.220348 363.940918 147.787242 363.940918 147.787242 364.007324C147.861949 365.775391 148.849742 366.895996 150.368785 366.895996 151.522594 366.895996 152.302867 366.472656 152.676402 365.684082zM155.982039 361.500488C155.982039 360.014648 157.418074 358.894043 159.318953 358.894043 161.19493 358.894043 162.498152 359.82373 162.68907 361.292969L161.277938 361.292969C161.08702 360.579102 160.389754 360.105957 159.310652 360.105957 158.248152 360.105957 157.418074 360.645508 157.418074 361.442383 157.418074 362.056641 157.916121 362.438477 158.97032 362.695801L160.34825 363.027832C162.033309 363.43457 162.846785 364.165039 162.846785 365.45166 162.846785 367.053711 161.294539 368.157715 159.260848 368.157715 157.26866 368.157715 155.899031 367.203125 155.741316 365.717285L157.210555 365.717285C157.451277 366.472656 158.165145 366.954102 159.310652 366.954102 160.514266 366.954102 161.377547 366.381348 161.377547 365.55957 161.377547 364.945312 160.912703 364.530273 159.958113 364.297852L158.422469 363.924316C156.745711 363.517578 155.982039 362.79541 155.982039 361.500488zM173.019094 368.157715C170.470754 368.157715 168.893605 366.397949 168.893605 363.525879 168.893605 360.645508 170.470754 358.894043 173.019094 358.894043 175.567434 358.894043 177.144582 360.645508 177.144582 363.525879 177.144582 366.397949 175.567434 368.157715 173.019094 368.157715zM173.019094 366.871094C174.712453 366.871094 175.667043 365.642578 175.667043 363.525879 175.667043 361.400879 174.712453 360.180664 173.019094 360.180664 171.325734 360.180664 170.371145 361.400879 170.371145 363.525879 170.371145 365.642578 171.325734 366.871094 173.019094 366.871094zM179.113793 368L179.113793 359.051758 180.475121 359.051758 180.475121 360.462891 180.607934 360.462891C181.056176 359.475098 181.927758 358.894043 183.297387 358.894043 185.306176 358.894043 186.426781 360.081055 186.426781 362.206055L186.426781 368 184.999047 368 184.999047 362.554688C184.999047 360.944336 184.318383 360.180664 182.890648 360.180664 181.462914 360.180664 180.541527 361.135254 180.541527 362.704102L180.541527 368 179.113793 368zM193.884734 356.73584L195.312469 356.73584 195.312469 359.051758 197.304656 359.051758 197.304656 360.24707 195.312469 360.24707 195.312469 365.310547C195.312469 366.364746 195.710906 366.812988 196.640594 366.812988 196.897918 366.812988 197.039031 366.804688 197.304656 366.779785L197.304656 367.983398C197.02243 368.033203 196.748504 368.066406 196.466277 368.066406 194.623504 368.066406 193.884734 367.385742 193.884734 365.675781L193.884734 360.24707 192.440398 360.24707 192.440398 359.051758 193.884734 359.051758 193.884734 356.73584zM199.273867 368L199.273867 355.499023 200.701602 355.499023 200.701602 360.462891 200.834414 360.462891C201.282656 359.475098 202.220645 358.894043 203.590273 358.894043 205.482852 358.894043 206.678164 360.105957 206.678164 362.206055L206.678164 368 205.25043 368 205.25043 362.554688C205.25043 360.969238 204.536563 360.180664 203.183535 360.180664 201.581484 360.180664 200.701602 361.193359 200.701602 362.704102L200.701602 368 199.273867 368zM212.581945 360.155762C211.154211 360.155762 210.158117 361.20166 210.050207 362.787109L214.980871 362.787109C214.947668 361.20166 214.001379 360.155762 212.581945 360.155762zM214.939367 365.684082L216.367102 365.684082C215.935461 367.219727 214.557531 368.157715 212.598547 368.157715 210.116613 368.157715 208.564367 366.364746 208.564367 363.53418 208.564367 360.720215 210.141516 358.894043 212.598547 358.894043 215.014074 358.894043 216.483313 360.612305 216.483313 363.393066L216.483313 363.940918 210.050207 363.940918 210.050207 364.007324C210.124914 365.775391 211.112707 366.895996 212.63175 366.895996 213.785559 366.895996 214.565832 366.472656 214.939367 365.684082zM234.234234 359.051758L231.727398 368 230.274762 368 228.274273 361.077148 228.141461 361.077148 226.149273 368 224.704937 368 222.198102 359.051758 223.642437 359.051758 225.402203 366.207031 225.535016 366.207031 227.535504 359.051758 228.905133 359.051758 230.905621 366.207031 231.038434 366.207031 232.798199 359.051758 234.234234 359.051758zM239.108719 360.155762C237.680984 360.155762 236.684891 361.20166 236.57698 362.787109L241.507645 362.787109C241.474441 361.20166 240.528152 360.155762 239.108719 360.155762zM241.466141 365.684082L242.893875 365.684082C242.462234 367.219727 241.084305 368.157715 239.12532 368.157715 236.643387 368.157715 235.091141 366.364746 235.091141 363.53418 235.091141 360.720215 236.668289 358.894043 239.12532 358.894043 241.540848 358.894043 243.010086 360.612305 243.010086 363.393066L243.010086 363.940918 236.57698 363.940918 236.57698 364.007324C236.651688 365.775391 237.63948 366.895996 239.158523 366.895996 240.312332 366.895996 241.092605 366.472656 241.466141 365.684082zM249.428516 368.157715C248.183398 368.157715 247.120898 367.568359 246.556445 366.572266L246.423633 366.572266 246.423633 368 245.062305 368 245.062305 355.499023 246.490039 355.499023 246.490039 360.462891 246.622852 360.462891C247.112598 359.5 248.2 358.894043 249.428516 358.894043 251.70293 358.894043 253.180469 360.711914 253.180469 363.525879 253.180469 366.323242 251.694629 368.157715 249.428516 368.157715zM249.096484 360.180664C247.469531 360.180664 246.456836 361.458984 246.456836 363.525879 246.456836 365.592773 247.469531 366.871094 249.096484 366.871094 250.731738 366.871094 251.70293 365.617676 251.70293 363.525879 251.70293 361.434082 250.731738 360.180664 249.096484 360.180664zM254.94216 361.500488C254.94216 360.014648 256.378195 358.894043 258.279074 358.894043 260.155051 358.894043 261.458273 359.82373 261.649191 361.292969L260.238059 361.292969C260.047141 360.579102 259.349875 360.105957 258.270773 360.105957 257.208273 360.105957 256.378195 360.645508 256.378195 361.442383 256.378195 362.056641 256.876242 362.438477 257.930441 362.695801L259.308371 363.027832C260.99343 363.43457 261.806906 364.165039 261.806906 365.45166 261.806906 367.053711 260.25466 368.157715 258.220969 368.157715 256.228781 368.157715 254.859152 367.203125 254.701438 365.717285L256.170676 365.717285C256.411398 366.472656 257.125266 366.954102 258.270773 366.954102 259.474387 366.954102 260.337668 366.381348 260.337668 365.55957 260.337668 364.945312 259.872824 364.530273 258.918234 364.297852L257.38259 363.924316C255.705832 363.517578 254.94216 362.79541 254.94216 361.500488zM263.80932 368L263.80932 359.051758 265.237055 359.051758 265.237055 368 263.80932 368zM264.523188 357.233887C263.975336 357.233887 263.527094 356.785645 263.527094 356.237793 263.527094 355.689941 263.975336 355.241699 264.523188 355.241699 265.071039 355.241699 265.519281 355.689941 265.519281 356.237793 265.519281 356.785645 265.071039 357.233887 264.523188 357.233887zM268.285367 356.73584L269.713102 356.73584 269.713102 359.051758 271.705289 359.051758 271.705289 360.24707 269.713102 360.24707 269.713102 365.310547C269.713102 366.364746 270.111539 366.812988 271.041227 366.812988 271.298551 366.812988 271.439664 366.804688 271.705289 366.779785L271.705289 367.983398C271.423063 368.033203 271.149137 368.066406 270.86691 368.066406 269.024137 368.066406 268.285367 367.385742 268.285367 365.675781L268.285367 360.24707 266.841031 360.24707 266.841031 359.051758 268.285367 359.051758 268.285367 356.73584zM277.036316 360.155762C275.608582 360.155762 274.612488 361.20166 274.504578 362.787109L279.435242 362.787109C279.402039 361.20166 278.45575 360.155762 277.036316 360.155762zM279.393738 365.684082L280.821473 365.684082C280.389832 367.219727 279.011902 368.157715 277.052918 368.157715 274.570984 368.157715 273.018738 366.364746 273.018738 363.53418 273.018738 360.720215 274.595887 358.894043 277.052918 358.894043 279.468445 358.894043 280.937684 360.612305 280.937684 363.393066L280.937684 363.940918 274.504578 363.940918 274.504578 364.007324C274.579285 365.775391 275.567078 366.895996 277.086121 366.895996 278.23993 366.895996 279.020203 366.472656 279.393738 365.684082zM120.706055 335.28125C106.171875 335.28125 97.3232422 323.709961 97.3232422 305.011719 97.3232422 286.353516 106.251953 274.902344 120.706055 274.902344 135.160156 274.902344 144.048828 286.313477 144.048828 304.97168 144.048828 323.629883 135.240234 335.28125 120.706055 335.28125zM120.706055 325.591797C127.592773 325.591797 131.756836 318.18457 131.756836 305.011719 131.756836 291.958984 127.552734 284.591797 120.706055 284.591797 113.899414 284.591797 109.615234 291.999023 109.615234 305.011719 109.615234 318.144531 113.819336 325.591797 120.706055 325.591797zM150.78125 334.480469C147.177734 334.480469 144.334961 331.597656 144.334961 328.03418 144.334961 324.430664 147.177734 321.587891 150.78125 321.587891 154.344727 321.587891 157.227539 324.430664 157.227539 328.03418 157.227539 331.597656 154.344727 334.480469 150.78125 334.480469zM159.555664 293.600586C159.555664 282.669922 168.28418 274.942383 180.896484 274.942383 193.068359 274.942383 201.436523 281.989258 201.436523 291.638672 201.436523 298.845703 196.631836 304.250977 190.265625 310.577148L176.171875 324.150391 176.171875 324.390625 202.237305 324.390625 202.237305 334 160.236328 334 160.236328 325.87207 182.017578 304.891602C187.863281 299.045898 189.665039 296.123047 189.665039 292.119141 189.665039 287.794922 185.861328 284.351562 180.496094 284.351562 174.890625 284.351562 170.766602 288.275391 170.766602 293.600586L170.766602 293.800781 159.555664 293.800781 159.555664 293.600586zM206.6875 334L231.551758 286.073242 231.551758 285.833008 202.163086 285.833008 202.163086 276.223633 243.483398 276.223633 243.483398 285.953125 219.379883 334 206.6875 334zM254.826172 334L254.826172 276.223633 266.317383 276.223633 266.317383 298.725586 266.557617 298.725586C268.839844 293.320312 273.524414 290.277344 280.050781 290.277344 289.580078 290.277344 295.025391 296.443359 295.025391 306.373047L295.025391 334 283.333984 334 283.333984 308.855469C283.333984 303.330078 280.611328 299.966797 275.286133 299.966797 269.760742 299.966797 266.517578 303.850586 266.517578 309.496094L266.517578 334 254.826172 334zM59 291L84 305.5 59 319 34 334 34 276 59 291zM40.565918 215.739746C43.9692383 215.739746 46.0444336 218.163574 46.0444336 222.006836 46.0444336 225.833496 43.9858398 228.282227 40.565918 228.282227 37.1293945 228.282227 35.0625 225.841797 35.0625 222.006836 35.0625 218.155273 37.1791992 215.739746 40.565918 215.739746zM40.565918 217.117676C38.1254883 217.117676 36.5981445 219.010254 36.5981445 222.006836 36.5981445 224.978516 38.0756836 226.904297 40.565918 226.904297 43.0229492 226.904297 44.5087891 224.978516 44.5087891 222.006836 44.5087891 219.010254 43.0146484 217.117676 40.565918 217.117676zM48.1796602 228L48.1796602 219.051758 49.5409883 219.051758 49.5409883 220.379883 49.6738008 220.379883C49.9394258 219.508301 50.9687227 218.894043 52.1557344 218.894043 52.3881563 218.894043 52.6869844 218.910645 52.8696016 218.935547L52.8696016 220.363281C52.7533906 220.330078 52.2387422 220.280273 51.9565156 220.280273 50.5951875 220.280273 49.6073945 221.193359 49.6073945 222.455078L49.6073945 228 48.1796602 228zM57.7523867 226.605469C59.412543 226.605469 60.4086367 225.34375 60.4086367 223.393066 60.4086367 221.442383 59.4042422 220.180664 57.7523867 220.180664 56.0922305 220.180664 55.162543 221.442383 55.162543 223.393066 55.162543 225.34375 56.0922305 226.605469 57.7523867 226.605469zM57.818793 231.436523C55.6605898 231.436523 54.2826602 230.465332 54.0668398 228.987793L55.577582 228.987793C55.7352969 229.718262 56.5321719 230.191406 57.818793 230.191406 59.4208438 230.191406 60.3754336 229.402832 60.3754336 228.083008L60.3754336 226.323242 60.2426211 226.323242C59.678168 227.311035 58.6654727 227.867188 57.436957 227.867188 55.1210391 227.867188 53.6850039 226.074219 53.6850039 223.393066 53.6850039 220.711914 55.1376406 218.894043 57.436957 218.894043 58.690375 218.894043 59.7943789 219.508301 60.3090273 220.471191L60.4418398 220.471191 60.4418398 219.051758 61.803168 219.051758 61.803168 228.157715C61.803168 230.158203 60.2592227 231.436523 57.818793 231.436523zM66.9764805 226.904297C68.4457187 226.904297 69.5331211 225.941406 69.5331211 224.663086L69.5331211 223.841309 67.1258945 223.999023C65.7645664 224.090332 65.1669102 224.563477 65.1669102 225.459961 65.1669102 226.373047 65.9388828 226.904297 66.9764805 226.904297zM66.7108555 228.157715C64.9759922 228.157715 63.6893711 227.128418 63.6893711 225.493164 63.6893711 223.891113 64.868082 222.969727 66.9515781 222.845215L69.5331211 222.6875 69.5331211 221.874023C69.5331211 220.77002 68.8441562 220.164062 67.5077305 220.164062 66.4369297 220.164062 65.6898594 220.570801 65.4906406 221.276367L64.0463047 221.276367C64.2372227 219.840332 65.6483555 218.894043 67.5575352 218.894043 69.7406406 218.894043 70.9608555 220.014648 70.9608555 221.874023L70.9608555 228 69.5995273 228 69.5995273 226.680176 69.4667148 226.680176C68.8856602 227.634766 67.906168 228.157715 66.7108555 228.157715zM73.3285039 228L73.3285039 219.051758 74.689832 219.051758 74.689832 220.462891 74.8226445 220.462891C75.2708867 219.475098 76.1424688 218.894043 77.5120977 218.894043 79.5208867 218.894043 80.6414922 220.081055 80.6414922 222.206055L80.6414922 228 79.2137578 228 79.2137578 222.554688C79.2137578 220.944336 78.5330938 220.180664 77.1053594 220.180664 75.677625 220.180664 74.7562383 221.135254 74.7562383 222.704102L74.7562383 228 73.3285039 228zM83.0091406 228L83.0091406 219.051758 84.436875 219.051758 84.436875 228 83.0091406 228zM83.7230078 217.233887C83.1751563 217.233887 82.7269141 216.785645 82.7269141 216.237793 82.7269141 215.689941 83.1751563 215.241699 83.7230078 215.241699 84.2708594 215.241699 84.7191016 215.689941 84.7191016 216.237793 84.7191016 216.785645 84.2708594 217.233887 83.7230078 217.233887zM86.6800117 228L86.6800117 226.954102 91.8430977 220.379883 91.8430977 220.24707 86.6883125 220.24707 86.6883125 219.051758 93.5447578 219.051758 93.5447578 220.122559 88.4065742 226.671875 88.4065742 226.804688 93.5696602 226.804688 93.5696602 228 86.6800117 228zM99.0999063 220.155762C97.6721719 220.155762 96.6760781 221.20166 96.568168 222.787109L101.498832 222.787109C101.465629 221.20166 100.51934 220.155762 99.0999063 220.155762zM101.457328 225.684082L102.885063 225.684082C102.453422 227.219727 101.075492 228.157715 99.1165078 228.157715 96.6345742 228.157715 95.0823281 226.364746 95.0823281 223.53418 95.0823281 220.720215 96.6594766 218.894043 99.1165078 218.894043 101.532035 218.894043 103.001273 220.612305 103.001273 223.393066L103.001273 223.940918 96.568168 223.940918 96.568168 224.007324C96.642875 225.775391 97.630668 226.895996 99.1497109 226.895996 100.30352 226.895996 101.083793 226.472656 101.457328 225.684082zM109.529539 228L109.529539 219.051758 110.957273 219.051758 110.957273 228 109.529539 228zM110.243406 217.233887C109.695555 217.233887 109.247312 216.785645 109.247312 216.237793 109.247312 215.689941 109.695555 215.241699 110.243406 215.241699 110.791258 215.241699 111.2395 215.689941 111.2395 216.237793 111.2395 216.785645 110.791258 217.233887 110.243406 217.233887zM120.812227 221.791016L119.367891 221.791016C119.135469 220.902832 118.346895 220.180664 117.060273 220.180664 115.449922 220.180664 114.437227 221.467285 114.437227 223.492676 114.437227 225.55957 115.466523 226.871094 117.060273 226.871094 118.263887 226.871094 119.102266 226.314941 119.367891 225.302246L120.812227 225.302246C120.554902 226.945801 119.218477 228.157715 117.068574 228.157715 114.561738 228.157715 112.959687 226.339844 112.959687 223.492676 112.959687 220.703613 114.553437 218.894043 117.060273 218.894043 119.235078 218.894043 120.563203 220.197266 120.812227 221.791016zM126.325871 228.157715C123.777531 228.157715 122.200383 226.397949 122.200383 223.525879 122.200383 220.645508 123.777531 218.894043 126.325871 218.894043 128.874211 218.894043 130.451359 220.645508 130.451359 223.525879 130.451359 226.397949 128.874211 228.157715 126.325871 228.157715zM126.325871 226.871094C128.01923 226.871094 128.97382 225.642578 128.97382 223.525879 128.97382 221.400879 128.01923 220.180664 126.325871 220.180664 124.632512 220.180664 123.677922 221.400879 123.677922 223.525879 123.677922 225.642578 124.632512 226.871094 126.325871 226.871094zM132.42057 228L132.42057 219.051758 133.781898 219.051758 133.781898 220.462891 133.914711 220.462891C134.362953 219.475098 135.234535 218.894043 136.604164 218.894043 138.612953 218.894043 139.733559 220.081055 139.733559 222.206055L139.733559 228 138.305824 228 138.305824 222.554688C138.305824 220.944336 137.62516 220.180664 136.197426 220.180664 134.769691 220.180664 133.848305 221.135254 133.848305 222.704102L133.848305 228 132.42057 228zM141.860484 221.500488C141.860484 220.014648 143.29652 218.894043 145.197398 218.894043 147.073375 218.894043 148.376598 219.82373 148.567516 221.292969L147.156383 221.292969C146.965465 220.579102 146.268199 220.105957 145.189098 220.105957 144.126598 220.105957 143.29652 220.645508 143.29652 221.442383 143.29652 222.056641 143.794566 222.438477 144.848766 222.695801L146.226695 223.027832C147.911754 223.43457 148.72523 224.165039 148.72523 225.45166 148.72523 227.053711 147.172984 228.157715 145.139293 228.157715 143.147105 228.157715 141.777477 227.203125 141.619762 225.717285L143.089 225.717285C143.329723 226.472656 144.04359 226.954102 145.189098 226.954102 146.392711 226.954102 147.255992 226.381348 147.255992 225.55957 147.255992 224.945312 146.791148 224.530273 145.836559 224.297852L144.300914 223.924316C142.624156 223.517578 141.860484 222.79541 141.860484 221.500488zM119.264648 195.28125C108.213867 195.28125 99.5253906 188.714844 97.9238281 179.265625L109.855469 179.265625C111.016602 183.149414 114.820312 185.711914 119.464844 185.711914 127.432617 185.711914 132.277344 178.144531 131.957031 164.891602L131.716797 164.891602C129.634766 170.537109 123.949219 174.34082 116.341797 174.34082 105.451172 174.34082 97.1630859 166.25293 97.1630859 155.282227 97.1630859 143.390625 106.532227 134.902344 119.424805 134.902344 127.75293 134.902344 134.679688 138.625977 138.683594 145.472656 141.886719 150.397461 143.52832 156.883789 143.52832 164.611328 143.52832 183.75 134.479492 195.28125 119.264648 195.28125zM119.504883 165.251953C125.510742 165.251953 130.075195 160.847656 130.075195 155.001953 130.075195 149.116211 125.470703 144.551758 119.584961 144.551758 113.65918 144.551758 108.974609 149.116211 108.974609 154.921875 108.974609 160.847656 113.499023 165.251953 119.504883 165.251953zM166.15625 195.28125C155.105469 195.28125 146.416992 188.714844 144.81543 179.265625L156.74707 179.265625C157.908203 183.149414 161.711914 185.711914 166.356445 185.711914 174.324219 185.711914 179.168945 178.144531 178.848633 164.891602L178.608398 164.891602C176.526367 170.537109 170.84082 174.34082 163.233398 174.34082 152.342773 174.34082 144.054688 166.25293 144.054688 155.282227 144.054688 143.390625 153.423828 134.902344 166.316406 134.902344 174.644531 134.902344 181.571289 138.625977 185.575195 145.472656 188.77832 150.397461 190.419922 156.883789 190.419922 164.611328 190.419922 183.75 181.371094 195.28125 166.15625 195.28125zM166.396484 165.251953C172.402344 165.251953 176.966797 160.847656 176.966797 155.001953 176.966797 149.116211 172.362305 144.551758 166.476562 144.551758 160.550781 144.551758 155.866211 149.116211 155.866211 154.921875 155.866211 160.847656 160.390625 165.251953 166.396484 165.251953zM226.305664 195.28125C213.893555 195.28125 204.964844 187.914062 204.604492 177.463867L215.775391 177.463867C216.456055 182.348633 220.780273 185.711914 226.385742 185.711914 232.711914 185.711914 237.076172 181.307617 237.076172 175.021484 237.076172 168.615234 232.711914 164.130859 226.46582 164.130859 222.101562 164.130859 218.337891 166.132812 216.335938 169.456055L205.525391 169.456055 208.368164 136.223633 245.124023 136.223633 245.124023 145.833008 217.857422 145.833008 216.536133 161.648438 216.776367 161.648438C219.138672 157.764648 223.743164 155.322266 229.628906 155.322266 240.679688 155.322266 248.607422 163.450195 248.607422 174.701172 248.607422 186.953125 239.558594 195.28125 226.305664 195.28125zM259.549805 194L259.549805 136.223633 271.041016 136.223633 271.041016 158.725586 271.28125 158.725586C273.563477 153.320312 278.248047 150.277344 284.774414 150.277344 294.303711 150.277344 299.749023 156.443359 299.749023 166.373047L299.749023 194 288.057617 194 288.057617 168.855469C288.057617 163.330078 285.334961 159.966797 280.009766 159.966797 274.484375 159.966797 271.241211 163.850586 271.241211 169.496094L271.241211 194 259.549805 194zM196.411133 194.480469C192.807617 194.480469 189.964844 191.597656 189.964844 188.03418 189.964844 184.430664 192.807617 181.587891 196.411133 181.587891 199.974609 181.587891 202.857422 184.430664 202.857422 188.03418 202.857422 191.597656 199.974609 194.480469 196.411133 194.480469zM59 151L84 165.5 59 179 34 194 34 136 59 151z"/>
    <g transform="translate(31 87)">
      <g transform="translate(277 2)">
        <path fill="#656153" fill-rule="nonzero" d="M21,7.99832845 L21,2.50167155 C21,1.67453641 20.3259836,1 19.4977394,1 L2.50226064,1 C1.67308288,1 1,1.67275196 1,2.50167155 L1,7.99832845 C1,8.82649069 1.66989891,9.5 2.49076705,9.5 L19.5090862,9.5 C20.3302756,9.5 21,8.82777745 21,7.99832845 Z M20.9595844,9.5 L20.9595844,10.0316669 C20.5508133,10.3264332 20.0498041,10.5 19.5090859,10.5 L20.2343351,10.5 L19.5090859,10.5 L19.5090859,9.5 L20.9595844,9.5 Z M20.2343351,10.5 L20.9595844,10.5 L20.2343351,10.5 Z M20.9595844,9.5 L19.5090859,9.5 L19.5090859,10.5 L2.49076705,10.5 C1.11515439,10.5 0,9.37631607 0,7.99832845 L0,2.50167155 C0,1.1200365 1.12122893,0 2.50226064,0 L19.4977394,0 C20.8796998,0 22,1.12368393 22,2.50167155 L22,7.99832845 C22,8.83607409 21.5892089,9.57764233 20.9595844,10.0316669 L20.9595844,9.5 Z"/>
        <path fill="#656153" d="M23,3.5 C23.8626136,3.7220214 24.5,4.50507154 24.5,5.43699126 C24.5,6.36891097 23.8626136,7.15196112 23,7.37398251 L23,3.5 Z"/>
        <rect width="18" height="6.5" x="2" y="2" fill="#EEE3C1" rx="1"/>
      </g>
      <path fill="#EEE3C1" d="M140.373729,11.7109375 C138.346385,11.7109375 137.145214,10.0703125 137.145214,7.26367188 C137.145214,4.46875 138.363964,2.83398438 140.373729,2.83398438 C142.377635,2.83398438 143.596385,4.46875 143.596385,7.27539062 C143.596385,10.0703125 142.395214,11.7109375 140.373729,11.7109375 Z M140.373729,10.4570312 C141.445995,10.4570312 142.067089,9.34375 142.067089,7.26367188 C142.067089,5.1953125 141.434276,4.09375 140.373729,4.09375 C139.313182,4.09375 138.67451,5.20117188 138.67451,7.26367188 C138.67451,9.34375 139.301464,10.4570312 140.373729,10.4570312 Z M146.332714,10.6035156 C145.781932,10.6035156 145.395214,10.2050781 145.395214,9.67773438 C145.395214,9.14453125 145.781932,8.75195312 146.332714,8.75195312 C146.889354,8.75195312 147.270214,9.14453125 147.270214,9.67773438 C147.270214,10.2050781 146.889354,10.6035156 146.332714,10.6035156 Z M146.332714,6.20898438 C145.781932,6.20898438 145.395214,5.81640625 145.395214,5.2890625 C145.395214,4.75585938 145.781932,4.36328125 146.332714,4.36328125 C146.889354,4.36328125 147.270214,4.75585938 147.270214,5.2890625 C147.270214,5.81640625 146.889354,6.20898438 146.332714,6.20898438 Z M152.297557,11.7109375 C150.270214,11.7109375 149.069042,10.0703125 149.069042,7.26367188 C149.069042,4.46875 150.287792,2.83398438 152.297557,2.83398438 C154.301464,2.83398438 155.520214,4.46875 155.520214,7.27539062 C155.520214,10.0703125 154.319042,11.7109375 152.297557,11.7109375 Z M152.297557,10.4570312 C153.369823,10.4570312 153.990917,9.34375 153.990917,7.26367188 C153.990917,5.1953125 153.358104,4.09375 152.297557,4.09375 C151.23701,4.09375 150.598339,5.20117188 150.598339,7.26367188 C150.598339,9.34375 151.225292,10.4570312 152.297557,10.4570312 Z M160.401073,11.7050781 C159.158885,11.7050781 158.18037,11.1191406 157.61787,10.0351562 C157.225292,9.34375 157.020214,8.44140625 157.020214,7.36328125 C157.020214,4.52148438 158.291698,2.83398438 160.447948,2.83398438 C161.988964,2.83398438 163.172557,3.74804688 163.42451,5.13671875 L161.912792,5.13671875 C161.725292,4.49804688 161.162792,4.09960938 160.436229,4.09960938 C159.199901,4.09960938 158.467479,5.25390625 158.467479,7.1875 L158.567089,7.1875 C158.965526,6.38476562 159.762401,5.921875 160.758495,5.921875 C162.363964,5.921875 163.541698,7.11132812 163.541698,8.734375 C163.541698,10.4746094 162.240917,11.7050781 160.401073,11.7050781 Z M160.383495,10.4453125 C161.332714,10.4453125 162.059276,9.72460938 162.059276,8.78125 C162.059276,7.81445312 161.36201,7.12304688 160.395214,7.12304688 C159.428417,7.12304688 158.719432,7.81445312 158.719432,8.7578125 C158.719432,9.71875 159.440135,10.4453125 160.383495,10.4453125 Z"/>
      <path fill="#EEE3C1" d="M27.1444208 7.43850432L25.0225391 9.5 22.8601652 7.40531769C23.3778594 6.83143413 24.1390073 6.46891192 24.987563 6.46891192 25.8523616 6.46891192 26.626374 6.84544555 27.1444208 7.43850432zM29.3234964 5.32144245L28.2346215 6.37932931C27.4356305 5.51823504 26.2768836 4.97668394 24.987563 4.97668394 23.713648 4.97668394 22.567205 5.5053708 21.7692987 6.34859996L20.6792698 5.29269359C21.7566264 4.17975893 23.2882723 3.48445596 24.987563 3.48445596 26.7014387 3.48445596 28.2447794 4.19174563 29.3234964 5.32144245zM31.5 3.20687933L30.4118698 4.26404272C29.0538809 2.86552609 27.1260026 1.99222798 24.987563 1.99222798 22.8628921 1.99222798 20.9460798 2.85431655 19.5895579 4.23709441L18.5 3.18164431C20.1355496 1.52895605 22.4375103.5 24.987563.5 27.5505699.5 29.8629578 1.53943672 31.5 3.20687933zM12 .497385584C12 .222687111 12.2307129 0 12.5059123 0L13.9940877 0C14.2734953 0 14.5.216270149 14.5.497385584L14.5 9.00261442C14.5 9.27731289 14.2692871 9.5 13.9940877 9.5L12.5059123 9.5C12.2265047 9.5 12 9.28372985 12 9.00261442L12 .497385584zM8 3.00342274C8 2.72539004 8.23071289 2.5 8.5059123 2.5L9.9940877 2.5C10.2734953 2.5 10.5 2.73290253 10.5 3.00342274L10.5 8.99657726C10.5 9.27460996 10.2692871 9.5 9.9940877 9.5L8.5059123 9.5C8.22650465 9.5 8 9.26709747 8 8.99657726L8 3.00342274zM4 4.99769878C4 4.72282734 4.23071289 4.5 4.5059123 4.5L5.9940877 4.5C6.27349535 4.5 6.5 4.71484375 6.5 4.99769878L6.5 9.00230122C6.5 9.27717266 6.26928711 9.5 5.9940877 9.5L4.5059123 9.5C4.22650465 9.5 4 9.28515625 4 9.00230122L4 4.99769878zM0 6.99538898C0 6.7217932.230712891 6.5.505912304 6.5L1.9940877 6.5C2.27349535 6.5 2.5 6.7157526 2.5 6.99538898L2.5 9.00461102C2.5 9.2782068 2.26928711 9.5 1.9940877 9.5L.505912304 9.5C.226504654 9.5 0 9.2842474 0 9.00461102L0 6.99538898z" transform="translate(0 2)"/>
    </g>
  </g>
</svg>
