<svg xmlns="http://www.w3.org/2000/svg" viewBox="0 0 361 724">
  <g fill="none" fill-rule="evenodd">
    <path fill="#D0021B" d="M359,185.983274 L359,665.03064 C359,685.535571 356.865011,692.971155 352.855948,700.467451 C348.846885,707.963747 342.963747,713.846885 335.467451,717.855948 C327.971155,721.865011 320.535571,724 300.03064,724 L61.9693596,724 C41.4644286,724 34.0288451,721.865011 26.5325488,717.855948 C19.0362525,713.846885 13.1531153,707.963747 9.14405219,700.467451 C5.13498906,692.971155 3,685.535571 3,665.03064 L3,244 L2.5638852,244 C1.67236646,244 1.34908022,243.907174 1.0231543,243.732867 C0.697228371,243.55856 0.441439796,243.302772 0.267132704,242.976846 C0.0928256111,242.65092 4.01235366e-17,242.327634 -6.90560205e-17,241.436115 L6.90560205e-17,199.563885 C-4.01235366e-17,198.672366 0.0928256111,198.34908 0.267132704,198.023154 C0.441439796,197.697228 0.697228371,197.44144 1.0231543,197.267133 C1.34908022,197.092826 1.67236646,197 2.5638852,197 L3,197 L3,186 L2.5638852,186 C1.67236646,186 1.34908022,185.907174 1.0231543,185.732867 C0.697228371,185.55856 0.441439796,185.302772 0.267132704,184.976846 C0.0928256111,184.65092 4.01235366e-17,184.327634 -6.90560205e-17,183.436115 L6.90560205e-17,141.563885 C-4.01235366e-17,140.672366 0.0928256111,140.34908 0.267132704,140.023154 C0.441439796,139.697228 0.697228371,139.44144 1.0231543,139.267133 C1.34908022,139.092826 1.67236646,139 2.5638852,139 L3,139 L3,112 L2.5638852,112 C1.67236646,112 1.34908022,111.907174 1.0231543,111.732867 C0.697228371,111.55856 0.441439796,111.302772 0.267132704,110.976846 C0.0928256111,110.65092 4.01235366e-17,110.327634 -6.90560205e-17,109.436115 L6.90560205e-17,88.5638852 C-4.01235366e-17,87.6723665 0.0928256111,87.3490802 0.267132704,87.0231543 C0.441439796,86.6972284 0.697228371,86.4414398 1.0231543,86.2671327 C1.34908022,86.0928256 1.67236646,86 2.5638852,86 L3,86 L3,58.9693596 C3,38.4644286 5.13498906,31.0288451 9.14405219,23.5325488 C13.1531153,16.0362525 19.0362525,10.1531153 26.5325488,6.14405219 C34.0288451,2.13498906 41.4644286,1.38426201e-15 61.9693596,-2.38243271e-15 L300.03064,2.38243271e-15 C320.535571,-1.38426201e-15 327.971155,2.13498906 335.467451,6.14405219 C342.963747,10.1531153 348.846885,16.0362525 352.855948,23.5325488 C356.865011,31.0288451 359,38.4644286 359,58.9693596 L359,139.016726 C359.487053,139.050672 359.7312,139.13576 359.976846,139.267133 C360.302772,139.44144 360.55856,139.697228 360.732867,140.023154 C360.907174,140.34908 361,140.672366 361,141.563885 L361,183.436115 C361,184.327634 360.907174,184.65092 360.732867,184.976846 C360.55856,185.302772 360.302772,185.55856 359.976846,185.732867 C359.7312,185.86424 359.487053,185.949328 359,185.983274 Z M181,704 C194.030976,704 205,693.030976 205,680 C205,665.969024 194.030976,655 181,655 C166.969024,655 156,665.969024 156,680 C156,693.030976 166.969024,704 181,704 Z M181,702 C168.073593,702 158,691.926407 158,680 C158,667.073593 168.073593,657 181,657 C192.926407,657 203,667.073593 203,680 C203,691.926407 192.926407,702 181,702 Z M119.5,49 C122.537566,49 125,46.5375661 125,43.5 C125,40.4624339 122.537566,38 119.5,38 C116.462434,38 114,40.4624339 114,43.5 C114,46.5375661 116.462434,49 119.5,49 Z M181,27 C182.656854,27 184,25.6568542 184,24 C184,22.3431458 182.656854,21 181,21 C179.343146,21 178,22.3431458 178,24 C178,25.6568542 179.343146,27 181,27 Z M151.5,41 C150.119288,41 149,42.1192881 149,43.5 C149,44.8807119 150.119288,46 151.5,46 L210.5,46 C211.880712,46 213,44.8807119 213,43.5 C213,42.1192881 211.880712,41 210.5,41 L151.5,41 Z"/>
    <path fill="#0A0A0A" d="M24,81 L337,81 C338.104569,81 339,81.8954305 339,83 L339,640 C339,641.104569 338.104569,642 337,642 L24,642 C22.8954305,642 22,641.104569 22,640 L22,83 C22,81.8954305 22.8954305,81 24,81 Z"/>
    <polygon fill="#43413A" points="320 366 320 365 327 372 320 379 320 378 326 372"/>
    <path fill="#43413A" d="M221.72784,368.39209 C221.72784,366.26709 223.338191,364.739746 225.562801,364.739746 C227.712703,364.739746 229.356258,366.200684 229.356258,368.101562 C229.356258,369.34668 228.791805,370.317871 226.82452,372.42627 L223.944148,375.522461 L223.944148,375.655273 L229.555477,375.655273 L229.555477,377 L221.802547,377 L221.802547,375.970703 L225.944637,371.446777 C227.488582,369.77002 227.862117,369.122559 227.862117,368.159668 C227.862117,366.964355 226.841121,366.042969 225.521297,366.042969 C224.118465,366.042969 223.172176,366.980957 223.172176,368.39209 L223.172176,368.400391 L221.72784,368.400391 L221.72784,368.39209 Z M237.019805,377 L237.019805,374.518066 L231.184355,374.518066 L231.184355,373.156738 C232.255156,371.255859 234.156035,368.250977 236.314238,365.021973 L238.480742,365.021973 L238.480742,373.181641 L240.182402,373.181641 L240.182402,374.518066 L238.480742,374.518066 L238.480742,377 L237.019805,377 Z M232.711699,373.090332 L232.711699,373.189941 L237.028105,373.189941 L237.028105,366.408203 L236.928496,366.408203 C235.69998,368.192871 234.139434,370.666504 232.711699,373.090332 Z M246.243898,377.282227 C243.546145,377.282227 241.993898,374.991211 241.993898,371.006836 C241.993898,367.055664 243.562746,364.739746 246.243898,364.739746 C248.908449,364.739746 250.477297,367.063965 250.477297,371.031738 C250.477297,375.007812 248.933352,377.282227 246.243898,377.282227 Z M246.243898,375.979004 C248.011965,375.979004 248.974855,374.219238 248.974855,371.006836 C248.974855,367.827637 247.995363,366.05127 246.243898,366.05127 C244.492434,366.05127 243.49634,367.844238 243.49634,371.006836 C243.49634,374.210938 244.475832,375.979004 246.243898,375.979004 Z M257.18818,377 L257.18818,368.051758 L258.549508,368.051758 L258.549508,369.379883 L258.68232,369.379883 C258.947945,368.508301 259.977242,367.894043 261.164254,367.894043 C261.396676,367.894043 261.695504,367.910645 261.878121,367.935547 L261.878121,369.363281 C261.76191,369.330078 261.247262,369.280273 260.965035,369.280273 C259.603707,369.280273 258.615914,370.193359 258.615914,371.455078 L258.615914,377 L257.18818,377 Z M266.711102,369.155762 C265.283367,369.155762 264.287273,370.20166 264.179363,371.787109 L269.110027,371.787109 C269.076824,370.20166 268.130535,369.155762 266.711102,369.155762 Z M269.068523,374.684082 L270.496258,374.684082 C270.064617,376.219727 268.686688,377.157715 266.727703,377.157715 C264.24577,377.157715 262.693523,375.364746 262.693523,372.53418 C262.693523,369.720215 264.270672,367.894043 266.727703,367.894043 C269.14323,367.894043 270.612469,369.612305 270.612469,372.393066 L270.612469,372.940918 L264.179363,372.940918 L264.179363,373.007324 C264.25407,374.775391 265.241863,375.895996 266.760906,375.895996 C267.914715,375.895996 268.694988,375.472656 269.068523,374.684082 Z M279.985977,370.791016 L278.541641,370.791016 C278.309219,369.902832 277.520645,369.180664 276.234023,369.180664 C274.623672,369.180664 273.610977,370.467285 273.610977,372.492676 C273.610977,374.55957 274.640273,375.871094 276.234023,375.871094 C277.437637,375.871094 278.276016,375.314941 278.541641,374.302246 L279.985977,374.302246 C279.728652,375.945801 278.392227,377.157715 276.242324,377.157715 C273.735488,377.157715 272.133438,375.339844 272.133438,372.492676 C272.133438,369.703613 273.727188,367.894043 276.234023,367.894043 C278.408828,367.894043 279.736953,369.197266 279.985977,370.791016 Z M285.499621,377.157715 C282.951281,377.157715 281.374133,375.397949 281.374133,372.525879 C281.374133,369.645508 282.951281,367.894043 285.499621,367.894043 C288.047961,367.894043 289.625109,369.645508 289.625109,372.525879 C289.625109,375.397949 288.047961,377.157715 285.499621,377.157715 Z M285.499621,375.871094 C287.19298,375.871094 288.14757,374.642578 288.14757,372.525879 C288.14757,370.400879 287.19298,369.180664 285.499621,369.180664 C283.806262,369.180664 282.851672,370.400879 282.851672,372.525879 C282.851672,374.642578 283.806262,375.871094 285.499621,375.871094 Z M291.59432,377 L291.59432,368.051758 L292.955648,368.051758 L292.955648,369.379883 L293.088461,369.379883 C293.354086,368.508301 294.383383,367.894043 295.570395,367.894043 C295.802816,367.894043 296.101645,367.910645 296.284262,367.935547 L296.284262,369.363281 C296.168051,369.330078 295.653402,369.280273 295.371176,369.280273 C294.009848,369.280273 293.022055,370.193359 293.022055,371.455078 L293.022055,377 L291.59432,377 Z M300.859918,377.157715 C298.568902,377.157715 297.099664,375.339844 297.099664,372.525879 C297.099664,369.720215 298.585504,367.894043 300.859918,367.894043 C302.105035,367.894043 303.159234,368.483398 303.665582,369.462891 L303.790094,369.462891 L303.790094,364.499023 L305.217828,364.499023 L305.217828,377 L303.8565,377 L303.8565,375.572266 L303.723688,375.572266 C303.159234,376.568359 302.096734,377.157715 300.859918,377.157715 Z M301.191949,369.180664 C299.564996,369.180664 298.577203,370.442383 298.577203,372.525879 C298.577203,374.617676 299.556695,375.871094 301.191949,375.871094 C302.818902,375.871094 303.823297,374.592773 303.823297,372.525879 C303.823297,370.475586 302.810602,369.180664 301.191949,369.180664 Z M307.51077,370.500488 C307.51077,369.014648 308.946805,367.894043 310.847684,367.894043 C312.72366,367.894043 314.026883,368.82373 314.217801,370.292969 L312.806668,370.292969 C312.61575,369.579102 311.918484,369.105957 310.839383,369.105957 C309.776883,369.105957 308.946805,369.645508 308.946805,370.442383 C308.946805,371.056641 309.444852,371.438477 310.499051,371.695801 L311.87698,372.027832 C313.562039,372.43457 314.375516,373.165039 314.375516,374.45166 C314.375516,376.053711 312.82327,377.157715 310.789578,377.157715 C308.797391,377.157715 307.427762,376.203125 307.270047,374.717285 L308.739285,374.717285 C308.980008,375.472656 309.693875,375.954102 310.839383,375.954102 C312.042996,375.954102 312.906277,375.381348 312.906277,374.55957 C312.906277,373.945312 312.441434,373.530273 311.486844,373.297852 L309.951199,372.924316 C308.274441,372.517578 307.51077,371.79541 307.51077,370.500488 Z"/>
    <path fill="#D0021B" fill-rule="nonzero" d="M279 571L279 617 325 617 325 571 279 571zM277 569L327 569 327 619 277 619 277 569zM180.5 569C166.692881 569 155.5 580.192881 155.5 594 155.5 607.807119 166.692881 619 180.5 619 194.307119 619 205.5 607.807119 205.5 594 205.5 580.192881 194.307119 569 180.5 569zM180.5 567C195.411688 567 207.5 579.088312 207.5 594 207.5 608.911688 195.411688 621 180.5 621 165.588312 621 153.5 608.911688 153.5 594 153.5 579.088312 165.588312 567 180.5 567z"/>
    <path fill="#D0021B" d="M181.544434 604L181.544434 600.760742 170.797363 600.760742 170.797363 595.447754C172.75 591.633301 174.929688 587.955078 178.729004 582.157715L187.599121 582.157715 187.599121 595.841309 190.202637 595.841309 190.202637 600.760742 187.599121 600.760742 187.599121 604 181.544434 604zM176.125488 595.916992L176.125488 596.098633 181.726074 596.098633 181.726074 586.365723 181.60498 586.365723C179.379883 589.786621 177.926758 592.102539 176.125488 595.916992zM60 593L84 593 84 595 60 595 60 619 58 619 58 595 34 595 34 593 58 593 58 569 60 569 60 593z"/>
    <path fill="#EEE3C1" d="M47.921875,129.195312 C55.7617188,129.195312 60.7011719,134.222656 60.7011719,142.326172 C60.7011719,150.429688 55.7617188,155.439453 47.921875,155.439453 C40.0644531,155.439453 35.1425781,150.429688 35.1425781,142.326172 C35.1425781,134.222656 40.0820312,129.195312 47.921875,129.195312 Z M47.921875,135.136719 C44.8105469,135.136719 42.7363281,137.931641 42.7363281,142.326172 C42.7363281,146.703125 44.7929688,149.498047 47.921875,149.498047 C51.0507812,149.498047 53.1074219,146.703125 53.1074219,142.326172 C53.1074219,137.931641 51.0332031,135.136719 47.921875,135.136719 Z M63.6972656,155 L63.6972656,135.59375 L70.7285156,135.59375 L70.7285156,139.408203 L70.8691406,139.408203 C71.6074219,136.648438 73.1015625,135.3125 75.4042969,135.3125 C76.0546875,135.3125 76.6171875,135.417969 77.0917969,135.59375 L77.0917969,141.640625 C76.4765625,141.376953 75.7382812,141.236328 75,141.236328 C72.2929688,141.236328 70.9042969,142.625 70.9042969,145.332031 L70.9042969,155 L63.6972656,155 Z M88.9121094,149.550781 C90.8632812,149.550781 92.0058594,148.109375 92.0058594,145.314453 C92.0058594,142.554688 90.8457031,140.867188 88.9121094,140.867188 C86.9785156,140.867188 85.8359375,142.554688 85.8359375,145.296875 C85.8359375,148.091797 86.9609375,149.550781 88.9121094,149.550781 Z M88.6308594,162.3125 C82.7421875,162.3125 79.1914062,159.763672 78.8925781,156.160156 L85.8183594,156.160156 C86.0292969,157.091797 87.171875,157.759766 88.7890625,157.759766 C90.9335938,157.759766 91.9707031,156.652344 91.9707031,155.017578 L91.9707031,151.291016 L91.8300781,151.291016 C91.1972656,153.330078 88.9296875,154.753906 86.0292969,154.753906 C81.4941406,154.753906 78.453125,151.326172 78.453125,145.244141 C78.453125,139.003906 81.3007812,135.3125 86.1347656,135.3125 C88.9648438,135.3125 91.0742188,136.912109 91.8300781,139.091797 L91.9707031,139.091797 L91.9707031,135.59375 L99.1777344,135.59375 L99.1777344,154.841797 C99.1777344,159.464844 94.8710938,162.3125 88.6308594,162.3125 Z M110.892578,150.464844 C112.492188,150.464844 113.96875,149.568359 113.96875,148.144531 L113.96875,146.878906 L110.910156,147.089844 C109.539062,147.195312 108.765625,147.845703 108.765625,148.794922 C108.765625,149.849609 109.626953,150.464844 110.892578,150.464844 Z M108.203125,155.28125 C104.669922,155.28125 101.664062,152.855469 101.664062,149.357422 C101.664062,145.630859 104.529297,143.609375 109.714844,143.292969 L113.96875,143.029297 L113.96875,142.080078 C113.96875,140.779297 112.984375,140.076172 111.630859,140.076172 C110.154297,140.076172 109.205078,140.884766 109.099609,141.869141 L102.666016,141.869141 C102.841797,137.720703 106.357422,135.101562 112.017578,135.101562 C117.396484,135.101562 121,137.791016 121,141.728516 L121,155 L113.96875,155 L113.96875,152.398438 L113.828125,152.398438 C112.808594,154.296875 110.453125,155.28125 108.203125,155.28125 Z M124.207031,155 L124.207031,135.59375 L131.238281,135.59375 L131.238281,139.408203 L131.378906,139.408203 C132.363281,136.683594 134.384766,135.207031 137.337891,135.207031 C141.697266,135.207031 144.087891,137.914062 144.087891,142.572266 L144.087891,155 L136.880859,155 L136.880859,144.171875 C136.880859,142.220703 135.966797,141.025391 134.15625,141.025391 C132.451172,141.025391 131.414062,142.34375 131.414062,144.154297 L131.414062,155 L124.207031,155 Z M147.207031,155 L147.207031,135.59375 L154.414062,135.59375 L154.414062,155 L147.207031,155 Z M150.810547,134.521484 C148.771484,134.521484 147.224609,133.044922 147.224609,131.111328 C147.224609,129.177734 148.771484,127.701172 150.810547,127.701172 C152.849609,127.701172 154.396484,129.177734 154.396484,131.111328 C154.396484,133.044922 152.849609,134.521484 150.810547,134.521484 Z M157.287109,155 L157.287109,151.34375 L165.953125,141.078125 L165.953125,140.9375 L157.568359,140.9375 L157.568359,135.59375 L174.390625,135.59375 L174.390625,139.865234 L166.796875,149.515625 L166.796875,149.65625 L174.777344,149.65625 L174.777344,155 L157.287109,155 Z M187.230469,140.058594 C185.595703,140.058594 184.347656,141.253906 184.207031,142.923828 L190.253906,142.923828 C190.130859,141.183594 188.917969,140.058594 187.230469,140.058594 Z M190.464844,148.707031 L196.880859,148.707031 C196.283203,152.890625 192.626953,155.492188 187.300781,155.492188 C180.9375,155.492188 177.158203,151.712891 177.158203,145.402344 C177.158203,139.056641 180.972656,135.101562 187.072266,135.101562 C193.083984,135.101562 196.96875,138.933594 196.96875,144.875 L196.96875,146.826172 L184.101562,146.826172 L184.101562,147.283203 C184.101562,149.181641 185.472656,150.552734 187.40625,150.552734 C188.865234,150.552734 190.042969,149.867188 190.464844,148.707031 Z M207.021484,155 L207.021484,135.59375 L214.228516,135.59375 L214.228516,155 L207.021484,155 Z M210.625,134.521484 C208.585938,134.521484 207.039062,133.044922 207.039062,131.111328 C207.039062,129.177734 208.585938,127.701172 210.625,127.701172 C212.664062,127.701172 214.210938,129.177734 214.210938,131.111328 C214.210938,133.044922 212.664062,134.521484 210.625,134.521484 Z M236.490234,143.626953 L229.933594,143.626953 C229.792969,141.658203 228.703125,140.462891 227.15625,140.462891 C225.257812,140.462891 224.238281,142.150391 224.238281,145.279297 C224.238281,148.443359 225.240234,150.130859 227.15625,150.130859 C228.773438,150.130859 229.810547,149.005859 229.933594,147.089844 L236.490234,147.089844 C236.419922,152.345703 232.833984,155.492188 227.068359,155.492188 C220.775391,155.492188 216.943359,151.677734 216.943359,145.279297 C216.943359,138.951172 220.792969,135.101562 227.033203,135.101562 C232.675781,135.101562 236.402344,138.371094 236.490234,143.626953 Z M248.820312,155.492188 C242.492188,155.492188 238.625,151.835938 238.625,145.279297 C238.625,138.898438 242.597656,135.101562 248.820312,135.101562 C255.078125,135.101562 259.033203,138.863281 259.033203,145.279297 C259.033203,151.853516 255.166016,155.492188 248.820312,155.492188 Z M248.820312,150.341797 C250.613281,150.341797 251.720703,148.548828 251.720703,145.296875 C251.720703,142.132812 250.595703,140.251953 248.820312,140.251953 C247.0625,140.251953 245.9375,142.132812 245.9375,145.296875 C245.9375,148.548828 247.009766,150.341797 248.820312,150.341797 Z M261.748047,155 L261.748047,135.59375 L268.779297,135.59375 L268.779297,139.408203 L268.919922,139.408203 C269.904297,136.683594 271.925781,135.207031 274.878906,135.207031 C279.238281,135.207031 281.628906,137.914062 281.628906,142.572266 L281.628906,155 L274.421875,155 L274.421875,144.171875 C274.421875,142.220703 273.507812,141.025391 271.697266,141.025391 C269.992188,141.025391 268.955078,142.34375 268.955078,144.154297 L268.955078,155 L261.748047,155 Z M284.414062,141.623047 C284.414062,137.580078 287.841797,135.101562 293.501953,135.101562 C299.162109,135.101562 302.554688,137.632812 302.554688,141.869141 L296.015625,141.869141 C296.015625,140.603516 295.013672,139.8125 293.449219,139.8125 C292.148438,139.8125 291.304688,140.339844 291.304688,141.148438 C291.304688,141.746094 291.9375,142.185547 293.185547,142.414062 L297.5625,143.275391 C301.412109,144.03125 303.134766,145.683594 303.134766,148.636719 C303.134766,152.855469 299.337891,155.492188 293.660156,155.492188 C287.595703,155.492188 284.220703,152.837891 283.974609,148.707031 L290.935547,148.707031 C291.076172,149.990234 292.130859,150.78125 293.748047,150.78125 C295.154297,150.78125 295.998047,150.306641 295.998047,149.498047 C295.998047,148.882812 295.488281,148.53125 294.169922,148.285156 L290.425781,147.546875 C286.505859,146.773438 284.414062,144.699219 284.414062,141.623047 Z"/>
    <path fill="#EEE3C1" d="M22.2646484 61.28125C11.2138672 61.28125 2.52539062 54.7148438.923828125 45.265625L12.8554688 45.265625C14.0166016 49.1494141 17.8203125 51.7119141 22.4648438 51.7119141 30.4326172 51.7119141 35.2773438 44.1445312 34.9570312 30.8916016L34.7167969 30.8916016C32.6347656 36.5371094 26.9492188 40.3408203 19.3417969 40.3408203 8.45117188 40.3408203.163085938 32.2529297.163085938 21.2822266.163085938 9.390625 9.53222656.90234375 22.4248047.90234375 30.7529297.90234375 37.6796875 4.62597656 41.6835938 11.4726562 44.8867188 16.3974609 46.5283203 22.8837891 46.5283203 30.6113281 46.5283203 49.75 37.4794922 61.28125 22.2646484 61.28125zM22.5048828 31.2519531C28.5107422 31.2519531 33.0751953 26.8476562 33.0751953 21.0019531 33.0751953 15.1162109 28.4707031 10.5517578 22.5849609 10.5517578 16.6591797 10.5517578 11.9746094 15.1162109 11.9746094 20.921875 11.9746094 26.8476562 16.4990234 31.2519531 22.5048828 31.2519531zM69.15625 61.28125C58.1054688 61.28125 49.4169922 54.7148438 47.8154297 45.265625L59.7470703 45.265625C60.9082031 49.1494141 64.7119141 51.7119141 69.3564453 51.7119141 77.3242188 51.7119141 82.1689453 44.1445312 81.8486328 30.8916016L81.6083984 30.8916016C79.5263672 36.5371094 73.8408203 40.3408203 66.2333984 40.3408203 55.3427734 40.3408203 47.0546875 32.2529297 47.0546875 21.2822266 47.0546875 9.390625 56.4238281.90234375 69.3164062.90234375 77.6445312.90234375 84.5712891 4.62597656 88.5751953 11.4726562 91.7783203 16.3974609 93.4199219 22.8837891 93.4199219 30.6113281 93.4199219 49.75 84.3710938 61.28125 69.15625 61.28125zM69.3964844 31.2519531C75.4023438 31.2519531 79.9667969 26.8476562 79.9667969 21.0019531 79.9667969 15.1162109 75.3623047 10.5517578 69.4765625 10.5517578 63.5507812 10.5517578 58.8662109 15.1162109 58.8662109 20.921875 58.8662109 26.8476562 63.390625 31.2519531 69.3964844 31.2519531zM129.305664 61.28125C116.893555 61.28125 107.964844 53.9140625 107.604492 43.4638672L118.775391 43.4638672C119.456055 48.3486328 123.780273 51.7119141 129.385742 51.7119141 135.711914 51.7119141 140.076172 47.3076172 140.076172 41.0214844 140.076172 34.6152344 135.711914 30.1308594 129.46582 30.1308594 125.101562 30.1308594 121.337891 32.1328125 119.335938 35.4560547L108.525391 35.4560547 111.368164 2.22363281 148.124023 2.22363281 148.124023 11.8330078 120.857422 11.8330078 119.536133 27.6484375 119.776367 27.6484375C122.138672 23.7646484 126.743164 21.3222656 132.628906 21.3222656 143.679688 21.3222656 151.607422 29.4501953 151.607422 40.7011719 151.607422 52.953125 142.558594 61.28125 129.305664 61.28125zM162.549805 60L162.549805 2.22363281 174.041016 2.22363281 174.041016 24.7255859 174.28125 24.7255859C176.563477 19.3203125 181.248047 16.2773438 187.774414 16.2773438 197.303711 16.2773438 202.749023 22.4433594 202.749023 32.3730469L202.749023 60 191.057617 60 191.057617 34.8554688C191.057617 29.3300781 188.334961 25.9667969 183.009766 25.9667969 177.484375 25.9667969 174.241211 29.8505859 174.241211 35.4960938L174.241211 60 162.549805 60zM99.4111328 60.4804688C95.8076172 60.4804688 92.9648438 57.5976562 92.9648438 54.0341797 92.9648438 50.4306641 95.8076172 47.5878906 99.4111328 47.5878906 102.974609 47.5878906 105.857422 50.4306641 105.857422 54.0341797 105.857422 57.5976562 102.974609 60.4804688 99.4111328 60.4804688z" transform="translate(98 260)"/>
    <path fill="#EEE3C1" d="M34,262 L58,262 L58,320 L34,320 L34,262 Z M60,262 L84,262 L84,320 L60,320 L60,262 Z"/>
    <rect width="45" height="19" x="282" y="199" fill="#EEE3C1" opacity=".15" rx="3"/>
    <path fill="#EEE3C1" d="M286.540967,210.606934 L287.69624,210.606934 C287.835889,211.56543 288.749951,212.174805 290.051221,212.174805 C291.282666,212.174805 292.190381,211.508301 292.190381,210.600586 C292.190381,209.819824 291.619092,209.324707 290.355908,209.007324 L289.181592,208.702637 C287.524854,208.283691 286.807568,207.534668 286.807568,206.233398 C286.807568,204.678223 288.108838,203.624512 290.044873,203.624512 C291.815869,203.624512 293.136182,204.678223 293.231396,206.157227 L292.082471,206.157227 C291.923779,205.217773 291.149365,204.65918 290.006787,204.65918 C288.788037,204.65918 287.981885,205.268555 287.981885,206.195312 C287.981885,206.912598 288.48335,207.325195 289.746533,207.648926 L290.705029,207.902832 C292.602979,208.378906 293.364697,209.115234 293.364697,210.460938 C293.364697,212.143066 292.038037,213.21582 289.943311,213.21582 C288.000928,213.21582 286.661572,212.1875 286.540967,210.606934 Z M298.915674,203.624512 C301.518213,203.624512 303.105127,205.478027 303.105127,208.416992 C303.105127,211.343262 301.530908,213.21582 298.915674,213.21582 C296.287744,213.21582 294.707178,211.349609 294.707178,208.416992 C294.707178,205.47168 296.32583,203.624512 298.915674,203.624512 Z M298.915674,204.678223 C297.049463,204.678223 295.881494,206.125488 295.881494,208.416992 C295.881494,210.689453 297.011377,212.162109 298.915674,212.162109 C300.79458,212.162109 301.930811,210.689453 301.930811,208.416992 C301.930811,206.125488 300.788232,204.678223 298.915674,204.678223 Z M308.738623,203.624512 C311.341162,203.624512 312.928076,205.478027 312.928076,208.416992 C312.928076,211.343262 311.353857,213.21582 308.738623,213.21582 C306.110693,213.21582 304.530127,211.349609 304.530127,208.416992 C304.530127,205.47168 306.148779,203.624512 308.738623,203.624512 Z M308.738623,204.678223 C306.872412,204.678223 305.704443,206.125488 305.704443,208.416992 C305.704443,210.689453 306.834326,212.162109 308.738623,212.162109 C310.617529,212.162109 311.75376,210.689453 311.75376,208.416992 C311.75376,206.125488 310.611182,204.678223 308.738623,204.678223 Z M315.838428,213 L314.708545,213 L314.708545,203.840332 L315.819385,203.840332 L320.7896,210.96875 L320.891162,210.96875 L320.891162,203.840332 L322.021045,203.840332 L322.021045,213 L320.910205,213 L315.93999,205.896973 L315.838428,205.896973 L315.838428,213 Z" opacity=".5"/>
    <rect width="293" height="1" x="34" y="182" fill="#2C2A25" fill-rule="nonzero"/>
    <path fill="#EEE3C1" d="M36.5273438,201.021973 L40.6362305,201.021973 C44.1889648,201.021973 46.2890625,203.238281 46.2890625,207.006836 C46.2890625,210.783691 44.1972656,213 40.6362305,213 L36.5273438,213 L36.5273438,201.021973 Z M38.0214844,202.366699 L38.0214844,211.655273 L40.5366211,211.655273 C43.2094727,211.655273 44.7617188,209.945312 44.7617188,207.023438 C44.7617188,204.093262 43.1928711,202.366699 40.5366211,202.366699 L38.0214844,202.366699 Z M51.9853242,205.155762 C50.5575898,205.155762 49.5614961,206.20166 49.4535859,207.787109 L54.38425,207.787109 C54.3510469,206.20166 53.4047578,205.155762 51.9853242,205.155762 Z M54.3427461,210.684082 L55.7704805,210.684082 C55.3388398,212.219727 53.9609102,213.157715 52.0019258,213.157715 C49.5199922,213.157715 47.9677461,211.364746 47.9677461,208.53418 C47.9677461,205.720215 49.5448945,203.894043 52.0019258,203.894043 C54.4174531,203.894043 55.8866914,205.612305 55.8866914,208.393066 L55.8866914,208.940918 L49.4535859,208.940918 L49.4535859,209.007324 C49.528293,210.775391 50.5160859,211.895996 52.0351289,211.895996 C53.1889375,211.895996 53.9692109,211.472656 54.3427461,210.684082 Z M60.6117617,211.904297 C62.081,211.904297 63.1684023,210.941406 63.1684023,209.663086 L63.1684023,208.841309 L60.7611758,208.999023 C59.3998477,209.090332 58.8021914,209.563477 58.8021914,210.459961 C58.8021914,211.373047 59.5741641,211.904297 60.6117617,211.904297 Z M60.3461367,213.157715 C58.6112734,213.157715 57.3246523,212.128418 57.3246523,210.493164 C57.3246523,208.891113 58.5033633,207.969727 60.5868594,207.845215 L63.1684023,207.6875 L63.1684023,206.874023 C63.1684023,205.77002 62.4794375,205.164062 61.1430117,205.164062 C60.0722109,205.164062 59.3251406,205.570801 59.1259219,206.276367 L57.6815859,206.276367 C57.8725039,204.840332 59.2836367,203.894043 61.1928164,203.894043 C63.3759219,203.894043 64.5961367,205.014648 64.5961367,206.874023 L64.5961367,213 L63.2348086,213 L63.2348086,211.680176 L63.1019961,211.680176 C62.5209414,212.634766 61.5414492,213.157715 60.3461367,213.157715 Z M70.2757969,213.157715 C67.9847812,213.157715 66.515543,211.339844 66.515543,208.525879 C66.515543,205.720215 68.0013828,203.894043 70.2757969,203.894043 C71.5209141,203.894043 72.5751133,204.483398 73.0814609,205.462891 L73.2059727,205.462891 L73.2059727,200.499023 L74.633707,200.499023 L74.633707,213 L73.2723789,213 L73.2723789,211.572266 L73.1395664,211.572266 C72.5751133,212.568359 71.5126133,213.157715 70.2757969,213.157715 Z M70.6078281,205.180664 C68.980875,205.180664 67.993082,206.442383 67.993082,208.525879 C67.993082,210.617676 68.9725742,211.871094 70.6078281,211.871094 C72.2347812,211.871094 73.2391758,210.592773 73.2391758,208.525879 C73.2391758,206.475586 72.2264805,205.180664 70.6078281,205.180664 Z M77.2171758,213 L77.2171758,200.499023 L78.6449102,200.499023 L78.6449102,213 L77.2171758,213 Z M81.1785742,213 L81.1785742,204.051758 L82.6063086,204.051758 L82.6063086,213 L81.1785742,213 Z M81.8924414,202.233887 C81.3445898,202.233887 80.8963477,201.785645 80.8963477,201.237793 C80.8963477,200.689941 81.3445898,200.241699 81.8924414,200.241699 C82.440293,200.241699 82.8885352,200.689941 82.8885352,201.237793 C82.8885352,201.785645 82.440293,202.233887 81.8924414,202.233887 Z M85.0569648,213 L85.0569648,204.051758 L86.418293,204.051758 L86.418293,205.462891 L86.5511055,205.462891 C86.9993477,204.475098 87.8709297,203.894043 89.2405586,203.894043 C91.2493477,203.894043 92.3699531,205.081055 92.3699531,207.206055 L92.3699531,213 L90.9422187,213 L90.9422187,207.554688 C90.9422187,205.944336 90.2615547,205.180664 88.8338203,205.180664 C87.4060859,205.180664 86.4846992,206.135254 86.4846992,207.704102 L86.4846992,213 L85.0569648,213 Z M98.2737344,205.155762 C96.846,205.155762 95.8499063,206.20166 95.7419961,207.787109 L100.67266,207.787109 C100.639457,206.20166 99.693168,205.155762 98.2737344,205.155762 Z M100.631156,210.684082 L102.058891,210.684082 C101.62725,212.219727 100.24932,213.157715 98.2903359,213.157715 C95.8084023,213.157715 94.2561563,211.364746 94.2561563,208.53418 C94.2561563,205.720215 95.8333047,203.894043 98.2903359,203.894043 C100.705863,203.894043 102.175102,205.612305 102.175102,208.393066 L102.175102,208.940918 L95.7419961,208.940918 L95.7419961,209.007324 C95.8167031,210.775391 96.8044961,211.895996 98.3235391,211.895996 C99.4773477,211.895996 100.257621,211.472656 100.631156,210.684082 Z M105.323023,213.083008 C104.733668,213.083008 104.243922,212.593262 104.243922,212.003906 C104.243922,211.40625 104.733668,210.924805 105.323023,210.924805 C105.92068,210.924805 106.402125,211.40625 106.402125,212.003906 C106.402125,212.593262 105.92068,213.083008 105.323023,213.083008 Z M105.323023,206.699707 C104.733668,206.699707 104.243922,206.209961 104.243922,205.620605 C104.243922,205.022949 104.733668,204.541504 105.323023,204.541504 C105.92068,204.541504 106.402125,205.022949 106.402125,205.620605 C106.402125,206.209961 105.92068,206.699707 105.323023,206.699707 Z M113.362031,204.39209 C113.362031,202.26709 114.972383,200.739746 117.196992,200.739746 C119.346895,200.739746 120.990449,202.200684 120.990449,204.101562 C120.990449,205.34668 120.425996,206.317871 118.458711,208.42627 L115.57834,211.522461 L115.57834,211.655273 L121.189668,211.655273 L121.189668,213 L113.436738,213 L113.436738,211.970703 L117.578828,207.446777 C119.122773,205.77002 119.496309,205.122559 119.496309,204.159668 C119.496309,202.964355 118.475312,202.042969 117.155488,202.042969 C115.752656,202.042969 114.806367,202.980957 114.806367,204.39209 L114.806367,204.400391 L113.362031,204.400391 L113.362031,204.39209 Z M127.336098,210.202637 L128.821937,210.202637 C128.855141,211.207031 129.618812,211.904297 130.747719,211.904297 C132.026039,211.904297 132.748207,211.124023 132.748207,209.654785 L132.748207,201.021973 L134.242348,201.021973 L134.242348,209.663086 C134.242348,211.945801 132.922523,213.282227 130.75602,213.282227 C128.74723,213.282227 127.336098,212.037109 127.336098,210.202637 Z M144.080699,204.051758 L144.080699,213 L142.719371,213 L142.719371,211.597168 L142.586559,211.597168 C142.138316,212.593262 141.183727,213.157715 139.814098,213.157715 C137.805309,213.157715 136.75941,211.962402 136.75941,209.845703 L136.75941,204.051758 L138.187145,204.051758 L138.187145,209.49707 C138.187145,211.107422 138.784801,211.854492 140.212535,211.854492 C141.789684,211.854492 142.652965,210.916504 142.652965,209.347656 L142.652965,204.051758 L144.080699,204.051758 Z M146.58116,213 L146.58116,200.499023 L148.008895,200.499023 L148.008895,213 L146.58116,213 Z M151.273027,216.237305 C151.082109,216.237305 150.833086,216.220703 150.633867,216.1875 L150.633867,214.967285 C150.808184,215.000488 151.032305,215.008789 151.231523,215.008789 C152.053301,215.008789 152.501543,214.618652 152.875078,213.539551 L153.041094,213.008301 L149.729082,204.051758 L151.273027,204.051758 L153.730059,211.414551 L153.862871,211.414551 L156.311602,204.051758 L157.830645,204.051758 L154.336016,213.547852 C153.572344,215.623047 152.858477,216.237305 151.273027,216.237305 Z M163.910668,204.39209 C163.910668,202.26709 165.52102,200.739746 167.745629,200.739746 C169.895531,200.739746 171.539086,202.200684 171.539086,204.101562 C171.539086,205.34668 170.974633,206.317871 169.007348,208.42627 L166.126977,211.522461 L166.126977,211.655273 L171.738305,211.655273 L171.738305,213 L163.985375,213 L163.985375,211.970703 L168.127465,207.446777 C169.67141,205.77002 170.044945,205.122559 170.044945,204.159668 C170.044945,202.964355 169.023949,202.042969 167.704125,202.042969 C166.301293,202.042969 165.355004,202.980957 165.355004,204.39209 L165.355004,204.400391 L163.910668,204.400391 L163.910668,204.39209 Z M178.00732,213.282227 C175.309566,213.282227 173.75732,210.991211 173.75732,207.006836 C173.75732,203.055664 175.326168,200.739746 178.00732,200.739746 C180.671871,200.739746 182.240719,203.063965 182.240719,207.031738 C182.240719,211.007812 180.696773,213.282227 178.00732,213.282227 Z M178.00732,211.979004 C179.775387,211.979004 180.738277,210.219238 180.738277,207.006836 C180.738277,203.827637 179.758785,202.05127 178.00732,202.05127 C176.255855,202.05127 175.259762,203.844238 175.259762,207.006836 C175.259762,210.210938 176.239254,211.979004 178.00732,211.979004 Z M187.281219,213 L187.281219,202.682129 L187.148406,202.682129 L184.10202,204.890137 L184.10202,203.312988 L187.28952,201.021973 L188.775359,201.021973 L188.775359,213 L187.281219,213 Z M192.570742,213 L197.949648,202.474609 L197.949648,202.358398 L191.541445,202.358398 L191.541445,201.021973 L199.468691,201.021973 L199.468691,202.408203 L194.13959,213 L192.570742,213 Z"/>
    <rect width="293" height="1" x="34" y="235" fill="#2C2A25" fill-rule="nonzero"/>
    <rect width="293" height="1" x="34" y="346" fill="#2C2A25" fill-rule="nonzero"/>
    <rect width="293" height="1" x="34" y="399" fill="#2C2A25" fill-rule="nonzero"/>
    <rect width="293" height="1" x="34" y="452" fill="#2C2A25" fill-rule="nonzero"/>
    <path fill="#EEE3C1" d="M34.9545898 426.870605L36.465332 426.870605C36.6479492 428.124023 37.8432617 428.920898 39.5449219 428.920898 41.1552734 428.920898 42.3422852 428.049316 42.3422852 426.862305 42.3422852 425.841309 41.5952148 425.193848 39.9433594 424.778809L38.4077148 424.380371C36.2412109 423.83252 35.3032227 422.853027 35.3032227 421.151367 35.3032227 419.117676 37.0048828 417.739746 39.5366211 417.739746 41.8525391 417.739746 43.5791016 419.117676 43.7036133 421.051758L42.2011719 421.051758C41.9936523 419.823242 40.980957 419.092773 39.4868164 419.092773 37.8930664 419.092773 36.8388672 419.889648 36.8388672 421.101562 36.8388672 422.039551 37.4946289 422.579102 39.1464844 423.002441L40.3999023 423.334473C42.8818359 423.957031 43.8779297 424.919922 43.8779297 426.679688 43.8779297 428.879395 42.1430664 430.282227 39.4038086 430.282227 36.8637695 430.282227 35.1123047 428.9375 34.9545898 426.870605zM46.5029023 418.73584L47.9306367 418.73584 47.9306367 421.051758 49.9228242 421.051758 49.9228242 422.24707 47.9306367 422.24707 47.9306367 427.310547C47.9306367 428.364746 48.3290742 428.812988 49.2587617 428.812988 49.5160859 428.812988 49.6571992 428.804688 49.9228242 428.779785L49.9228242 429.983398C49.6405977 430.033203 49.3666719 430.066406 49.0844453 430.066406 47.2416719 430.066406 46.5029023 429.385742 46.5029023 427.675781L46.5029023 422.24707 45.0585664 422.24707 45.0585664 421.051758 46.5029023 421.051758 46.5029023 418.73584zM55.3617617 430.157715C52.8134219 430.157715 51.2362734 428.397949 51.2362734 425.525879 51.2362734 422.645508 52.8134219 420.894043 55.3617617 420.894043 57.9101016 420.894043 59.48725 422.645508 59.48725 425.525879 59.48725 428.397949 57.9101016 430.157715 55.3617617 430.157715zM55.3617617 428.871094C57.0551211 428.871094 58.0097109 427.642578 58.0097109 425.525879 58.0097109 423.400879 57.0551211 422.180664 55.3617617 422.180664 53.6684023 422.180664 52.7138125 423.400879 52.7138125 425.525879 52.7138125 427.642578 53.6684023 428.871094 55.3617617 428.871094zM65.8143711 420.894043C68.0970859 420.894043 69.574625 422.711914 69.574625 425.525879 69.574625 428.323242 68.0887852 430.157715 65.8143711 430.157715 64.5360508 430.157715 63.5067539 429.601562 63.0170078 428.655273L62.8841953 428.655273 62.8841953 432.988281 61.4564609 432.988281 61.4564609 421.051758 62.8177891 421.051758 62.8177891 422.545898 62.9506016 422.545898C63.5233555 421.516602 64.5941562 420.894043 65.8143711 420.894043zM65.4740391 428.871094C67.1175937 428.871094 68.0970859 427.617676 68.0970859 425.525879 68.0970859 423.434082 67.1175937 422.180664 65.4823398 422.180664 63.8636875 422.180664 62.8426914 423.467285 62.8426914 425.525879 62.8426914 427.576172 63.8636875 428.871094 65.4740391 428.871094zM78.8255469 428.904297C80.2947852 428.904297 81.3821875 427.941406 81.3821875 426.663086L81.3821875 425.841309 78.9749609 425.999023C77.6136328 426.090332 77.0159766 426.563477 77.0159766 427.459961 77.0159766 428.373047 77.7879492 428.904297 78.8255469 428.904297zM78.5599219 430.157715C76.8250586 430.157715 75.5384375 429.128418 75.5384375 427.493164 75.5384375 425.891113 76.7171484 424.969727 78.8006445 424.845215L81.3821875 424.6875 81.3821875 423.874023C81.3821875 422.77002 80.6932227 422.164062 79.3567969 422.164062 78.2859961 422.164062 77.5389258 422.570801 77.339707 423.276367L75.8953711 423.276367C76.0862891 421.840332 77.4974219 420.894043 79.4066016 420.894043 81.589707 420.894043 82.8099219 422.014648 82.8099219 423.874023L82.8099219 430 81.4485938 430 81.4485938 428.680176 81.3157813 428.680176C80.7347266 429.634766 79.7552344 430.157715 78.5599219 430.157715zM85.1775703 430L85.1775703 421.051758 86.5388984 421.051758 86.5388984 422.462891 86.6717109 422.462891C87.1199531 421.475098 87.9915352 420.894043 89.3611641 420.894043 91.3699531 420.894043 92.4905586 422.081055 92.4905586 424.206055L92.4905586 430 91.0628242 430 91.0628242 424.554688C91.0628242 422.944336 90.3821602 422.180664 88.9544258 422.180664 87.5266914 422.180664 86.6053047 423.135254 86.6053047 424.704102L86.6053047 430 85.1775703 430zM98.1370156 430.157715C95.846 430.157715 94.3767617 428.339844 94.3767617 425.525879 94.3767617 422.720215 95.8626016 420.894043 98.1370156 420.894043 99.3821328 420.894043 100.436332 421.483398 100.94268 422.462891L101.067191 422.462891 101.067191 417.499023 102.494926 417.499023 102.494926 430 101.133598 430 101.133598 428.572266 101.000785 428.572266C100.436332 429.568359 99.373832 430.157715 98.1370156 430.157715zM98.4690469 422.180664C96.8420938 422.180664 95.8543008 423.442383 95.8543008 425.525879 95.8543008 427.617676 96.833793 428.871094 98.4690469 428.871094 100.096 428.871094 101.100395 427.592773 101.100395 425.525879 101.100395 423.475586 100.087699 422.180664 98.4690469 422.180664zM111.197996 430L109.703855 430 109.703855 418.021973 116.97534 418.021973 116.97534 419.366699 111.197996 419.366699 111.197996 423.483887 116.502195 423.483887 116.502195 424.812012 111.197996 424.812012 111.197996 430zM119.010957 430L119.010957 421.051758 120.438691 421.051758 120.438691 430 119.010957 430zM119.724824 419.233887C119.176973 419.233887 118.72873 418.785645 118.72873 418.237793 118.72873 417.689941 119.176973 417.241699 119.724824 417.241699 120.272676 417.241699 120.720918 417.689941 120.720918 418.237793 120.720918 418.785645 120.272676 419.233887 119.724824 419.233887zM122.889348 430L122.889348 421.051758 124.250676 421.051758 124.250676 422.462891 124.383488 422.462891C124.83173 421.475098 125.703312 420.894043 127.072941 420.894043 129.08173 420.894043 130.202336 422.081055 130.202336 424.206055L130.202336 430 128.774602 430 128.774602 424.554688C128.774602 422.944336 128.093937 422.180664 126.666203 422.180664 125.238469 422.180664 124.317082 423.135254 124.317082 424.704102L124.317082 430 122.889348 430zM132.569984 430L132.569984 421.051758 133.997719 421.051758 133.997719 430 132.569984 430zM133.283852 419.233887C132.736 419.233887 132.287758 418.785645 132.287758 418.237793 132.287758 417.689941 132.736 417.241699 133.283852 417.241699 133.831703 417.241699 134.279945 417.689941 134.279945 418.237793 134.279945 418.785645 133.831703 419.233887 133.283852 419.233887zM136.240855 423.500488C136.240855 422.014648 137.676891 420.894043 139.57777 420.894043 141.453746 420.894043 142.756969 421.82373 142.947887 423.292969L141.536754 423.292969C141.345836 422.579102 140.64857 422.105957 139.569469 422.105957 138.506969 422.105957 137.676891 422.645508 137.676891 423.442383 137.676891 424.056641 138.174937 424.438477 139.229137 424.695801L140.607066 425.027832C142.292125 425.43457 143.105602 426.165039 143.105602 427.45166 143.105602 429.053711 141.553355 430.157715 139.519664 430.157715 137.527477 430.157715 136.157848 429.203125 136.000133 427.717285L137.469371 427.717285C137.710094 428.472656 138.423961 428.954102 139.569469 428.954102 140.773082 428.954102 141.636363 428.381348 141.636363 427.55957 141.636363 426.945312 141.17152 426.530273 140.21693 426.297852L138.681285 425.924316C137.004527 425.517578 136.240855 424.79541 136.240855 423.500488zM145.15782 430L145.15782 417.499023 146.585555 417.499023 146.585555 422.462891 146.718367 422.462891C147.166609 421.475098 148.104598 420.894043 149.474227 420.894043 151.366805 420.894043 152.562117 422.105957 152.562117 424.206055L152.562117 430 151.134383 430 151.134383 424.554688C151.134383 422.969238 150.420516 422.180664 149.067488 422.180664 147.465438 422.180664 146.585555 423.193359 146.585555 424.704102L146.585555 430 145.15782 430zM45.0898438 377L43.5957031 377 43.5957031 371.546387 37.0214844 371.546387 37.0214844 377 35.5273438 377 35.5273438 365.021973 37.0214844 365.021973 37.0214844 370.20166 43.5957031 370.20166 43.5957031 365.021973 45.0898438 365.021973 45.0898438 377zM47.7231172 377L47.7231172 368.051758 49.1508516 368.051758 49.1508516 377 47.7231172 377zM48.4369844 366.233887C47.8891328 366.233887 47.4408906 365.785645 47.4408906 365.237793 47.4408906 364.689941 47.8891328 364.241699 48.4369844 364.241699 48.9848359 364.241699 49.4330781 364.689941 49.4330781 365.237793 49.4330781 365.785645 48.9848359 366.233887 48.4369844 366.233887zM51.3939883 370.500488C51.3939883 369.014648 52.8300234 367.894043 54.7309023 367.894043 56.6068789 367.894043 57.9101016 368.82373 58.1010195 370.292969L56.6898867 370.292969C56.4989688 369.579102 55.8017031 369.105957 54.7226016 369.105957 53.6601016 369.105957 52.8300234 369.645508 52.8300234 370.442383 52.8300234 371.056641 53.3280703 371.438477 54.3822695 371.695801L55.7601992 372.027832C57.4452578 372.43457 58.2587344 373.165039 58.2587344 374.45166 58.2587344 376.053711 56.7064883 377.157715 54.6727969 377.157715 52.6806094 377.157715 51.3109805 376.203125 51.1532656 374.717285L52.6225039 374.717285C52.8632266 375.472656 53.5770938 375.954102 54.7226016 375.954102 55.9262148 375.954102 56.7894961 375.381348 56.7894961 374.55957 56.7894961 373.945312 56.3246523 373.530273 55.3700625 373.297852L53.834418 372.924316C52.1576602 372.517578 51.3939883 371.79541 51.3939883 370.500488zM60.7425937 365.73584L62.1703281 365.73584 62.1703281 368.051758 64.1625156 368.051758 64.1625156 369.24707 62.1703281 369.24707 62.1703281 374.310547C62.1703281 375.364746 62.5687656 375.812988 63.4984531 375.812988 63.7557773 375.812988 63.8968906 375.804688 64.1625156 375.779785L64.1625156 376.983398C63.8802891 377.033203 63.6063633 377.066406 63.3241367 377.066406 61.4813633 377.066406 60.7425937 376.385742 60.7425937 374.675781L60.7425937 369.24707 59.2982578 369.24707 59.2982578 368.051758 60.7425937 368.051758 60.7425937 365.73584zM69.6014531 377.157715C67.0531133 377.157715 65.4759648 375.397949 65.4759648 372.525879 65.4759648 369.645508 67.0531133 367.894043 69.6014531 367.894043 72.149793 367.894043 73.7269414 369.645508 73.7269414 372.525879 73.7269414 375.397949 72.149793 377.157715 69.6014531 377.157715zM69.6014531 375.871094C71.2948125 375.871094 72.2494023 374.642578 72.2494023 372.525879 72.2494023 370.400879 71.2948125 369.180664 69.6014531 369.180664 67.9080938 369.180664 66.9535039 370.400879 66.9535039 372.525879 66.9535039 374.642578 67.9080938 375.871094 69.6014531 375.871094zM75.6961523 377L75.6961523 368.051758 77.0574805 368.051758 77.0574805 369.379883 77.190293 369.379883C77.455918 368.508301 78.4852148 367.894043 79.6722266 367.894043 79.9046484 367.894043 80.2034766 367.910645 80.3860938 367.935547L80.3860938 369.363281C80.2698828 369.330078 79.7552344 369.280273 79.4730078 369.280273 78.1116797 369.280273 77.1238867 370.193359 77.1238867 371.455078L77.1238867 377 75.6961523 377zM82.6624336 380.237305C82.4715156 380.237305 82.2224922 380.220703 82.0232734 380.1875L82.0232734 378.967285C82.1975898 379.000488 82.4217109 379.008789 82.6209297 379.008789 83.442707 379.008789 83.8909492 378.618652 84.2644844 377.539551L84.4305 377.008301 81.1184883 368.051758 82.6624336 368.051758 85.1194648 375.414551 85.2522773 375.414551 87.7010078 368.051758 89.2200508 368.051758 85.7254219 377.547852C84.96175 379.623047 84.2478828 380.237305 82.6624336 380.237305z"/>
    <path fill="#656153" fill-rule="nonzero" d="M329,96.9983284 L329,91.5016716 C329,90.6745364 328.325984,90 327.497739,90 L310.502261,90 C309.673083,90 309,90.672752 309,91.5016716 L309,96.9983284 C309,97.8264907 309.669899,98.5 310.490767,98.5 L327.509086,98.5 C328.330276,98.5 329,97.8277774 329,96.9983284 Z M328.959584,98.5 L328.959584,99.0316669 C328.550813,99.3264332 328.049804,99.5 327.509086,99.5 L328.234335,99.5 L327.509086,99.5 L327.509086,98.5 L328.959584,98.5 Z M328.234335,99.5 L328.959584,99.5 L328.234335,99.5 Z M328.959584,98.5 L327.509086,98.5 L327.509086,99.5 L310.490767,99.5 C309.115154,99.5 308,98.3763161 308,96.9983284 L308,91.5016716 C308,90.1200365 309.121229,89 310.502261,89 L327.497739,89 C328.8797,89 330,90.1236839 330,91.5016716 L330,96.9983284 C330,97.8360741 329.589209,98.5776423 328.959584,99.0316669 L328.959584,98.5 Z"/>
    <path fill="#656153" d="M331,92.5 C331.862614,92.7220214 332.5,93.5050715 332.5,94.4369913 C332.5,95.368911 331.862614,96.1519611 331,96.3739825 L331,92.5 Z"/>
    <rect width="18" height="6.5" x="310" y="91" fill="#EEE3C1" rx="1"/>
    <path fill="#EEE3C1" d="M171.373729 98.7109375C169.346385 98.7109375 168.145214 97.0703125 168.145214 94.2636719 168.145214 91.46875 169.363964 89.8339844 171.373729 89.8339844 173.377635 89.8339844 174.596385 91.46875 174.596385 94.2753906 174.596385 97.0703125 173.395214 98.7109375 171.373729 98.7109375zM171.373729 97.4570312C172.445995 97.4570312 173.067089 96.34375 173.067089 94.2636719 173.067089 92.1953125 172.434276 91.09375 171.373729 91.09375 170.313182 91.09375 169.67451 92.2011719 169.67451 94.2636719 169.67451 96.34375 170.301464 97.4570312 171.373729 97.4570312zM177.332714 97.6035156C176.781932 97.6035156 176.395214 97.2050781 176.395214 96.6777344 176.395214 96.1445312 176.781932 95.7519531 177.332714 95.7519531 177.889354 95.7519531 178.270214 96.1445312 178.270214 96.6777344 178.270214 97.2050781 177.889354 97.6035156 177.332714 97.6035156zM177.332714 93.2089844C176.781932 93.2089844 176.395214 92.8164062 176.395214 92.2890625 176.395214 91.7558594 176.781932 91.3632812 177.332714 91.3632812 177.889354 91.3632812 178.270214 91.7558594 178.270214 92.2890625 178.270214 92.8164062 177.889354 93.2089844 177.332714 93.2089844zM183.297557 98.7109375C181.270214 98.7109375 180.069042 97.0703125 180.069042 94.2636719 180.069042 91.46875 181.287792 89.8339844 183.297557 89.8339844 185.301464 89.8339844 186.520214 91.46875 186.520214 94.2753906 186.520214 97.0703125 185.319042 98.7109375 183.297557 98.7109375zM183.297557 97.4570312C184.369823 97.4570312 184.990917 96.34375 184.990917 94.2636719 184.990917 92.1953125 184.358104 91.09375 183.297557 91.09375 182.23701 91.09375 181.598339 92.2011719 181.598339 94.2636719 181.598339 96.34375 182.225292 97.4570312 183.297557 97.4570312zM191.401073 98.7050781C190.158885 98.7050781 189.18037 98.1191406 188.61787 97.0351562 188.225292 96.34375 188.020214 95.4414062 188.020214 94.3632812 188.020214 91.5214844 189.291698 89.8339844 191.447948 89.8339844 192.988964 89.8339844 194.172557 90.7480469 194.42451 92.1367188L192.912792 92.1367188C192.725292 91.4980469 192.162792 91.0996094 191.436229 91.0996094 190.199901 91.0996094 189.467479 92.2539062 189.467479 94.1875L189.567089 94.1875C189.965526 93.3847656 190.762401 92.921875 191.758495 92.921875 193.363964 92.921875 194.541698 94.1113281 194.541698 95.734375 194.541698 97.4746094 193.240917 98.7050781 191.401073 98.7050781zM191.383495 97.4453125C192.332714 97.4453125 193.059276 96.7246094 193.059276 95.78125 193.059276 94.8144531 192.36201 94.1230469 191.395214 94.1230469 190.428417 94.1230469 189.719432 94.8144531 189.719432 95.7578125 189.719432 96.71875 190.440135 97.4453125 191.383495 97.4453125zM58.1444208 96.4385043L56.0225391 98.5 53.8601652 96.4053177C54.3778594 95.8314341 55.1390073 95.4689119 55.987563 95.4689119 56.8523616 95.4689119 57.626374 95.8454456 58.1444208 96.4385043zM60.3234964 94.3214425L59.2346215 95.3793293C58.4356305 94.518235 57.2768836 93.9766839 55.987563 93.9766839 54.713648 93.9766839 53.567205 94.5053708 52.7692987 95.3486L51.6792698 94.2926936C52.7566264 93.1797589 54.2882723 92.484456 55.987563 92.484456 57.7014387 92.484456 59.2447794 93.1917456 60.3234964 94.3214425zM62.5 92.2068793L61.4118698 93.2640427C60.0538809 91.8655261 58.1260026 90.992228 55.987563 90.992228 53.8628921 90.992228 51.9460798 91.8543165 50.5895579 93.2370944L49.5 92.1816443C51.1355496 90.528956 53.4375103 89.5 55.987563 89.5 58.5505699 89.5 60.8629578 90.5394367 62.5 92.2068793zM43 89.4973856C43 89.2226871 43.2307129 89 43.5059123 89L44.9940877 89C45.2734953 89 45.5 89.2162701 45.5 89.4973856L45.5 98.0026144C45.5 98.2773129 45.2692871 98.5 44.9940877 98.5L43.5059123 98.5C43.2265047 98.5 43 98.2837299 43 98.0026144L43 89.4973856zM39 92.0034227C39 91.72539 39.2307129 91.5 39.5059123 91.5L40.9940877 91.5C41.2734953 91.5 41.5 91.7329025 41.5 92.0034227L41.5 97.9965773C41.5 98.27461 41.2692871 98.5 40.9940877 98.5L39.5059123 98.5C39.2265047 98.5 39 98.2670975 39 97.9965773L39 92.0034227zM35 93.9976988C35 93.7228273 35.2307129 93.5 35.5059123 93.5L36.9940877 93.5C37.2734953 93.5 37.5 93.7148438 37.5 93.9976988L37.5 98.0023012C37.5 98.2771727 37.2692871 98.5 36.9940877 98.5L35.5059123 98.5C35.2265047 98.5 35 98.2851562 35 98.0023012L35 93.9976988zM31 95.995389C31 95.7217932 31.2307129 95.5 31.5059123 95.5L32.9940877 95.5C33.2734953 95.5 33.5 95.7157526 33.5 95.995389L33.5 98.004611C33.5 98.2782068 33.2692871 98.5 32.9940877 98.5L31.5059123 98.5C31.2265047 98.5 31 98.2842474 31 98.004611L31 95.995389z"/>
  </g>
</svg>
