<svg xmlns="http://www.w3.org/2000/svg" class="title" viewBox="0 0 1112 383"><path fill-rule="evenodd" d="M65.735.24v97.525c0 3.32-.07 6.917-.207 10.79a314.246 314.246 0 0 0-.208 11.205h1.245c6.64-11.897 15.493-21.165 26.56-27.805 11.067-6.64 24.347-9.96 39.84-9.96 24.347 0 43.23 7.4 56.648 22.203 13.418 14.801 20.127 34.652 20.127 59.552V309H145V176.2c0-12.173-3.112-21.926-9.338-29.257-6.225-7.332-15.424-10.998-27.597-10.998-12.727 0-22.963 4.565-30.71 13.695-7.747 9.13-11.62 20.75-11.62 34.86V309H.58V.24h65.155Zm267.16 315.815c-17.707 0-33.753-2.974-48.14-8.923-14.387-5.948-26.698-14.179-36.935-24.692-10.237-10.513-18.122-22.894-23.655-37.142-5.533-14.249-8.3-29.673-8.3-46.273 0-16.6 2.767-32.024 8.3-46.273 5.533-14.248 13.418-26.629 23.655-37.142 10.237-10.513 22.548-18.744 36.935-24.692 14.387-5.949 30.433-8.923 48.14-8.923 17.43 0 33.338 2.974 47.725 8.922 14.387 5.949 26.63 14.18 36.728 24.693 10.098 10.513 17.914 22.894 23.447 37.142 5.533 14.249 8.3 29.673 8.3 46.273 0 16.6-2.767 32.024-8.3 46.273-5.533 14.248-13.35 26.629-23.447 37.142-10.099 10.513-22.341 18.744-36.728 24.692-14.387 5.949-30.295 8.923-47.725 8.923Zm-.415-47.31c16.323 0 28.842-6.432 37.558-19.298 8.715-12.865 13.072-29.672 13.072-50.422 0-21.027-4.357-38.042-13.072-51.045-8.716-13.003-21.235-19.505-37.558-19.505-16.6 0-29.188 6.502-37.765 19.505-8.577 13.003-12.865 30.018-12.865 51.045 0 20.75 4.288 37.557 12.865 50.422 8.577 12.866 21.165 19.298 37.765 19.298ZM600.47 309v-31.54h-1.245c-8.023 13.003-17.292 22.548-27.805 28.635-10.513 6.087-23.378 9.13-38.595 9.13-25.177 0-44.405-7.4-57.685-22.203-13.28-14.801-19.92-34.375-19.92-58.722V88.22h65.155v133.63c0 12.45 2.974 21.995 8.923 28.635 5.948 6.64 14.732 9.96 26.352 9.96 13.28 0 23.655-4.427 31.125-13.28 7.47-8.853 11.205-20.197 11.205-34.03V88.22h64.325V309H600.47Zm131.66-181.355h1.245c7.193-15.493 15.77-26.56 25.73-33.2 9.96-6.64 21.857-9.96 35.69-9.96 6.64 0 11.205.553 13.695 1.66V143h-1.66c-4.703-.83-9.268-1.245-13.695-1.245-17.707-.277-31.886 5.05-42.538 15.977-10.651 10.929-15.977 27.183-15.977 48.763V309h-65.155V88.22h62.665v39.425ZM814.445.24h65.57V309h-65.57V.24ZM951.73 382.87h-7.47a555.2 555.2 0 0 1-14.525-.207c-5.257-.139-10.098-.277-14.525-.416-4.427-.138-6.778-.207-7.055-.207v-51.045h3.32c.277 0 1.452.07 3.528.207 2.075.139 4.357.208 6.847.208h10.79c19.643 0 30.157-7.47 31.54-22.41 0-3.873-.968-9.752-2.905-17.637-1.937-7.886-4.842-16.808-8.715-26.768L884.085 88.22h68.475l28.22 84.66c2.49 7.47 4.842 15.7 7.055 24.692s4.15 17.361 5.81 25.108c1.937 9.13 3.735 18.122 5.395 26.975h.83a974.87 974.87 0 0 1 6.225-27.39l6.225-24.9c2.213-8.853 4.565-17.015 7.055-24.485l26.975-84.66h64.74l-78.85 226.175c-4.427 12.727-9.13 23.447-14.11 32.163-4.98 8.715-10.652 15.77-17.015 21.165-6.363 5.395-13.557 9.268-21.58 11.62-8.023 2.351-17.292 3.527-27.805 3.527Z"/></svg>