<svg xmlns="http://www.w3.org/2000/svg" viewBox="0 0 833 654"><g fill="none" fill-rule="evenodd"><path fill="#EEE3C1" d="M41.554 411.328v61.805c0 2.104-.044 4.383-.132 6.838a199.149 199.149 0 0 0-.131 7.101h.789c4.208-7.54 9.819-13.413 16.832-17.621 7.013-4.208 15.43-6.312 25.248-6.312 15.43 0 27.396 4.69 35.9 14.07 8.503 9.38 12.755 21.96 12.755 37.741V607H91.787v-84.16c0-7.715-1.972-13.895-5.918-18.542-3.945-4.646-9.774-6.969-17.489-6.969-8.065 0-14.553 2.893-19.462 8.679-4.91 5.786-7.364 13.15-7.364 22.092V607H.263V411.328h41.291zm170.152 200.143c-11.221 0-21.39-1.885-30.508-5.654-9.117-3.77-16.92-8.986-23.407-15.649-6.487-6.663-11.484-14.509-14.991-23.538-3.507-9.03-5.26-18.805-5.26-29.325s1.753-20.295 5.26-29.324c3.507-9.03 8.504-16.876 14.991-23.539s14.29-11.879 23.407-15.649c9.117-3.77 19.287-5.654 30.508-5.654 11.046 0 21.128 1.885 30.245 5.654 9.117 3.77 16.876 8.986 23.275 15.649 6.4 6.663 11.353 14.509 14.86 23.538 3.507 9.03 5.26 18.805 5.26 29.325s-1.753 20.295-5.26 29.325c-3.507 9.03-8.46 16.875-14.86 23.538-6.4 6.663-14.158 11.879-23.275 15.649-9.117 3.77-19.199 5.654-30.245 5.654zm-.263-29.982c10.345 0 18.278-4.076 23.801-12.23 5.524-8.153 8.285-18.804 8.285-31.954 0-13.325-2.761-24.108-8.285-32.349-5.523-8.24-13.456-12.361-23.801-12.361-10.52 0-18.498 4.12-23.933 12.361-5.435 8.24-8.153 19.024-8.153 32.349 0 13.15 2.718 23.801 8.153 31.955 5.435 8.153 13.413 12.229 23.933 12.229zM381.121 607v-19.988h-.789c-5.085 8.24-10.958 14.29-17.621 18.147-6.663 3.857-14.816 5.786-24.459 5.786-15.955 0-28.141-4.69-36.557-14.07-8.416-9.38-12.624-21.786-12.624-37.215v-92.576h41.291v84.686c0 7.89 1.885 13.939 5.654 18.147 3.77 4.208 9.337 6.312 16.701 6.312 8.416 0 14.991-2.805 19.725-8.416 4.734-5.61 7.101-12.8 7.101-21.566v-79.163h40.765V607h-39.187zm84.252-114.931h.789c4.559-9.819 9.994-16.832 16.306-21.04 6.312-4.208 13.851-6.312 22.618-6.312 4.208 0 7.101.35 8.679 1.052V501.8h-1.052c-2.98-.526-5.874-.789-8.679-.789-11.221-.175-20.207 3.2-26.957 10.125-6.75 6.926-10.126 17.227-10.126 30.903V607H425.66V467.084h39.713v24.985zm51.643-80.741h41.554V607h-41.554V411.328zm86.677 242.486h-4.734c-2.805 0-5.874-.044-9.205-.131-3.331-.088-6.4-.176-9.205-.264a520.963 520.963 0 0 0-4.471-.131v-32.349h2.104c.175 0 .92.044 2.236.132a65.61 65.61 0 0 0 4.339.131h6.838c12.449 0 19.111-4.734 19.988-14.202 0-2.455-.614-6.18-1.841-11.178-1.227-4.997-3.068-10.651-5.523-16.963l-43.395-111.775h43.395l17.884 53.652c1.578 4.734 3.068 9.95 4.471 15.649a542.136 542.136 0 0 1 3.682 15.911 736.532 736.532 0 0 1 3.419 17.095h.526a617.788 617.788 0 0 1 3.945-17.358l3.945-15.78c1.403-5.61 2.893-10.783 4.471-15.517l17.095-53.652h41.028l-49.97 143.335c-2.805 8.065-5.786 14.86-8.942 20.383-3.156 5.523-6.75 9.993-10.783 13.413a37.018 37.018 0 0 1-13.676 7.363c-5.085 1.49-10.958 2.236-17.621 2.236zM517.372 396v-19.988h-.789c-5.085 8.24-10.958 14.29-17.621 18.147-6.663 3.857-14.816 5.786-24.459 5.786-15.955 0-28.141-4.69-36.557-14.07-8.416-9.38-12.624-21.786-12.624-37.215v-92.576h41.291v84.686c0 7.89 1.885 13.939 5.654 18.147 3.77 4.208 9.337 6.312 16.701 6.312 8.416 0 14.991-2.805 19.725-8.416 4.734-5.61 7.101-12.8 7.101-21.566v-79.163h40.765V396h-39.187zm109.662 4.471c-10.17 0-19.287-1.14-27.352-3.419-8.065-2.28-14.947-5.523-20.645-9.731-5.699-4.208-10.17-9.249-13.413-15.123-3.244-5.873-5.129-12.317-5.655-19.33h38.924c1.227 6.663 4.252 11.747 9.073 15.254 4.822 3.507 11.266 5.26 19.331 5.26 7.364 0 13.062-1.403 17.095-4.208 4.033-2.805 6.049-6.75 6.049-11.835 0-3.156-.964-5.698-2.893-7.627-1.929-1.929-4.559-3.507-7.89-4.734-3.331-1.227-7.145-2.235-11.44-3.024-4.296-.79-8.899-1.622-13.808-2.499a283.098 283.098 0 0 1-18.41-4.208c-5.961-1.578-11.309-3.945-16.043-7.101s-8.547-7.276-11.44-12.361c-2.894-5.085-4.34-11.747-4.34-19.988 0-7.189 1.534-13.5 4.602-18.936 3.069-5.435 7.233-9.994 12.493-13.676 5.26-3.682 11.484-6.443 18.673-8.285 7.189-1.84 14.903-2.761 23.144-2.761 19.462 0 34.19 3.813 44.184 11.44 9.994 7.628 15.955 17.578 17.884 29.851h-38.398c-2.63-9.994-10.52-14.991-23.67-14.991-6.312 0-11.353 1.227-15.123 3.682-3.77 2.455-5.654 5.961-5.654 10.52 0 2.63.877 4.778 2.63 6.443 1.753 1.666 4.208 3.025 7.364 4.077 3.156 1.052 6.838 1.929 11.046 2.63 4.208.701 8.679 1.49 13.413 2.367a208.572 208.572 0 0 1 18.936 4.077c6.312 1.665 12.01 4.164 17.095 7.495 5.085 3.331 9.249 7.758 12.492 13.281 3.244 5.524 4.866 12.668 4.866 21.435 0 7.54-1.578 14.202-4.734 19.988-3.156 5.786-7.54 10.608-13.15 14.465-5.61 3.857-12.273 6.75-19.988 8.679-7.715 1.929-16.13 2.893-25.248 2.893zm136.962-.263c-11.397 0-21.654-1.885-30.771-5.655-9.117-3.77-16.876-8.985-23.276-15.648-6.4-6.663-11.308-14.465-14.727-23.407-3.42-8.942-5.129-18.673-5.129-29.193 0-10.52 1.753-20.295 5.26-29.325 3.507-9.03 8.416-16.875 14.728-23.538 6.312-6.663 13.851-11.879 22.618-15.649 8.767-3.77 18.498-5.654 29.193-5.654 9.994 0 18.98 1.578 26.957 4.734 7.978 3.156 15.035 7.54 21.172 13.15 7.89 7.715 13.676 17.27 17.358 28.667 3.682 11.397 5.435 24.02 5.26 37.872H730.595c1.403 10.52 4.91 18.76 10.52 24.722 5.61 5.961 13.413 8.942 23.407 8.942 6.487 0 11.791-1.183 15.911-3.55 4.12-2.368 7.32-5.743 9.6-10.126h39.976c-1.753 6.137-4.515 11.879-8.284 17.226-3.77 5.348-8.416 9.994-13.94 13.94-5.523 3.945-11.966 7.013-19.33 9.204-7.364 2.192-15.517 3.288-24.459 3.288zm-2.104-118.876c-9.468 0-16.657 2.805-21.566 8.416-4.91 5.61-8.065 13.238-9.468 22.881h59.701c-.701-9.819-3.594-17.49-8.679-23.013-5.085-5.523-11.747-8.284-19.988-8.284z"/><path fill="#D0021B" d="M139.523 256.084h21.04v-44.71h40.502v44.71h27.352v26.3h-27.352v69.432c0 5.26 1.359 8.81 4.077 10.651 2.717 1.842 6.53 2.762 11.44 2.762 1.403 0 2.98-.044 4.734-.131a64.41 64.41 0 0 0 4.734-.395h2.104v30.771c-2.28.35-5.435.789-9.468 1.315-4.033.526-8.854.789-14.465.789-6.487 0-12.405-.57-17.752-1.71-5.348-1.14-9.95-3.155-13.808-6.048-3.857-2.894-6.838-6.663-8.942-11.31-2.104-4.646-3.156-10.563-3.156-17.752v-78.374h-21.04v-26.3zm159.051 144.387c-11.221 0-21.39-1.885-30.508-5.654-9.117-3.77-16.92-8.986-23.407-15.649-6.487-6.663-11.484-14.509-14.991-23.538-3.507-9.03-5.26-18.805-5.26-29.325s1.753-20.295 5.26-29.325c3.507-9.03 8.504-16.875 14.991-23.538s14.29-11.879 23.407-15.649c9.117-3.77 19.287-5.654 30.508-5.654 11.046 0 21.128 1.885 30.245 5.654 9.117 3.77 16.876 8.986 23.275 15.649 6.4 6.663 11.353 14.509 14.86 23.538 3.507 9.03 5.26 18.805 5.26 29.325s-1.753 20.295-5.26 29.325c-3.507 9.03-8.46 16.875-14.86 23.538-6.4 6.663-14.158 11.879-23.275 15.649-9.117 3.77-19.199 5.654-30.245 5.654zm-.263-29.982c10.345 0 18.278-4.076 23.802-12.23 5.523-8.153 8.284-18.804 8.284-31.954 0-13.325-2.761-24.108-8.284-32.349-5.524-8.24-13.457-12.361-23.802-12.361-10.52 0-18.498 4.12-23.933 12.361-5.435 8.24-8.153 19.024-8.153 32.349 0 13.15 2.718 23.801 8.153 31.954 5.435 8.154 13.413 12.23 23.933 12.23zM109.967.328v61.805c0 2.104-.044 4.383-.132 6.838a199.15 199.15 0 0 0-.131 7.101h.789c4.208-7.54 9.819-13.413 16.832-17.621 7.013-4.208 15.43-6.312 25.248-6.312 15.43 0 27.396 4.69 35.9 14.07 8.503 9.38 12.755 21.96 12.755 37.741V196H160.2v-84.16c0-7.715-1.972-13.895-5.917-18.541-3.946-4.647-9.775-6.97-17.49-6.97-8.065 0-14.553 2.893-19.462 8.679-4.91 5.786-7.364 13.15-7.364 22.092V196H68.676V.328h41.291zm169.152 200.143c-11.221 0-21.39-1.885-30.508-5.655-9.117-3.77-16.92-8.985-23.407-15.648-6.487-6.663-11.484-14.509-14.991-23.538-3.507-9.03-5.26-18.805-5.26-29.325s1.753-20.295 5.26-29.325c3.507-9.03 8.504-16.875 14.991-23.538s14.29-11.879 23.407-15.648c9.117-3.77 19.287-5.655 30.508-5.655 11.046 0 21.128 1.885 30.245 5.654 9.117 3.77 16.876 8.986 23.276 15.649 6.4 6.663 11.352 14.509 14.859 23.539 3.507 9.03 5.26 18.804 5.26 29.324 0 10.52-1.753 20.295-5.26 29.325-3.507 9.03-8.46 16.875-14.86 23.538-6.4 6.663-14.158 11.879-23.275 15.648-9.117 3.77-19.199 5.655-30.245 5.655zm-.263-29.982c10.345 0 18.278-4.076 23.802-12.23 5.523-8.153 8.284-18.804 8.284-31.954 0-13.325-2.761-24.108-8.284-32.349-5.524-8.24-13.457-12.361-23.802-12.361-10.52 0-18.498 4.12-23.933 12.361-5.435 8.24-8.153 19.024-8.153 32.349 0 13.15 2.718 23.801 8.153 31.954 5.435 8.154 13.413 12.23 23.933 12.23zm59.585-114.405h42.08l14.728 54.441c1.052 4.208 2.06 8.81 3.024 13.807.965 4.998 1.885 9.688 2.762 14.071a411.125 411.125 0 0 1 2.367 15.517h.526a406.128 406.128 0 0 0 2.893-15.517c.877-4.559 1.797-9.38 2.761-14.465.965-5.085 2.06-9.731 3.288-13.939l14.202-53.915h34.979l14.728 53.915c1.227 4.208 2.367 8.854 3.419 13.939 1.052 5.085 2.016 9.906 2.893 14.465.877 5.26 1.841 10.52 2.893 15.78h.526a559.084 559.084 0 0 1 2.367-15.517c.877-4.383 1.797-9.117 2.762-14.202.964-5.085 2.06-9.731 3.287-13.939l14.991-54.441h40.765L507.287 196h-38.924l-14.728-57.071c-1.052-4.033-2.104-8.504-3.156-13.413-1.052-4.91-2.016-9.556-2.893-13.939a2817.747 2817.747 0 0 1-2.63-15.517h-.526a2391.538 2391.538 0 0 1-3.156 15.517c-.877 4.383-1.841 9.03-2.893 13.939-1.052 4.91-2.104 9.38-3.156 13.413L419.971 196h-38.398L338.441 56.084z"/></g></svg>