<svg xmlns="http://www.w3.org/2000/svg" viewBox="0 0 361 724">
  <g fill="none" fill-rule="evenodd">
    <path fill="#EEE3C1" d="M359,185.983274 L359,665.03064 C359,685.535571 356.865011,692.971155 352.855948,700.467451 C348.846885,707.963747 342.963747,713.846885 335.467451,717.855948 C327.971155,721.865011 320.535571,724 300.03064,724 L61.9693596,724 C41.4644286,724 34.0288451,721.865011 26.5325488,717.855948 C19.0362525,713.846885 13.1531153,707.963747 9.14405219,700.467451 C5.13498906,692.971155 3,685.535571 3,665.03064 L3,244 L2.5638852,244 C1.67236646,244 1.34908022,243.907174 1.0231543,243.732867 C0.697228371,243.55856 0.441439796,243.302772 0.267132704,242.976846 C0.0928256111,242.65092 4.01235366e-17,242.327634 -6.90560205e-17,241.436115 L6.90560205e-17,199.563885 C-4.01235366e-17,198.672366 0.0928256111,198.34908 0.267132704,198.023154 C0.441439796,197.697228 0.697228371,197.44144 1.0231543,197.267133 C1.34908022,197.092826 1.67236646,197 2.5638852,197 L3,197 L3,186 L2.5638852,186 C1.67236646,186 1.34908022,185.907174 1.0231543,185.732867 C0.697228371,185.55856 0.441439796,185.302772 0.267132704,184.976846 C0.0928256111,184.65092 4.01235366e-17,184.327634 -6.90560205e-17,183.436115 L6.90560205e-17,141.563885 C-4.01235366e-17,140.672366 0.0928256111,140.34908 0.267132704,140.023154 C0.441439796,139.697228 0.697228371,139.44144 1.0231543,139.267133 C1.34908022,139.092826 1.67236646,139 2.5638852,139 L3,139 L3,112 L2.5638852,112 C1.67236646,112 1.34908022,111.907174 1.0231543,111.732867 C0.697228371,111.55856 0.441439796,111.302772 0.267132704,110.976846 C0.0928256111,110.65092 4.01235366e-17,110.327634 -6.90560205e-17,109.436115 L6.90560205e-17,88.5638852 C-4.01235366e-17,87.6723665 0.0928256111,87.3490802 0.267132704,87.0231543 C0.441439796,86.6972284 0.697228371,86.4414398 1.0231543,86.2671327 C1.34908022,86.0928256 1.67236646,86 2.5638852,86 L3,86 L3,58.9693596 C3,38.4644286 5.13498906,31.0288451 9.14405219,23.5325488 C13.1531153,16.0362525 19.0362525,10.1531153 26.5325488,6.14405219 C34.0288451,2.13498906 41.4644286,1.38426201e-15 61.9693596,-2.38243271e-15 L300.03064,2.38243271e-15 C320.535571,-1.38426201e-15 327.971155,2.13498906 335.467451,6.14405219 C342.963747,10.1531153 348.846885,16.0362525 352.855948,23.5325488 C356.865011,31.0288451 359,38.4644286 359,58.9693596 L359,139.016726 C359.487053,139.050672 359.7312,139.13576 359.976846,139.267133 C360.302772,139.44144 360.55856,139.697228 360.732867,140.023154 C360.907174,140.34908 361,140.672366 361,141.563885 L361,183.436115 C361,184.327634 360.907174,184.65092 360.732867,184.976846 C360.55856,185.302772 360.302772,185.55856 359.976846,185.732867 C359.7312,185.86424 359.487053,185.949328 359,185.983274 Z M181,704 C194.030976,704 205,693.030976 205,680 C205,665.969024 194.030976,655 181,655 C166.969024,655 156,665.969024 156,680 C156,693.030976 166.969024,704 181,704 Z M181,702 C168.073593,702 158,691.926407 158,680 C158,667.073593 168.073593,657 181,657 C192.926407,657 203,667.073593 203,680 C203,691.926407 192.926407,702 181,702 Z M119.5,49 C122.537566,49 125,46.5375661 125,43.5 C125,40.4624339 122.537566,38 119.5,38 C116.462434,38 114,40.4624339 114,43.5 C114,46.5375661 116.462434,49 119.5,49 Z M181,27 C182.656854,27 184,25.6568542 184,24 C184,22.3431458 182.656854,21 181,21 C179.343146,21 178,22.3431458 178,24 C178,25.6568542 179.343146,27 181,27 Z M151.5,41 C150.119288,41 149,42.1192881 149,43.5 C149,44.8807119 150.119288,46 151.5,46 L210.5,46 C211.880712,46 213,44.8807119 213,43.5 C213,42.1192881 211.880712,41 210.5,41 L151.5,41 Z"/>
    <rect width="317" height="561" x="22" y="81" fill="#0A0A0A" rx="2"/>
    <path fill="#D0021B" d="M60,593 L84,593 L84,595 L60,595 L60,619 L58,619 L58,595 L34,595 L34,593 L58,593 L58,569 L60,569 L60,593 Z"/>
    <path fill="#D0021B" fill-rule="nonzero" d="M180.5,567 C195.411688,567 207.5,579.088312 207.5,594 C207.5,608.911688 195.411688,621 180.5,621 C165.588312,621 153.5,608.911688 153.5,594 C153.5,579.088312 165.588312,567 180.5,567 Z"/>
    <path fill="#000000" d="M177.646729,595.008789 L177.646729,590.709961 L180.310791,590.709961 C181.990967,590.709961 183.0354,589.847168 183.0354,588.45459 C183.0354,587.077148 181.990967,586.229492 180.235107,586.229492 C178.509521,586.229492 177.343994,587.289062 177.343994,588.817871 L171.561768,588.817871 C171.576904,584.443359 175.134033,581.552246 180.507568,581.552246 C185.669189,581.552246 188.938721,583.883301 188.938721,587.57666 C188.938721,590.210449 187.016357,592.117676 184.382568,592.586914 L184.382568,592.708008 C187.591553,593.056152 189.695557,594.948242 189.695557,597.930176 C189.695557,602.01709 186.002197,604.605469 180.204834,604.605469 C174.906982,604.605469 171.36499,601.729492 171.153076,597.279297 L177.268311,597.279297 C177.313721,598.732422 178.464111,599.625488 180.341064,599.625488 C182.036377,599.625488 183.171631,598.687012 183.171631,597.279297 C183.171631,595.856445 182.096924,595.008789 180.280518,595.008789 L177.646729,595.008789 Z"/>
    <path fill="#D0021B" fill-rule="nonzero" d="M279,571 L279,617 L325,617 L325,571 L279,571 Z M277,569 L327,569 L327,619 L277,619 L277,569 Z"/>
    <path fill="#EEE3C1" d="M47.3310547 508L45.9365234 508 45.9365234 498.852539 45.8369141 498.852539 42.0600586 507.916992 40.7983398 507.916992 37.0214844 498.852539 36.921875 498.852539 36.921875 508 35.5273438 508 35.5273438 496.021973 37.262207 496.021973 41.362793 505.933105 41.4956055 505.933105 45.5961914 496.021973 47.3310547 496.021973 47.3310547 508zM52.6869844 506.904297C54.1562227 506.904297 55.243625 505.941406 55.243625 504.663086L55.243625 503.841309 52.8363984 503.999023C51.4750703 504.090332 50.8774141 504.563477 50.8774141 505.459961 50.8774141 506.373047 51.6493867 506.904297 52.6869844 506.904297zM52.4213594 508.157715C50.6864961 508.157715 49.399875 507.128418 49.399875 505.493164 49.399875 503.891113 50.5785859 502.969727 52.662082 502.845215L55.243625 502.6875 55.243625 501.874023C55.243625 500.77002 54.5546602 500.164062 53.2182344 500.164062 52.1474336 500.164062 51.4003633 500.570801 51.2011445 501.276367L49.7568086 501.276367C49.9477266 499.840332 51.3588594 498.894043 53.2680391 498.894043 55.4511445 498.894043 56.6713594 500.014648 56.6713594 501.874023L56.6713594 508 55.3100313 508 55.3100313 506.680176 55.1772188 506.680176C54.5961641 507.634766 53.6166719 508.157715 52.4213594 508.157715zM60.6825625 502.961426L64.5673281 499.051758 66.318793 499.051758 62.4672305 502.886719 66.5761172 508 64.7582461 508 61.4047305 503.808105 60.54975 504.60498 60.54975 508 59.1220156 508 59.1220156 495.499023 60.54975 495.499023 60.54975 502.961426 60.6825625 502.961426zM71.1517734 500.155762C69.7240391 500.155762 68.7279453 501.20166 68.6200352 502.787109L73.5506992 502.787109C73.5174961 501.20166 72.571207 500.155762 71.1517734 500.155762zM73.5091953 505.684082L74.9369297 505.684082C74.5052891 507.219727 73.1273594 508.157715 71.168375 508.157715 68.6864414 508.157715 67.1341953 506.364746 67.1341953 503.53418 67.1341953 500.720215 68.7113437 498.894043 71.168375 498.894043 73.5839023 498.894043 75.0531406 500.612305 75.0531406 503.393066L75.0531406 503.940918 68.6200352 503.940918 68.6200352 504.007324C68.6947422 505.775391 69.6825352 506.895996 71.2015781 506.895996 72.3553867 506.895996 73.1356602 506.472656 73.5091953 505.684082zM82.1458594 496.73584L83.5735938 496.73584 83.5735938 499.051758 85.5657813 499.051758 85.5657813 500.24707 83.5735938 500.24707 83.5735938 505.310547C83.5735938 506.364746 83.9720313 506.812988 84.9017188 506.812988 85.159043 506.812988 85.3001563 506.804688 85.5657813 506.779785L85.5657813 507.983398C85.2835547 508.033203 85.0096289 508.066406 84.7274023 508.066406 82.8846289 508.066406 82.1458594 507.385742 82.1458594 505.675781L82.1458594 500.24707 80.7015234 500.24707 80.7015234 499.051758 82.1458594 499.051758 82.1458594 496.73584zM87.5349922 508L87.5349922 495.499023 88.9627266 495.499023 88.9627266 500.462891 89.0955391 500.462891C89.5437812 499.475098 90.4817695 498.894043 91.8513984 498.894043 93.7439766 498.894043 94.9392891 500.105957 94.9392891 502.206055L94.9392891 508 93.5115547 508 93.5115547 502.554688C93.5115547 500.969238 92.7976875 500.180664 91.4446602 500.180664 89.8426094 500.180664 88.9627266 501.193359 88.9627266 502.704102L88.9627266 508 87.5349922 508zM100.84307 500.155762C99.4153359 500.155762 98.4192422 501.20166 98.311332 502.787109L103.241996 502.787109C103.208793 501.20166 102.262504 500.155762 100.84307 500.155762zM103.200492 505.684082L104.628227 505.684082C104.196586 507.219727 102.818656 508.157715 100.859672 508.157715 98.3777383 508.157715 96.8254922 506.364746 96.8254922 503.53418 96.8254922 500.720215 98.4026406 498.894043 100.859672 498.894043 103.275199 498.894043 104.744438 500.612305 104.744438 503.393066L104.744438 503.940918 98.311332 503.940918 98.311332 504.007324C98.3860391 505.775391 99.373832 506.895996 100.892875 506.895996 102.046684 506.895996 102.826957 506.472656 103.200492 505.684082zM115.59741 498.894043C117.880125 498.894043 119.357664 500.711914 119.357664 503.525879 119.357664 506.323242 117.871824 508.157715 115.59741 508.157715 114.31909 508.157715 113.289793 507.601562 112.800047 506.655273L112.667234 506.655273 112.667234 510.988281 111.2395 510.988281 111.2395 499.051758 112.600828 499.051758 112.600828 500.545898 112.733641 500.545898C113.306395 499.516602 114.377195 498.894043 115.59741 498.894043zM115.257078 506.871094C116.900633 506.871094 117.880125 505.617676 117.880125 503.525879 117.880125 501.434082 116.900633 500.180664 115.265379 500.180664 113.646727 500.180664 112.62573 501.467285 112.62573 503.525879 112.62573 505.576172 113.646727 506.871094 115.257078 506.871094zM121.326875 508L121.326875 499.051758 122.688203 499.051758 122.688203 500.379883 122.821016 500.379883C123.086641 499.508301 124.115937 498.894043 125.302949 498.894043 125.535371 498.894043 125.834199 498.910645 126.016816 498.935547L126.016816 500.363281C125.900605 500.330078 125.385957 500.280273 125.10373 500.280273 123.742402 500.280273 122.754609 501.193359 122.754609 502.455078L122.754609 508 121.326875 508zM130.849797 500.155762C129.422062 500.155762 128.425969 501.20166 128.318059 502.787109L133.248723 502.787109C133.21552 501.20166 132.26923 500.155762 130.849797 500.155762zM133.207219 505.684082L134.634953 505.684082C134.203312 507.219727 132.825383 508.157715 130.866398 508.157715 128.384465 508.157715 126.832219 506.364746 126.832219 503.53418 126.832219 500.720215 128.409367 498.894043 130.866398 498.894043 133.281926 498.894043 134.751164 500.612305 134.751164 503.393066L134.751164 503.940918 128.318059 503.940918 128.318059 504.007324C128.392766 505.775391 129.380559 506.895996 130.899602 506.895996 132.05341 506.895996 132.833684 506.472656 133.207219 505.684082zM136.512855 501.500488C136.512855 500.014648 137.948891 498.894043 139.84977 498.894043 141.725746 498.894043 143.028969 499.82373 143.219887 501.292969L141.808754 501.292969C141.617836 500.579102 140.92057 500.105957 139.841469 500.105957 138.778969 500.105957 137.948891 500.645508 137.948891 501.442383 137.948891 502.056641 138.446937 502.438477 139.501137 502.695801L140.879066 503.027832C142.564125 503.43457 143.377602 504.165039 143.377602 505.45166 143.377602 507.053711 141.825355 508.157715 139.791664 508.157715 137.799477 508.157715 136.429848 507.203125 136.272133 505.717285L137.741371 505.717285C137.982094 506.472656 138.695961 506.954102 139.841469 506.954102 141.045082 506.954102 141.908363 506.381348 141.908363 505.55957 141.908363 504.945312 141.44352 504.530273 140.48893 504.297852L138.953285 503.924316C137.276527 503.517578 136.512855 502.79541 136.512855 501.500488zM148.916148 500.155762C147.488414 500.155762 146.49232 501.20166 146.38441 502.787109L151.315074 502.787109C151.281871 501.20166 150.335582 500.155762 148.916148 500.155762zM151.27357 505.684082L152.701305 505.684082C152.269664 507.219727 150.891734 508.157715 148.93275 508.157715 146.450816 508.157715 144.89857 506.364746 144.89857 503.53418 144.89857 500.720215 146.475719 498.894043 148.93275 498.894043 151.348277 498.894043 152.817516 500.612305 152.817516 503.393066L152.817516 503.940918 146.38441 503.940918 146.38441 504.007324C146.459117 505.775391 147.44691 506.895996 148.965953 506.895996 150.119762 506.895996 150.900035 506.472656 151.27357 505.684082zM154.786727 508L154.786727 499.051758 156.148055 499.051758 156.148055 500.462891 156.280867 500.462891C156.729109 499.475098 157.600691 498.894043 158.97032 498.894043 160.979109 498.894043 162.099715 500.081055 162.099715 502.206055L162.099715 508 160.67198 508 160.67198 502.554688C160.67198 500.944336 159.991316 500.180664 158.563582 500.180664 157.135848 500.180664 156.214461 501.135254 156.214461 502.704102L156.214461 508 154.786727 508zM165.031816 496.73584L166.459551 496.73584 166.459551 499.051758 168.451738 499.051758 168.451738 500.24707 166.459551 500.24707 166.459551 505.310547C166.459551 506.364746 166.857988 506.812988 167.787676 506.812988 168.045 506.812988 168.186113 506.804688 168.451738 506.779785L168.451738 507.983398C168.169512 508.033203 167.895586 508.066406 167.613359 508.066406 165.770586 508.066406 165.031816 507.385742 165.031816 505.675781L165.031816 500.24707 163.58748 500.24707 163.58748 499.051758 165.031816 499.051758 165.031816 496.73584zM173.093801 506.904297C174.563039 506.904297 175.650441 505.941406 175.650441 504.663086L175.650441 503.841309 173.243215 503.999023C171.881887 504.090332 171.28423 504.563477 171.28423 505.459961 171.28423 506.373047 172.056203 506.904297 173.093801 506.904297zM172.828176 508.157715C171.093312 508.157715 169.806691 507.128418 169.806691 505.493164 169.806691 503.891113 170.985402 502.969727 173.068898 502.845215L175.650441 502.6875 175.650441 501.874023C175.650441 500.77002 174.961477 500.164062 173.625051 500.164062 172.55425 500.164062 171.80718 500.570801 171.607961 501.276367L170.163625 501.276367C170.354543 499.840332 171.765676 498.894043 173.674855 498.894043 175.857961 498.894043 177.078176 500.014648 177.078176 501.874023L177.078176 508 175.716848 508 175.716848 506.680176 175.584035 506.680176C175.00298 507.634766 174.023488 508.157715 172.828176 508.157715zM180.04348 496.73584L181.471215 496.73584 181.471215 499.051758 183.463402 499.051758 183.463402 500.24707 181.471215 500.24707 181.471215 505.310547C181.471215 506.364746 181.869652 506.812988 182.79934 506.812988 183.056664 506.812988 183.197777 506.804688 183.463402 506.779785L183.463402 507.983398C183.181176 508.033203 182.90725 508.066406 182.625023 508.066406 180.78225 508.066406 180.04348 507.385742 180.04348 505.675781L180.04348 500.24707 178.599145 500.24707 178.599145 499.051758 180.04348 499.051758 180.04348 496.73584zM185.382809 508L185.382809 499.051758 186.810543 499.051758 186.810543 508 185.382809 508zM186.096676 497.233887C185.548824 497.233887 185.100582 496.785645 185.100582 496.237793 185.100582 495.689941 185.548824 495.241699 186.096676 495.241699 186.644527 495.241699 187.09277 495.689941 187.09277 496.237793 187.09277 496.785645 186.644527 497.233887 186.096676 497.233887zM192.938445 508.157715C190.390105 508.157715 188.812957 506.397949 188.812957 503.525879 188.812957 500.645508 190.390105 498.894043 192.938445 498.894043 195.486785 498.894043 197.063934 500.645508 197.063934 503.525879 197.063934 506.397949 195.486785 508.157715 192.938445 508.157715zM192.938445 506.871094C194.631805 506.871094 195.586395 505.642578 195.586395 503.525879 195.586395 501.400879 194.631805 500.180664 192.938445 500.180664 191.245086 500.180664 190.290496 501.400879 190.290496 503.525879 190.290496 505.642578 191.245086 506.871094 192.938445 506.871094zM199.033145 508L199.033145 499.051758 200.394473 499.051758 200.394473 500.462891 200.527285 500.462891C200.975527 499.475098 201.847109 498.894043 203.216738 498.894043 205.225527 498.894043 206.346133 500.081055 206.346133 502.206055L206.346133 508 204.918398 508 204.918398 502.554688C204.918398 500.944336 204.237734 500.180664 202.81 500.180664 201.382266 500.180664 200.460879 501.135254 200.460879 502.704102L200.460879 508 199.033145 508zM213.804086 508L213.804086 500.24707 212.318246 500.24707 212.318246 499.051758 213.804086 499.051758 213.804086 498.055664C213.804086 496.270996 214.70057 495.416016 216.40223 495.416016 216.750863 495.416016 217.066293 495.440918 217.365121 495.499023L217.365121 496.661133C217.190805 496.62793 216.950082 496.619629 216.692758 496.619629 215.663461 496.619629 215.23182 497.117676 215.23182 498.097168L215.23182 499.051758 217.282113 499.051758 217.282113 500.24707 215.23182 500.24707 215.23182 508 213.804086 508zM222.38902 508.157715C219.84068 508.157715 218.263531 506.397949 218.263531 503.525879 218.263531 500.645508 219.84068 498.894043 222.38902 498.894043 224.937359 498.894043 226.514508 500.645508 226.514508 503.525879 226.514508 506.397949 224.937359 508.157715 222.38902 508.157715zM222.38902 506.871094C224.082379 506.871094 225.036969 505.642578 225.036969 503.525879 225.036969 501.400879 224.082379 500.180664 222.38902 500.180664 220.69566 500.180664 219.74107 501.400879 219.74107 503.525879 219.74107 505.642578 220.69566 506.871094 222.38902 506.871094zM228.483719 508L228.483719 499.051758 229.845047 499.051758 229.845047 500.379883 229.977859 500.379883C230.243484 499.508301 231.272781 498.894043 232.459793 498.894043 232.692215 498.894043 232.991043 498.910645 233.17366 498.935547L233.17366 500.363281C233.057449 500.330078 232.542801 500.280273 232.260574 500.280273 230.899246 500.280273 229.911453 501.193359 229.911453 502.455078L229.911453 508 228.483719 508zM239.809836 496.73584L241.23757 496.73584 241.23757 499.051758 243.229758 499.051758 243.229758 500.24707 241.23757 500.24707 241.23757 505.310547C241.23757 506.364746 241.636008 506.812988 242.565695 506.812988 242.82302 506.812988 242.964133 506.804688 243.229758 506.779785L243.229758 507.983398C242.947531 508.033203 242.673605 508.066406 242.391379 508.066406 240.548605 508.066406 239.809836 507.385742 239.809836 505.675781L239.809836 500.24707 238.3655 500.24707 238.3655 499.051758 239.809836 499.051758 239.809836 496.73584zM245.198969 508L245.198969 495.499023 246.626703 495.499023 246.626703 500.462891 246.759516 500.462891C247.207758 499.475098 248.145746 498.894043 249.515375 498.894043 251.407953 498.894043 252.603266 500.105957 252.603266 502.206055L252.603266 508 251.175531 508 251.175531 502.554688C251.175531 500.969238 250.461664 500.180664 249.108637 500.180664 247.506586 500.180664 246.626703 501.193359 246.626703 502.704102L246.626703 508 245.198969 508zM258.507047 500.155762C257.079313 500.155762 256.083219 501.20166 255.975309 502.787109L260.905973 502.787109C260.87277 501.20166 259.92648 500.155762 258.507047 500.155762zM260.864469 505.684082L262.292203 505.684082C261.860563 507.219727 260.482633 508.157715 258.523648 508.157715 256.041715 508.157715 254.489469 506.364746 254.489469 503.53418 254.489469 500.720215 256.066617 498.894043 258.523648 498.894043 260.939176 498.894043 262.408414 500.612305 262.408414 503.393066L262.408414 503.940918 255.975309 503.940918 255.975309 504.007324C256.050016 505.775391 257.037809 506.895996 258.556852 506.895996 259.71066 506.895996 260.490934 506.472656 260.864469 505.684082zM42.7490234 521.791016L41.3046875 521.791016C41.0722656 520.902832 40.2836914 520.180664 38.9970703 520.180664 37.3867188 520.180664 36.3740234 521.467285 36.3740234 523.492676 36.3740234 525.55957 37.4033203 526.871094 38.9970703 526.871094 40.2006836 526.871094 41.0390625 526.314941 41.3046875 525.302246L42.7490234 525.302246C42.4916992 526.945801 41.1552734 528.157715 39.0053711 528.157715 36.4985352 528.157715 34.8964844 526.339844 34.8964844 523.492676 34.8964844 520.703613 36.4902344 518.894043 38.9970703 518.894043 41.171875 518.894043 42.5 520.197266 42.7490234 521.791016zM48.262668 528.157715C45.7143281 528.157715 44.1371797 526.397949 44.1371797 523.525879 44.1371797 520.645508 45.7143281 518.894043 48.262668 518.894043 50.8110078 518.894043 52.3881563 520.645508 52.3881563 523.525879 52.3881563 526.397949 50.8110078 528.157715 48.262668 528.157715zM48.262668 526.871094C49.9560273 526.871094 50.9106172 525.642578 50.9106172 523.525879 50.9106172 521.400879 49.9560273 520.180664 48.262668 520.180664 46.5693086 520.180664 45.6147188 521.400879 45.6147188 523.525879 45.6147188 525.642578 46.5693086 526.871094 48.262668 526.871094zM54.3573672 528L54.3573672 519.051758 55.7186953 519.051758 55.7186953 520.462891 55.8515078 520.462891C56.29975 519.475098 57.171332 518.894043 58.5409609 518.894043 60.54975 518.894043 61.6703555 520.081055 61.6703555 522.206055L61.6703555 528 60.2426211 528 60.2426211 522.554688C60.2426211 520.944336 59.561957 520.180664 58.1342227 520.180664 56.7064883 520.180664 55.7851016 521.135254 55.7851016 522.704102L55.7851016 528 54.3573672 528zM64.602457 528L64.602457 520.24707 63.1166172 520.24707 63.1166172 519.051758 64.602457 519.051758 64.602457 518.055664C64.602457 516.270996 65.4989414 515.416016 67.2006016 515.416016 67.5492344 515.416016 67.8646641 515.440918 68.1634922 515.499023L68.1634922 516.661133C67.9891758 516.62793 67.7484531 516.619629 67.4911289 516.619629 66.461832 516.619629 66.0301914 517.117676 66.0301914 518.097168L66.0301914 519.051758 68.0804844 519.051758 68.0804844 520.24707 66.0301914 520.24707 66.0301914 528 64.602457 528zM73.0794805 520.155762C71.6517461 520.155762 70.6556523 521.20166 70.5477422 522.787109L75.4784063 522.787109C75.4452031 521.20166 74.4989141 520.155762 73.0794805 520.155762zM75.4369023 525.684082L76.8646367 525.684082C76.4329961 527.219727 75.0550664 528.157715 73.096082 528.157715 70.6141484 528.157715 69.0619023 526.364746 69.0619023 523.53418 69.0619023 520.720215 70.6390508 518.894043 73.096082 518.894043 75.5116094 518.894043 76.9808477 520.612305 76.9808477 523.393066L76.9808477 523.940918 70.5477422 523.940918 70.5477422 524.007324C70.6224492 525.775391 71.6102422 526.895996 73.1292852 526.895996 74.2830938 526.895996 75.0633672 526.472656 75.4369023 525.684082zM78.9500586 528L78.9500586 519.051758 80.3113867 519.051758 80.3113867 520.379883 80.4441992 520.379883C80.7098242 519.508301 81.7391211 518.894043 82.9261328 518.894043 83.1585547 518.894043 83.4573828 518.910645 83.64 518.935547L83.64 520.363281C83.5237891 520.330078 83.0091406 520.280273 82.7269141 520.280273 81.3655859 520.280273 80.377793 521.193359 80.377793 522.455078L80.377793 528 78.9500586 528zM88.4729805 520.155762C87.0452461 520.155762 86.0491523 521.20166 85.9412422 522.787109L90.8719062 522.787109C90.8387031 521.20166 89.8924141 520.155762 88.4729805 520.155762zM90.8304023 525.684082L92.2581367 525.684082C91.8264961 527.219727 90.4485664 528.157715 88.489582 528.157715 86.0076484 528.157715 84.4554023 526.364746 84.4554023 523.53418 84.4554023 520.720215 86.0325508 518.894043 88.489582 518.894043 90.9051094 518.894043 92.3743477 520.612305 92.3743477 523.393066L92.3743477 523.940918 85.9412422 523.940918 85.9412422 524.007324C86.0159492 525.775391 87.0037422 526.895996 88.5227852 526.895996 89.6765937 526.895996 90.4568672 526.472656 90.8304023 525.684082zM94.3435586 528L94.3435586 519.051758 95.7048867 519.051758 95.7048867 520.462891 95.8376992 520.462891C96.2859414 519.475098 97.1575234 518.894043 98.5271523 518.894043 100.535941 518.894043 101.656547 520.081055 101.656547 522.206055L101.656547 528 100.228813 528 100.228813 522.554688C100.228813 520.944336 99.5481484 520.180664 98.1204141 520.180664 96.6926797 520.180664 95.771293 521.135254 95.771293 522.704102L95.771293 528 94.3435586 528zM111.395289 521.791016L109.950953 521.791016C109.718531 520.902832 108.929957 520.180664 107.643336 520.180664 106.032984 520.180664 105.020289 521.467285 105.020289 523.492676 105.020289 525.55957 106.049586 526.871094 107.643336 526.871094 108.846949 526.871094 109.685328 526.314941 109.950953 525.302246L111.395289 525.302246C111.137965 526.945801 109.801539 528.157715 107.651637 528.157715 105.144801 528.157715 103.54275 526.339844 103.54275 523.492676 103.54275 520.703613 105.1365 518.894043 107.643336 518.894043 109.818141 518.894043 111.146266 520.197266 111.395289 521.791016zM116.801023 520.155762C115.373289 520.155762 114.377195 521.20166 114.269285 522.787109L119.199949 522.787109C119.166746 521.20166 118.220457 520.155762 116.801023 520.155762zM119.158445 525.684082L120.58618 525.684082C120.154539 527.219727 118.776609 528.157715 116.817625 528.157715 114.335691 528.157715 112.783445 526.364746 112.783445 523.53418 112.783445 520.720215 114.360594 518.894043 116.817625 518.894043 119.233152 518.894043 120.702391 520.612305 120.702391 523.393066L120.702391 523.940918 114.269285 523.940918 114.269285 524.007324C114.343992 525.775391 115.331785 526.895996 116.850828 526.895996 118.004637 526.895996 118.78491 526.472656 119.158445 525.684082zM121.386719 475.321289C113.098633 475.321289 106.251953 471.557617 102.208008 464.670898 99.0048828 459.786133 97.3632812 453.259766 97.3632812 445.572266 97.3632812 426.433594 106.652344 414.902344 121.586914 414.902344 132.597656 414.902344 141.206055 421.428711 142.807617 430.87793L130.916016 430.87793C129.754883 427.03418 126.03125 424.47168 121.506836 424.47168 113.458984 424.47168 108.574219 432.199219 108.854492 445.251953L109.094727 445.251953C111.416992 439.606445 117.102539 435.842773 124.469727 435.842773 135.44043 435.842773 143.568359 443.930664 143.568359 454.901367 143.568359 466.792969 134.319336 475.321289 121.386719 475.321289zM121.266602 465.671875C127.152344 465.671875 131.796875 461.067383 131.796875 455.261719 131.796875 449.295898 127.352539 444.931641 121.306641 444.931641 115.300781 444.931641 110.736328 449.295898 110.736328 455.141602 110.736328 461.027344 115.34082 465.671875 121.266602 465.671875zM151.341797 474.480469C147.738281 474.480469 144.895508 471.597656 144.895508 468.03418 144.895508 464.430664 147.738281 461.587891 151.341797 461.587891 154.905273 461.587891 157.788086 464.430664 157.788086 468.03418 157.788086 471.597656 154.905273 474.480469 151.341797 474.480469zM160.116211 433.600586C160.116211 422.669922 168.844727 414.942383 181.457031 414.942383 193.628906 414.942383 201.99707 421.989258 201.99707 431.638672 201.99707 438.845703 197.192383 444.250977 190.826172 450.577148L176.732422 464.150391 176.732422 464.390625 202.797852 464.390625 202.797852 474 160.796875 474 160.796875 465.87207 182.578125 444.891602C188.423828 439.045898 190.225586 436.123047 190.225586 432.119141 190.225586 427.794922 186.421875 424.351562 181.056641 424.351562 175.451172 424.351562 171.327148 428.275391 171.327148 433.600586L171.327148 433.800781 160.116211 433.800781 160.116211 433.600586zM218.699219 474L218.699219 427.314453 218.458984 427.314453 203.724609 437.484375 203.724609 426.59375 218.65918 416.223633 230.670898 416.223633 230.670898 474 218.699219 474zM247.819336 474L247.819336 416.223633 259.310547 416.223633 259.310547 438.725586 259.550781 438.725586C261.833008 433.320312 266.517578 430.277344 273.043945 430.277344 282.573242 430.277344 288.018555 436.443359 288.018555 446.373047L288.018555 474 276.327148 474 276.327148 448.855469C276.327148 443.330078 273.604492 439.966797 268.279297 439.966797 262.753906 439.966797 259.510742 443.850586 259.510742 449.496094L259.510742 474 247.819336 474zM34 416L58 416 58 474 34 474 34 416zM60 416L84 416 84 474 60 474 60 416z"/>
    <rect width="293" height="1" x="34" y="552" fill="#2C2A25" fill-rule="nonzero"/>
    <rect width="289" height="1" x="38" y="392" fill="#2C2A25" fill-rule="nonzero"/>
    <rect width="289" height="1" x="38" y="252" fill="#2C2A25" fill-rule="nonzero"/>
    <rect width="293" height="1" x="34" y="112" fill="#2C2A25" fill-rule="nonzero"/>
    <path fill="#EEE3C1" d="M37.0629883 356.021973L37.0629883 363.783203C37.0629883 365.592773 38.25 366.904297 40.3251953 366.904297 42.4003906 366.904297 43.5874023 365.592773 43.5874023 363.783203L43.5874023 356.021973 45.081543 356.021973 45.081543 363.882812C45.081543 366.439453 43.296875 368.282227 40.3251953 368.282227 37.3535156 368.282227 35.5688477 366.439453 35.5688477 363.882812L35.5688477 356.021973 37.0629883 356.021973zM52.0810273 358.894043C54.3637422 358.894043 55.8412813 360.711914 55.8412813 363.525879 55.8412813 366.323242 54.3554414 368.157715 52.0810273 368.157715 50.802707 368.157715 49.7734102 367.601562 49.2836641 366.655273L49.1508516 366.655273 49.1508516 370.988281 47.7231172 370.988281 47.7231172 359.051758 49.0844453 359.051758 49.0844453 360.545898 49.2172578 360.545898C49.7900117 359.516602 50.8608125 358.894043 52.0810273 358.894043zM51.7406953 366.871094C53.38425 366.871094 54.3637422 365.617676 54.3637422 363.525879 54.3637422 361.434082 53.38425 360.180664 51.7489961 360.180664 50.1303438 360.180664 49.1093477 361.467285 49.1093477 363.525879 49.1093477 365.576172 50.1303438 366.871094 51.7406953 366.871094zM57.8935 368L57.8935 355.499023 59.3212344 355.499023 59.3212344 368 57.8935 368zM65.4989414 368.157715C62.9506016 368.157715 61.3734531 366.397949 61.3734531 363.525879 61.3734531 360.645508 62.9506016 358.894043 65.4989414 358.894043 68.0472812 358.894043 69.6244297 360.645508 69.6244297 363.525879 69.6244297 366.397949 68.0472812 368.157715 65.4989414 368.157715zM65.4989414 366.871094C67.1923008 366.871094 68.1468906 365.642578 68.1468906 363.525879 68.1468906 361.400879 67.1923008 360.180664 65.4989414 360.180664 63.805582 360.180664 62.8509922 361.400879 62.8509922 363.525879 62.8509922 365.642578 63.805582 366.871094 65.4989414 366.871094zM74.3495 366.904297C75.8187383 366.904297 76.9061406 365.941406 76.9061406 364.663086L76.9061406 363.841309 74.4989141 363.999023C73.1375859 364.090332 72.5399297 364.563477 72.5399297 365.459961 72.5399297 366.373047 73.3119023 366.904297 74.3495 366.904297zM74.083875 368.157715C72.3490117 368.157715 71.0623906 367.128418 71.0623906 365.493164 71.0623906 363.891113 72.2411016 362.969727 74.3245977 362.845215L76.9061406 362.6875 76.9061406 361.874023C76.9061406 360.77002 76.2171758 360.164062 74.88075 360.164062 73.8099492 360.164062 73.0628789 360.570801 72.8636602 361.276367L71.4193242 361.276367C71.6102422 359.840332 73.021375 358.894043 74.9305547 358.894043 77.1136602 358.894043 78.333875 360.014648 78.333875 361.874023L78.333875 368 76.9725469 368 76.9725469 366.680176 76.8397344 366.680176C76.2586797 367.634766 75.2791875 368.157715 74.083875 368.157715zM84.0135352 368.157715C81.7225195 368.157715 80.2532813 366.339844 80.2532813 363.525879 80.2532813 360.720215 81.7391211 358.894043 84.0135352 358.894043 85.2586523 358.894043 86.3128516 359.483398 86.8191992 360.462891L86.9437109 360.462891 86.9437109 355.499023 88.3714453 355.499023 88.3714453 368 87.0101172 368 87.0101172 366.572266 86.8773047 366.572266C86.3128516 367.568359 85.2503516 368.157715 84.0135352 368.157715zM84.3455664 360.180664C82.7186133 360.180664 81.7308203 361.442383 81.7308203 363.525879 81.7308203 365.617676 82.7103125 366.871094 84.3455664 366.871094 85.9725195 366.871094 86.9769141 365.592773 86.9769141 363.525879 86.9769141 361.475586 85.9642188 360.180664 84.3455664 360.180664zM95.1902383 361.500488C95.1902383 360.014648 96.6262734 358.894043 98.5271523 358.894043 100.403129 358.894043 101.706352 359.82373 101.89727 361.292969L100.486137 361.292969C100.295219 360.579102 99.5979531 360.105957 98.5188516 360.105957 97.4563516 360.105957 96.6262734 360.645508 96.6262734 361.442383 96.6262734 362.056641 97.1243203 362.438477 98.1785195 362.695801L99.5564492 363.027832C101.241508 363.43457 102.054984 364.165039 102.054984 365.45166 102.054984 367.053711 100.502738 368.157715 98.4690469 368.157715 96.4768594 368.157715 95.1072305 367.203125 94.9495156 365.717285L96.4187539 365.717285C96.6594766 366.472656 97.3733438 366.954102 98.5188516 366.954102 99.7224648 366.954102 100.585746 366.381348 100.585746 365.55957 100.585746 364.945312 100.120902 364.530273 99.1663125 364.297852L97.630668 363.924316C95.9539102 363.517578 95.1902383 362.79541 95.1902383 361.500488zM111.428492 361.791016L109.984156 361.791016C109.751734 360.902832 108.96316 360.180664 107.676539 360.180664 106.066187 360.180664 105.053492 361.467285 105.053492 363.492676 105.053492 365.55957 106.082789 366.871094 107.676539 366.871094 108.880152 366.871094 109.718531 366.314941 109.984156 365.302246L111.428492 365.302246C111.171168 366.945801 109.834742 368.157715 107.68484 368.157715 105.178004 368.157715 103.575953 366.339844 103.575953 363.492676 103.575953 360.703613 105.169703 358.894043 107.676539 358.894043 109.851344 358.894043 111.179469 360.197266 111.428492 361.791016zM113.264891 368L113.264891 359.051758 114.626219 359.051758 114.626219 360.379883 114.759031 360.379883C115.024656 359.508301 116.053953 358.894043 117.240965 358.894043 117.473387 358.894043 117.772215 358.910645 117.954832 358.935547L117.954832 360.363281C117.838621 360.330078 117.323973 360.280273 117.041746 360.280273 115.680418 360.280273 114.692625 361.193359 114.692625 362.455078L114.692625 368 113.264891 368zM122.787812 360.155762C121.360078 360.155762 120.363984 361.20166 120.256074 362.787109L125.186738 362.787109C125.153535 361.20166 124.207246 360.155762 122.787812 360.155762zM125.145234 365.684082L126.572969 365.684082C126.141328 367.219727 124.763398 368.157715 122.804414 368.157715 120.32248 368.157715 118.770234 366.364746 118.770234 363.53418 118.770234 360.720215 120.347383 358.894043 122.804414 358.894043 125.219941 358.894043 126.68918 360.612305 126.68918 363.393066L126.68918 363.940918 120.256074 363.940918 120.256074 364.007324C120.330781 365.775391 121.318574 366.895996 122.837617 366.895996 123.991426 366.895996 124.771699 366.472656 125.145234 365.684082zM132.227727 360.155762C130.799992 360.155762 129.803898 361.20166 129.695988 362.787109L134.626652 362.787109C134.593449 361.20166 133.64716 360.155762 132.227727 360.155762zM134.585148 365.684082L136.012883 365.684082C135.581242 367.219727 134.203312 368.157715 132.244328 368.157715 129.762395 368.157715 128.210148 366.364746 128.210148 363.53418 128.210148 360.720215 129.787297 358.894043 132.244328 358.894043 134.659855 358.894043 136.129094 360.612305 136.129094 363.393066L136.129094 363.940918 129.695988 363.940918 129.695988 364.007324C129.770695 365.775391 130.758488 366.895996 132.277531 366.895996 133.43134 366.895996 134.211613 366.472656 134.585148 365.684082zM138.098305 368L138.098305 359.051758 139.459633 359.051758 139.459633 360.462891 139.592445 360.462891C140.040687 359.475098 140.91227 358.894043 142.281898 358.894043 144.290687 358.894043 145.411293 360.081055 145.411293 362.206055L145.411293 368 143.983559 368 143.983559 362.554688C143.983559 360.944336 143.302895 360.180664 141.87516 360.180664 140.447426 360.180664 139.526039 361.135254 139.526039 362.704102L139.526039 368 138.098305 368zM147.538219 361.500488C147.538219 360.014648 148.974254 358.894043 150.875133 358.894043 152.751109 358.894043 154.054332 359.82373 154.24525 361.292969L152.834117 361.292969C152.643199 360.579102 151.945934 360.105957 150.866832 360.105957 149.804332 360.105957 148.974254 360.645508 148.974254 361.442383 148.974254 362.056641 149.472301 362.438477 150.5265 362.695801L151.90443 363.027832C153.589488 363.43457 154.402965 364.165039 154.402965 365.45166 154.402965 367.053711 152.850719 368.157715 150.817027 368.157715 148.82484 368.157715 147.455211 367.203125 147.297496 365.717285L148.766734 365.717285C149.007457 366.472656 149.721324 366.954102 150.866832 366.954102 152.070445 366.954102 152.933727 366.381348 152.933727 365.55957 152.933727 364.945312 152.468883 364.530273 151.514293 364.297852L149.978648 363.924316C148.301891 363.517578 147.538219 362.79541 147.538219 361.500488zM156.455184 368L156.455184 355.499023 157.882918 355.499023 157.882918 360.462891 158.01573 360.462891C158.463973 359.475098 159.401961 358.894043 160.77159 358.894043 162.664168 358.894043 163.85948 360.105957 163.85948 362.206055L163.85948 368 162.431746 368 162.431746 362.554688C162.431746 360.969238 161.717879 360.180664 160.364852 360.180664 158.762801 360.180664 157.882918 361.193359 157.882918 362.704102L157.882918 368 156.455184 368zM169.871172 368.157715C167.322832 368.157715 165.745684 366.397949 165.745684 363.525879 165.745684 360.645508 167.322832 358.894043 169.871172 358.894043 172.419512 358.894043 173.99666 360.645508 173.99666 363.525879 173.99666 366.397949 172.419512 368.157715 169.871172 368.157715zM169.871172 366.871094C171.564531 366.871094 172.519121 365.642578 172.519121 363.525879 172.519121 361.400879 171.564531 360.180664 169.871172 360.180664 168.177812 360.180664 167.223223 361.400879 167.223223 363.525879 167.223223 365.642578 168.177812 366.871094 169.871172 366.871094zM176.563527 356.73584L177.991262 356.73584 177.991262 359.051758 179.983449 359.051758 179.983449 360.24707 177.991262 360.24707 177.991262 365.310547C177.991262 366.364746 178.389699 366.812988 179.319387 366.812988 179.576711 366.812988 179.717824 366.804688 179.983449 366.779785L179.983449 367.983398C179.701223 368.033203 179.427297 368.066406 179.14507 368.066406 177.302297 368.066406 176.563527 367.385742 176.563527 365.675781L176.563527 360.24707 175.119191 360.24707 175.119191 359.051758 176.563527 359.051758 176.563527 356.73584zM181.496117 361.500488C181.496117 360.014648 182.932152 358.894043 184.833031 358.894043 186.709008 358.894043 188.01223 359.82373 188.203148 361.292969L186.792016 361.292969C186.601098 360.579102 185.903832 360.105957 184.82473 360.105957 183.76223 360.105957 182.932152 360.645508 182.932152 361.442383 182.932152 362.056641 183.430199 362.438477 184.484398 362.695801L185.862328 363.027832C187.547387 363.43457 188.360863 364.165039 188.360863 365.45166 188.360863 367.053711 186.808617 368.157715 184.774926 368.157715 182.782738 368.157715 181.413109 367.203125 181.255395 365.717285L182.724633 365.717285C182.965355 366.472656 183.679223 366.954102 184.82473 366.954102 186.028344 366.954102 186.891625 366.381348 186.891625 365.55957 186.891625 364.945312 186.426781 364.530273 185.472191 364.297852L183.936547 363.924316C182.259789 363.517578 181.496117 362.79541 181.496117 361.500488zM195.453582 356.73584L196.881316 356.73584 196.881316 359.051758 198.873504 359.051758 198.873504 360.24707 196.881316 360.24707 196.881316 365.310547C196.881316 366.364746 197.279754 366.812988 198.209441 366.812988 198.466766 366.812988 198.607879 366.804688 198.873504 366.779785L198.873504 367.983398C198.591277 368.033203 198.317352 368.066406 198.035125 368.066406 196.192352 368.066406 195.453582 367.385742 195.453582 365.675781L195.453582 360.24707 194.009246 360.24707 194.009246 359.051758 195.453582 359.051758 195.453582 356.73584zM204.312441 368.157715C201.764102 368.157715 200.186953 366.397949 200.186953 363.525879 200.186953 360.645508 201.764102 358.894043 204.312441 358.894043 206.860781 358.894043 208.43793 360.645508 208.43793 363.525879 208.43793 366.397949 206.860781 368.157715 204.312441 368.157715zM204.312441 366.871094C206.005801 366.871094 206.960391 365.642578 206.960391 363.525879 206.960391 361.400879 206.005801 360.180664 204.312441 360.180664 202.619082 360.180664 201.664492 361.400879 201.664492 363.525879 201.664492 365.642578 202.619082 366.871094 204.312441 366.871094zM215.530648 356.73584L216.958383 356.73584 216.958383 359.051758 218.95057 359.051758 218.95057 360.24707 216.958383 360.24707 216.958383 365.310547C216.958383 366.364746 217.35682 366.812988 218.286508 366.812988 218.543832 366.812988 218.684945 366.804688 218.95057 366.779785L218.95057 367.983398C218.668344 368.033203 218.394418 368.066406 218.112191 368.066406 216.269418 368.066406 215.530648 367.385742 215.530648 365.675781L215.530648 360.24707 214.086312 360.24707 214.086312 359.051758 215.530648 359.051758 215.530648 356.73584zM220.919781 368L220.919781 355.499023 222.347516 355.499023 222.347516 360.462891 222.480328 360.462891C222.92857 359.475098 223.866559 358.894043 225.236187 358.894043 227.128766 358.894043 228.324078 360.105957 228.324078 362.206055L228.324078 368 226.896344 368 226.896344 362.554688C226.896344 360.969238 226.182477 360.180664 224.829449 360.180664 223.227398 360.180664 222.347516 361.193359 222.347516 362.704102L222.347516 368 220.919781 368zM234.227859 360.155762C232.800125 360.155762 231.804031 361.20166 231.696121 362.787109L236.626785 362.787109C236.593582 361.20166 235.647293 360.155762 234.227859 360.155762zM236.585281 365.684082L238.013016 365.684082C237.581375 367.219727 236.203445 368.157715 234.244461 368.157715 231.762527 368.157715 230.210281 366.364746 230.210281 363.53418 230.210281 360.720215 231.78743 358.894043 234.244461 358.894043 236.659988 358.894043 238.129227 360.612305 238.129227 363.393066L238.129227 363.940918 231.696121 363.940918 231.696121 364.007324C231.770828 365.775391 232.758621 366.895996 234.277664 366.895996 235.431473 366.895996 236.211746 366.472656 236.585281 365.684082zM252.593039 368L251.389426 364.571777 246.624777 364.571777 245.421164 368 243.852316 368 248.268332 356.021973 249.745871 356.021973 254.161887 368 252.593039 368zM248.940695 357.956055L247.064719 363.301758 250.949484 363.301758 249.073508 357.956055 248.940695 357.956055zM260.165277 358.894043C262.447992 358.894043 263.925531 360.711914 263.925531 363.525879 263.925531 366.323242 262.439691 368.157715 260.165277 368.157715 258.886957 368.157715 257.85766 367.601562 257.367914 366.655273L257.235102 366.655273 257.235102 370.988281 255.807367 370.988281 255.807367 359.051758 257.168695 359.051758 257.168695 360.545898 257.301508 360.545898C257.874262 359.516602 258.945063 358.894043 260.165277 358.894043zM259.824945 366.871094C261.4685 366.871094 262.447992 365.617676 262.447992 363.525879 262.447992 361.434082 261.4685 360.180664 259.833246 360.180664 258.214594 360.180664 257.193598 361.467285 257.193598 363.525879 257.193598 365.576172 258.214594 366.871094 259.824945 366.871094zM270.252652 358.894043C272.535367 358.894043 274.012906 360.711914 274.012906 363.525879 274.012906 366.323242 272.527066 368.157715 270.252652 368.157715 268.974332 368.157715 267.945035 367.601562 267.455289 366.655273L267.322477 366.655273 267.322477 370.988281 265.894742 370.988281 265.894742 359.051758 267.25607 359.051758 267.25607 360.545898 267.388883 360.545898C267.961637 359.516602 269.032438 358.894043 270.252652 358.894043zM269.91232 366.871094C271.555875 366.871094 272.535367 365.617676 272.535367 363.525879 272.535367 361.434082 271.555875 360.180664 269.920621 360.180664 268.301969 360.180664 267.280973 361.467285 267.280973 363.525879 267.280973 365.576172 268.301969 366.871094 269.91232 366.871094zM280.117832 364.870605L281.628574 364.870605C281.811191 366.124023 283.006504 366.920898 284.708164 366.920898 286.318516 366.920898 287.505527 366.049316 287.505527 364.862305 287.505527 363.841309 286.758457 363.193848 285.106602 362.778809L283.570957 362.380371C281.404453 361.83252 280.466465 360.853027 280.466465 359.151367 280.466465 357.117676 282.168125 355.739746 284.699863 355.739746 287.015781 355.739746 288.742344 357.117676 288.866855 359.051758L287.364414 359.051758C287.156895 357.823242 286.144199 357.092773 284.650059 357.092773 283.056309 357.092773 282.002109 357.889648 282.002109 359.101562 282.002109 360.039551 282.657871 360.579102 284.309727 361.002441L285.563145 361.334473C288.045078 361.957031 289.041172 362.919922 289.041172 364.679688 289.041172 366.879395 287.306309 368.282227 284.567051 368.282227 282.027012 368.282227 280.275547 366.9375 280.117832 364.870605zM291.666145 356.73584L293.093879 356.73584 293.093879 359.051758 295.086066 359.051758 295.086066 360.24707 293.093879 360.24707 293.093879 365.310547C293.093879 366.364746 293.492316 366.812988 294.422004 366.812988 294.679328 366.812988 294.820441 366.804688 295.086066 366.779785L295.086066 367.983398C294.80384 368.033203 294.529914 368.066406 294.247688 368.066406 292.404914 368.066406 291.666145 367.385742 291.666145 365.675781L291.666145 360.24707 290.221809 360.24707 290.221809 359.051758 291.666145 359.051758 291.666145 356.73584zM300.525004 368.157715C297.976664 368.157715 296.399516 366.397949 296.399516 363.525879 296.399516 360.645508 297.976664 358.894043 300.525004 358.894043 303.073344 358.894043 304.650492 360.645508 304.650492 363.525879 304.650492 366.397949 303.073344 368.157715 300.525004 368.157715zM300.525004 366.871094C302.218363 366.871094 303.172953 365.642578 303.172953 363.525879 303.172953 361.400879 302.218363 360.180664 300.525004 360.180664 298.831645 360.180664 297.877055 361.400879 297.877055 363.525879 297.877055 365.642578 298.831645 366.871094 300.525004 366.871094zM306.619703 368L306.619703 359.051758 307.981031 359.051758 307.981031 360.379883 308.113844 360.379883C308.379469 359.508301 309.408766 358.894043 310.595777 358.894043 310.828199 358.894043 311.127027 358.910645 311.309645 358.935547L311.309645 360.363281C311.193434 360.330078 310.678785 360.280273 310.396559 360.280273 309.03523 360.280273 308.047438 361.193359 308.047438 362.455078L308.047438 368 306.619703 368zM316.142625 360.155762C314.714891 360.155762 313.718797 361.20166 313.610887 362.787109L318.541551 362.787109C318.508348 361.20166 317.562059 360.155762 316.142625 360.155762zM318.500047 365.684082L319.927781 365.684082C319.496141 367.219727 318.118211 368.157715 316.159227 368.157715 313.677293 368.157715 312.125047 366.364746 312.125047 363.53418 312.125047 360.720215 313.702195 358.894043 316.159227 358.894043 318.574754 358.894043 320.043992 360.612305 320.043992 363.393066L320.043992 363.940918 313.610887 363.940918 313.610887 364.007324C313.685594 365.775391 314.673387 366.895996 316.19243 366.895996 317.346238 366.895996 318.126512 366.472656 318.500047 365.684082zM112.538086 334L112.538086 287.314453 112.297852 287.314453 97.5634766 297.484375 97.5634766 286.59375 112.498047 276.223633 124.509766 276.223633 124.509766 334 112.538086 334zM137.768555 334.480469C134.165039 334.480469 131.322266 331.597656 131.322266 328.03418 131.322266 324.430664 134.165039 321.587891 137.768555 321.587891 141.332031 321.587891 144.214844 324.430664 144.214844 328.03418 144.214844 331.597656 141.332031 334.480469 137.768555 334.480469zM175.571289 334L175.571289 323.709961 146.823242 323.709961 146.823242 313.419922C151.868164 303.810547 158.154297 293.680664 170.005859 276.223633L187.0625 276.223633 187.0625 314.020508 194.589844 314.020508 194.589844 323.709961 187.0625 323.709961 187.0625 334 175.571289 334zM157.433594 314.060547L157.433594 314.380859 175.811523 314.380859 175.811523 284.791992 175.571289 284.791992C167.163086 297.124023 162.118164 305.011719 157.433594 314.060547zM217.37793 335.28125C204.96582 335.28125 196.037109 327.914062 195.676758 317.463867L206.847656 317.463867C207.52832 322.348633 211.852539 325.711914 217.458008 325.711914 223.78418 325.711914 228.148438 321.307617 228.148438 315.021484 228.148438 308.615234 223.78418 304.130859 217.538086 304.130859 213.173828 304.130859 209.410156 306.132812 207.408203 309.456055L196.597656 309.456055 199.44043 276.223633 236.196289 276.223633 236.196289 285.833008 208.929688 285.833008 207.608398 301.648438 207.848633 301.648438C210.210938 297.764648 214.81543 295.322266 220.701172 295.322266 231.751953 295.322266 239.679688 303.450195 239.679688 314.701172 239.679688 326.953125 230.630859 335.28125 217.37793 335.28125zM250.62207 334L250.62207 276.223633 262.113281 276.223633 262.113281 298.725586 262.353516 298.725586C264.635742 293.320312 269.320312 290.277344 275.84668 290.277344 285.375977 290.277344 290.821289 296.443359 290.821289 306.373047L290.821289 334 279.129883 334 279.129883 308.855469C279.129883 303.330078 276.407227 299.966797 271.082031 299.966797 265.556641 299.966797 262.313477 303.850586 262.313477 309.496094L262.313477 334 250.62207 334zM59 291L84 305.5 59 319 34 334 34 276 59 291zM40.565918 215.739746C43.9692383 215.739746 46.0444336 218.163574 46.0444336 222.006836 46.0444336 225.833496 43.9858398 228.282227 40.565918 228.282227 37.1293945 228.282227 35.0625 225.841797 35.0625 222.006836 35.0625 218.155273 37.1791992 215.739746 40.565918 215.739746zM40.565918 217.117676C38.1254883 217.117676 36.5981445 219.010254 36.5981445 222.006836 36.5981445 224.978516 38.0756836 226.904297 40.565918 226.904297 43.0229492 226.904297 44.5087891 224.978516 44.5087891 222.006836 44.5087891 219.010254 43.0146484 217.117676 40.565918 217.117676zM52.5375703 218.894043C54.8202852 218.894043 56.2978242 220.711914 56.2978242 223.525879 56.2978242 226.323242 54.8119844 228.157715 52.5375703 228.157715 51.25925 228.157715 50.2299531 227.601562 49.740207 226.655273L49.6073945 226.655273 49.6073945 230.988281 48.1796602 230.988281 48.1796602 219.051758 49.5409883 219.051758 49.5409883 220.545898 49.6738008 220.545898C50.2465547 219.516602 51.3173555 218.894043 52.5375703 218.894043zM52.1972383 226.871094C53.840793 226.871094 54.8202852 225.617676 54.8202852 223.525879 54.8202852 221.434082 53.840793 220.180664 52.2055391 220.180664 50.5868867 220.180664 49.5658906 221.467285 49.5658906 223.525879 49.5658906 225.576172 50.5868867 226.871094 52.1972383 226.871094zM58.8646914 216.73584L60.2924258 216.73584 60.2924258 219.051758 62.2846133 219.051758 62.2846133 220.24707 60.2924258 220.24707 60.2924258 225.310547C60.2924258 226.364746 60.6908633 226.812988 61.6205508 226.812988 61.877875 226.812988 62.0189883 226.804688 62.2846133 226.779785L62.2846133 227.983398C62.0023867 228.033203 61.7284609 228.066406 61.4462344 228.066406 59.6034609 228.066406 58.8646914 227.385742 58.8646914 225.675781L58.8646914 220.24707 57.4203555 220.24707 57.4203555 219.051758 58.8646914 219.051758 58.8646914 216.73584zM64.2040195 228L64.2040195 219.051758 65.6317539 219.051758 65.6317539 228 64.2040195 228zM64.9178867 217.233887C64.3700352 217.233887 63.921793 216.785645 63.921793 216.237793 63.921793 215.689941 64.3700352 215.241699 64.9178867 215.241699 65.4657383 215.241699 65.9139805 215.689941 65.9139805 216.237793 65.9139805 216.785645 65.4657383 217.233887 64.9178867 217.233887zM68.0824102 228L68.0824102 219.051758 69.4437383 219.051758 69.4437383 220.462891 69.5765508 220.462891C69.9832891 219.466797 70.8797734 218.894043 72.0750859 218.894043 73.287 218.894043 74.1336797 219.533203 74.5487188 220.462891L74.6815313 220.462891C75.1629766 219.516602 76.1839727 218.894043 77.4207891 218.894043 79.2469609 218.894043 80.267957 219.939941 80.267957 221.815918L80.267957 228 78.8402227 228 78.8402227 222.147949C78.8402227 220.828125 78.2176641 220.180664 76.9559453 220.180664 75.7108281 220.180664 74.88075 221.110352 74.88075 222.247559L74.88075 228 73.4530156 228 73.4530156 221.923828C73.4530156 220.861328 72.7142461 220.180664 71.5853398 220.180664 70.4149297 220.180664 69.5101445 221.193359 69.5101445 222.455078L69.5101445 228 68.0824102 228zM82.6356055 228L82.6356055 219.051758 84.0633398 219.051758 84.0633398 228 82.6356055 228zM83.3494727 217.233887C82.8016211 217.233887 82.3533789 216.785645 82.3533789 216.237793 82.3533789 215.689941 82.8016211 215.241699 83.3494727 215.241699 83.8973242 215.241699 84.3455664 215.689941 84.3455664 216.237793 84.3455664 216.785645 83.8973242 217.233887 83.3494727 217.233887zM86.3064766 228L86.3064766 226.954102 91.4695625 220.379883 91.4695625 220.24707 86.3147773 220.24707 86.3147773 219.051758 93.1712227 219.051758 93.1712227 220.122559 88.0330391 226.671875 88.0330391 226.804688 93.196125 226.804688 93.196125 228 86.3064766 228zM98.7263711 220.155762C97.2986367 220.155762 96.302543 221.20166 96.1946328 222.787109L101.125297 222.787109C101.092094 221.20166 100.145805 220.155762 98.7263711 220.155762zM101.083793 225.684082L102.511527 225.684082C102.079887 227.219727 100.701957 228.157715 98.7429727 228.157715 96.2610391 228.157715 94.708793 226.364746 94.708793 223.53418 94.708793 220.720215 96.2859414 218.894043 98.7429727 218.894043 101.1585 218.894043 102.627738 220.612305 102.627738 223.393066L102.627738 223.940918 96.1946328 223.940918 96.1946328 224.007324C96.2693398 225.775391 97.2571328 226.895996 98.7761758 226.895996 99.9299844 226.895996 100.710258 226.472656 101.083793 225.684082zM109.156004 228L109.156004 219.051758 110.583738 219.051758 110.583738 228 109.156004 228zM109.869871 217.233887C109.32202 217.233887 108.873777 216.785645 108.873777 216.237793 108.873777 215.689941 109.32202 215.241699 109.869871 215.241699 110.417723 215.241699 110.865965 215.689941 110.865965 216.237793 110.865965 216.785645 110.417723 217.233887 109.869871 217.233887zM113.034395 228L113.034395 219.051758 114.395723 219.051758 114.395723 220.462891 114.528535 220.462891C114.935273 219.466797 115.831758 218.894043 117.02707 218.894043 118.238984 218.894043 119.085664 219.533203 119.500703 220.462891L119.633516 220.462891C120.114961 219.516602 121.135957 218.894043 122.372773 218.894043 124.198945 218.894043 125.219941 219.939941 125.219941 221.815918L125.219941 228 123.792207 228 123.792207 222.147949C123.792207 220.828125 123.169648 220.180664 121.90793 220.180664 120.662812 220.180664 119.832734 221.110352 119.832734 222.247559L119.832734 228 118.405 228 118.405 221.923828C118.405 220.861328 117.66623 220.180664 116.537324 220.180664 115.366914 220.180664 114.462129 221.193359 114.462129 222.455078L114.462129 228 113.034395 228zM130.310246 226.904297C131.779484 226.904297 132.866887 225.941406 132.866887 224.663086L132.866887 223.841309 130.45966 223.999023C129.098332 224.090332 128.500676 224.563477 128.500676 225.459961 128.500676 226.373047 129.272648 226.904297 130.310246 226.904297zM130.044621 228.157715C128.309758 228.157715 127.023137 227.128418 127.023137 225.493164 127.023137 223.891113 128.201848 222.969727 130.285344 222.845215L132.866887 222.6875 132.866887 221.874023C132.866887 220.77002 132.177922 220.164062 130.841496 220.164062 129.770695 220.164062 129.023625 220.570801 128.824406 221.276367L127.38007 221.276367C127.570988 219.840332 128.982121 218.894043 130.891301 218.894043 133.074406 218.894043 134.294621 220.014648 134.294621 221.874023L134.294621 228 132.933293 228 132.933293 226.680176 132.80048 226.680176C132.219426 227.634766 131.239934 228.157715 130.044621 228.157715zM140.28141 226.605469C141.941566 226.605469 142.93766 225.34375 142.93766 223.393066 142.93766 221.442383 141.933266 220.180664 140.28141 220.180664 138.621254 220.180664 137.691566 221.442383 137.691566 223.393066 137.691566 225.34375 138.621254 226.605469 140.28141 226.605469zM140.347816 231.436523C138.189613 231.436523 136.811684 230.465332 136.595863 228.987793L138.106605 228.987793C138.26432 229.718262 139.061195 230.191406 140.347816 230.191406 141.949867 230.191406 142.904457 229.402832 142.904457 228.083008L142.904457 226.323242 142.771645 226.323242C142.207191 227.311035 141.194496 227.867188 139.96598 227.867188 137.650062 227.867188 136.214027 226.074219 136.214027 223.393066 136.214027 220.711914 137.666664 218.894043 139.96598 218.894043 141.219398 218.894043 142.323402 219.508301 142.838051 220.471191L142.970863 220.471191 142.970863 219.051758 144.332191 219.051758 144.332191 228.157715C144.332191 230.158203 142.788246 231.436523 140.347816 231.436523zM150.31898 220.155762C148.891246 220.155762 147.895152 221.20166 147.787242 222.787109L152.717906 222.787109C152.684703 221.20166 151.738414 220.155762 150.31898 220.155762zM152.676402 225.684082L154.104137 225.684082C153.672496 227.219727 152.294566 228.157715 150.335582 228.157715 147.853648 228.157715 146.301402 226.364746 146.301402 223.53418 146.301402 220.720215 147.878551 218.894043 150.335582 218.894043 152.751109 218.894043 154.220348 220.612305 154.220348 223.393066L154.220348 223.940918 147.787242 223.940918 147.787242 224.007324C147.861949 225.775391 148.849742 226.895996 150.368785 226.895996 151.522594 226.895996 152.302867 226.472656 152.676402 225.684082zM155.982039 221.500488C155.982039 220.014648 157.418074 218.894043 159.318953 218.894043 161.19493 218.894043 162.498152 219.82373 162.68907 221.292969L161.277938 221.292969C161.08702 220.579102 160.389754 220.105957 159.310652 220.105957 158.248152 220.105957 157.418074 220.645508 157.418074 221.442383 157.418074 222.056641 157.916121 222.438477 158.97032 222.695801L160.34825 223.027832C162.033309 223.43457 162.846785 224.165039 162.846785 225.45166 162.846785 227.053711 161.294539 228.157715 159.260848 228.157715 157.26866 228.157715 155.899031 227.203125 155.741316 225.717285L157.210555 225.717285C157.451277 226.472656 158.165145 226.954102 159.310652 226.954102 160.514266 226.954102 161.377547 226.381348 161.377547 225.55957 161.377547 224.945312 160.912703 224.530273 159.958113 224.297852L158.422469 223.924316C156.745711 223.517578 155.982039 222.79541 155.982039 221.500488zM173.019094 228.157715C170.470754 228.157715 168.893605 226.397949 168.893605 223.525879 168.893605 220.645508 170.470754 218.894043 173.019094 218.894043 175.567434 218.894043 177.144582 220.645508 177.144582 223.525879 177.144582 226.397949 175.567434 228.157715 173.019094 228.157715zM173.019094 226.871094C174.712453 226.871094 175.667043 225.642578 175.667043 223.525879 175.667043 221.400879 174.712453 220.180664 173.019094 220.180664 171.325734 220.180664 170.371145 221.400879 170.371145 223.525879 170.371145 225.642578 171.325734 226.871094 173.019094 226.871094zM179.113793 228L179.113793 219.051758 180.475121 219.051758 180.475121 220.462891 180.607934 220.462891C181.056176 219.475098 181.927758 218.894043 183.297387 218.894043 185.306176 218.894043 186.426781 220.081055 186.426781 222.206055L186.426781 228 184.999047 228 184.999047 222.554688C184.999047 220.944336 184.318383 220.180664 182.890648 220.180664 181.462914 220.180664 180.541527 221.135254 180.541527 222.704102L180.541527 228 179.113793 228zM193.884734 216.73584L195.312469 216.73584 195.312469 219.051758 197.304656 219.051758 197.304656 220.24707 195.312469 220.24707 195.312469 225.310547C195.312469 226.364746 195.710906 226.812988 196.640594 226.812988 196.897918 226.812988 197.039031 226.804688 197.304656 226.779785L197.304656 227.983398C197.02243 228.033203 196.748504 228.066406 196.466277 228.066406 194.623504 228.066406 193.884734 227.385742 193.884734 225.675781L193.884734 220.24707 192.440398 220.24707 192.440398 219.051758 193.884734 219.051758 193.884734 216.73584zM199.273867 228L199.273867 215.499023 200.701602 215.499023 200.701602 220.462891 200.834414 220.462891C201.282656 219.475098 202.220645 218.894043 203.590273 218.894043 205.482852 218.894043 206.678164 220.105957 206.678164 222.206055L206.678164 228 205.25043 228 205.25043 222.554688C205.25043 220.969238 204.536563 220.180664 203.183535 220.180664 201.581484 220.180664 200.701602 221.193359 200.701602 222.704102L200.701602 228 199.273867 228zM212.581945 220.155762C211.154211 220.155762 210.158117 221.20166 210.050207 222.787109L214.980871 222.787109C214.947668 221.20166 214.001379 220.155762 212.581945 220.155762zM214.939367 225.684082L216.367102 225.684082C215.935461 227.219727 214.557531 228.157715 212.598547 228.157715 210.116613 228.157715 208.564367 226.364746 208.564367 223.53418 208.564367 220.720215 210.141516 218.894043 212.598547 218.894043 215.014074 218.894043 216.483313 220.612305 216.483313 223.393066L216.483313 223.940918 210.050207 223.940918 210.050207 224.007324C210.124914 225.775391 211.112707 226.895996 212.63175 226.895996 213.785559 226.895996 214.565832 226.472656 214.939367 225.684082zM234.234234 219.051758L231.727398 228 230.274762 228 228.274273 221.077148 228.141461 221.077148 226.149273 228 224.704937 228 222.198102 219.051758 223.642437 219.051758 225.402203 226.207031 225.535016 226.207031 227.535504 219.051758 228.905133 219.051758 230.905621 226.207031 231.038434 226.207031 232.798199 219.051758 234.234234 219.051758zM239.108719 220.155762C237.680984 220.155762 236.684891 221.20166 236.57698 222.787109L241.507645 222.787109C241.474441 221.20166 240.528152 220.155762 239.108719 220.155762zM241.466141 225.684082L242.893875 225.684082C242.462234 227.219727 241.084305 228.157715 239.12532 228.157715 236.643387 228.157715 235.091141 226.364746 235.091141 223.53418 235.091141 220.720215 236.668289 218.894043 239.12532 218.894043 241.540848 218.894043 243.010086 220.612305 243.010086 223.393066L243.010086 223.940918 236.57698 223.940918 236.57698 224.007324C236.651688 225.775391 237.63948 226.895996 239.158523 226.895996 240.312332 226.895996 241.092605 226.472656 241.466141 225.684082zM249.428516 228.157715C248.183398 228.157715 247.120898 227.568359 246.556445 226.572266L246.423633 226.572266 246.423633 228 245.062305 228 245.062305 215.499023 246.490039 215.499023 246.490039 220.462891 246.622852 220.462891C247.112598 219.5 248.2 218.894043 249.428516 218.894043 251.70293 218.894043 253.180469 220.711914 253.180469 223.525879 253.180469 226.323242 251.694629 228.157715 249.428516 228.157715zM249.096484 220.180664C247.469531 220.180664 246.456836 221.458984 246.456836 223.525879 246.456836 225.592773 247.469531 226.871094 249.096484 226.871094 250.731738 226.871094 251.70293 225.617676 251.70293 223.525879 251.70293 221.434082 250.731738 220.180664 249.096484 220.180664zM254.94216 221.500488C254.94216 220.014648 256.378195 218.894043 258.279074 218.894043 260.155051 218.894043 261.458273 219.82373 261.649191 221.292969L260.238059 221.292969C260.047141 220.579102 259.349875 220.105957 258.270773 220.105957 257.208273 220.105957 256.378195 220.645508 256.378195 221.442383 256.378195 222.056641 256.876242 222.438477 257.930441 222.695801L259.308371 223.027832C260.99343 223.43457 261.806906 224.165039 261.806906 225.45166 261.806906 227.053711 260.25466 228.157715 258.220969 228.157715 256.228781 228.157715 254.859152 227.203125 254.701438 225.717285L256.170676 225.717285C256.411398 226.472656 257.125266 226.954102 258.270773 226.954102 259.474387 226.954102 260.337668 226.381348 260.337668 225.55957 260.337668 224.945312 259.872824 224.530273 258.918234 224.297852L257.38259 223.924316C255.705832 223.517578 254.94216 222.79541 254.94216 221.500488zM263.80932 228L263.80932 219.051758 265.237055 219.051758 265.237055 228 263.80932 228zM264.523188 217.233887C263.975336 217.233887 263.527094 216.785645 263.527094 216.237793 263.527094 215.689941 263.975336 215.241699 264.523188 215.241699 265.071039 215.241699 265.519281 215.689941 265.519281 216.237793 265.519281 216.785645 265.071039 217.233887 264.523188 217.233887zM268.285367 216.73584L269.713102 216.73584 269.713102 219.051758 271.705289 219.051758 271.705289 220.24707 269.713102 220.24707 269.713102 225.310547C269.713102 226.364746 270.111539 226.812988 271.041227 226.812988 271.298551 226.812988 271.439664 226.804688 271.705289 226.779785L271.705289 227.983398C271.423063 228.033203 271.149137 228.066406 270.86691 228.066406 269.024137 228.066406 268.285367 227.385742 268.285367 225.675781L268.285367 220.24707 266.841031 220.24707 266.841031 219.051758 268.285367 219.051758 268.285367 216.73584zM277.036316 220.155762C275.608582 220.155762 274.612488 221.20166 274.504578 222.787109L279.435242 222.787109C279.402039 221.20166 278.45575 220.155762 277.036316 220.155762zM279.393738 225.684082L280.821473 225.684082C280.389832 227.219727 279.011902 228.157715 277.052918 228.157715 274.570984 228.157715 273.018738 226.364746 273.018738 223.53418 273.018738 220.720215 274.595887 218.894043 277.052918 218.894043 279.468445 218.894043 280.937684 220.612305 280.937684 223.393066L280.937684 223.940918 274.504578 223.940918 274.504578 224.007324C274.579285 225.775391 275.567078 226.895996 277.086121 226.895996 278.23993 226.895996 279.020203 226.472656 279.393738 225.684082zM120.706055 195.28125C106.171875 195.28125 97.3232422 183.709961 97.3232422 165.011719 97.3232422 146.353516 106.251953 134.902344 120.706055 134.902344 135.160156 134.902344 144.048828 146.313477 144.048828 164.97168 144.048828 183.629883 135.240234 195.28125 120.706055 195.28125zM120.706055 185.591797C127.592773 185.591797 131.756836 178.18457 131.756836 165.011719 131.756836 151.958984 127.552734 144.591797 120.706055 144.591797 113.899414 144.591797 109.615234 151.999023 109.615234 165.011719 109.615234 178.144531 113.819336 185.591797 120.706055 185.591797zM150.78125 194.480469C147.177734 194.480469 144.334961 191.597656 144.334961 188.03418 144.334961 184.430664 147.177734 181.587891 150.78125 181.587891 154.344727 181.587891 157.227539 184.430664 157.227539 188.03418 157.227539 191.597656 154.344727 194.480469 150.78125 194.480469zM159.555664 153.600586C159.555664 142.669922 168.28418 134.942383 180.896484 134.942383 193.068359 134.942383 201.436523 141.989258 201.436523 151.638672 201.436523 158.845703 196.631836 164.250977 190.265625 170.577148L176.171875 184.150391 176.171875 184.390625 202.237305 184.390625 202.237305 194 160.236328 194 160.236328 185.87207 182.017578 164.891602C187.863281 159.045898 189.665039 156.123047 189.665039 152.119141 189.665039 147.794922 185.861328 144.351562 180.496094 144.351562 174.890625 144.351562 170.766602 148.275391 170.766602 153.600586L170.766602 153.800781 159.555664 153.800781 159.555664 153.600586zM206.6875 194L231.551758 146.073242 231.551758 145.833008 202.163086 145.833008 202.163086 136.223633 243.483398 136.223633 243.483398 145.953125 219.379883 194 206.6875 194zM254.826172 194L254.826172 136.223633 266.317383 136.223633 266.317383 158.725586 266.557617 158.725586C268.839844 153.320312 273.524414 150.277344 280.050781 150.277344 289.580078 150.277344 295.025391 156.443359 295.025391 166.373047L295.025391 194 283.333984 194 283.333984 168.855469C283.333984 163.330078 280.611328 159.966797 275.286133 159.966797 269.760742 159.966797 266.517578 163.850586 266.517578 169.496094L266.517578 194 254.826172 194zM59 151L84 165.5 59 179 34 194 34 136 59 151z"/>
    <g transform="translate(31 87)">
      <g transform="translate(277 2)">
        <path fill="#656153" fill-rule="nonzero" d="M21,7.99832845 L21,2.50167155 C21,1.67453641 20.3259836,1 19.4977394,1 L2.50226064,1 C1.67308288,1 1,1.67275196 1,2.50167155 L1,7.99832845 C1,8.82649069 1.66989891,9.5 2.49076705,9.5 L19.5090862,9.5 C20.3302756,9.5 21,8.82777745 21,7.99832845 Z M20.9595844,9.5 L20.9595844,10.0316669 C20.5508133,10.3264332 20.0498041,10.5 19.5090859,10.5 L20.2343351,10.5 L19.5090859,10.5 L19.5090859,9.5 L20.9595844,9.5 Z M20.2343351,10.5 L20.9595844,10.5 L20.2343351,10.5 Z M20.9595844,9.5 L19.5090859,9.5 L19.5090859,10.5 L2.49076705,10.5 C1.11515439,10.5 0,9.37631607 0,7.99832845 L0,2.50167155 C0,1.1200365 1.12122893,0 2.50226064,0 L19.4977394,0 C20.8796998,0 22,1.12368393 22,2.50167155 L22,7.99832845 C22,8.83607409 21.5892089,9.57764233 20.9595844,10.0316669 L20.9595844,9.5 Z"/>
        <path fill="#EEE3C1" d="M23,3.5 C23.8626136,3.7220214 24.5,4.50507154 24.5,5.43699126 C24.5,6.36891097 23.8626136,7.15196112 23,7.37398251 L23,3.5 Z" opacity=".4"/>
        <rect width="18" height="6.5" x="2" y="2" fill="#EEE3C1" rx="1"/>
      </g>
      <path fill="#EEE3C1" d="M140.373729,11.7109375 C138.346385,11.7109375 137.145214,10.0703125 137.145214,7.26367188 C137.145214,4.46875 138.363964,2.83398438 140.373729,2.83398438 C142.377635,2.83398438 143.596385,4.46875 143.596385,7.27539062 C143.596385,10.0703125 142.395214,11.7109375 140.373729,11.7109375 Z M140.373729,10.4570312 C141.445995,10.4570312 142.067089,9.34375 142.067089,7.26367188 C142.067089,5.1953125 141.434276,4.09375 140.373729,4.09375 C139.313182,4.09375 138.67451,5.20117188 138.67451,7.26367188 C138.67451,9.34375 139.301464,10.4570312 140.373729,10.4570312 Z M146.332714,10.6035156 C145.781932,10.6035156 145.395214,10.2050781 145.395214,9.67773438 C145.395214,9.14453125 145.781932,8.75195312 146.332714,8.75195312 C146.889354,8.75195312 147.270214,9.14453125 147.270214,9.67773438 C147.270214,10.2050781 146.889354,10.6035156 146.332714,10.6035156 Z M146.332714,6.20898438 C145.781932,6.20898438 145.395214,5.81640625 145.395214,5.2890625 C145.395214,4.75585938 145.781932,4.36328125 146.332714,4.36328125 C146.889354,4.36328125 147.270214,4.75585938 147.270214,5.2890625 C147.270214,5.81640625 146.889354,6.20898438 146.332714,6.20898438 Z M152.297557,11.7109375 C150.270214,11.7109375 149.069042,10.0703125 149.069042,7.26367188 C149.069042,4.46875 150.287792,2.83398438 152.297557,2.83398438 C154.301464,2.83398438 155.520214,4.46875 155.520214,7.27539062 C155.520214,10.0703125 154.319042,11.7109375 152.297557,11.7109375 Z M152.297557,10.4570312 C153.369823,10.4570312 153.990917,9.34375 153.990917,7.26367188 C153.990917,5.1953125 153.358104,4.09375 152.297557,4.09375 C151.23701,4.09375 150.598339,5.20117188 150.598339,7.26367188 C150.598339,9.34375 151.225292,10.4570312 152.297557,10.4570312 Z M160.401073,11.7050781 C159.158885,11.7050781 158.18037,11.1191406 157.61787,10.0351562 C157.225292,9.34375 157.020214,8.44140625 157.020214,7.36328125 C157.020214,4.52148438 158.291698,2.83398438 160.447948,2.83398438 C161.988964,2.83398438 163.172557,3.74804688 163.42451,5.13671875 L161.912792,5.13671875 C161.725292,4.49804688 161.162792,4.09960938 160.436229,4.09960938 C159.199901,4.09960938 158.467479,5.25390625 158.467479,7.1875 L158.567089,7.1875 C158.965526,6.38476562 159.762401,5.921875 160.758495,5.921875 C162.363964,5.921875 163.541698,7.11132812 163.541698,8.734375 C163.541698,10.4746094 162.240917,11.7050781 160.401073,11.7050781 Z M160.383495,10.4453125 C161.332714,10.4453125 162.059276,9.72460938 162.059276,8.78125 C162.059276,7.81445312 161.36201,7.12304688 160.395214,7.12304688 C159.428417,7.12304688 158.719432,7.81445312 158.719432,8.7578125 C158.719432,9.71875 159.440135,10.4453125 160.383495,10.4453125 Z"/>
      <path fill="#EEE3C1" d="M27.1444208 7.43850432L25.0225391 9.5 22.8601652 7.40531769C23.3778594 6.83143413 24.1390073 6.46891192 24.987563 6.46891192 25.8523616 6.46891192 26.626374 6.84544555 27.1444208 7.43850432zM29.3234964 5.32144245L28.2346215 6.37932931C27.4356305 5.51823504 26.2768836 4.97668394 24.987563 4.97668394 23.713648 4.97668394 22.567205 5.5053708 21.7692987 6.34859996L20.6792698 5.29269359C21.7566264 4.17975893 23.2882723 3.48445596 24.987563 3.48445596 26.7014387 3.48445596 28.2447794 4.19174563 29.3234964 5.32144245zM31.5 3.20687933L30.4118698 4.26404272C29.0538809 2.86552609 27.1260026 1.99222798 24.987563 1.99222798 22.8628921 1.99222798 20.9460798 2.85431655 19.5895579 4.23709441L18.5 3.18164431C20.1355496 1.52895605 22.4375103.5 24.987563.5 27.5505699.5 29.8629578 1.53943672 31.5 3.20687933zM12 .497385584C12 .222687111 12.2307129 0 12.5059123 0L13.9940877 0C14.2734953 0 14.5.216270149 14.5.497385584L14.5 9.00261442C14.5 9.27731289 14.2692871 9.5 13.9940877 9.5L12.5059123 9.5C12.2265047 9.5 12 9.28372985 12 9.00261442L12 .497385584zM8 3.00342274C8 2.72539004 8.23071289 2.5 8.5059123 2.5L9.9940877 2.5C10.2734953 2.5 10.5 2.73290253 10.5 3.00342274L10.5 8.99657726C10.5 9.27460996 10.2692871 9.5 9.9940877 9.5L8.5059123 9.5C8.22650465 9.5 8 9.26709747 8 8.99657726L8 3.00342274zM4 4.99769878C4 4.72282734 4.23071289 4.5 4.5059123 4.5L5.9940877 4.5C6.27349535 4.5 6.5 4.71484375 6.5 4.99769878L6.5 9.00230122C6.5 9.27717266 6.26928711 9.5 5.9940877 9.5L4.5059123 9.5C4.22650465 9.5 4 9.28515625 4 9.00230122L4 4.99769878zM0 6.99538898C0 6.7217932.230712891 6.5.505912304 6.5L1.9940877 6.5C2.27349535 6.5 2.5 6.7157526 2.5 6.99538898L2.5 9.00461102C2.5 9.2782068 2.26928711 9.5 1.9940877 9.5L.505912304 9.5C.226504654 9.5 0 9.2842474 0 9.00461102L0 6.99538898z" transform="translate(0 2)"/>
    </g>
  </g>
</svg>
