<svg xmlns="http://www.w3.org/2000/svg" xmlns:xlink="http://www.w3.org/1999/xlink" viewBox="0 0 361 724">
  <defs>
    <rect id="new-task-a" width="313" height="180" x="24" y="459"/>
    <rect id="new-task-c" width="73.033" height="35" x="261.463" y="600.667" rx="5"/>
    <filter id="new-task-b" width="101.4%" height="105.7%" x="-.7%" y="-1.4%" filterUnits="objectBoundingBox">
      <feOffset dy="1" in="SourceAlpha" result="shadowOffsetOuter1"/>
      <feComposite in="shadowOffsetOuter1" in2="SourceAlpha" operator="out" result="shadowOffsetOuter1"/>
      <feColorMatrix in="shadowOffsetOuter1" values="0 0 0 0 0 0 0 0 0 0 0 0 0 0 0 0 0 0 0.35 0"/>
    </filter>
    <rect id="new-task-e" width="120.609" height="35" x="135.845" y="600.667" rx="5"/>
    <filter id="new-task-d" width="100.8%" height="105.7%" x="-.4%" y="-1.4%" filterUnits="objectBoundingBox">
      <feOffset dy="1" in="SourceAlpha" result="shadowOffsetOuter1"/>
      <feComposite in="shadowOffsetOuter1" in2="SourceAlpha" operator="out" result="shadowOffsetOuter1"/>
      <feColorMatrix in="shadowOffsetOuter1" values="0 0 0 0 0 0 0 0 0 0 0 0 0 0 0 0 0 0 0.35 0"/>
    </filter>
    <rect id="new-task-g" width="26.292" height="35" x="104.545" y="600.667" rx="5"/>
    <filter id="new-task-f" width="103.8%" height="105.7%" x="-1.9%" y="-1.4%" filterUnits="objectBoundingBox">
      <feOffset dy="1" in="SourceAlpha" result="shadowOffsetOuter1"/>
      <feComposite in="shadowOffsetOuter1" in2="SourceAlpha" operator="out" result="shadowOffsetOuter1"/>
      <feColorMatrix in="shadowOffsetOuter1" values="0 0 0 0 0 0 0 0 0 0 0 0 0 0 0 0 0 0 0.35 0"/>
    </filter>
    <rect id="new-task-i" width="34.221" height="35" x="65.316" y="600.667" rx="5"/>
    <filter id="new-task-h" width="102.9%" height="105.7%" x="-1.5%" y="-1.4%" filterUnits="objectBoundingBox">
      <feOffset dy="1" in="SourceAlpha" result="shadowOffsetOuter1"/>
      <feComposite in="shadowOffsetOuter1" in2="SourceAlpha" operator="out" result="shadowOffsetOuter1"/>
      <feColorMatrix in="shadowOffsetOuter1" values="0 0 0 0 0 0 0 0 0 0 0 0 0 0 0 0 0 0 0.35 0"/>
    </filter>
    <rect id="new-task-k" width="33.804" height="35" x="26.504" y="600.667" rx="5"/>
    <filter id="new-task-j" width="103%" height="105.7%" x="-1.5%" y="-1.4%" filterUnits="objectBoundingBox">
      <feOffset dy="1" in="SourceAlpha" result="shadowOffsetOuter1"/>
      <feComposite in="shadowOffsetOuter1" in2="SourceAlpha" operator="out" result="shadowOffsetOuter1"/>
      <feColorMatrix in="shadowOffsetOuter1" values="0 0 0 0 0 0 0 0 0 0 0 0 0 0 0 0 0 0 0.35 0"/>
    </filter>
    <rect id="new-task-m" width="35.056" height="35" x="299.44" y="557.333" rx="5"/>
    <filter id="new-task-l" width="102.9%" height="105.7%" x="-1.4%" y="-1.4%" filterUnits="objectBoundingBox">
      <feOffset dy="1" in="SourceAlpha" result="shadowOffsetOuter1"/>
      <feComposite in="shadowOffsetOuter1" in2="SourceAlpha" operator="out" result="shadowOffsetOuter1"/>
      <feColorMatrix in="shadowOffsetOuter1" values="0 0 0 0 0 0 0 0 0 0 0 0 0 0 0 0 0 0 0.35 0"/>
    </filter>
    <rect id="new-task-o" width="26.292" height="35" x="261.463" y="557.333" rx="5"/>
    <filter id="new-task-n" width="103.8%" height="105.7%" x="-1.9%" y="-1.4%" filterUnits="objectBoundingBox">
      <feOffset dy="1" in="SourceAlpha" result="shadowOffsetOuter1"/>
      <feComposite in="shadowOffsetOuter1" in2="SourceAlpha" operator="out" result="shadowOffsetOuter1"/>
      <feColorMatrix in="shadowOffsetOuter1" values="0 0 0 0 0 0 0 0 0 0 0 0 0 0 0 0 0 0 0.35 0"/>
    </filter>
    <rect id="new-task-q" width="26.292" height="35" x="230.163" y="557.333" rx="5"/>
    <filter id="new-task-p" width="103.8%" height="105.7%" x="-1.9%" y="-1.4%" filterUnits="objectBoundingBox">
      <feOffset dy="1" in="SourceAlpha" result="shadowOffsetOuter1"/>
      <feComposite in="shadowOffsetOuter1" in2="SourceAlpha" operator="out" result="shadowOffsetOuter1"/>
      <feColorMatrix in="shadowOffsetOuter1" values="0 0 0 0 0 0 0 0 0 0 0 0 0 0 0 0 0 0 0.35 0"/>
    </filter>
    <rect id="new-task-s" width="26.292" height="35" x="198.863" y="557.333" rx="5"/>
    <filter id="new-task-r" width="103.8%" height="105.7%" x="-1.9%" y="-1.4%" filterUnits="objectBoundingBox">
      <feOffset dy="1" in="SourceAlpha" result="shadowOffsetOuter1"/>
      <feComposite in="shadowOffsetOuter1" in2="SourceAlpha" operator="out" result="shadowOffsetOuter1"/>
      <feColorMatrix in="shadowOffsetOuter1" values="0 0 0 0 0 0 0 0 0 0 0 0 0 0 0 0 0 0 0.35 0"/>
    </filter>
    <rect id="new-task-u" width="26.292" height="35" x="167.563" y="557.333" rx="5"/>
    <filter id="new-task-t" width="103.8%" height="105.7%" x="-1.9%" y="-1.4%" filterUnits="objectBoundingBox">
      <feOffset dy="1" in="SourceAlpha" result="shadowOffsetOuter1"/>
      <feComposite in="shadowOffsetOuter1" in2="SourceAlpha" operator="out" result="shadowOffsetOuter1"/>
      <feColorMatrix in="shadowOffsetOuter1" values="0 0 0 0 0 0 0 0 0 0 0 0 0 0 0 0 0 0 0.35 0"/>
    </filter>
    <rect id="new-task-w" width="26.292" height="35" x="135.845" y="557.333" rx="5"/>
    <filter id="new-task-v" width="103.8%" height="105.7%" x="-1.9%" y="-1.4%" filterUnits="objectBoundingBox">
      <feOffset dy="1" in="SourceAlpha" result="shadowOffsetOuter1"/>
      <feComposite in="shadowOffsetOuter1" in2="SourceAlpha" operator="out" result="shadowOffsetOuter1"/>
      <feColorMatrix in="shadowOffsetOuter1" values="0 0 0 0 0 0 0 0 0 0 0 0 0 0 0 0 0 0 0.35 0"/>
    </filter>
    <rect id="new-task-y" width="26.292" height="35" x="104.545" y="557.333" rx="5"/>
    <filter id="new-task-x" width="103.8%" height="105.7%" x="-1.9%" y="-1.4%" filterUnits="objectBoundingBox">
      <feOffset dy="1" in="SourceAlpha" result="shadowOffsetOuter1"/>
      <feComposite in="shadowOffsetOuter1" in2="SourceAlpha" operator="out" result="shadowOffsetOuter1"/>
      <feColorMatrix in="shadowOffsetOuter1" values="0 0 0 0 0 0 0 0 0 0 0 0 0 0 0 0 0 0 0.35 0"/>
    </filter>
    <rect id="new-task-A" width="26.292" height="35" x="73.245" y="557.333" rx="5"/>
    <filter id="new-task-z" width="103.8%" height="105.7%" x="-1.9%" y="-1.4%" filterUnits="objectBoundingBox">
      <feOffset dy="1" in="SourceAlpha" result="shadowOffsetOuter1"/>
      <feComposite in="shadowOffsetOuter1" in2="SourceAlpha" operator="out" result="shadowOffsetOuter1"/>
      <feColorMatrix in="shadowOffsetOuter1" values="0 0 0 0 0 0 0 0 0 0 0 0 0 0 0 0 0 0 0.35 0"/>
    </filter>
    <rect id="new-task-C" width="35.056" height="35" x="26.504" y="557.333" rx="5"/>
    <filter id="new-task-B" width="102.9%" height="105.7%" x="-1.4%" y="-1.4%" filterUnits="objectBoundingBox">
      <feOffset dy="1" in="SourceAlpha" result="shadowOffsetOuter1"/>
      <feComposite in="shadowOffsetOuter1" in2="SourceAlpha" operator="out" result="shadowOffsetOuter1"/>
      <feColorMatrix in="shadowOffsetOuter1" values="0 0 0 0 0 0 0 0 0 0 0 0 0 0 0 0 0 0 0.35 0"/>
    </filter>
    <rect id="new-task-E" width="26.292" height="35" x="292.763" y="512.333" rx="5"/>
    <filter id="new-task-D" width="103.8%" height="105.7%" x="-1.9%" y="-1.4%" filterUnits="objectBoundingBox">
      <feOffset dy="1" in="SourceAlpha" result="shadowOffsetOuter1"/>
      <feComposite in="shadowOffsetOuter1" in2="SourceAlpha" operator="out" result="shadowOffsetOuter1"/>
      <feColorMatrix in="shadowOffsetOuter1" values="0 0 0 0 0 0 0 0 0 0 0 0 0 0 0 0 0 0 0.35 0"/>
    </filter>
    <rect id="new-task-G" width="26.292" height="35" x="261.463" y="512.333" rx="5"/>
    <filter id="new-task-F" width="103.8%" height="105.7%" x="-1.9%" y="-1.4%" filterUnits="objectBoundingBox">
      <feOffset dy="1" in="SourceAlpha" result="shadowOffsetOuter1"/>
      <feComposite in="shadowOffsetOuter1" in2="SourceAlpha" operator="out" result="shadowOffsetOuter1"/>
      <feColorMatrix in="shadowOffsetOuter1" values="0 0 0 0 0 0 0 0 0 0 0 0 0 0 0 0 0 0 0.35 0"/>
    </filter>
    <rect id="new-task-I" width="26.292" height="35" x="230.163" y="512.333" rx="5"/>
    <filter id="new-task-H" width="103.8%" height="105.7%" x="-1.9%" y="-1.4%" filterUnits="objectBoundingBox">
      <feOffset dy="1" in="SourceAlpha" result="shadowOffsetOuter1"/>
      <feComposite in="shadowOffsetOuter1" in2="SourceAlpha" operator="out" result="shadowOffsetOuter1"/>
      <feColorMatrix in="shadowOffsetOuter1" values="0 0 0 0 0 0 0 0 0 0 0 0 0 0 0 0 0 0 0.35 0"/>
    </filter>
    <rect id="new-task-K" width="26.292" height="35" x="198.863" y="512.333" rx="5"/>
    <filter id="new-task-J" width="103.8%" height="105.7%" x="-1.9%" y="-1.4%" filterUnits="objectBoundingBox">
      <feOffset dy="1" in="SourceAlpha" result="shadowOffsetOuter1"/>
      <feComposite in="shadowOffsetOuter1" in2="SourceAlpha" operator="out" result="shadowOffsetOuter1"/>
      <feColorMatrix in="shadowOffsetOuter1" values="0 0 0 0 0 0 0 0 0 0 0 0 0 0 0 0 0 0 0.35 0"/>
    </filter>
    <rect id="new-task-M" width="26.292" height="35" x="167.563" y="512.333" rx="5"/>
    <filter id="new-task-L" width="103.8%" height="105.7%" x="-1.9%" y="-1.4%" filterUnits="objectBoundingBox">
      <feOffset dy="1" in="SourceAlpha" result="shadowOffsetOuter1"/>
      <feComposite in="shadowOffsetOuter1" in2="SourceAlpha" operator="out" result="shadowOffsetOuter1"/>
      <feColorMatrix in="shadowOffsetOuter1" values="0 0 0 0 0 0 0 0 0 0 0 0 0 0 0 0 0 0 0.35 0"/>
    </filter>
    <rect id="new-task-O" width="26.292" height="35" x="135.845" y="512.333" rx="5"/>
    <filter id="new-task-N" width="103.8%" height="105.7%" x="-1.9%" y="-1.4%" filterUnits="objectBoundingBox">
      <feOffset dy="1" in="SourceAlpha" result="shadowOffsetOuter1"/>
      <feComposite in="shadowOffsetOuter1" in2="SourceAlpha" operator="out" result="shadowOffsetOuter1"/>
      <feColorMatrix in="shadowOffsetOuter1" values="0 0 0 0 0 0 0 0 0 0 0 0 0 0 0 0 0 0 0.35 0"/>
    </filter>
    <rect id="new-task-Q" width="26.292" height="35" x="104.545" y="512.333" rx="5"/>
    <filter id="new-task-P" width="103.8%" height="105.7%" x="-1.9%" y="-1.4%" filterUnits="objectBoundingBox">
      <feOffset dy="1" in="SourceAlpha" result="shadowOffsetOuter1"/>
      <feComposite in="shadowOffsetOuter1" in2="SourceAlpha" operator="out" result="shadowOffsetOuter1"/>
      <feColorMatrix in="shadowOffsetOuter1" values="0 0 0 0 0 0 0 0 0 0 0 0 0 0 0 0 0 0 0.35 0"/>
    </filter>
    <rect id="new-task-S" width="26.292" height="35" x="73.245" y="512.333" rx="5"/>
    <filter id="new-task-R" width="103.8%" height="105.7%" x="-1.9%" y="-1.4%" filterUnits="objectBoundingBox">
      <feOffset dy="1" in="SourceAlpha" result="shadowOffsetOuter1"/>
      <feComposite in="shadowOffsetOuter1" in2="SourceAlpha" operator="out" result="shadowOffsetOuter1"/>
      <feColorMatrix in="shadowOffsetOuter1" values="0 0 0 0 0 0 0 0 0 0 0 0 0 0 0 0 0 0 0.35 0"/>
    </filter>
    <rect id="new-task-U" width="26.292" height="35" x="41.945" y="512.333" rx="5"/>
    <filter id="new-task-T" width="103.8%" height="105.7%" x="-1.9%" y="-1.4%" filterUnits="objectBoundingBox">
      <feOffset dy="1" in="SourceAlpha" result="shadowOffsetOuter1"/>
      <feComposite in="shadowOffsetOuter1" in2="SourceAlpha" operator="out" result="shadowOffsetOuter1"/>
      <feColorMatrix in="shadowOffsetOuter1" values="0 0 0 0 0 0 0 0 0 0 0 0 0 0 0 0 0 0 0.35 0"/>
    </filter>
    <rect id="new-task-W" width="26.292" height="35" x="308.204" y="467.333" rx="5"/>
    <filter id="new-task-V" width="103.8%" height="105.7%" x="-1.9%" y="-1.4%" filterUnits="objectBoundingBox">
      <feOffset dy="1" in="SourceAlpha" result="shadowOffsetOuter1"/>
      <feComposite in="shadowOffsetOuter1" in2="SourceAlpha" operator="out" result="shadowOffsetOuter1"/>
      <feColorMatrix in="shadowOffsetOuter1" values="0 0 0 0 0 0 0 0 0 0 0 0 0 0 0 0 0 0 0.35 0"/>
    </filter>
    <rect id="new-task-Y" width="26.292" height="35" x="276.904" y="467.333" rx="5"/>
    <filter id="new-task-X" width="103.8%" height="105.7%" x="-1.9%" y="-1.4%" filterUnits="objectBoundingBox">
      <feOffset dy="1" in="SourceAlpha" result="shadowOffsetOuter1"/>
      <feComposite in="shadowOffsetOuter1" in2="SourceAlpha" operator="out" result="shadowOffsetOuter1"/>
      <feColorMatrix in="shadowOffsetOuter1" values="0 0 0 0 0 0 0 0 0 0 0 0 0 0 0 0 0 0 0.35 0"/>
    </filter>
    <rect id="new-task-aa" width="26.292" height="35" x="245.604" y="467.333" rx="5"/>
    <filter id="new-task-Z" width="103.8%" height="105.7%" x="-1.9%" y="-1.4%" filterUnits="objectBoundingBox">
      <feOffset dy="1" in="SourceAlpha" result="shadowOffsetOuter1"/>
      <feComposite in="shadowOffsetOuter1" in2="SourceAlpha" operator="out" result="shadowOffsetOuter1"/>
      <feColorMatrix in="shadowOffsetOuter1" values="0 0 0 0 0 0 0 0 0 0 0 0 0 0 0 0 0 0 0.35 0"/>
    </filter>
    <rect id="new-task-ac" width="26.292" height="35" x="214.304" y="467.333" rx="5"/>
    <filter id="new-task-ab" width="103.8%" height="105.7%" x="-1.9%" y="-1.4%" filterUnits="objectBoundingBox">
      <feOffset dy="1" in="SourceAlpha" result="shadowOffsetOuter1"/>
      <feComposite in="shadowOffsetOuter1" in2="SourceAlpha" operator="out" result="shadowOffsetOuter1"/>
      <feColorMatrix in="shadowOffsetOuter1" values="0 0 0 0 0 0 0 0 0 0 0 0 0 0 0 0 0 0 0.35 0"/>
    </filter>
    <rect id="new-task-ae" width="26.292" height="35" x="183.004" y="467.333" rx="5"/>
    <filter id="new-task-ad" width="103.8%" height="105.7%" x="-1.9%" y="-1.4%" filterUnits="objectBoundingBox">
      <feOffset dy="1" in="SourceAlpha" result="shadowOffsetOuter1"/>
      <feComposite in="shadowOffsetOuter1" in2="SourceAlpha" operator="out" result="shadowOffsetOuter1"/>
      <feColorMatrix in="shadowOffsetOuter1" values="0 0 0 0 0 0 0 0 0 0 0 0 0 0 0 0 0 0 0.35 0"/>
    </filter>
    <rect id="new-task-ag" width="26.292" height="35" x="151.704" y="467.333" rx="5"/>
    <filter id="new-task-af" width="103.8%" height="105.7%" x="-1.9%" y="-1.4%" filterUnits="objectBoundingBox">
      <feOffset dy="1" in="SourceAlpha" result="shadowOffsetOuter1"/>
      <feComposite in="shadowOffsetOuter1" in2="SourceAlpha" operator="out" result="shadowOffsetOuter1"/>
      <feColorMatrix in="shadowOffsetOuter1" values="0 0 0 0 0 0 0 0 0 0 0 0 0 0 0 0 0 0 0.35 0"/>
    </filter>
    <rect id="new-task-ai" width="26.292" height="35" x="120.404" y="467.333" rx="5"/>
    <filter id="new-task-ah" width="103.8%" height="105.7%" x="-1.9%" y="-1.4%" filterUnits="objectBoundingBox">
      <feOffset dy="1" in="SourceAlpha" result="shadowOffsetOuter1"/>
      <feComposite in="shadowOffsetOuter1" in2="SourceAlpha" operator="out" result="shadowOffsetOuter1"/>
      <feColorMatrix in="shadowOffsetOuter1" values="0 0 0 0 0 0 0 0 0 0 0 0 0 0 0 0 0 0 0.35 0"/>
    </filter>
    <rect id="new-task-ak" width="26.292" height="35" x="89.104" y="467.333" rx="5"/>
    <filter id="new-task-aj" width="103.8%" height="105.7%" x="-1.9%" y="-1.4%" filterUnits="objectBoundingBox">
      <feOffset dy="1" in="SourceAlpha" result="shadowOffsetOuter1"/>
      <feComposite in="shadowOffsetOuter1" in2="SourceAlpha" operator="out" result="shadowOffsetOuter1"/>
      <feColorMatrix in="shadowOffsetOuter1" values="0 0 0 0 0 0 0 0 0 0 0 0 0 0 0 0 0 0 0.35 0"/>
    </filter>
    <rect id="new-task-am" width="26.292" height="35" x="57.804" y="467.333" rx="5"/>
    <filter id="new-task-al" width="103.8%" height="105.7%" x="-1.9%" y="-1.4%" filterUnits="objectBoundingBox">
      <feOffset dy="1" in="SourceAlpha" result="shadowOffsetOuter1"/>
      <feComposite in="shadowOffsetOuter1" in2="SourceAlpha" operator="out" result="shadowOffsetOuter1"/>
      <feColorMatrix in="shadowOffsetOuter1" values="0 0 0 0 0 0 0 0 0 0 0 0 0 0 0 0 0 0 0.35 0"/>
    </filter>
    <rect id="new-task-ao" width="26.292" height="35" x="26.504" y="467.333" rx="5"/>
    <filter id="new-task-an" width="103.8%" height="105.7%" x="-1.9%" y="-1.4%" filterUnits="objectBoundingBox">
      <feOffset dy="1" in="SourceAlpha" result="shadowOffsetOuter1"/>
      <feComposite in="shadowOffsetOuter1" in2="SourceAlpha" operator="out" result="shadowOffsetOuter1"/>
      <feColorMatrix in="shadowOffsetOuter1" values="0 0 0 0 0 0 0 0 0 0 0 0 0 0 0 0 0 0 0.35 0"/>
    </filter>
    <linearGradient id="new-task-ap" x1="52.228%" x2="52.228%" y1="0%" y2="100%">
      <stop offset="0%" stop-color="#0A0A0A" stop-opacity="0"/>
      <stop offset="100%" stop-color="#0A0A0A"/>
    </linearGradient>
    <linearGradient id="new-task-aq" x1="50%" x2="50%" y1="0%" y2="100%">
      <stop offset="0%" stop-color="#101010" stop-opacity="0"/>
      <stop offset="100%" stop-color="#101010"/>
    </linearGradient>
  </defs>
  <g fill="none" fill-rule="evenodd">
    <path fill="#EEE3C1" d="M359,185.983274 L359,665.03064 C359,685.535571 356.865011,692.971155 352.855948,700.467451 C348.846885,707.963747 342.963747,713.846885 335.467451,717.855948 C327.971155,721.865011 320.535571,724 300.03064,724 L61.9693596,724 C41.4644286,724 34.0288451,721.865011 26.5325488,717.855948 C19.0362525,713.846885 13.1531153,707.963747 9.14405219,700.467451 C5.13498906,692.971155 3,685.535571 3,665.03064 L3,244 L2.5638852,244 C1.67236646,244 1.34908022,243.907174 1.0231543,243.732867 C0.697228371,243.55856 0.441439796,243.302772 0.267132704,242.976846 C0.0928256111,242.65092 4.01235366e-17,242.327634 -6.90560205e-17,241.436115 L6.90560205e-17,199.563885 C-4.01235366e-17,198.672366 0.0928256111,198.34908 0.267132704,198.023154 C0.441439796,197.697228 0.697228371,197.44144 1.0231543,197.267133 C1.34908022,197.092826 1.67236646,197 2.5638852,197 L3,197 L3,186 L2.5638852,186 C1.67236646,186 1.34908022,185.907174 1.0231543,185.732867 C0.697228371,185.55856 0.441439796,185.302772 0.267132704,184.976846 C0.0928256111,184.65092 4.01235366e-17,184.327634 -6.90560205e-17,183.436115 L6.90560205e-17,141.563885 C-4.01235366e-17,140.672366 0.0928256111,140.34908 0.267132704,140.023154 C0.441439796,139.697228 0.697228371,139.44144 1.0231543,139.267133 C1.34908022,139.092826 1.67236646,139 2.5638852,139 L3,139 L3,112 L2.5638852,112 C1.67236646,112 1.34908022,111.907174 1.0231543,111.732867 C0.697228371,111.55856 0.441439796,111.302772 0.267132704,110.976846 C0.0928256111,110.65092 4.01235366e-17,110.327634 -6.90560205e-17,109.436115 L6.90560205e-17,88.5638852 C-4.01235366e-17,87.6723665 0.0928256111,87.3490802 0.267132704,87.0231543 C0.441439796,86.6972284 0.697228371,86.4414398 1.0231543,86.2671327 C1.34908022,86.0928256 1.67236646,86 2.5638852,86 L3,86 L3,58.9693596 C3,38.4644286 5.13498906,31.0288451 9.14405219,23.5325488 C13.1531153,16.0362525 19.0362525,10.1531153 26.5325488,6.14405219 C34.0288451,2.13498906 41.4644286,1.38426201e-15 61.9693596,-2.38243271e-15 L300.03064,2.38243271e-15 C320.535571,-1.38426201e-15 327.971155,2.13498906 335.467451,6.14405219 C342.963747,10.1531153 348.846885,16.0362525 352.855948,23.5325488 C356.865011,31.0288451 359,38.4644286 359,58.9693596 L359,139.016726 C359.487053,139.050672 359.7312,139.13576 359.976846,139.267133 C360.302772,139.44144 360.55856,139.697228 360.732867,140.023154 C360.907174,140.34908 361,140.672366 361,141.563885 L361,183.436115 C361,184.327634 360.907174,184.65092 360.732867,184.976846 C360.55856,185.302772 360.302772,185.55856 359.976846,185.732867 C359.7312,185.86424 359.487053,185.949328 359,185.983274 Z M181,704 C194.030976,704 205,693.030976 205,680 C205,665.969024 194.030976,655 181,655 C166.969024,655 156,665.969024 156,680 C156,693.030976 166.969024,704 181,704 Z M181,702 C168.073593,702 158,691.926407 158,680 C158,667.073593 168.073593,657 181,657 C192.926407,657 203,667.073593 203,680 C203,691.926407 192.926407,702 181,702 Z M119.5,49 C122.537566,49 125,46.5375661 125,43.5 C125,40.4624339 122.537566,38 119.5,38 C116.462434,38 114,40.4624339 114,43.5 C114,46.5375661 116.462434,49 119.5,49 Z M181,27 C182.656854,27 184,25.6568542 184,24 C184,22.3431458 182.656854,21 181,21 C179.343146,21 178,22.3431458 178,24 C178,25.6568542 179.343146,27 181,27 Z M151.5,41 C150.119288,41 149,42.1192881 149,43.5 C149,44.8807119 150.119288,46 151.5,46 L210.5,46 C211.880712,46 213,44.8807119 213,43.5 C213,42.1192881 211.880712,41 210.5,41 L151.5,41 Z"/>
    <rect width="317" height="561" x="22" y="81" fill="#0A0A0A" rx="2"/>
    <g fill="#000000">
      <use fill-opacity=".6" xlink:href="#new-task-a"/>
      <use fill-opacity=".1" xlink:href="#new-task-a" style="mix-blend-mode:soft-light"/>
    </g>
    <use fill="black" filter="url(#new-task-b)" xlink:href="#new-task-c"/>
    <use fill="#FFFFFF" fill-opacity=".13" xlink:href="#new-task-c"/>
    <path fill="#FFFFFF" d="M277.125198,622.833333 L277.125198,614.411458 L278.406448,614.411458 L278.406448,615.661458 L278.531448,615.661458 C278.781448,614.841146 279.750198,614.263021 280.867385,614.263021 C281.086135,614.263021 281.367385,614.278646 281.53926,614.302083 L281.53926,615.645833 C281.429885,615.614583 280.94551,615.567708 280.679885,615.567708 C279.398635,615.567708 278.468948,616.427083 278.468948,617.614583 L278.468948,622.833333 L277.125198,622.833333 Z M286.023948,615.450521 C284.680198,615.450521 283.742698,616.434896 283.641135,617.927083 L288.28176,617.927083 C288.25051,616.434896 287.359885,615.450521 286.023948,615.450521 Z M288.242698,620.653646 L289.586448,620.653646 C289.180198,622.098958 287.883323,622.981771 286.039573,622.981771 C283.703635,622.981771 282.242698,621.294271 282.242698,618.630208 C282.242698,615.981771 283.727073,614.263021 286.039573,614.263021 C288.31301,614.263021 289.695823,615.880208 289.695823,618.497396 L289.695823,619.013021 L283.641135,619.013021 L283.641135,619.075521 C283.711448,620.739583 284.641135,621.794271 286.070823,621.794271 C287.15676,621.794271 287.891135,621.395833 288.242698,620.653646 Z M292.047698,612.231771 L293.391448,612.231771 L293.391448,614.411458 L295.266448,614.411458 L295.266448,615.536458 L293.391448,615.536458 L293.391448,620.302083 C293.391448,621.294271 293.766448,621.716146 294.641448,621.716146 C294.883635,621.716146 295.016448,621.708333 295.266448,621.684896 L295.266448,622.817708 C295.000823,622.864583 294.74301,622.895833 294.477385,622.895833 C292.74301,622.895833 292.047698,622.255208 292.047698,620.645833 L292.047698,615.536458 L290.688323,615.536458 L290.688323,614.411458 L292.047698,614.411458 L292.047698,612.231771 Z M303.790198,614.411458 L303.790198,622.833333 L302.508948,622.833333 L302.508948,621.513021 L302.383948,621.513021 C301.962073,622.450521 301.063635,622.981771 299.774573,622.981771 C297.883948,622.981771 296.899573,621.856771 296.899573,619.864583 L296.899573,614.411458 L298.243323,614.411458 L298.243323,619.536458 C298.243323,621.052083 298.805823,621.755208 300.149573,621.755208 C301.633948,621.755208 302.446448,620.872396 302.446448,619.395833 L302.446448,614.411458 L303.790198,614.411458 Z M306.001448,622.833333 L306.001448,614.411458 L307.282698,614.411458 L307.282698,615.661458 L307.407698,615.661458 C307.657698,614.841146 308.626448,614.263021 309.743635,614.263021 C309.962385,614.263021 310.243635,614.278646 310.41551,614.302083 L310.41551,615.645833 C310.306135,615.614583 309.82176,615.567708 309.556135,615.567708 C308.274885,615.567708 307.345198,616.427083 307.345198,617.614583 L307.345198,622.833333 L306.001448,622.833333 Z M311.931448,622.833333 L311.931448,614.411458 L313.212698,614.411458 L313.212698,615.739583 L313.337698,615.739583 C313.759573,614.809896 314.579885,614.263021 315.868948,614.263021 C317.759573,614.263021 318.81426,615.380208 318.81426,617.380208 L318.81426,622.833333 L317.47051,622.833333 L317.47051,617.708333 C317.47051,616.192708 316.829885,615.473958 315.486135,615.473958 C314.142385,615.473958 313.275198,616.372396 313.275198,617.848958 L313.275198,622.833333 L311.931448,622.833333 Z"/>
    <use fill="black" filter="url(#new-task-d)" xlink:href="#new-task-e"/>
    <use fill="#FFFFFF" fill-opacity=".3" xlink:href="#new-task-e"/>
    <path fill="#FFFFFF" d="M175.962875,616.716146 C175.962875,615.317708 177.314437,614.263021 179.1035,614.263021 C180.869125,614.263021 182.095687,615.138021 182.275375,616.520833 L180.94725,616.520833 C180.767562,615.848958 180.111312,615.403646 179.095687,615.403646 C178.095687,615.403646 177.314437,615.911458 177.314437,616.661458 C177.314437,617.239583 177.783187,617.598958 178.775375,617.841146 L180.07225,618.153646 C181.658187,618.536458 182.423812,619.223958 182.423812,620.434896 C182.423812,621.942708 180.962875,622.981771 179.048812,622.981771 C177.173812,622.981771 175.88475,622.083333 175.736312,620.684896 L177.119125,620.684896 C177.345687,621.395833 178.017562,621.848958 179.095687,621.848958 C180.2285,621.848958 181.041,621.309896 181.041,620.536458 C181.041,619.958333 180.6035,619.567708 179.705062,619.348958 L178.25975,618.997396 C176.681625,618.614583 175.962875,617.934896 175.962875,616.716146 Z M188.31475,614.263021 C190.463187,614.263021 191.853812,615.973958 191.853812,618.622396 C191.853812,621.255208 190.455375,622.981771 188.31475,622.981771 C187.111625,622.981771 186.142875,622.458333 185.681937,621.567708 L185.556937,621.567708 L185.556937,625.645833 L184.213187,625.645833 L184.213187,614.411458 L185.494437,614.411458 L185.494437,615.817708 L185.619437,615.817708 C186.1585,614.848958 187.166312,614.263021 188.31475,614.263021 Z M187.994437,621.770833 C189.541312,621.770833 190.463187,620.591146 190.463187,618.622396 C190.463187,616.653646 189.541312,615.473958 188.00225,615.473958 C186.478812,615.473958 185.517875,616.684896 185.517875,618.622396 C185.517875,620.552083 186.478812,621.770833 187.994437,621.770833 Z M196.236937,621.802083 C197.61975,621.802083 198.643187,620.895833 198.643187,619.692708 L198.643187,618.919271 L196.377562,619.067708 C195.096312,619.153646 194.533812,619.598958 194.533812,620.442708 C194.533812,621.302083 195.260375,621.802083 196.236937,621.802083 Z M195.986937,622.981771 C194.354125,622.981771 193.143187,622.013021 193.143187,620.473958 C193.143187,618.966146 194.252562,618.098958 196.2135,617.981771 L198.643187,617.833333 L198.643187,617.067708 C198.643187,616.028646 197.99475,615.458333 196.736937,615.458333 C195.729125,615.458333 195.026,615.841146 194.8385,616.505208 L193.479125,616.505208 C193.658812,615.153646 194.986937,614.263021 196.783812,614.263021 C198.8385,614.263021 199.986937,615.317708 199.986937,617.067708 L199.986937,622.833333 L198.705687,622.833333 L198.705687,621.591146 L198.580687,621.591146 C198.033812,622.489583 197.111937,622.981771 195.986937,622.981771 Z M209.120063,616.989583 L207.760688,616.989583 C207.541938,616.153646 206.79975,615.473958 205.588813,615.473958 C204.073188,615.473958 203.120063,616.684896 203.120063,618.591146 C203.120063,620.536458 204.088813,621.770833 205.588813,621.770833 C206.721625,621.770833 207.510688,621.247396 207.760688,620.294271 L209.120063,620.294271 C208.877875,621.841146 207.620063,622.981771 205.596625,622.981771 C203.23725,622.981771 201.729438,621.270833 201.729438,618.591146 C201.729438,615.966146 203.229438,614.263021 205.588813,614.263021 C207.635688,614.263021 208.885688,615.489583 209.120063,616.989583 Z M214.143813,615.450521 C212.800063,615.450521 211.862563,616.434896 211.761,617.927083 L216.401625,617.927083 C216.370375,616.434896 215.47975,615.450521 214.143813,615.450521 Z M216.362563,620.653646 L217.706313,620.653646 C217.300063,622.098958 216.003188,622.981771 214.159438,622.981771 C211.8235,622.981771 210.362563,621.294271 210.362563,618.630208 C210.362563,615.981771 211.846938,614.263021 214.159438,614.263021 C216.432875,614.263021 217.815688,615.880208 217.815688,618.497396 L217.815688,619.013021 L211.761,619.013021 L211.761,619.075521 C211.831313,620.739583 212.761,621.794271 214.190688,621.794271 C215.276625,621.794271 216.011,621.395833 216.362563,620.653646 Z"/>
    <use fill="black" filter="url(#new-task-f)" xlink:href="#new-task-g"/>
    <use fill="#FFFFFF" fill-opacity=".3" xlink:href="#new-task-g"/>
    <path fill="#FFFFFF" d="M121.9,627.833333 C121.9,628.247547 121.55625,628.583333 121.147379,628.583333 L114.652621,628.583333 C114.23696,628.583333 113.9,628.250435 113.9,627.833333 C113.9,627.41912 114.235566,627.083333 114.653784,627.083333 L117.15,627.083333 L117.15,625.083333 C114.65,625.083333 111.9,622.057732 111.9,620.061024 C111.9,618.568429 111.9,616.838289 111.9,616.838289 C111.9,616.421339 112.232899,616.083333 112.65,616.083333 C113.064214,616.083333 113.4,616.422469 113.4,616.831506 L113.4,620.061024 C113.4,621.561024 115.4,623.561023 117.9,623.561024 C120.4,623.561024 122.4,621.561024 122.4,620.061024 L122.4,616.831506 C122.4,616.418302 122.732899,616.083333 123.15,616.083333 C123.564214,616.083333 123.9,616.423597 123.9,616.843102 L123.9,620.061024 C123.9,622.057732 121.15,625.083333 118.65,625.083333 L118.65,627.083333 L121.146216,627.083333 C121.562519,627.083333 121.9,627.416232 121.9,627.833333 Z M114.4,612.080011 C114.4,610.148849 115.970937,608.583333 117.9,608.583333 C119.832997,608.583333 121.4,610.14856 121.4,612.080011 L121.4,619.086656 C121.4,621.017818 119.829063,622.583333 117.9,622.583333 C115.967003,622.583333 114.4,621.018107 114.4,619.086656 L114.4,612.080011 Z M115.9,612.07535 L115.9,619.091316 C115.9,620.183157 116.795431,621.083333 117.9,621.083333 C119.01227,621.083333 119.9,620.191477 119.9,619.091316 L119.9,612.07535 C119.9,610.983509 119.004569,610.083333 117.9,610.083333 C116.78773,610.083333 115.9,610.97519 115.9,612.07535 Z"/>
    <use fill="black" filter="url(#new-task-h)" xlink:href="#new-task-i"/>
    <use fill="#FFFFFF" fill-opacity=".13" xlink:href="#new-task-i"/>
    <path fill="#FFFFFF" d="M82.218,627.708333 C76.8332237,627.708333 72.468,623.34311 72.468,617.958333 C72.468,612.573557 76.8332237,608.208333 82.218,608.208333 C87.6027763,608.208333 91.968,612.573557 91.968,617.958333 C91.968,623.34311 87.6027763,627.708333 82.218,627.708333 Z M82.218,626.708333 C87.0504916,626.708333 90.968,622.790825 90.968,617.958333 C90.968,613.125842 87.0504916,609.208333 82.218,609.208333 C77.3855084,609.208333 73.468,613.125842 73.468,617.958333 C73.468,622.790825 77.3855084,626.708333 82.218,626.708333 Z M79.218,616.208333 C78.5276441,616.208333 77.968,615.648689 77.968,614.958333 C77.968,614.267977 78.5276441,613.708333 79.218,613.708333 C79.9083559,613.708333 80.468,614.267977 80.468,614.958333 C80.468,615.648689 79.9083559,616.208333 79.218,616.208333 Z M85.218,616.208333 C84.5276441,616.208333 83.968,615.648689 83.968,614.958333 C83.968,614.267977 84.5276441,613.708333 85.218,613.708333 C85.9083559,613.708333 86.468,614.267977 86.468,614.958333 C86.468,615.648689 85.9083559,616.208333 85.218,616.208333 Z M75.3556334,619.372478 C75.1070316,618.591467 75.533918,618.186849 76.3210951,618.441264 C76.3210951,618.441264 78.5617503,619.420833 82.2180001,619.420833 C85.8742499,619.420833 88.1149047,618.441264 88.1149047,618.441264 C88.8967162,618.174549 89.3492463,618.612743 89.0738477,619.389077 C89.0738477,619.389077 88.068,624.783333 82.218,624.783333 C76.368,624.783333 75.3556334,619.372478 75.3556334,619.372478 Z M82.218,620.395833 C79.53675,620.395833 77.3224055,619.682115 77.3224055,619.682115 C76.7953019,619.537813 76.6461233,619.780495 77.0319555,620.165408 C77.0319555,620.165408 77.8305,621.858333 82.218,621.858333 C86.6055,621.858333 87.4188503,620.152164 87.4188503,620.152164 C87.7773659,619.748261 87.6370793,619.544318 87.1034273,619.684682 C87.1034273,619.684682 84.89925,620.395833 82.218,620.395833 Z"/>
    <use fill="black" filter="url(#new-task-j)" xlink:href="#new-task-k"/>
    <use fill="#FFFFFF" fill-opacity=".13" xlink:href="#new-task-k"/>
    <path fill="#FFFFFF" d="M34.0523333,623.666667 L34.0523333,613.955729 L33.9273333,613.955729 L31.0601458,616.033854 L31.0601458,614.549479 L34.0601458,612.393229 L35.4585833,612.393229 L35.4585833,623.666667 L34.0523333,623.666667 Z M38.4276458,615.565104 C38.4276458,613.565104 39.9432708,612.127604 42.0370208,612.127604 C44.0604583,612.127604 45.6073333,613.502604 45.6073333,615.291667 C45.6073333,616.463542 45.0760833,617.377604 43.2245208,619.361979 L40.5135833,622.276042 L40.5135833,622.401042 L45.7948333,622.401042 L45.7948333,623.666667 L38.4979583,623.666667 L38.4979583,622.697917 L42.3963958,618.440104 C43.8495208,616.861979 44.2010833,616.252604 44.2010833,615.346354 C44.2010833,614.221354 43.2401458,613.354167 41.9979583,613.354167 C40.6776458,613.354167 39.7870208,614.236979 39.7870208,615.565104 L39.7870208,615.572917 L38.4276458,615.572917 L38.4276458,615.565104 Z M50.1467083,618.471354 L50.1467083,617.268229 L51.5138958,617.268229 C52.7951458,617.268229 53.7013958,616.440104 53.7013958,615.268229 C53.7013958,614.119792 52.8342083,613.354167 51.5373333,613.354167 C50.2404583,613.354167 49.3888958,614.072917 49.2717083,615.283854 L47.9045208,615.283854 C48.0451458,613.330729 49.4435833,612.127604 51.5920208,612.127604 C53.5607708,612.127604 55.1310833,613.440104 55.1310833,615.080729 C55.1310833,616.424479 54.3888958,617.408854 53.1545208,617.705729 L53.1545208,617.830729 C54.6857708,618.026042 55.6154583,619.088542 55.6154583,620.627604 C55.6154583,622.486979 53.8732708,623.932292 51.6467083,623.932292 C49.3576458,623.932292 47.7795208,622.658854 47.6779583,620.729167 L49.0373333,620.729167 C49.1623333,621.932292 50.1779583,622.705729 51.6310833,622.705729 C53.1154583,622.705729 54.1701458,621.822917 54.1701458,620.588542 C54.1701458,619.283854 53.1779583,618.471354 51.5763958,618.471354 L50.1467083,618.471354 Z"/>
    <use fill="black" filter="url(#new-task-l)" xlink:href="#new-task-m"/>
    <use fill="#FFFFFF" fill-opacity=".13" xlink:href="#new-task-m"/>
    <path fill="#FFFFFF" d="M306.014489,575.892678 C305.429429,575.307618 305.436496,574.351982 306.014489,573.773989 L312.745059,567.043419 C313.137229,566.651249 313.904065,566.333333 314.462629,566.333333 L324.957242,566.333333 C326.889081,566.333333 328.455145,567.902181 328.455145,569.835132 L328.455145,579.831535 C328.455145,581.765525 326.878233,583.333333 324.957242,583.333333 L314.462628,583.333333 C313.90621,583.333333 313.132314,583.010503 312.745059,582.623248 L306.014489,575.892678 Z M320.597807,574.811024 L323.421939,571.986892 C323.71525,571.693581 323.719128,571.21483 323.426235,570.921936 C323.131299,570.627001 322.656545,570.630966 322.361279,570.926232 L319.537147,573.750363 L316.713016,570.926232 C316.419705,570.632921 315.940953,570.629043 315.64806,570.921936 C315.353125,571.216872 315.35709,571.691626 315.652355,571.986892 L318.476487,574.811024 L315.652355,577.635155 C315.359045,577.928466 315.355167,578.407218 315.64806,578.700111 C315.942995,578.995046 316.41775,578.991081 316.713016,578.695816 L319.537147,575.871684 L322.361279,578.695816 C322.65459,578.989126 323.133341,578.993004 323.426235,578.700111 C323.72117,578.405176 323.717205,577.930421 323.421939,577.635155 L320.597807,574.811024 Z M307.664864,575.543053 C307.272897,575.151086 307.27411,574.514368 307.664864,574.123614 L313.59839,568.190088 C313.79542,567.993058 314.180784,567.833333 314.448886,567.833333 L324.952384,567.833333 C326.058478,567.833333 326.955144,568.730393 326.955144,569.839192 L326.955144,579.827475 C326.955144,580.93528 326.061601,581.833333 324.952384,581.833333 L314.448886,581.833333 C314.1762,581.833333 313.795788,581.673976 313.59839,581.476579 L307.664864,575.543053 Z"/>
    <use fill="black" filter="url(#new-task-n)" xlink:href="#new-task-o"/>
    <use fill="#FFFFFF" fill-opacity=".3" xlink:href="#new-task-o"/>
    <path fill="#FFFFFF" d="M265.947778,581.958333 L265.947778,569.263021 L267.949731,569.263021 L267.949731,571.289388 L267.998559,571.289388 C268.596704,569.946615 269.890649,569.043294 271.599633,569.043294 C273.333032,569.043294 274.61477,569.922201 275.164087,571.460286 L275.212915,571.460286 C275.920923,569.946615 277.41018,569.043294 279.192407,569.043294 C281.707055,569.043294 283.33059,570.679036 283.33059,573.193685 L283.33059,581.958333 L281.206567,581.958333 L281.206567,573.681966 C281.206567,571.948568 280.242212,570.923177 278.569848,570.923177 C276.885278,570.923177 275.701196,572.168294 275.701196,573.889486 L275.701196,581.958333 L273.577173,581.958333 L273.577173,573.450033 C273.577173,571.924154 272.551782,570.923177 270.977075,570.923177 C269.292505,570.923177 268.071801,572.241536 268.071801,573.999349 L268.071801,581.958333 L265.947778,581.958333 Z"/>
    <use fill="black" filter="url(#new-task-p)" xlink:href="#new-task-q"/>
    <use fill="#FFFFFF" fill-opacity=".3" xlink:href="#new-task-q"/>
    <path fill="#FFFFFF" d="M238.311035,581.958333 L238.311035,569.263021 L240.312988,569.263021 L240.312988,571.289388 L240.361816,571.289388 C241.069824,569.922201 242.424804,569.043294 244.390136,569.043294 C247.173339,569.043294 248.784667,570.837728 248.784667,573.718587 L248.784667,581.958333 L246.660644,581.958333 L246.660644,574.097005 C246.660644,572.046224 245.696288,570.923177 243.743163,570.923177 C241.74121,570.923177 240.435058,572.339193 240.435058,574.48763 L240.435058,581.958333 L238.311035,581.958333 Z"/>
    <use fill="black" filter="url(#new-task-r)" xlink:href="#new-task-s"/>
    <use fill="#FFFFFF" fill-opacity=".3" xlink:href="#new-task-s"/>
    <path fill="#FFFFFF" d="M212.980273,582.17806 C211.124804,582.17806 209.672167,581.27474 208.854296,579.809896 L208.805468,579.809896 L208.805468,581.958333 L206.779101,581.958333 L206.779101,564.343587 L208.903124,564.343587 L208.903124,571.387044 L208.951952,571.387044 C209.74541,569.934408 211.22246,569.043294 213.016894,569.043294 C216.215136,569.043294 218.375781,571.631185 218.375781,575.610677 C218.375781,579.602376 216.227343,582.17806 212.980273,582.17806 Z M212.565234,570.91097 C210.416796,570.91097 208.890917,572.790853 208.890917,575.610677 C208.890917,578.442708 210.416796,580.310384 212.565234,580.310384 C214.811327,580.310384 216.202929,578.515951 216.202929,575.610677 C216.202929,572.729818 214.811327,570.91097 212.565234,570.91097 Z"/>
    <use fill="black" filter="url(#new-task-t)" xlink:href="#new-task-u"/>
    <use fill="#FFFFFF" fill-opacity=".3" xlink:href="#new-task-u"/>
    <polygon fill="#FFFFFF" points="186.256 569.263 181.593 581.958 179.42 581.958 174.744 569.263 176.978 569.263 180.482 579.7 180.531 579.7 184.046 569.263"/>
    <use fill="black" filter="url(#new-task-v)" xlink:href="#new-task-w"/>
    <use fill="#FFFFFF" fill-opacity=".3" xlink:href="#new-task-w"/>
    <path fill="#FFFFFF" d="M154.655396,573.425618 L152.580201,573.425618 C152.275025,572.046224 151.200806,570.91097 149.33313,570.91097 C147.135865,570.91097 145.646607,572.729818 145.646607,575.610677 C145.646607,578.564779 147.160279,580.310384 149.357544,580.310384 C151.090943,580.310384 152.226197,579.394857 152.592408,577.868978 L154.67981,577.868978 C154.35022,580.395833 152.226197,582.17806 149.345337,582.17806 C145.829712,582.17806 143.485962,579.700033 143.485962,575.610677 C143.485962,571.606771 145.817505,569.043294 149.320923,569.043294 C152.494751,569.043294 154.386841,571.142904 154.655396,573.425618 Z"/>
    <use fill="black" filter="url(#new-task-x)" xlink:href="#new-task-y"/>
    <use fill="#FFFFFF" fill-opacity=".3" xlink:href="#new-task-y"/>
    <polygon fill="#FFFFFF" points="117.697 577.124 117.649 577.124 114.585 581.958 112.229 581.958 116.55 575.611 112.302 569.263 114.67 569.263 117.722 574.024 117.771 574.024 120.786 569.263 123.154 569.263 118.869 575.525 123.093 581.958 120.737 581.958"/>
    <use fill="black" filter="url(#new-task-z)" xlink:href="#new-task-A"/>
    <use fill="#FFFFFF" fill-opacity=".3" xlink:href="#new-task-A"/>
    <polygon fill="#FFFFFF" points="81.446 581.958 81.446 580.445 88.478 571.045 88.478 571.009 81.459 571.009 81.459 569.263 90.882 569.263 90.882 570.813 83.9 580.176 83.9 580.213 90.919 580.213 90.919 581.958"/>
    <use fill="black" filter="url(#new-task-B)" xlink:href="#new-task-C"/>
    <use fill="#FFFFFF" fill-opacity=".13" xlink:href="#new-task-C"/>
    <path fill="#FFFFFF" d="M44.703694,566.113324 L53.3372094,575.532032 C54.2757453,576.555926 53.9081289,577.380734 52.5220184,577.380734 L49.0317936,577.380734 L49.0317936,581.882158 C49.0317936,582.715704 48.3615186,583.380734 47.5346925,583.380734 L40.5288942,583.380734 C39.7034491,583.380734 39.0317931,582.709799 39.0317931,581.882158 L39.0317931,577.380734 L35.5415684,577.380734 C34.1603474,577.380734 33.7905373,576.553042 34.7264956,575.532032 L43.3606127,566.113324 C43.7264824,565.714207 44.3328253,565.708726 44.703694,566.113324 Z M44.3735413,568.245265 C44.1847989,568.04394 43.8751448,568.047825 43.6900447,568.245265 L36.5317933,575.880734 L40.5317934,575.880734 L40.5317934,581.389729 C40.5317934,581.660904 40.7646959,581.880735 41.0352161,581.880735 L47.0283702,581.880735 C47.3064029,581.880735 47.5317929,581.652854 47.5317929,581.389729 L47.5317929,575.880734 L51.5317933,575.880734 L44.3735413,568.245265 Z"/>
    <use fill="black" filter="url(#new-task-D)" xlink:href="#new-task-E"/>
    <use fill="#FFFFFF" fill-opacity=".3" xlink:href="#new-task-E"/>
    <polygon fill="#FFFFFF" points="305.055 536.958 305.055 519.344 307.179 519.344 307.179 536.958"/>
    <use fill="black" filter="url(#new-task-F)" xlink:href="#new-task-G"/>
    <use fill="#FFFFFF" fill-opacity=".3" xlink:href="#new-task-G"/>
    <polygon fill="#FFFFFF" points="272.155 529.903 277.77 524.263 280.346 524.263 274.841 529.744 280.517 536.958 278.051 536.958 273.339 531.05 272.155 532.173 272.155 536.958 270.031 536.958 270.031 519.344 272.155 519.344"/>
    <use fill="black" filter="url(#new-task-H)" xlink:href="#new-task-I"/>
    <use fill="#FFFFFF" fill-opacity=".3" xlink:href="#new-task-I"/>
    <path fill="#FFFFFF" d="M244.788012,524.263021 L244.788012,537.580892 C244.788012,540.156576 243.567309,541.328451 240.857348,541.328451 C240.820727,541.328451 240.47893,541.328451 240.454516,541.316243 L240.454516,539.546224 L240.784105,539.546224 C242.1635,539.546224 242.663988,539.021322 242.663988,537.605306 L242.663988,524.263021 L244.788012,524.263021 Z M243.726,522.12679 C243.005785,522.12679 242.407641,521.528646 242.407641,520.808431 C242.407641,520.076009 243.005785,519.490072 243.726,519.490072 C244.458422,519.490072 245.056566,520.076009 245.056566,520.808431 C245.056566,521.528646 244.458422,522.12679 243.726,522.12679 Z"/>
    <use fill="black" filter="url(#new-task-J)" xlink:href="#new-task-K"/>
    <use fill="#FFFFFF" fill-opacity=".3" xlink:href="#new-task-K"/>
    <path fill="#FFFFFF" d="M206.96831,536.958333 L206.96831,519.343587 L209.092333,519.343587 L209.092333,526.289388 L209.141161,526.289388 C209.849169,524.873372 211.240771,524.043294 213.169482,524.043294 C215.952685,524.043294 217.637255,525.923177 217.637255,528.755208 L217.637255,536.958333 L215.513232,536.958333 L215.513232,529.145833 C215.513232,527.131673 214.500048,525.923177 212.510302,525.923177 C210.398486,525.923177 209.092333,527.363607 209.092333,529.560872 L209.092333,536.958333 L206.96831,536.958333 Z"/>
    <use fill="black" filter="url(#new-task-L)" xlink:href="#new-task-M"/>
    <use fill="#FFFFFF" fill-opacity=".3" xlink:href="#new-task-M"/>
    <path fill="#FFFFFF" d="M180.593847,535.188314 C182.80332,535.188314 184.28037,533.357259 184.28037,530.561849 C184.28037,527.766439 182.80332,525.91097 180.593847,525.91097 C178.408788,525.91097 176.980566,527.717611 176.980566,530.561849 C176.980566,533.406087 178.408788,535.188314 180.593847,535.188314 Z M180.667089,541.74349 C177.871679,541.74349 175.662206,540.168783 175.308202,538.008138 L177.493261,538.008138 C177.9083,539.167806 179.165624,539.936849 180.752538,539.936849 C182.949804,539.936849 184.28037,538.667318 184.28037,536.775228 L184.28037,534.773275 L184.231542,534.773275 C183.450292,536.152669 181.948827,537.05599 180.166601,537.05599 C176.931738,537.05599 174.807714,534.50472 174.807714,530.561849 C174.807714,526.582357 176.931738,524.043294 180.215429,524.043294 C182.009863,524.043294 183.49912,524.922201 184.341406,526.399251 L184.378027,526.399251 L184.378027,524.263021 L186.404394,524.263021 L186.404394,536.701986 C186.404394,539.729329 184.170507,541.74349 180.667089,541.74349 Z"/>
    <use fill="black" filter="url(#new-task-N)" xlink:href="#new-task-O"/>
    <use fill="#FFFFFF" fill-opacity=".3" xlink:href="#new-task-O"/>
    <path fill="#FFFFFF" d="M147.049268,536.958333 L147.049268,526.008626 L145.279249,526.008626 L145.279249,524.263021 L147.049268,524.263021 L147.049268,522.847005 C147.049268,520.405599 148.184522,519.245931 150.528272,519.245931 C151.004346,519.245931 151.517042,519.294759 151.822217,519.343587 L151.822217,521.064779 C151.56587,521.028158 151.211866,520.991536 150.857862,520.991536 C149.710401,520.991536 149.161085,521.601888 149.161085,522.859212 L149.161085,524.263021 L151.761182,524.263021 L151.761182,526.008626 L149.173292,526.008626 L149.173292,536.958333 L147.049268,536.958333 Z"/>
    <use fill="black" filter="url(#new-task-P)" xlink:href="#new-task-Q"/>
    <use fill="#FFFFFF" fill-opacity=".3" xlink:href="#new-task-Q"/>
    <path fill="#FFFFFF" d="M116.958911,537.17806 C113.724048,537.17806 111.526783,534.590169 111.526783,530.610677 C111.526783,526.631185 113.711841,524.043294 116.910083,524.043294 C118.728931,524.043294 120.193775,524.934408 120.950611,526.326009 L120.999439,526.326009 L120.999439,519.343587 L123.123462,519.343587 L123.123462,536.958333 L121.097095,536.958333 L121.097095,534.809896 L121.060474,534.809896 C120.242603,536.27474 118.789966,537.17806 116.958911,537.17806 Z M117.361743,525.91097 C115.11565,525.91097 113.699634,527.742025 113.699634,530.610677 C113.699634,533.491536 115.11565,535.310384 117.361743,535.310384 C119.546802,535.310384 121.011646,533.454915 121.011646,530.610677 C121.011646,527.778646 119.546802,525.91097 117.361743,525.91097 Z"/>
    <use fill="black" filter="url(#new-task-R)" xlink:href="#new-task-S"/>
    <use fill="#FFFFFF" fill-opacity=".3" xlink:href="#new-task-S"/>
    <path fill="#FFFFFF" d="M81.5256842,527.766439 C81.5256842,525.593587 83.4666022,524.043294 86.2620124,524.043294 C88.8865241,524.043294 90.815235,525.605794 90.9128913,527.754232 L88.8865241,527.754232 C88.7400397,526.533529 87.7512702,525.776693 86.1887702,525.776693 C84.6384772,525.776693 83.6130866,526.545736 83.6130866,527.656576 C83.6130866,528.535482 84.2844733,529.121419 85.724903,529.48763 L87.690235,529.963704 C90.2537116,530.610677 91.181446,531.538411 91.181446,533.406087 C91.181446,535.61556 89.0940436,537.17806 86.127735,537.17806 C83.3445319,537.17806 81.4036139,535.664388 81.1838874,533.418294 L83.3079108,533.418294 C83.5398444,534.736654 84.540821,535.444661 86.2620124,535.444661 C87.9832038,535.444661 89.0452155,534.71224 89.0452155,533.564779 C89.0452155,532.661458 88.5203132,532.173177 87.0920905,531.794759 L84.8582038,531.221029 C82.6243171,530.647298 81.5256842,529.499837 81.5256842,527.766439 Z"/>
    <use fill="black" filter="url(#new-task-T)" xlink:href="#new-task-U"/>
    <use fill="#FFFFFF" fill-opacity=".3" xlink:href="#new-task-U"/>
    <path fill="#FFFFFF" d="M54.5919922,535.371419 C56.5939453,535.371419 58.1320312,533.967611 58.1320312,532.136556 L58.1320312,531.098958 L54.7384766,531.306478 C53.0294922,531.416341 52.0529297,532.173177 52.0529297,533.369466 C52.0529297,534.577962 53.0661133,535.371419 54.5919922,535.371419 Z M54.115918,537.17806 C51.5890625,537.17806 49.8922852,535.652181 49.8922852,533.369466 C49.8922852,531.196615 51.5646484,529.829427 54.4943359,529.658529 L58.1320312,529.451009 L58.1320312,528.388997 C58.1320312,526.838704 57.1066406,525.91097 55.3488281,525.91097 C53.7130859,525.91097 52.6876953,526.680013 52.4191406,527.92513 L50.3683594,527.92513 C50.5148437,525.727865 52.3947266,524.043294 55.3976562,524.043294 C58.3761719,524.043294 60.2560547,525.654622 60.2560547,528.181478 L60.2560547,536.958333 L58.2418945,536.958333 L58.2418945,534.773275 L58.1930664,534.773275 C57.4362305,536.225911 55.8249023,537.17806 54.115918,537.17806 Z"/>
    <use fill="black" filter="url(#new-task-V)" xlink:href="#new-task-W"/>
    <use fill="#FFFFFF" fill-opacity=".3" xlink:href="#new-task-W"/>
    <path fill="#FFFFFF" d="M322.236157,479.043294 C325.47102,479.043294 327.668286,481.631185 327.668286,485.610677 C327.668286,489.590169 325.483227,492.17806 322.284985,492.17806 C320.466137,492.17806 319.001294,491.286947 318.244458,489.895345 L318.19563,489.895345 L318.19563,496.194173 L316.071606,496.194173 L316.071606,479.263021 L318.085766,479.263021 L318.085766,481.411458 L318.134594,481.411458 C318.915844,479.983236 320.392895,479.043294 322.236157,479.043294 Z M321.821118,490.310384 C324.079419,490.310384 325.495434,488.491536 325.495434,485.610677 C325.495434,482.742025 324.079419,480.91097 321.821118,480.91097 C319.648266,480.91097 318.183423,482.790853 318.183423,485.610677 C318.183423,488.442708 319.648266,490.310384 321.821118,490.310384 Z"/>
    <use fill="black" filter="url(#new-task-X)" xlink:href="#new-task-Y"/>
    <use fill="#FFFFFF" fill-opacity=".3" xlink:href="#new-task-Y"/>
    <path fill="#FFFFFF" d="M290.056104,492.17806 C286.540479,492.17806 284.172314,489.651204 284.172314,485.610677 C284.172314,481.557943 286.540479,479.043294 290.056104,479.043294 C293.559521,479.043294 295.927686,481.557943 295.927686,485.610677 C295.927686,489.651204 293.559521,492.17806 290.056104,492.17806 Z M290.056104,490.310384 C292.302197,490.310384 293.767041,488.6014 293.767041,485.610677 C293.767041,482.619954 292.302197,480.91097 290.056104,480.91097 C287.81001,480.91097 286.332959,482.619954 286.332959,485.610677 C286.332959,488.6014 287.81001,490.310384 290.056104,490.310384 Z"/>
    <use fill="black" filter="url(#new-task-Z)" xlink:href="#new-task-aa"/>
    <use fill="#FFFFFF" fill-opacity=".3" xlink:href="#new-task-aa"/>
    <path fill="#FFFFFF" d="M257.479322,491.958333 L257.479322,479.263021 L259.603345,479.263021 L259.603345,491.958333 L257.479322,491.958333 Z M258.541333,477.12679 C257.821118,477.12679 257.222974,476.528646 257.222974,475.808431 C257.222974,475.076009 257.821118,474.490072 258.541333,474.490072 C259.273755,474.490072 259.8719,475.076009 259.8719,475.808431 C259.8719,476.528646 259.273755,477.12679 258.541333,477.12679 Z"/>
    <use fill="black" filter="url(#new-task-ab)" xlink:href="#new-task-ac"/>
    <use fill="#FFFFFF" fill-opacity=".3" xlink:href="#new-task-ac"/>
    <path fill="#FFFFFF" d="M232.459839,479.263021 L232.459839,491.958333 L230.445679,491.958333 L230.445679,489.895345 L230.396851,489.895345 C229.640015,491.360189 228.321656,492.17806 226.368531,492.17806 C223.597535,492.17806 221.973999,490.383626 221.973999,487.502767 L221.973999,479.263021 L224.098023,479.263021 L224.098023,487.124349 C224.098023,489.187337 225.062378,490.298177 227.02771,490.298177 C229.090699,490.298177 230.335816,488.882161 230.335816,486.721517 L230.335816,479.263021 L232.459839,479.263021 Z"/>
    <use fill="black" filter="url(#new-task-ad)" xlink:href="#new-task-ae"/>
    <use fill="#FFFFFF" fill-opacity=".3" xlink:href="#new-task-ae"/>
    <path fill="#FFFFFF" d="M192.297535,496.706868 C192.041187,496.706868 191.613941,496.682454 191.382007,496.633626 L191.382007,494.8514 C191.613941,494.900228 191.943531,494.912435 192.212085,494.912435 C193.396167,494.912435 194.055347,494.338704 194.543628,492.861654 L194.836597,491.97054 L190.149097,479.263021 L192.419605,479.263021 L195.93523,489.83431 L195.971851,489.83431 L199.487476,479.263021 L201.721363,479.263021 L196.728687,492.849447 C195.642261,495.815755 194.592456,496.706868 192.297535,496.706868 Z"/>
    <use fill="black" filter="url(#new-task-af)" xlink:href="#new-task-ag"/>
    <use fill="#FFFFFF" fill-opacity=".3" xlink:href="#new-task-ag"/>
    <path fill="#FFFFFF" d="M162.938452,476.199056 L165.062476,476.199056 L165.062476,479.263021 L167.528296,479.263021 L167.528296,481.008626 L165.062476,481.008626 L165.062476,488.552572 C165.062476,489.71224 165.550757,490.237142 166.637183,490.237142 C166.881324,490.237142 167.369605,490.200521 167.516089,490.176107 L167.516089,491.958333 C167.259742,492.019368 166.673804,492.05599 166.173316,492.05599 C163.841773,492.05599 162.938452,491.103841 162.938452,488.662435 L162.938452,481.008626 L161.046363,481.008626 L161.046363,479.263021 L162.938452,479.263021 L162.938452,476.199056 Z"/>
    <use fill="black" filter="url(#new-task-ah)" xlink:href="#new-task-ai"/>
    <use fill="#FFFFFF" fill-opacity=".3" xlink:href="#new-task-ai"/>
    <path fill="#FFFFFF" d="M131.286743,491.958333 L131.286743,479.263021 L133.288696,479.263021 L133.288696,481.338216 L133.337524,481.338216 C133.752563,479.934408 134.924438,479.043294 136.413696,479.043294 C136.779907,479.043294 137.09729,479.104329 137.268188,479.128743 L137.268188,481.191732 C137.09729,481.130697 136.64563,481.069661 136.132934,481.069661 C134.484985,481.069661 133.410766,482.253743 133.410766,484.048177 L133.410766,491.958333 L131.286743,491.958333 Z"/>
    <use fill="black" filter="url(#new-task-aj)" xlink:href="#new-task-ak"/>
    <use fill="#FFFFFF" fill-opacity=".3" xlink:href="#new-task-ak"/>
    <path fill="#FFFFFF" d="M102.525805,480.886556 C100.536059,480.886556 99.1444577,482.412435 99.0101803,484.524251 L105.907153,484.524251 C105.858325,482.400228 104.527758,480.886556 102.525805,480.886556 Z M105.858325,488.320638 L107.945727,488.320638 C107.579516,490.542318 105.431079,492.17806 102.660083,492.17806 C99.0223874,492.17806 96.8129147,489.651204 96.8129147,485.659505 C96.8129147,481.716634 99.0590085,479.043294 102.562426,479.043294 C105.992602,479.043294 108.104419,481.533529 108.104419,485.378743 L108.104419,486.184408 L98.9979733,486.184408 L98.9979733,486.306478 C98.9979733,488.735677 100.426196,490.334798 102.708911,490.334798 C104.320239,490.334798 105.504321,489.516927 105.858325,488.320638 Z"/>
    <use fill="black" filter="url(#new-task-al)" xlink:href="#new-task-am"/>
    <use fill="#FFFFFF" fill-opacity=".3" xlink:href="#new-task-am"/>
    <polygon fill="#FFFFFF" points="79.329 479.263 75.789 491.958 73.628 491.958 70.76 482.132 70.711 482.132 67.854 491.958 65.694 491.958 62.141 479.263 64.253 479.263 66.792 489.59 66.841 489.59 69.71 479.263 71.761 479.263 74.641 489.59 74.69 489.59 77.229 479.263"/>
    <use fill="black" filter="url(#new-task-an)" xlink:href="#new-task-ao"/>
    <use fill="#FFFFFF" fill-opacity=".3" xlink:href="#new-task-ao"/>
    <path fill="#FFFFFF" d="M38.739429,479.043294 C40.5826908,479.043294 42.0353275,479.946615 42.8531986,481.411458 L42.9020267,481.411458 L42.9020267,479.263021 L44.9283939,479.263021 L44.9283939,496.194173 L42.8043704,496.194173 L42.8043704,489.83431 L42.7555423,489.83431 C41.9620853,491.286947 40.4850345,492.17806 38.6906009,492.17806 C35.4801517,492.17806 33.3317142,489.590169 33.3317142,485.610677 C33.3317142,481.618978 35.4801517,479.043294 38.739429,479.043294 Z M39.117847,490.310384 C41.2906986,490.310384 42.8043704,488.442708 42.8043704,485.610677 C42.8043704,482.778646 41.2906986,480.91097 39.117847,480.91097 C36.8961673,480.91097 35.5045658,482.705404 35.5045658,485.610677 C35.5045658,488.503743 36.8961673,490.310384 39.117847,490.310384 Z"/>
    <g transform="translate(24 404)">
      <rect width="313" height="55" fill="url(#new-task-ap)" opacity=".9"/>
      <rect width="313" height="55" fill="url(#new-task-aq)"/>
    </g>
    <path fill="#D0021B" d="M161.150215,431.746094 L163.242012,431.746094 C163.374824,432.816895 164.437324,433.505859 165.956367,433.505859 C167.3675,433.505859 168.388496,432.783691 168.388496,431.779297 C168.388496,430.916016 167.732734,430.409668 166.19709,430.052734 L164.644844,429.695801 C162.470039,429.206055 161.449043,428.126953 161.449043,426.342285 C161.449043,424.16748 163.22541,422.723145 165.906563,422.723145 C168.421699,422.723145 170.23957,424.16748 170.33918,426.226074 L168.288887,426.226074 C168.139473,425.171875 167.209785,424.507812 165.898262,424.507812 C164.520332,424.507812 163.607246,425.171875 163.607246,426.192871 C163.607246,426.998047 164.213203,427.471191 165.699043,427.811523 L167.076973,428.126953 C169.509102,428.674805 170.530098,429.6875 170.530098,431.513672 C170.530098,433.846191 168.728828,435.298828 165.823555,435.298828 C163.075996,435.298828 161.258125,433.920898 161.150215,431.746094 Z M173.105266,423.694336 L175.155559,423.694336 L175.155559,425.977051 L177.097941,425.977051 L177.097941,427.620605 L175.155559,427.620605 L175.155559,432.078125 C175.155559,432.974609 175.537395,433.373047 176.400676,433.373047 C176.691203,433.373047 176.848918,433.356445 177.097941,433.331543 L177.097941,434.941895 C176.799113,435 176.417277,435.041504 176.01884,435.041504 C173.935344,435.041504 173.105266,434.335938 173.105266,432.576172 L173.105266,427.620605 L171.66923,427.620605 L171.66923,425.977051 L173.105266,425.977051 L173.105266,423.694336 Z M181.989027,433.530762 C183.234145,433.530762 184.163832,432.725586 184.163832,431.671387 L184.163832,430.949219 L182.113539,431.082031 C180.95973,431.156738 180.42018,431.571777 180.42018,432.310547 C180.42018,433.074219 181.075941,433.530762 181.989027,433.530762 Z M181.38307,435.149414 C179.631605,435.149414 178.378187,434.086914 178.378187,432.426758 C178.378187,430.783203 179.615004,429.836914 181.823012,429.704102 L184.163832,429.562988 L184.163832,428.799316 C184.163832,427.911133 183.566176,427.413086 182.453871,427.413086 C181.507582,427.413086 180.860121,427.745117 180.669203,428.359375 L178.72682,428.359375 C178.892836,426.757324 180.395277,425.736328 182.55348,425.736328 C184.886,425.736328 186.197523,426.873535 186.197523,428.799316 L186.197523,435 L184.213637,435 L184.213637,433.754883 L184.072523,433.754883 C183.566176,434.634766 182.570082,435.149414 181.38307,435.149414 Z M188.399156,435 L188.399156,425.918945 L190.383043,425.918945 L190.383043,427.330078 L190.524156,427.330078 C190.77318,426.433594 191.752672,425.769531 192.923082,425.769531 C193.22191,425.769531 193.587145,425.802734 193.778063,425.86084 L193.778063,427.77002 C193.620348,427.711914 193.072496,427.653809 192.723863,427.653809 C191.387438,427.653809 190.45775,428.483887 190.45775,429.753906 L190.45775,435 L188.399156,435 Z M196.261922,423.694336 L198.312215,423.694336 L198.312215,425.977051 L200.254598,425.977051 L200.254598,427.620605 L198.312215,427.620605 L198.312215,432.078125 C198.312215,432.974609 198.694051,433.373047 199.557332,433.373047 C199.847859,433.373047 200.005574,433.356445 200.254598,433.331543 L200.254598,434.941895 C199.95577,435 199.573934,435.041504 199.175496,435.041504 C197.092,435.041504 196.261922,434.335938 196.261922,432.576172 L196.261922,427.620605 L194.825887,427.620605 L194.825887,425.977051 L196.261922,425.977051 L196.261922,423.694336 Z" opacity=".3"/>
    <path fill="#EEE3C1" d="M52.0527344,141.480469 L48.2734375,156 L41.2421875,156 L34.703125,130.634766 L42.4023438,130.634766 L45.3203125,146.666016 L45.4609375,146.666016 L49.2402344,130.634766 L55.0058594,130.634766 L58.7851562,146.666016 L58.9257812,146.666016 L61.84375,130.634766 L69.5429688,130.634766 L63.0039062,156 L55.9726562,156 L52.1933594,141.480469 L52.0527344,141.480469 Z M71.6875,156 L71.6875,130.634766 L78.71875,130.634766 L78.71875,140.408203 L78.859375,140.408203 C79.8261719,137.683594 81.953125,136.207031 84.90625,136.207031 C89.265625,136.207031 91.6210938,138.914062 91.6210938,143.572266 L91.6210938,156 L84.4140625,156 L84.4140625,145.171875 C84.4140625,143.220703 83.4648438,142.025391 81.6542969,142.025391 C79.8613281,142.025391 78.8945312,143.34375 78.8945312,145.154297 L78.8945312,156 L71.6875,156 Z M102.765625,151.464844 C104.365234,151.464844 105.841797,150.568359 105.841797,149.144531 L105.841797,147.878906 L102.783203,148.089844 C101.412109,148.195312 100.638672,148.845703 100.638672,149.794922 C100.638672,150.849609 101.5,151.464844 102.765625,151.464844 Z M100.076172,156.28125 C96.5429688,156.28125 93.5371094,153.855469 93.5371094,150.357422 C93.5371094,146.630859 96.4023438,144.609375 101.587891,144.292969 L105.841797,144.029297 L105.841797,143.080078 C105.841797,141.779297 104.857422,141.076172 103.503906,141.076172 C102.027344,141.076172 101.078125,141.884766 100.972656,142.869141 L94.5390625,142.869141 C94.7148438,138.720703 98.2304688,136.101562 103.890625,136.101562 C109.269531,136.101562 112.873047,138.791016 112.873047,142.728516 L112.873047,156 L105.841797,156 L105.841797,153.398438 L105.701172,153.398438 C104.681641,155.296875 102.326172,156.28125 100.076172,156.28125 Z M117.320312,132.339844 L124.527344,132.339844 L124.527344,136.59375 L127.9375,136.59375 L127.9375,141.814453 L124.527344,141.814453 L124.527344,148.986328 C124.527344,150.199219 125.230469,150.832031 126.707031,150.832031 C127.251953,150.832031 127.515625,150.814453 127.9375,150.744141 L127.9375,155.736328 C127.251953,155.876953 126.337891,156 124.966797,156 C119.482422,156 117.320312,154.417969 117.320312,150.585938 L117.320312,141.814453 L114.753906,141.814453 L114.753906,136.59375 L117.320312,136.59375 L117.320312,132.339844 Z M145.673828,151.464844 C147.273438,151.464844 148.75,150.568359 148.75,149.144531 L148.75,147.878906 L145.691406,148.089844 C144.320312,148.195312 143.546875,148.845703 143.546875,149.794922 C143.546875,150.849609 144.408203,151.464844 145.673828,151.464844 Z M142.984375,156.28125 C139.451172,156.28125 136.445312,153.855469 136.445312,150.357422 C136.445312,146.630859 139.310547,144.609375 144.496094,144.292969 L148.75,144.029297 L148.75,143.080078 C148.75,141.779297 147.765625,141.076172 146.412109,141.076172 C144.935547,141.076172 143.986328,141.884766 143.880859,142.869141 L137.447266,142.869141 C137.623047,138.720703 141.138672,136.101562 146.798828,136.101562 C152.177734,136.101562 155.78125,138.791016 155.78125,142.728516 L155.78125,156 L148.75,156 L148.75,153.398438 L148.609375,153.398438 C147.589844,155.296875 145.234375,156.28125 142.984375,156.28125 Z M158.488281,156 L158.488281,136.59375 L165.519531,136.59375 L165.519531,140.408203 L165.660156,140.408203 C166.398438,137.648438 167.892578,136.3125 170.195312,136.3125 C170.845703,136.3125 171.408203,136.417969 171.882812,136.59375 L171.882812,142.640625 C171.267578,142.376953 170.529297,142.236328 169.791016,142.236328 C167.083984,142.236328 165.695312,143.625 165.695312,146.332031 L165.695312,156 L158.488281,156 Z M182.816406,141.058594 C181.181641,141.058594 179.933594,142.253906 179.792969,143.923828 L185.839844,143.923828 C185.716797,142.183594 184.503906,141.058594 182.816406,141.058594 Z M186.050781,149.707031 L192.466797,149.707031 C191.869141,153.890625 188.212891,156.492188 182.886719,156.492188 C176.523438,156.492188 172.744141,152.712891 172.744141,146.402344 C172.744141,140.056641 176.558594,136.101562 182.658203,136.101562 C188.669922,136.101562 192.554688,139.933594 192.554688,145.875 L192.554688,147.826172 L179.6875,147.826172 L179.6875,148.283203 C179.6875,150.181641 181.058594,151.552734 182.992188,151.552734 C184.451172,151.552734 185.628906,150.867188 186.050781,149.707031 Z M204.912109,163.119141 L202.345703,163.119141 L202.345703,157.757812 L203.734375,157.757812 C205.773438,157.757812 206.6875,157.388672 206.6875,156.527344 C206.6875,156.369141 206.652344,156.158203 206.599609,156 L200.236328,136.59375 L208.234375,136.59375 L211.1875,150.832031 L211.328125,150.832031 L214.263672,136.59375 L221.875,136.59375 L216.091797,155.542969 C214.439453,160.939453 211.222656,163.119141 204.912109,163.119141 Z M232.386719,156.492188 C226.058594,156.492188 222.191406,152.835938 222.191406,146.279297 C222.191406,139.898438 226.164062,136.101562 232.386719,136.101562 C238.644531,136.101562 242.599609,139.863281 242.599609,146.279297 C242.599609,152.853516 238.732422,156.492188 232.386719,156.492188 Z M232.386719,151.341797 C234.179688,151.341797 235.287109,149.548828 235.287109,146.296875 C235.287109,143.132812 234.162109,141.251953 232.386719,141.251953 C230.628906,141.251953 229.503906,143.132812 229.503906,146.296875 C229.503906,149.548828 230.576172,151.341797 232.386719,151.341797 Z M264.607422,136.59375 L264.607422,156 L257.576172,156 L257.576172,152.185547 L257.435547,152.185547 C256.662109,154.822266 254.851562,156.386719 251.951172,156.386719 C247.785156,156.386719 244.726562,153.662109 244.726562,149.039062 L244.726562,136.59375 L251.933594,136.59375 L251.933594,147.421875 C251.933594,149.478516 253.041016,150.568359 254.728516,150.568359 C256.345703,150.568359 257.400391,149.320312 257.400391,147.439453 L257.400391,136.59375 L264.607422,136.59375 Z M45.3203125,190.550781 C47.2714844,190.550781 48.4140625,189.109375 48.4140625,186.314453 C48.4140625,183.554688 47.2539062,181.867188 45.3203125,181.867188 C43.3867188,181.867188 42.2441406,183.554688 42.2441406,186.296875 C42.2441406,189.091797 43.3691406,190.550781 45.3203125,190.550781 Z M45.0390625,203.3125 C39.1503906,203.3125 35.5996094,200.763672 35.3007812,197.160156 L42.2265625,197.160156 C42.4375,198.091797 43.5800781,198.759766 45.1972656,198.759766 C47.3417969,198.759766 48.3789062,197.652344 48.3789062,196.017578 L48.3789062,192.291016 L48.2382812,192.291016 C47.6054688,194.330078 45.3378906,195.753906 42.4375,195.753906 C37.9023438,195.753906 34.8613281,192.326172 34.8613281,186.244141 C34.8613281,180.003906 37.7089844,176.3125 42.5429688,176.3125 C45.3730469,176.3125 47.4824219,177.912109 48.2382812,180.091797 L48.3789062,180.091797 L48.3789062,176.59375 L55.5859375,176.59375 L55.5859375,195.841797 C55.5859375,200.464844 51.2792969,203.3125 45.0390625,203.3125 Z M67.9960938,196.492188 C61.6679688,196.492188 57.8007812,192.835938 57.8007812,186.279297 C57.8007812,179.898438 61.7734375,176.101562 67.9960938,176.101562 C74.2539062,176.101562 78.2089844,179.863281 78.2089844,186.279297 C78.2089844,192.853516 74.3417969,196.492188 67.9960938,196.492188 Z M67.9960938,191.341797 C69.7890625,191.341797 70.8964844,189.548828 70.8964844,186.296875 C70.8964844,183.132812 69.7714844,181.251953 67.9960938,181.251953 C66.2382812,181.251953 65.1132812,183.132812 65.1132812,186.296875 C65.1132812,189.548828 66.1855469,191.341797 67.9960938,191.341797 Z M80.4238281,196 L80.4238281,176.59375 L87.4550781,176.59375 L87.4550781,180.408203 L87.5957031,180.408203 C88.5800781,177.683594 90.6015625,176.207031 93.5546875,176.207031 C97.9140625,176.207031 100.304688,178.914062 100.304688,183.572266 L100.304688,196 L93.0976562,196 L93.0976562,185.171875 C93.0976562,183.220703 92.1835938,182.025391 90.3730469,182.025391 C88.6679688,182.025391 87.6308594,183.34375 87.6308594,185.154297 L87.6308594,196 L80.4238281,196 Z M102.923828,196 L102.923828,176.59375 L109.955078,176.59375 L109.955078,180.408203 L110.095703,180.408203 C111.080078,177.683594 113.101562,176.207031 116.054688,176.207031 C120.414062,176.207031 122.804688,178.914062 122.804688,183.572266 L122.804688,196 L115.597656,196 L115.597656,185.171875 C115.597656,183.220703 114.683594,182.025391 112.873047,182.025391 C111.167969,182.025391 110.130859,183.34375 110.130859,185.154297 L110.130859,196 L102.923828,196 Z M133.931641,191.464844 C135.53125,191.464844 137.007812,190.568359 137.007812,189.144531 L137.007812,187.878906 L133.949219,188.089844 C132.578125,188.195312 131.804688,188.845703 131.804688,189.794922 C131.804688,190.849609 132.666016,191.464844 133.931641,191.464844 Z M131.242188,196.28125 C127.708984,196.28125 124.703125,193.855469 124.703125,190.357422 C124.703125,186.630859 127.568359,184.609375 132.753906,184.292969 L137.007812,184.029297 L137.007812,183.080078 C137.007812,181.779297 136.023438,181.076172 134.669922,181.076172 C133.193359,181.076172 132.244141,181.884766 132.138672,182.869141 L125.705078,182.869141 C125.880859,178.720703 129.396484,176.101562 135.056641,176.101562 C140.435547,176.101562 144.039062,178.791016 144.039062,182.728516 L144.039062,196 L137.007812,196 L137.007812,193.398438 L136.867188,193.398438 C135.847656,195.296875 133.492188,196.28125 131.242188,196.28125 Z M160.667969,196.28125 C155.886719,196.28125 153.109375,192.572266 153.109375,186.244141 C153.109375,180.003906 155.957031,176.3125 160.791016,176.3125 C163.621094,176.3125 165.730469,177.912109 166.486328,180.091797 L166.626953,180.091797 L166.626953,170.634766 L173.833984,170.634766 L173.833984,196 L166.626953,196 L166.626953,192.642578 L166.486328,192.642578 C165.835938,194.681641 163.585938,196.28125 160.667969,196.28125 Z M163.568359,181.867188 C161.634766,181.867188 160.492188,183.554688 160.492188,186.296875 C160.492188,189.074219 161.617188,190.726562 163.568359,190.726562 C165.519531,190.726562 166.662109,189.109375 166.662109,186.314453 C166.662109,183.537109 165.501953,181.867188 163.568359,181.867188 Z M186.244141,196.492188 C179.916016,196.492188 176.048828,192.835938 176.048828,186.279297 C176.048828,179.898438 180.021484,176.101562 186.244141,176.101562 C192.501953,176.101562 196.457031,179.863281 196.457031,186.279297 C196.457031,192.853516 192.589844,196.492188 186.244141,196.492188 Z M186.244141,191.341797 C188.037109,191.341797 189.144531,189.548828 189.144531,186.296875 C189.144531,183.132812 188.019531,181.251953 186.244141,181.251953 C184.486328,181.251953 183.361328,183.132812 183.361328,186.296875 C183.361328,189.548828 184.433594,191.341797 186.244141,191.341797 Z M198.214844,178.246094 C198.214844,173.394531 201.800781,170.388672 207.636719,170.388672 C213.261719,170.388672 216.882812,173.21875 216.882812,177.630859 C216.882812,180.179688 215.740234,181.919922 213.050781,183.466797 C210.589844,184.873047 209.921875,185.611328 209.921875,187.193359 L209.921875,187.931641 L203.681641,187.931641 L203.628906,187.509766 C203.189453,184.292969 203.998047,182.710938 206.441406,181.304688 C208.9375,179.863281 209.517578,179.230469 209.517578,177.789062 C209.517578,176.611328 208.515625,175.802734 207.144531,175.802734 C205.755859,175.802734 204.771484,176.804688 204.753906,178.246094 L198.214844,178.246094 Z M206.933594,196.703125 C204.876953,196.703125 203.207031,195.15625 203.207031,193.1875 C203.207031,191.236328 204.876953,189.689453 206.933594,189.689453 C208.990234,189.689453 210.677734,191.236328 210.677734,193.1875 C210.677734,195.15625 208.990234,196.703125 206.933594,196.703125 Z" opacity=".25"/>
    <rect width="1" height="38" x="34" y="123" fill="#EEE3C1"/>
    <path fill="#656153" fill-rule="nonzero" d="M329,96.9983284 L329,91.5016716 C329,90.6745364 328.325984,90 327.497739,90 L310.502261,90 C309.673083,90 309,90.672752 309,91.5016716 L309,96.9983284 C309,97.8264907 309.669899,98.5 310.490767,98.5 L327.509086,98.5 C328.330276,98.5 329,97.8277774 329,96.9983284 Z M328.959584,98.5 L328.959584,99.0316669 C328.550813,99.3264332 328.049804,99.5 327.509086,99.5 L328.234335,99.5 L327.509086,99.5 L327.509086,98.5 L328.959584,98.5 Z M328.234335,99.5 L328.959584,99.5 L328.234335,99.5 Z M328.959584,98.5 L327.509086,98.5 L327.509086,99.5 L310.490767,99.5 C309.115154,99.5 308,98.3763161 308,96.9983284 L308,91.5016716 C308,90.1200365 309.121229,89 310.502261,89 L327.497739,89 C328.8797,89 330,90.1236839 330,91.5016716 L330,96.9983284 C330,97.8360741 329.589209,98.5776423 328.959584,99.0316669 L328.959584,98.5 Z"/>
    <path fill="#656153" d="M331,92.5 C331.862614,92.7220214 332.5,93.5050715 332.5,94.4369913 C332.5,95.368911 331.862614,96.1519611 331,96.3739825 L331,92.5 Z"/>
    <rect width="18" height="6.5" x="310" y="91" fill="#EEE3C1" rx="1"/>
    <path fill="#EEE3C1" d="M171.373729 98.7109375C169.346385 98.7109375 168.145214 97.0703125 168.145214 94.2636719 168.145214 91.46875 169.363964 89.8339844 171.373729 89.8339844 173.377635 89.8339844 174.596385 91.46875 174.596385 94.2753906 174.596385 97.0703125 173.395214 98.7109375 171.373729 98.7109375zM171.373729 97.4570312C172.445995 97.4570312 173.067089 96.34375 173.067089 94.2636719 173.067089 92.1953125 172.434276 91.09375 171.373729 91.09375 170.313182 91.09375 169.67451 92.2011719 169.67451 94.2636719 169.67451 96.34375 170.301464 97.4570312 171.373729 97.4570312zM177.332714 97.6035156C176.781932 97.6035156 176.395214 97.2050781 176.395214 96.6777344 176.395214 96.1445312 176.781932 95.7519531 177.332714 95.7519531 177.889354 95.7519531 178.270214 96.1445312 178.270214 96.6777344 178.270214 97.2050781 177.889354 97.6035156 177.332714 97.6035156zM177.332714 93.2089844C176.781932 93.2089844 176.395214 92.8164062 176.395214 92.2890625 176.395214 91.7558594 176.781932 91.3632812 177.332714 91.3632812 177.889354 91.3632812 178.270214 91.7558594 178.270214 92.2890625 178.270214 92.8164062 177.889354 93.2089844 177.332714 93.2089844zM183.297557 98.7109375C181.270214 98.7109375 180.069042 97.0703125 180.069042 94.2636719 180.069042 91.46875 181.287792 89.8339844 183.297557 89.8339844 185.301464 89.8339844 186.520214 91.46875 186.520214 94.2753906 186.520214 97.0703125 185.319042 98.7109375 183.297557 98.7109375zM183.297557 97.4570312C184.369823 97.4570312 184.990917 96.34375 184.990917 94.2636719 184.990917 92.1953125 184.358104 91.09375 183.297557 91.09375 182.23701 91.09375 181.598339 92.2011719 181.598339 94.2636719 181.598339 96.34375 182.225292 97.4570312 183.297557 97.4570312zM191.401073 98.7050781C190.158885 98.7050781 189.18037 98.1191406 188.61787 97.0351562 188.225292 96.34375 188.020214 95.4414062 188.020214 94.3632812 188.020214 91.5214844 189.291698 89.8339844 191.447948 89.8339844 192.988964 89.8339844 194.172557 90.7480469 194.42451 92.1367188L192.912792 92.1367188C192.725292 91.4980469 192.162792 91.0996094 191.436229 91.0996094 190.199901 91.0996094 189.467479 92.2539062 189.467479 94.1875L189.567089 94.1875C189.965526 93.3847656 190.762401 92.921875 191.758495 92.921875 193.363964 92.921875 194.541698 94.1113281 194.541698 95.734375 194.541698 97.4746094 193.240917 98.7050781 191.401073 98.7050781zM191.383495 97.4453125C192.332714 97.4453125 193.059276 96.7246094 193.059276 95.78125 193.059276 94.8144531 192.36201 94.1230469 191.395214 94.1230469 190.428417 94.1230469 189.719432 94.8144531 189.719432 95.7578125 189.719432 96.71875 190.440135 97.4453125 191.383495 97.4453125zM58.1444208 96.4385043L56.0225391 98.5 53.8601652 96.4053177C54.3778594 95.8314341 55.1390073 95.4689119 55.987563 95.4689119 56.8523616 95.4689119 57.626374 95.8454456 58.1444208 96.4385043zM60.3234964 94.3214425L59.2346215 95.3793293C58.4356305 94.518235 57.2768836 93.9766839 55.987563 93.9766839 54.713648 93.9766839 53.567205 94.5053708 52.7692987 95.3486L51.6792698 94.2926936C52.7566264 93.1797589 54.2882723 92.484456 55.987563 92.484456 57.7014387 92.484456 59.2447794 93.1917456 60.3234964 94.3214425zM62.5 92.2068793L61.4118698 93.2640427C60.0538809 91.8655261 58.1260026 90.992228 55.987563 90.992228 53.8628921 90.992228 51.9460798 91.8543165 50.5895579 93.2370944L49.5 92.1816443C51.1355496 90.528956 53.4375103 89.5 55.987563 89.5 58.5505699 89.5 60.8629578 90.5394367 62.5 92.2068793zM43 89.4973856C43 89.2226871 43.2307129 89 43.5059123 89L44.9940877 89C45.2734953 89 45.5 89.2162701 45.5 89.4973856L45.5 98.0026144C45.5 98.2773129 45.2692871 98.5 44.9940877 98.5L43.5059123 98.5C43.2265047 98.5 43 98.2837299 43 98.0026144L43 89.4973856zM39 92.0034227C39 91.72539 39.2307129 91.5 39.5059123 91.5L40.9940877 91.5C41.2734953 91.5 41.5 91.7329025 41.5 92.0034227L41.5 97.9965773C41.5 98.27461 41.2692871 98.5 40.9940877 98.5L39.5059123 98.5C39.2265047 98.5 39 98.2670975 39 97.9965773L39 92.0034227zM35 93.9976988C35 93.7228273 35.2307129 93.5 35.5059123 93.5L36.9940877 93.5C37.2734953 93.5 37.5 93.7148438 37.5 93.9976988L37.5 98.0023012C37.5 98.2771727 37.2692871 98.5 36.9940877 98.5L35.5059123 98.5C35.2265047 98.5 35 98.2851562 35 98.0023012L35 93.9976988zM31 95.995389C31 95.7217932 31.2307129 95.5 31.5059123 95.5L32.9940877 95.5C33.2734953 95.5 33.5 95.7157526 33.5 95.995389L33.5 98.004611C33.5 98.2782068 33.2692871 98.5 32.9940877 98.5L31.5059123 98.5C31.2265047 98.5 31 98.2842474 31 98.004611L31 95.995389z"/>
  </g>
</svg>
