<svg xmlns="http://www.w3.org/2000/svg" viewBox="0 0 361 724">
  <g fill="none" fill-rule="evenodd">
    <path fill="#EEE3C1" d="M359,185.983274 L359,665.03064 C359,685.535571 356.865011,692.971155 352.855948,700.467451 C348.846885,707.963747 342.963747,713.846885 335.467451,717.855948 C327.971155,721.865011 320.535571,724 300.03064,724 L61.9693596,724 C41.4644286,724 34.0288451,721.865011 26.5325488,717.855948 C19.0362525,713.846885 13.1531153,707.963747 9.14405219,700.467451 C5.13498906,692.971155 3,685.535571 3,665.03064 L3,244 L2.5638852,244 C1.67236646,244 1.34908022,243.907174 1.0231543,243.732867 C0.697228371,243.55856 0.441439796,243.302772 0.267132704,242.976846 C0.0928256111,242.65092 4.01235366e-17,242.327634 -6.90560205e-17,241.436115 L6.90560205e-17,199.563885 C-4.01235366e-17,198.672366 0.0928256111,198.34908 0.267132704,198.023154 C0.441439796,197.697228 0.697228371,197.44144 1.0231543,197.267133 C1.34908022,197.092826 1.67236646,197 2.5638852,197 L3,197 L3,186 L2.5638852,186 C1.67236646,186 1.34908022,185.907174 1.0231543,185.732867 C0.697228371,185.55856 0.441439796,185.302772 0.267132704,184.976846 C0.0928256111,184.65092 4.01235366e-17,184.327634 -6.90560205e-17,183.436115 L6.90560205e-17,141.563885 C-4.01235366e-17,140.672366 0.0928256111,140.34908 0.267132704,140.023154 C0.441439796,139.697228 0.697228371,139.44144 1.0231543,139.267133 C1.34908022,139.092826 1.67236646,139 2.5638852,139 L3,139 L3,112 L2.5638852,112 C1.67236646,112 1.34908022,111.907174 1.0231543,111.732867 C0.697228371,111.55856 0.441439796,111.302772 0.267132704,110.976846 C0.0928256111,110.65092 4.01235366e-17,110.327634 -6.90560205e-17,109.436115 L6.90560205e-17,88.5638852 C-4.01235366e-17,87.6723665 0.0928256111,87.3490802 0.267132704,87.0231543 C0.441439796,86.6972284 0.697228371,86.4414398 1.0231543,86.2671327 C1.34908022,86.0928256 1.67236646,86 2.5638852,86 L3,86 L3,58.9693596 C3,38.4644286 5.13498906,31.0288451 9.14405219,23.5325488 C13.1531153,16.0362525 19.0362525,10.1531153 26.5325488,6.14405219 C34.0288451,2.13498906 41.4644286,1.38426201e-15 61.9693596,-2.38243271e-15 L300.03064,2.38243271e-15 C320.535571,-1.38426201e-15 327.971155,2.13498906 335.467451,6.14405219 C342.963747,10.1531153 348.846885,16.0362525 352.855948,23.5325488 C356.865011,31.0288451 359,38.4644286 359,58.9693596 L359,139.016726 C359.487053,139.050672 359.7312,139.13576 359.976846,139.267133 C360.302772,139.44144 360.55856,139.697228 360.732867,140.023154 C360.907174,140.34908 361,140.672366 361,141.563885 L361,183.436115 C361,184.327634 360.907174,184.65092 360.732867,184.976846 C360.55856,185.302772 360.302772,185.55856 359.976846,185.732867 C359.7312,185.86424 359.487053,185.949328 359,185.983274 Z M181,704 C194.030976,704 205,693.030976 205,680 C205,665.969024 194.030976,655 181,655 C166.969024,655 156,665.969024 156,680 C156,693.030976 166.969024,704 181,704 Z M181,702 C168.073593,702 158,691.926407 158,680 C158,667.073593 168.073593,657 181,657 C192.926407,657 203,667.073593 203,680 C203,691.926407 192.926407,702 181,702 Z M119.5,49 C122.537566,49 125,46.5375661 125,43.5 C125,40.4624339 122.537566,38 119.5,38 C116.462434,38 114,40.4624339 114,43.5 C114,46.5375661 116.462434,49 119.5,49 Z M181,27 C182.656854,27 184,25.6568542 184,24 C184,22.3431458 182.656854,21 181,21 C179.343146,21 178,22.3431458 178,24 C178,25.6568542 179.343146,27 181,27 Z M151.5,41 C150.119288,41 149,42.1192881 149,43.5 C149,44.8807119 150.119288,46 151.5,46 L210.5,46 C211.880712,46 213,44.8807119 213,43.5 C213,42.1192881 211.880712,41 210.5,41 L151.5,41 Z"/>
    <path fill="#0A0A0A" d="M24,81 L337,81 C338.104569,81 339,81.8954305 339,83 L339,640 C339,641.104569 338.104569,642 337,642 L24,642 C22.8954305,642 22,641.104569 22,640 L22,83 C22,81.8954305 22.8954305,81 24,81 Z"/>
    <path fill="#D0021B" fill-rule="nonzero" d="M279 571L279 617 325 617 325 571 279 571zM277 569L327 569 327 619 277 619 277 569zM180.5 569C166.692881 569 155.5 580.192881 155.5 594 155.5 607.807119 166.692881 619 180.5 619 194.307119 619 205.5 607.807119 205.5 594 205.5 580.192881 194.307119 569 180.5 569zM180.5 567C195.411688 567 207.5 579.088312 207.5 594 207.5 608.911688 195.411688 621 180.5 621 165.588312 621 153.5 608.911688 153.5 594 153.5 579.088312 165.588312 567 180.5 567z"/>
    <path fill="#D0021B" d="M177.646729 595.008789L177.646729 590.709961 180.310791 590.709961C181.990967 590.709961 183.0354 589.847168 183.0354 588.45459 183.0354 587.077148 181.990967 586.229492 180.235107 586.229492 178.509521 586.229492 177.343994 587.289062 177.343994 588.817871L171.561768 588.817871C171.576904 584.443359 175.134033 581.552246 180.507568 581.552246 185.669189 581.552246 188.938721 583.883301 188.938721 587.57666 188.938721 590.210449 187.016357 592.117676 184.382568 592.586914L184.382568 592.708008C187.591553 593.056152 189.695557 594.948242 189.695557 597.930176 189.695557 602.01709 186.002197 604.605469 180.204834 604.605469 174.906982 604.605469 171.36499 601.729492 171.153076 597.279297L177.268311 597.279297C177.313721 598.732422 178.464111 599.625488 180.341064 599.625488 182.036377 599.625488 183.171631 598.687012 183.171631 597.279297 183.171631 595.856445 182.096924 595.008789 180.280518 595.008789L177.646729 595.008789zM60 593L84 593 84 595 60 595 60 619 58 619 58 595 34 595 34 593 58 593 58 569 60 569 60 593z"/>
    <path fill="#EEE3C1" d="M64.4628906 155L57.9589844 155 57.9589844 140.304688 57.8183594 140.304688 52.1054688 154.701172 48.1152344 154.701172 42.4023438 140.304688 42.2617188 140.304688 42.2617188 155 35.7578125 155 35.7578125 129.634766 44.3710938 129.634766 50.0488281 144.435547 50.1894531 144.435547 55.8496094 129.634766 64.4628906 129.634766 64.4628906 155zM75.8183594 150.464844C77.4179688 150.464844 78.8945312 149.568359 78.8945312 148.144531L78.8945312 146.878906 75.8359375 147.089844C74.4648438 147.195312 73.6914062 147.845703 73.6914062 148.794922 73.6914062 149.849609 74.5527344 150.464844 75.8183594 150.464844zM73.1289062 155.28125C69.5957031 155.28125 66.5898438 152.855469 66.5898438 149.357422 66.5898438 145.630859 69.4550781 143.609375 74.640625 143.292969L78.8945312 143.029297 78.8945312 142.080078C78.8945312 140.779297 77.9101562 140.076172 76.5566406 140.076172 75.0800781 140.076172 74.1308594 140.884766 74.0253906 141.869141L67.5917969 141.869141C67.7675781 137.720703 71.2832031 135.101562 76.9433594 135.101562 82.3222656 135.101562 85.9257812 137.791016 85.9257812 141.728516L85.9257812 155 78.8945312 155 78.8945312 152.398438 78.7539062 152.398438C77.734375 154.296875 75.3789062 155.28125 73.1289062 155.28125zM96.0683594 142.607422L100.779297 135.59375 108.707031 135.59375 102.255859 143.873047 109.164062 155 100.884766 155 96.8769531 148.179688 95.9277344 149.445312 95.9277344 155 88.7207031 155 88.7207031 129.634766 95.9277344 129.634766 95.9277344 142.607422 96.0683594 142.607422zM118.585938 140.058594C116.951172 140.058594 115.703125 141.253906 115.5625 142.923828L121.609375 142.923828C121.486328 141.183594 120.273438 140.058594 118.585938 140.058594zM121.820312 148.707031L128.236328 148.707031C127.638672 152.890625 123.982422 155.492188 118.65625 155.492188 112.292969 155.492188 108.513672 151.712891 108.513672 145.402344 108.513672 139.056641 112.328125 135.101562 118.427734 135.101562 124.439453 135.101562 128.324219 138.933594 128.324219 144.875L128.324219 146.826172 115.457031 146.826172 115.457031 147.283203C115.457031 149.181641 116.828125 150.552734 118.761719 150.552734 120.220703 150.552734 121.398438 149.867188 121.820312 148.707031zM139.117188 131.339844L146.324219 131.339844 146.324219 135.59375 149.734375 135.59375 149.734375 140.814453 146.324219 140.814453 146.324219 147.986328C146.324219 149.199219 147.027344 149.832031 148.503906 149.832031 149.048828 149.832031 149.3125 149.814453 149.734375 149.744141L149.734375 154.736328C149.048828 154.876953 148.134766 155 146.763672 155 141.279297 155 139.117188 153.417969 139.117188 149.585938L139.117188 140.814453 136.550781 140.814453 136.550781 135.59375 139.117188 135.59375 139.117188 131.339844zM152.195312 155L152.195312 129.634766 159.226562 129.634766 159.226562 139.408203 159.367188 139.408203C160.333984 136.683594 162.460938 135.207031 165.414062 135.207031 169.773438 135.207031 172.128906 137.914062 172.128906 142.572266L172.128906 155 164.921875 155 164.921875 144.171875C164.921875 142.220703 163.972656 141.025391 162.162109 141.025391 160.369141 141.025391 159.402344 142.34375 159.402344 144.154297L159.402344 155 152.195312 155zM184.345703 140.058594C182.710938 140.058594 181.462891 141.253906 181.322266 142.923828L187.369141 142.923828C187.246094 141.183594 186.033203 140.058594 184.345703 140.058594zM187.580078 148.707031L193.996094 148.707031C193.398438 152.890625 189.742188 155.492188 184.416016 155.492188 178.052734 155.492188 174.273438 151.712891 174.273438 145.402344 174.273438 139.056641 178.087891 135.101562 184.1875 135.101562 190.199219 135.101562 194.083984 138.933594 194.083984 144.875L194.083984 146.826172 181.216797 146.826172 181.216797 147.283203C181.216797 149.181641 182.587891 150.552734 184.521484 150.552734 185.980469 150.552734 187.158203 149.867188 187.580078 148.707031zM48.484375 175.3125C53.3710938 175.3125 56.078125 178.880859 56.078125 185.296875 56.078125 191.695312 53.3886719 195.28125 48.5722656 195.28125 45.7070312 195.28125 43.5976562 193.910156 42.7011719 191.642578L42.5605469 191.642578 42.5605469 201.205078 35.3535156 201.205078 35.3535156 175.59375 42.578125 175.59375 42.578125 179.091797 42.7011719 179.091797C43.6328125 176.71875 45.6894531 175.3125 48.484375 175.3125zM45.6191406 189.726562C47.5175781 189.726562 48.6953125 188.003906 48.6953125 185.296875 48.6953125 182.607422 47.5 180.867188 45.6191406 180.867188 43.7382812 180.867188 42.5429688 182.607422 42.5253906 185.314453 42.5429688 188.039062 43.7207031 189.726562 45.6191406 189.726562zM58.2929688 195L58.2929688 175.59375 65.3242188 175.59375 65.3242188 179.408203 65.4648438 179.408203C66.203125 176.648438 67.6972656 175.3125 70 175.3125 70.6503906 175.3125 71.2128906 175.417969 71.6875 175.59375L71.6875 181.640625C71.0722656 181.376953 70.3339844 181.236328 69.5957031 181.236328 66.8886719 181.236328 65.5 182.625 65.5 185.332031L65.5 195 58.2929688 195zM82.6210938 180.058594C80.9863281 180.058594 79.7382812 181.253906 79.5976562 182.923828L85.6445312 182.923828C85.5214844 181.183594 84.3085938 180.058594 82.6210938 180.058594zM85.8554688 188.707031L92.2714844 188.707031C91.6738281 192.890625 88.0175781 195.492188 82.6914062 195.492188 76.328125 195.492188 72.5488281 191.712891 72.5488281 185.402344 72.5488281 179.056641 76.3632812 175.101562 82.4628906 175.101562 88.4746094 175.101562 92.359375 178.933594 92.359375 184.875L92.359375 186.826172 79.4921875 186.826172 79.4921875 187.283203C79.4921875 189.181641 80.8632812 190.552734 82.796875 190.552734 84.2558594 190.552734 85.4335938 189.867188 85.8554688 188.707031zM94.2226562 181.623047C94.2226562 177.580078 97.6503906 175.101562 103.310547 175.101562 108.970703 175.101562 112.363281 177.632812 112.363281 181.869141L105.824219 181.869141C105.824219 180.603516 104.822266 179.8125 103.257812 179.8125 101.957031 179.8125 101.113281 180.339844 101.113281 181.148438 101.113281 181.746094 101.746094 182.185547 102.994141 182.414062L107.371094 183.275391C111.220703 184.03125 112.943359 185.683594 112.943359 188.636719 112.943359 192.855469 109.146484 195.492188 103.46875 195.492188 97.4042969 195.492188 94.0292969 192.837891 93.7832031 188.707031L100.744141 188.707031C100.884766 189.990234 101.939453 190.78125 103.556641 190.78125 104.962891 190.78125 105.806641 190.306641 105.806641 189.498047 105.806641 188.882812 105.296875 188.53125 103.978516 188.285156L100.234375 187.546875C96.3144531 186.773438 94.2226562 184.699219 94.2226562 181.623047zM124.457031 180.058594C122.822266 180.058594 121.574219 181.253906 121.433594 182.923828L127.480469 182.923828C127.357422 181.183594 126.144531 180.058594 124.457031 180.058594zM127.691406 188.707031L134.107422 188.707031C133.509766 192.890625 129.853516 195.492188 124.527344 195.492188 118.164062 195.492188 114.384766 191.712891 114.384766 185.402344 114.384766 179.056641 118.199219 175.101562 124.298828 175.101562 130.310547 175.101562 134.195312 178.933594 134.195312 184.875L134.195312 186.826172 121.328125 186.826172 121.328125 187.283203C121.328125 189.181641 122.699219 190.552734 124.632812 190.552734 126.091797 190.552734 127.269531 189.867188 127.691406 188.707031zM136.392578 195L136.392578 175.59375 143.423828 175.59375 143.423828 179.408203 143.564453 179.408203C144.548828 176.683594 146.570312 175.207031 149.523438 175.207031 153.882812 175.207031 156.273438 177.914062 156.273438 182.572266L156.273438 195 149.066406 195 149.066406 184.171875C149.066406 182.220703 148.152344 181.025391 146.341797 181.025391 144.636719 181.025391 143.599609 182.34375 143.599609 184.154297L143.599609 195 136.392578 195zM160.632812 171.339844L167.839844 171.339844 167.839844 175.59375 171.25 175.59375 171.25 180.814453 167.839844 180.814453 167.839844 187.986328C167.839844 189.199219 168.542969 189.832031 170.019531 189.832031 170.564453 189.832031 170.828125 189.814453 171.25 189.744141L171.25 194.736328C170.564453 194.876953 169.650391 195 168.279297 195 162.794922 195 160.632812 193.417969 160.632812 189.585938L160.632812 180.814453 158.066406 180.814453 158.066406 175.59375 160.632812 175.59375 160.632812 171.339844zM182.130859 190.464844C183.730469 190.464844 185.207031 189.568359 185.207031 188.144531L185.207031 186.878906 182.148438 187.089844C180.777344 187.195312 180.003906 187.845703 180.003906 188.794922 180.003906 189.849609 180.865234 190.464844 182.130859 190.464844zM179.441406 195.28125C175.908203 195.28125 172.902344 192.855469 172.902344 189.357422 172.902344 185.630859 175.767578 183.609375 180.953125 183.292969L185.207031 183.029297 185.207031 182.080078C185.207031 180.779297 184.222656 180.076172 182.869141 180.076172 181.392578 180.076172 180.443359 180.884766 180.337891 181.869141L173.904297 181.869141C174.080078 177.720703 177.595703 175.101562 183.255859 175.101562 188.634766 175.101562 192.238281 177.791016 192.238281 181.728516L192.238281 195 185.207031 195 185.207031 192.398438 185.066406 192.398438C184.046875 194.296875 181.691406 195.28125 179.441406 195.28125zM196.685547 171.339844L203.892578 171.339844 203.892578 175.59375 207.302734 175.59375 207.302734 180.814453 203.892578 180.814453 203.892578 187.986328C203.892578 189.199219 204.595703 189.832031 206.072266 189.832031 206.617188 189.832031 206.880859 189.814453 207.302734 189.744141L207.302734 194.736328C206.617188 194.876953 205.703125 195 204.332031 195 198.847656 195 196.685547 193.417969 196.685547 189.585938L196.685547 180.814453 194.119141 180.814453 194.119141 175.59375 196.685547 175.59375 196.685547 171.339844zM209.675781 195L209.675781 175.59375 216.882812 175.59375 216.882812 195 209.675781 195zM213.279297 174.521484C211.240234 174.521484 209.693359 173.044922 209.693359 171.111328 209.693359 169.177734 211.240234 167.701172 213.279297 167.701172 215.318359 167.701172 216.865234 169.177734 216.865234 171.111328 216.865234 173.044922 215.318359 174.521484 213.279297 174.521484zM229.292969 195.492188C222.964844 195.492188 219.097656 191.835938 219.097656 185.279297 219.097656 178.898438 223.070312 175.101562 229.292969 175.101562 235.550781 175.101562 239.505859 178.863281 239.505859 185.279297 239.505859 191.853516 235.638672 195.492188 229.292969 195.492188zM229.292969 190.341797C231.085938 190.341797 232.193359 188.548828 232.193359 185.296875 232.193359 182.132812 231.068359 180.251953 229.292969 180.251953 227.535156 180.251953 226.410156 182.132812 226.410156 185.296875 226.410156 188.548828 227.482422 190.341797 229.292969 190.341797zM241.720703 195L241.720703 175.59375 248.751953 175.59375 248.751953 179.408203 248.892578 179.408203C249.876953 176.683594 251.898438 175.207031 254.851562 175.207031 259.210938 175.207031 261.601562 177.914062 261.601562 182.572266L261.601562 195 254.394531 195 254.394531 184.171875C254.394531 182.220703 253.480469 181.025391 251.669922 181.025391 249.964844 181.025391 248.927734 182.34375 248.927734 184.154297L248.927734 195 241.720703 195zM272.816406 195L272.816406 180.814453 270.25 180.814453 270.25 175.769531 272.816406 175.769531 272.816406 174.960938C272.816406 171.09375 274.697266 169.335938 280.216797 169.335938 281.447266 169.335938 282.835938 169.476562 283.591797 169.634766L283.591797 173.941406C283.240234 173.871094 282.712891 173.835938 282.220703 173.835938 280.498047 173.835938 279.8125 174.433594 279.8125 175.3125L279.8125 175.769531 283.539062 175.769531 283.539062 180.814453 280.023438 180.814453 280.023438 195 272.816406 195zM295.28125 195.492188C288.953125 195.492188 285.085938 191.835938 285.085938 185.279297 285.085938 178.898438 289.058594 175.101562 295.28125 175.101562 301.539062 175.101562 305.494141 178.863281 305.494141 185.279297 305.494141 191.853516 301.626953 195.492188 295.28125 195.492188zM295.28125 190.341797C297.074219 190.341797 298.181641 188.548828 298.181641 185.296875 298.181641 182.132812 297.056641 180.251953 295.28125 180.251953 293.523438 180.251953 292.398438 182.132812 292.398438 185.296875 292.398438 188.548828 293.470703 190.341797 295.28125 190.341797zM307.708984 195L307.708984 175.59375 314.740234 175.59375 314.740234 179.408203 314.880859 179.408203C315.619141 176.648438 317.113281 175.3125 319.416016 175.3125 320.066406 175.3125 320.628906 175.417969 321.103516 175.59375L321.103516 181.640625C320.488281 181.376953 319.75 181.236328 319.011719 181.236328 316.304688 181.236328 314.916016 182.625 314.916016 185.332031L314.916016 195 307.708984 195zM37.09375 211.339844L44.3007812 211.339844 44.3007812 215.59375 47.7109375 215.59375 47.7109375 220.814453 44.3007812 220.814453 44.3007812 227.986328C44.3007812 229.199219 45.0039062 229.832031 46.4804688 229.832031 47.0253906 229.832031 47.2890625 229.814453 47.7109375 229.744141L47.7109375 234.736328C47.0253906 234.876953 46.1113281 235 44.7402344 235 39.2558594 235 37.09375 233.417969 37.09375 229.585938L37.09375 220.814453 34.5273438 220.814453 34.5273438 215.59375 37.09375 215.59375 37.09375 211.339844zM50.171875 235L50.171875 209.634766 57.203125 209.634766 57.203125 219.408203 57.34375 219.408203C58.3105469 216.683594 60.4375 215.207031 63.390625 215.207031 67.75 215.207031 70.1054688 217.914062 70.1054688 222.572266L70.1054688 235 62.8984375 235 62.8984375 224.171875C62.8984375 222.220703 61.9492188 221.025391 60.1386719 221.025391 58.3457031 221.025391 57.3789062 222.34375 57.3789062 224.154297L57.3789062 235 50.171875 235zM82.3222656 220.058594C80.6875 220.058594 79.4394531 221.253906 79.2988281 222.923828L85.3457031 222.923828C85.2226562 221.183594 84.0097656 220.058594 82.3222656 220.058594zM85.5566406 228.707031L91.9726562 228.707031C91.375 232.890625 87.71875 235.492188 82.3925781 235.492188 76.0292969 235.492188 72.25 231.712891 72.25 225.402344 72.25 219.056641 76.0644531 215.101562 82.1640625 215.101562 88.1757812 215.101562 92.0605469 218.933594 92.0605469 224.875L92.0605469 226.826172 79.1933594 226.826172 79.1933594 227.283203C79.1933594 229.181641 80.5644531 230.552734 82.4980469 230.552734 83.9570312 230.552734 85.1347656 229.867188 85.5566406 228.707031zM120.167969 223.626953L113.611328 223.626953C113.470703 221.658203 112.380859 220.462891 110.833984 220.462891 108.935547 220.462891 107.916016 222.150391 107.916016 225.279297 107.916016 228.443359 108.917969 230.130859 110.833984 230.130859 112.451172 230.130859 113.488281 229.005859 113.611328 227.089844L120.167969 227.089844C120.097656 232.345703 116.511719 235.492188 110.746094 235.492188 104.453125 235.492188 100.621094 231.677734 100.621094 225.279297 100.621094 218.951172 104.470703 215.101562 110.710938 215.101562 116.353516 215.101562 120.080078 218.371094 120.167969 223.626953zM131.998047 235.492188C125.669922 235.492188 121.802734 231.835938 121.802734 225.279297 121.802734 218.898438 125.775391 215.101562 131.998047 215.101562 138.255859 215.101562 142.210938 218.863281 142.210938 225.279297 142.210938 231.853516 138.34375 235.492188 131.998047 235.492188zM131.998047 230.341797C133.791016 230.341797 134.898438 228.548828 134.898438 225.296875 134.898438 222.132812 133.773438 220.251953 131.998047 220.251953 130.240234 220.251953 129.115234 222.132812 129.115234 225.296875 129.115234 228.548828 130.1875 230.341797 131.998047 230.341797zM144.425781 235L144.425781 215.59375 151.457031 215.59375 151.457031 219.408203 151.597656 219.408203C152.582031 216.683594 154.603516 215.207031 157.556641 215.207031 161.916016 215.207031 164.306641 217.914062 164.306641 222.572266L164.306641 235 157.099609 235 157.099609 224.171875C157.099609 222.220703 156.185547 221.025391 154.375 221.025391 152.669922 221.025391 151.632812 222.34375 151.632812 224.154297L151.632812 235 144.425781 235zM168.666016 235L168.666016 220.814453 166.099609 220.814453 166.099609 215.769531 168.666016 215.769531 168.666016 214.960938C168.666016 211.09375 170.546875 209.335938 176.066406 209.335938 177.296875 209.335938 178.685547 209.476562 179.441406 209.634766L179.441406 213.941406C179.089844 213.871094 178.5625 213.835938 178.070312 213.835938 176.347656 213.835938 175.662109 214.433594 175.662109 215.3125L175.662109 215.769531 179.388672 215.769531 179.388672 220.814453 175.873047 220.814453 175.873047 235 168.666016 235zM191.007812 220.058594C189.373047 220.058594 188.125 221.253906 187.984375 222.923828L194.03125 222.923828C193.908203 221.183594 192.695312 220.058594 191.007812 220.058594zM194.242188 228.707031L200.658203 228.707031C200.060547 232.890625 196.404297 235.492188 191.078125 235.492188 184.714844 235.492188 180.935547 231.712891 180.935547 225.402344 180.935547 219.056641 184.75 215.101562 190.849609 215.101562 196.861328 215.101562 200.746094 218.933594 200.746094 224.875L200.746094 226.826172 187.878906 226.826172 187.878906 227.283203C187.878906 229.181641 189.25 230.552734 191.183594 230.552734 192.642578 230.552734 193.820312 229.867188 194.242188 228.707031zM202.943359 235L202.943359 215.59375 209.974609 215.59375 209.974609 219.408203 210.115234 219.408203C210.853516 216.648438 212.347656 215.3125 214.650391 215.3125 215.300781 215.3125 215.863281 215.417969 216.337891 215.59375L216.337891 221.640625C215.722656 221.376953 214.984375 221.236328 214.246094 221.236328 211.539062 221.236328 210.150391 222.625 210.150391 225.332031L210.150391 235 202.943359 235zM227.271484 220.058594C225.636719 220.058594 224.388672 221.253906 224.248047 222.923828L230.294922 222.923828C230.171875 221.183594 228.958984 220.058594 227.271484 220.058594zM230.505859 228.707031L236.921875 228.707031C236.324219 232.890625 232.667969 235.492188 227.341797 235.492188 220.978516 235.492188 217.199219 231.712891 217.199219 225.402344 217.199219 219.056641 221.013672 215.101562 227.113281 215.101562 233.125 215.101562 237.009766 218.933594 237.009766 224.875L237.009766 226.826172 224.142578 226.826172 224.142578 227.283203C224.142578 229.181641 225.513672 230.552734 227.447266 230.552734 228.90625 230.552734 230.083984 229.867188 230.505859 228.707031zM239.207031 235L239.207031 215.59375 246.238281 215.59375 246.238281 219.408203 246.378906 219.408203C247.363281 216.683594 249.384766 215.207031 252.337891 215.207031 256.697266 215.207031 259.087891 217.914062 259.087891 222.572266L259.087891 235 251.880859 235 251.880859 224.171875C251.880859 222.220703 250.966797 221.025391 249.15625 221.025391 247.451172 221.025391 246.414062 222.34375 246.414062 224.154297L246.414062 235 239.207031 235zM280.761719 223.626953L274.205078 223.626953C274.064453 221.658203 272.974609 220.462891 271.427734 220.462891 269.529297 220.462891 268.509766 222.150391 268.509766 225.279297 268.509766 228.443359 269.511719 230.130859 271.427734 230.130859 273.044922 230.130859 274.082031 229.005859 274.205078 227.089844L280.761719 227.089844C280.691406 232.345703 277.105469 235.492188 271.339844 235.492188 265.046875 235.492188 261.214844 231.677734 261.214844 225.279297 261.214844 218.951172 265.064453 215.101562 271.304688 215.101562 276.947266 215.101562 280.673828 218.371094 280.761719 223.626953zM292.46875 220.058594C290.833984 220.058594 289.585938 221.253906 289.445312 222.923828L295.492188 222.923828C295.369141 221.183594 294.15625 220.058594 292.46875 220.058594zM295.703125 228.707031L302.119141 228.707031C301.521484 232.890625 297.865234 235.492188 292.539062 235.492188 286.175781 235.492188 282.396484 231.712891 282.396484 225.402344 282.396484 219.056641 286.210938 215.101562 292.310547 215.101562 298.322266 215.101562 302.207031 218.933594 302.207031 224.875L302.207031 226.826172 289.339844 226.826172 289.339844 227.283203C289.339844 229.181641 290.710938 230.552734 292.644531 230.552734 294.103516 230.552734 295.28125 229.867188 295.703125 228.707031zM121.386719 401.321289C113.098633 401.321289 106.251953 397.557617 102.208008 390.670898 99.0048828 385.786133 97.3632812 379.259766 97.3632812 371.572266 97.3632812 352.433594 106.652344 340.902344 121.586914 340.902344 132.597656 340.902344 141.206055 347.428711 142.807617 356.87793L130.916016 356.87793C129.754883 353.03418 126.03125 350.47168 121.506836 350.47168 113.458984 350.47168 108.574219 358.199219 108.854492 371.251953L109.094727 371.251953C111.416992 365.606445 117.102539 361.842773 124.469727 361.842773 135.44043 361.842773 143.568359 369.930664 143.568359 380.901367 143.568359 392.792969 134.319336 401.321289 121.386719 401.321289zM121.266602 391.671875C127.152344 391.671875 131.796875 387.067383 131.796875 381.261719 131.796875 375.295898 127.352539 370.931641 121.306641 370.931641 115.300781 370.931641 110.736328 375.295898 110.736328 381.141602 110.736328 387.027344 115.34082 391.671875 121.266602 391.671875zM151.341797 400.480469C147.738281 400.480469 144.895508 397.597656 144.895508 394.03418 144.895508 390.430664 147.738281 387.587891 151.341797 387.587891 154.905273 387.587891 157.788086 390.430664 157.788086 394.03418 157.788086 397.597656 154.905273 400.480469 151.341797 400.480469zM160.116211 359.600586C160.116211 348.669922 168.844727 340.942383 181.457031 340.942383 193.628906 340.942383 201.99707 347.989258 201.99707 357.638672 201.99707 364.845703 197.192383 370.250977 190.826172 376.577148L176.732422 390.150391 176.732422 390.390625 202.797852 390.390625 202.797852 400 160.796875 400 160.796875 391.87207 182.578125 370.891602C188.423828 365.045898 190.225586 362.123047 190.225586 358.119141 190.225586 353.794922 186.421875 350.351562 181.056641 350.351562 175.451172 350.351562 171.327148 354.275391 171.327148 359.600586L171.327148 359.800781 160.116211 359.800781 160.116211 359.600586zM218.699219 400L218.699219 353.314453 218.458984 353.314453 203.724609 363.484375 203.724609 352.59375 218.65918 342.223633 230.670898 342.223633 230.670898 400 218.699219 400zM247.819336 400L247.819336 342.223633 259.310547 342.223633 259.310547 364.725586 259.550781 364.725586C261.833008 359.320312 266.517578 356.277344 273.043945 356.277344 282.573242 356.277344 288.018555 362.443359 288.018555 372.373047L288.018555 400 276.327148 400 276.327148 374.855469C276.327148 369.330078 273.604492 365.966797 268.279297 365.966797 262.753906 365.966797 259.510742 369.850586 259.510742 375.496094L259.510742 400 247.819336 400zM34 342L58 342 58 400 34 400 34 342zM60 342L84 342 84 400 60 400 60 342zM35.5273438 281.021973L39.6362305 281.021973C43.1889648 281.021973 45.2890625 283.238281 45.2890625 287.006836 45.2890625 290.783691 43.1972656 293 39.6362305 293L35.5273438 293 35.5273438 281.021973zM37.0214844 282.366699L37.0214844 291.655273 39.5366211 291.655273C42.2094727 291.655273 43.7617188 289.945312 43.7617188 287.023438 43.7617188 284.093262 42.1928711 282.366699 39.5366211 282.366699L37.0214844 282.366699zM50.9853242 285.155762C49.5575898 285.155762 48.5614961 286.20166 48.4535859 287.787109L53.38425 287.787109C53.3510469 286.20166 52.4047578 285.155762 50.9853242 285.155762zM53.3427461 290.684082L54.7704805 290.684082C54.3388398 292.219727 52.9609102 293.157715 51.0019258 293.157715 48.5199922 293.157715 46.9677461 291.364746 46.9677461 288.53418 46.9677461 285.720215 48.5448945 283.894043 51.0019258 283.894043 53.4174531 283.894043 54.8866914 285.612305 54.8866914 288.393066L54.8866914 288.940918 48.4535859 288.940918 48.4535859 289.007324C48.528293 290.775391 49.5160859 291.895996 51.0351289 291.895996 52.1889375 291.895996 52.9692109 291.472656 53.3427461 290.684082zM56.6483828 286.500488C56.6483828 285.014648 58.084418 283.894043 59.9852969 283.894043 61.8612734 283.894043 63.1644961 284.82373 63.3554141 286.292969L61.9442813 286.292969C61.7533633 285.579102 61.0560977 285.105957 59.9769961 285.105957 58.9144961 285.105957 58.084418 285.645508 58.084418 286.442383 58.084418 287.056641 58.5824648 287.438477 59.6366641 287.695801L61.0145938 288.027832C62.6996523 288.43457 63.5131289 289.165039 63.5131289 290.45166 63.5131289 292.053711 61.9608828 293.157715 59.9271914 293.157715 57.9350039 293.157715 56.565375 292.203125 56.4076602 290.717285L57.8768984 290.717285C58.1176211 291.472656 58.8314883 291.954102 59.9769961 291.954102 61.1806094 291.954102 62.0438906 291.381348 62.0438906 290.55957 62.0438906 289.945312 61.5790469 289.530273 60.624457 289.297852L59.0888125 288.924316C57.4120547 288.517578 56.6483828 287.79541 56.6483828 286.500488zM72.8866367 286.791016L71.4423008 286.791016C71.2098789 285.902832 70.4213047 285.180664 69.1346836 285.180664 67.524332 285.180664 66.5116367 286.467285 66.5116367 288.492676 66.5116367 290.55957 67.5409336 291.871094 69.1346836 291.871094 70.3382969 291.871094 71.1766758 291.314941 71.4423008 290.302246L72.8866367 290.302246C72.6293125 291.945801 71.2928867 293.157715 69.1429844 293.157715 66.6361484 293.157715 65.0340977 291.339844 65.0340977 288.492676 65.0340977 285.703613 66.6278477 283.894043 69.1346836 283.894043 71.3094883 283.894043 72.6376133 285.197266 72.8866367 286.791016zM74.7230352 293L74.7230352 284.051758 76.0843633 284.051758 76.0843633 285.379883 76.2171758 285.379883C76.4828008 284.508301 77.5120977 283.894043 78.6991094 283.894043 78.9315313 283.894043 79.2303594 283.910645 79.4129766 283.935547L79.4129766 285.363281C79.2967656 285.330078 78.7821172 285.280273 78.4998906 285.280273 77.1385625 285.280273 76.1507695 286.193359 76.1507695 287.455078L76.1507695 293 74.7230352 293zM80.9588477 293L80.9588477 284.051758 82.386582 284.051758 82.386582 293 80.9588477 293zM81.6727148 282.233887C81.1248633 282.233887 80.6766211 281.785645 80.6766211 281.237793 80.6766211 280.689941 81.1248633 280.241699 81.6727148 280.241699 82.2205664 280.241699 82.6688086 280.689941 82.6688086 281.237793 82.6688086 281.785645 82.2205664 282.233887 81.6727148 282.233887zM89.1951484 283.894043C91.4778633 283.894043 92.9554023 285.711914 92.9554023 288.525879 92.9554023 291.323242 91.4695625 293.157715 89.1951484 293.157715 87.9168281 293.157715 86.8875312 292.601562 86.3977852 291.655273L86.2649727 291.655273 86.2649727 295.988281 84.8372383 295.988281 84.8372383 284.051758 86.1985664 284.051758 86.1985664 285.545898 86.3313789 285.545898C86.9041328 284.516602 87.9749336 283.894043 89.1951484 283.894043zM88.8548164 291.871094C90.4983711 291.871094 91.4778633 290.617676 91.4778633 288.525879 91.4778633 286.434082 90.4983711 285.180664 88.8631172 285.180664 87.2444648 285.180664 86.2234687 286.467285 86.2234687 288.525879 86.2234687 290.576172 87.2444648 291.871094 88.8548164 291.871094zM95.5222695 281.73584L96.9500039 281.73584 96.9500039 284.051758 98.9421914 284.051758 98.9421914 285.24707 96.9500039 285.24707 96.9500039 290.310547C96.9500039 291.364746 97.3484414 291.812988 98.2781289 291.812988 98.5354531 291.812988 98.6765664 291.804688 98.9421914 291.779785L98.9421914 292.983398C98.6599648 293.033203 98.3860391 293.066406 98.1038125 293.066406 96.2610391 293.066406 95.5222695 292.385742 95.5222695 290.675781L95.5222695 285.24707 94.0779336 285.24707 94.0779336 284.051758 95.5222695 284.051758 95.5222695 281.73584zM100.861598 293L100.861598 284.051758 102.289332 284.051758 102.289332 293 100.861598 293zM101.575465 282.233887C101.027613 282.233887 100.579371 281.785645 100.579371 281.237793 100.579371 280.689941 101.027613 280.241699 101.575465 280.241699 102.123316 280.241699 102.571559 280.689941 102.571559 281.237793 102.571559 281.785645 102.123316 282.233887 101.575465 282.233887zM108.417234 293.157715C105.868895 293.157715 104.291746 291.397949 104.291746 288.525879 104.291746 285.645508 105.868895 283.894043 108.417234 283.894043 110.965574 283.894043 112.542723 285.645508 112.542723 288.525879 112.542723 291.397949 110.965574 293.157715 108.417234 293.157715zM108.417234 291.871094C110.110594 291.871094 111.065184 290.642578 111.065184 288.525879 111.065184 286.400879 110.110594 285.180664 108.417234 285.180664 106.723875 285.180664 105.769285 286.400879 105.769285 288.525879 105.769285 290.642578 106.723875 291.871094 108.417234 291.871094zM114.511934 293L114.511934 284.051758 115.873262 284.051758 115.873262 285.462891 116.006074 285.462891C116.454316 284.475098 117.325898 283.894043 118.695527 283.894043 120.704316 283.894043 121.824922 285.081055 121.824922 287.206055L121.824922 293 120.397187 293 120.397187 287.554688C120.397187 285.944336 119.716523 285.180664 118.288789 285.180664 116.861055 285.180664 115.939668 286.135254 115.939668 287.704102L115.939668 293 114.511934 293zM132.362465 293.157715C129.814125 293.157715 128.236977 291.397949 128.236977 288.525879 128.236977 285.645508 129.814125 283.894043 132.362465 283.894043 134.910805 283.894043 136.487953 285.645508 136.487953 288.525879 136.487953 291.397949 134.910805 293.157715 132.362465 293.157715zM132.362465 291.871094C134.055824 291.871094 135.010414 290.642578 135.010414 288.525879 135.010414 286.400879 134.055824 285.180664 132.362465 285.180664 130.669105 285.180664 129.714516 286.400879 129.714516 288.525879 129.714516 290.642578 130.669105 291.871094 132.362465 291.871094zM138.457164 293L138.457164 284.051758 139.818492 284.051758 139.818492 285.379883 139.951305 285.379883C140.21693 284.508301 141.246227 283.894043 142.433238 283.894043 142.66566 283.894043 142.964488 283.910645 143.147105 283.935547L143.147105 285.363281C143.030895 285.330078 142.516246 285.280273 142.23402 285.280273 140.872691 285.280273 139.884898 286.193359 139.884898 287.455078L139.884898 293 138.457164 293zM156.639727 291.655273L156.639727 293 149.368242 293 149.368242 281.021973 150.862383 281.021973 150.862383 291.655273 156.639727 291.655273zM158.600637 293L158.600637 284.051758 160.028371 284.051758 160.028371 293 158.600637 293zM159.314504 282.233887C158.766652 282.233887 158.31841 281.785645 158.31841 281.237793 158.31841 280.689941 158.766652 280.241699 159.314504 280.241699 159.862355 280.241699 160.310598 280.689941 160.310598 281.237793 160.310598 281.785645 159.862355 282.233887 159.314504 282.233887zM162.479027 293L162.479027 284.051758 163.840355 284.051758 163.840355 285.462891 163.973168 285.462891C164.42141 284.475098 165.292992 283.894043 166.662621 283.894043 168.67141 283.894043 169.792016 285.081055 169.792016 287.206055L169.792016 293 168.364281 293 168.364281 287.554688C168.364281 285.944336 167.683617 285.180664 166.255883 285.180664 164.828148 285.180664 163.906762 286.135254 163.906762 287.704102L163.906762 293 162.479027 293zM173.770016 287.961426L177.654781 284.051758 179.406246 284.051758 175.554684 287.886719 179.66357 293 177.845699 293 174.492184 288.808105 173.637203 289.60498 173.637203 293 172.209469 293 172.209469 280.499023 173.637203 280.499023 173.637203 287.961426 173.770016 287.961426z"/>
    <rect width="45" height="19" x="282" y="279" fill="#EEE3C1" opacity=".15" rx="3"/>
    <path fill="#EEE3C1" d="M286.540967,290.606934 L287.69624,290.606934 C287.835889,291.56543 288.749951,292.174805 290.051221,292.174805 C291.282666,292.174805 292.190381,291.508301 292.190381,290.600586 C292.190381,289.819824 291.619092,289.324707 290.355908,289.007324 L289.181592,288.702637 C287.524854,288.283691 286.807568,287.534668 286.807568,286.233398 C286.807568,284.678223 288.108838,283.624512 290.044873,283.624512 C291.815869,283.624512 293.136182,284.678223 293.231396,286.157227 L292.082471,286.157227 C291.923779,285.217773 291.149365,284.65918 290.006787,284.65918 C288.788037,284.65918 287.981885,285.268555 287.981885,286.195312 C287.981885,286.912598 288.48335,287.325195 289.746533,287.648926 L290.705029,287.902832 C292.602979,288.378906 293.364697,289.115234 293.364697,290.460938 C293.364697,292.143066 292.038037,293.21582 289.943311,293.21582 C288.000928,293.21582 286.661572,292.1875 286.540967,290.606934 Z M298.915674,283.624512 C301.518213,283.624512 303.105127,285.478027 303.105127,288.416992 C303.105127,291.343262 301.530908,293.21582 298.915674,293.21582 C296.287744,293.21582 294.707178,291.349609 294.707178,288.416992 C294.707178,285.47168 296.32583,283.624512 298.915674,283.624512 Z M298.915674,284.678223 C297.049463,284.678223 295.881494,286.125488 295.881494,288.416992 C295.881494,290.689453 297.011377,292.162109 298.915674,292.162109 C300.79458,292.162109 301.930811,290.689453 301.930811,288.416992 C301.930811,286.125488 300.788232,284.678223 298.915674,284.678223 Z M308.738623,283.624512 C311.341162,283.624512 312.928076,285.478027 312.928076,288.416992 C312.928076,291.343262 311.353857,293.21582 308.738623,293.21582 C306.110693,293.21582 304.530127,291.349609 304.530127,288.416992 C304.530127,285.47168 306.148779,283.624512 308.738623,283.624512 Z M308.738623,284.678223 C306.872412,284.678223 305.704443,286.125488 305.704443,288.416992 C305.704443,290.689453 306.834326,292.162109 308.738623,292.162109 C310.617529,292.162109 311.75376,290.689453 311.75376,288.416992 C311.75376,286.125488 310.611182,284.678223 308.738623,284.678223 Z M315.838428,293 L314.708545,293 L314.708545,283.840332 L315.819385,283.840332 L320.7896,290.96875 L320.891162,290.96875 L320.891162,283.840332 L322.021045,283.840332 L322.021045,293 L320.910205,293 L315.93999,285.896973 L315.838428,285.896973 L315.838428,293 Z" opacity=".5"/>
    <rect width="293" height="1" x="34" y="262" fill="#2C2A25" fill-rule="nonzero"/>
    <rect width="293" height="1" x="34" y="315" fill="#2C2A25" fill-rule="nonzero"/>
    <rect width="293" height="1" x="34" y="426" fill="#2C2A25" fill-rule="nonzero"/>
    <rect width="293" height="1" x="34" y="479" fill="#2C2A25" fill-rule="nonzero"/>
    <rect width="293" height="1" x="34" y="532" fill="#2C2A25" fill-rule="nonzero"/>
    <path fill="#EEE3C1" d="M34.9545898 506.870605L36.465332 506.870605C36.6479492 508.124023 37.8432617 508.920898 39.5449219 508.920898 41.1552734 508.920898 42.3422852 508.049316 42.3422852 506.862305 42.3422852 505.841309 41.5952148 505.193848 39.9433594 504.778809L38.4077148 504.380371C36.2412109 503.83252 35.3032227 502.853027 35.3032227 501.151367 35.3032227 499.117676 37.0048828 497.739746 39.5366211 497.739746 41.8525391 497.739746 43.5791016 499.117676 43.7036133 501.051758L42.2011719 501.051758C41.9936523 499.823242 40.980957 499.092773 39.4868164 499.092773 37.8930664 499.092773 36.8388672 499.889648 36.8388672 501.101562 36.8388672 502.039551 37.4946289 502.579102 39.1464844 503.002441L40.3999023 503.334473C42.8818359 503.957031 43.8779297 504.919922 43.8779297 506.679688 43.8779297 508.879395 42.1430664 510.282227 39.4038086 510.282227 36.8637695 510.282227 35.1123047 508.9375 34.9545898 506.870605zM46.5029023 498.73584L47.9306367 498.73584 47.9306367 501.051758 49.9228242 501.051758 49.9228242 502.24707 47.9306367 502.24707 47.9306367 507.310547C47.9306367 508.364746 48.3290742 508.812988 49.2587617 508.812988 49.5160859 508.812988 49.6571992 508.804688 49.9228242 508.779785L49.9228242 509.983398C49.6405977 510.033203 49.3666719 510.066406 49.0844453 510.066406 47.2416719 510.066406 46.5029023 509.385742 46.5029023 507.675781L46.5029023 502.24707 45.0585664 502.24707 45.0585664 501.051758 46.5029023 501.051758 46.5029023 498.73584zM55.3617617 510.157715C52.8134219 510.157715 51.2362734 508.397949 51.2362734 505.525879 51.2362734 502.645508 52.8134219 500.894043 55.3617617 500.894043 57.9101016 500.894043 59.48725 502.645508 59.48725 505.525879 59.48725 508.397949 57.9101016 510.157715 55.3617617 510.157715zM55.3617617 508.871094C57.0551211 508.871094 58.0097109 507.642578 58.0097109 505.525879 58.0097109 503.400879 57.0551211 502.180664 55.3617617 502.180664 53.6684023 502.180664 52.7138125 503.400879 52.7138125 505.525879 52.7138125 507.642578 53.6684023 508.871094 55.3617617 508.871094zM65.8143711 500.894043C68.0970859 500.894043 69.574625 502.711914 69.574625 505.525879 69.574625 508.323242 68.0887852 510.157715 65.8143711 510.157715 64.5360508 510.157715 63.5067539 509.601562 63.0170078 508.655273L62.8841953 508.655273 62.8841953 512.988281 61.4564609 512.988281 61.4564609 501.051758 62.8177891 501.051758 62.8177891 502.545898 62.9506016 502.545898C63.5233555 501.516602 64.5941562 500.894043 65.8143711 500.894043zM65.4740391 508.871094C67.1175937 508.871094 68.0970859 507.617676 68.0970859 505.525879 68.0970859 503.434082 67.1175937 502.180664 65.4823398 502.180664 63.8636875 502.180664 62.8426914 503.467285 62.8426914 505.525879 62.8426914 507.576172 63.8636875 508.871094 65.4740391 508.871094zM78.8255469 508.904297C80.2947852 508.904297 81.3821875 507.941406 81.3821875 506.663086L81.3821875 505.841309 78.9749609 505.999023C77.6136328 506.090332 77.0159766 506.563477 77.0159766 507.459961 77.0159766 508.373047 77.7879492 508.904297 78.8255469 508.904297zM78.5599219 510.157715C76.8250586 510.157715 75.5384375 509.128418 75.5384375 507.493164 75.5384375 505.891113 76.7171484 504.969727 78.8006445 504.845215L81.3821875 504.6875 81.3821875 503.874023C81.3821875 502.77002 80.6932227 502.164062 79.3567969 502.164062 78.2859961 502.164062 77.5389258 502.570801 77.339707 503.276367L75.8953711 503.276367C76.0862891 501.840332 77.4974219 500.894043 79.4066016 500.894043 81.589707 500.894043 82.8099219 502.014648 82.8099219 503.874023L82.8099219 510 81.4485938 510 81.4485938 508.680176 81.3157813 508.680176C80.7347266 509.634766 79.7552344 510.157715 78.5599219 510.157715zM85.1775703 510L85.1775703 501.051758 86.5388984 501.051758 86.5388984 502.462891 86.6717109 502.462891C87.1199531 501.475098 87.9915352 500.894043 89.3611641 500.894043 91.3699531 500.894043 92.4905586 502.081055 92.4905586 504.206055L92.4905586 510 91.0628242 510 91.0628242 504.554688C91.0628242 502.944336 90.3821602 502.180664 88.9544258 502.180664 87.5266914 502.180664 86.6053047 503.135254 86.6053047 504.704102L86.6053047 510 85.1775703 510zM98.1370156 510.157715C95.846 510.157715 94.3767617 508.339844 94.3767617 505.525879 94.3767617 502.720215 95.8626016 500.894043 98.1370156 500.894043 99.3821328 500.894043 100.436332 501.483398 100.94268 502.462891L101.067191 502.462891 101.067191 497.499023 102.494926 497.499023 102.494926 510 101.133598 510 101.133598 508.572266 101.000785 508.572266C100.436332 509.568359 99.373832 510.157715 98.1370156 510.157715zM98.4690469 502.180664C96.8420938 502.180664 95.8543008 503.442383 95.8543008 505.525879 95.8543008 507.617676 96.833793 508.871094 98.4690469 508.871094 100.096 508.871094 101.100395 507.592773 101.100395 505.525879 101.100395 503.475586 100.087699 502.180664 98.4690469 502.180664zM111.197996 510L109.703855 510 109.703855 498.021973 116.97534 498.021973 116.97534 499.366699 111.197996 499.366699 111.197996 503.483887 116.502195 503.483887 116.502195 504.812012 111.197996 504.812012 111.197996 510zM119.010957 510L119.010957 501.051758 120.438691 501.051758 120.438691 510 119.010957 510zM119.724824 499.233887C119.176973 499.233887 118.72873 498.785645 118.72873 498.237793 118.72873 497.689941 119.176973 497.241699 119.724824 497.241699 120.272676 497.241699 120.720918 497.689941 120.720918 498.237793 120.720918 498.785645 120.272676 499.233887 119.724824 499.233887zM122.889348 510L122.889348 501.051758 124.250676 501.051758 124.250676 502.462891 124.383488 502.462891C124.83173 501.475098 125.703312 500.894043 127.072941 500.894043 129.08173 500.894043 130.202336 502.081055 130.202336 504.206055L130.202336 510 128.774602 510 128.774602 504.554688C128.774602 502.944336 128.093937 502.180664 126.666203 502.180664 125.238469 502.180664 124.317082 503.135254 124.317082 504.704102L124.317082 510 122.889348 510zM132.569984 510L132.569984 501.051758 133.997719 501.051758 133.997719 510 132.569984 510zM133.283852 499.233887C132.736 499.233887 132.287758 498.785645 132.287758 498.237793 132.287758 497.689941 132.736 497.241699 133.283852 497.241699 133.831703 497.241699 134.279945 497.689941 134.279945 498.237793 134.279945 498.785645 133.831703 499.233887 133.283852 499.233887zM136.240855 503.500488C136.240855 502.014648 137.676891 500.894043 139.57777 500.894043 141.453746 500.894043 142.756969 501.82373 142.947887 503.292969L141.536754 503.292969C141.345836 502.579102 140.64857 502.105957 139.569469 502.105957 138.506969 502.105957 137.676891 502.645508 137.676891 503.442383 137.676891 504.056641 138.174937 504.438477 139.229137 504.695801L140.607066 505.027832C142.292125 505.43457 143.105602 506.165039 143.105602 507.45166 143.105602 509.053711 141.553355 510.157715 139.519664 510.157715 137.527477 510.157715 136.157848 509.203125 136.000133 507.717285L137.469371 507.717285C137.710094 508.472656 138.423961 508.954102 139.569469 508.954102 140.773082 508.954102 141.636363 508.381348 141.636363 507.55957 141.636363 506.945312 141.17152 506.530273 140.21693 506.297852L138.681285 505.924316C137.004527 505.517578 136.240855 504.79541 136.240855 503.500488zM145.15782 510L145.15782 497.499023 146.585555 497.499023 146.585555 502.462891 146.718367 502.462891C147.166609 501.475098 148.104598 500.894043 149.474227 500.894043 151.366805 500.894043 152.562117 502.105957 152.562117 504.206055L152.562117 510 151.134383 510 151.134383 504.554688C151.134383 502.969238 150.420516 502.180664 149.067488 502.180664 147.465438 502.180664 146.585555 503.193359 146.585555 504.704102L146.585555 510 145.15782 510zM45.0898438 457L43.5957031 457 43.5957031 451.546387 37.0214844 451.546387 37.0214844 457 35.5273438 457 35.5273438 445.021973 37.0214844 445.021973 37.0214844 450.20166 43.5957031 450.20166 43.5957031 445.021973 45.0898438 445.021973 45.0898438 457zM47.7231172 457L47.7231172 448.051758 49.1508516 448.051758 49.1508516 457 47.7231172 457zM48.4369844 446.233887C47.8891328 446.233887 47.4408906 445.785645 47.4408906 445.237793 47.4408906 444.689941 47.8891328 444.241699 48.4369844 444.241699 48.9848359 444.241699 49.4330781 444.689941 49.4330781 445.237793 49.4330781 445.785645 48.9848359 446.233887 48.4369844 446.233887zM51.3939883 450.500488C51.3939883 449.014648 52.8300234 447.894043 54.7309023 447.894043 56.6068789 447.894043 57.9101016 448.82373 58.1010195 450.292969L56.6898867 450.292969C56.4989688 449.579102 55.8017031 449.105957 54.7226016 449.105957 53.6601016 449.105957 52.8300234 449.645508 52.8300234 450.442383 52.8300234 451.056641 53.3280703 451.438477 54.3822695 451.695801L55.7601992 452.027832C57.4452578 452.43457 58.2587344 453.165039 58.2587344 454.45166 58.2587344 456.053711 56.7064883 457.157715 54.6727969 457.157715 52.6806094 457.157715 51.3109805 456.203125 51.1532656 454.717285L52.6225039 454.717285C52.8632266 455.472656 53.5770938 455.954102 54.7226016 455.954102 55.9262148 455.954102 56.7894961 455.381348 56.7894961 454.55957 56.7894961 453.945312 56.3246523 453.530273 55.3700625 453.297852L53.834418 452.924316C52.1576602 452.517578 51.3939883 451.79541 51.3939883 450.500488zM60.7425937 445.73584L62.1703281 445.73584 62.1703281 448.051758 64.1625156 448.051758 64.1625156 449.24707 62.1703281 449.24707 62.1703281 454.310547C62.1703281 455.364746 62.5687656 455.812988 63.4984531 455.812988 63.7557773 455.812988 63.8968906 455.804688 64.1625156 455.779785L64.1625156 456.983398C63.8802891 457.033203 63.6063633 457.066406 63.3241367 457.066406 61.4813633 457.066406 60.7425937 456.385742 60.7425937 454.675781L60.7425937 449.24707 59.2982578 449.24707 59.2982578 448.051758 60.7425937 448.051758 60.7425937 445.73584zM69.6014531 457.157715C67.0531133 457.157715 65.4759648 455.397949 65.4759648 452.525879 65.4759648 449.645508 67.0531133 447.894043 69.6014531 447.894043 72.149793 447.894043 73.7269414 449.645508 73.7269414 452.525879 73.7269414 455.397949 72.149793 457.157715 69.6014531 457.157715zM69.6014531 455.871094C71.2948125 455.871094 72.2494023 454.642578 72.2494023 452.525879 72.2494023 450.400879 71.2948125 449.180664 69.6014531 449.180664 67.9080938 449.180664 66.9535039 450.400879 66.9535039 452.525879 66.9535039 454.642578 67.9080938 455.871094 69.6014531 455.871094zM75.6961523 457L75.6961523 448.051758 77.0574805 448.051758 77.0574805 449.379883 77.190293 449.379883C77.455918 448.508301 78.4852148 447.894043 79.6722266 447.894043 79.9046484 447.894043 80.2034766 447.910645 80.3860938 447.935547L80.3860938 449.363281C80.2698828 449.330078 79.7552344 449.280273 79.4730078 449.280273 78.1116797 449.280273 77.1238867 450.193359 77.1238867 451.455078L77.1238867 457 75.6961523 457zM82.6624336 460.237305C82.4715156 460.237305 82.2224922 460.220703 82.0232734 460.1875L82.0232734 458.967285C82.1975898 459.000488 82.4217109 459.008789 82.6209297 459.008789 83.442707 459.008789 83.8909492 458.618652 84.2644844 457.539551L84.4305 457.008301 81.1184883 448.051758 82.6624336 448.051758 85.1194648 455.414551 85.2522773 455.414551 87.7010078 448.051758 89.2200508 448.051758 85.7254219 457.547852C84.96175 459.623047 84.2478828 460.237305 82.6624336 460.237305z"/>
    <polygon fill="#43413A" points="320 446 320 445 327 452 320 459 320 458 326 452"/>
    <path fill="#43413A" d="M244.716555,451.47998 L244.716555,450.20166 L246.169191,450.20166 C247.53052,450.20166 248.49341,449.321777 248.49341,448.07666 C248.49341,446.856445 247.572023,446.042969 246.194094,446.042969 C244.816164,446.042969 243.911379,446.806641 243.786867,448.093262 L242.33423,448.093262 C242.483645,446.018066 243.969484,444.739746 246.252199,444.739746 C248.343996,444.739746 250.012453,446.134277 250.012453,447.877441 C250.012453,449.305176 249.223879,450.351074 247.912355,450.666504 L247.912355,450.799316 C249.539309,451.006836 250.527102,452.135742 250.527102,453.770996 C250.527102,455.746582 248.676027,457.282227 246.310305,457.282227 C243.878176,457.282227 242.201418,455.929199 242.093508,453.878906 L243.537844,453.878906 C243.670656,455.157227 244.749758,455.979004 246.293703,455.979004 C247.870852,455.979004 248.991457,455.041016 248.991457,453.729492 C248.991457,452.343262 247.937258,451.47998 246.235598,451.47998 L244.716555,451.47998 Z M257.18818,457 L257.18818,448.051758 L258.549508,448.051758 L258.549508,449.379883 L258.68232,449.379883 C258.947945,448.508301 259.977242,447.894043 261.164254,447.894043 C261.396676,447.894043 261.695504,447.910645 261.878121,447.935547 L261.878121,449.363281 C261.76191,449.330078 261.247262,449.280273 260.965035,449.280273 C259.603707,449.280273 258.615914,450.193359 258.615914,451.455078 L258.615914,457 L257.18818,457 Z M266.711102,449.155762 C265.283367,449.155762 264.287273,450.20166 264.179363,451.787109 L269.110027,451.787109 C269.076824,450.20166 268.130535,449.155762 266.711102,449.155762 Z M269.068523,454.684082 L270.496258,454.684082 C270.064617,456.219727 268.686688,457.157715 266.727703,457.157715 C264.24577,457.157715 262.693523,455.364746 262.693523,452.53418 C262.693523,449.720215 264.270672,447.894043 266.727703,447.894043 C269.14323,447.894043 270.612469,449.612305 270.612469,452.393066 L270.612469,452.940918 L264.179363,452.940918 L264.179363,453.007324 C264.25407,454.775391 265.241863,455.895996 266.760906,455.895996 C267.914715,455.895996 268.694988,455.472656 269.068523,454.684082 Z M279.985977,450.791016 L278.541641,450.791016 C278.309219,449.902832 277.520645,449.180664 276.234023,449.180664 C274.623672,449.180664 273.610977,450.467285 273.610977,452.492676 C273.610977,454.55957 274.640273,455.871094 276.234023,455.871094 C277.437637,455.871094 278.276016,455.314941 278.541641,454.302246 L279.985977,454.302246 C279.728652,455.945801 278.392227,457.157715 276.242324,457.157715 C273.735488,457.157715 272.133438,455.339844 272.133438,452.492676 C272.133438,449.703613 273.727188,447.894043 276.234023,447.894043 C278.408828,447.894043 279.736953,449.197266 279.985977,450.791016 Z M285.499621,457.157715 C282.951281,457.157715 281.374133,455.397949 281.374133,452.525879 C281.374133,449.645508 282.951281,447.894043 285.499621,447.894043 C288.047961,447.894043 289.625109,449.645508 289.625109,452.525879 C289.625109,455.397949 288.047961,457.157715 285.499621,457.157715 Z M285.499621,455.871094 C287.19298,455.871094 288.14757,454.642578 288.14757,452.525879 C288.14757,450.400879 287.19298,449.180664 285.499621,449.180664 C283.806262,449.180664 282.851672,450.400879 282.851672,452.525879 C282.851672,454.642578 283.806262,455.871094 285.499621,455.871094 Z M291.59432,457 L291.59432,448.051758 L292.955648,448.051758 L292.955648,449.379883 L293.088461,449.379883 C293.354086,448.508301 294.383383,447.894043 295.570395,447.894043 C295.802816,447.894043 296.101645,447.910645 296.284262,447.935547 L296.284262,449.363281 C296.168051,449.330078 295.653402,449.280273 295.371176,449.280273 C294.009848,449.280273 293.022055,450.193359 293.022055,451.455078 L293.022055,457 L291.59432,457 Z M300.859918,457.157715 C298.568902,457.157715 297.099664,455.339844 297.099664,452.525879 C297.099664,449.720215 298.585504,447.894043 300.859918,447.894043 C302.105035,447.894043 303.159234,448.483398 303.665582,449.462891 L303.790094,449.462891 L303.790094,444.499023 L305.217828,444.499023 L305.217828,457 L303.8565,457 L303.8565,455.572266 L303.723688,455.572266 C303.159234,456.568359 302.096734,457.157715 300.859918,457.157715 Z M301.191949,449.180664 C299.564996,449.180664 298.577203,450.442383 298.577203,452.525879 C298.577203,454.617676 299.556695,455.871094 301.191949,455.871094 C302.818902,455.871094 303.823297,454.592773 303.823297,452.525879 C303.823297,450.475586 302.810602,449.180664 301.191949,449.180664 Z M307.51077,450.500488 C307.51077,449.014648 308.946805,447.894043 310.847684,447.894043 C312.72366,447.894043 314.026883,448.82373 314.217801,450.292969 L312.806668,450.292969 C312.61575,449.579102 311.918484,449.105957 310.839383,449.105957 C309.776883,449.105957 308.946805,449.645508 308.946805,450.442383 C308.946805,451.056641 309.444852,451.438477 310.499051,451.695801 L311.87698,452.027832 C313.562039,452.43457 314.375516,453.165039 314.375516,454.45166 C314.375516,456.053711 312.82327,457.157715 310.789578,457.157715 C308.797391,457.157715 307.427762,456.203125 307.270047,454.717285 L308.739285,454.717285 C308.980008,455.472656 309.693875,455.954102 310.839383,455.954102 C312.042996,455.954102 312.906277,455.381348 312.906277,454.55957 C312.906277,453.945312 312.441434,453.530273 311.486844,453.297852 L309.951199,452.924316 C308.274441,452.517578 307.51077,451.79541 307.51077,450.500488 Z"/>
    <path fill="#656153" fill-rule="nonzero" d="M329,96.9983284 L329,91.5016716 C329,90.6745364 328.325984,90 327.497739,90 L310.502261,90 C309.673083,90 309,90.672752 309,91.5016716 L309,96.9983284 C309,97.8264907 309.669899,98.5 310.490767,98.5 L327.509086,98.5 C328.330276,98.5 329,97.8277774 329,96.9983284 Z M328.959584,98.5 L328.959584,99.0316669 C328.550813,99.3264332 328.049804,99.5 327.509086,99.5 L328.234335,99.5 L327.509086,99.5 L327.509086,98.5 L328.959584,98.5 Z M328.234335,99.5 L328.959584,99.5 L328.234335,99.5 Z M328.959584,98.5 L327.509086,98.5 L327.509086,99.5 L310.490767,99.5 C309.115154,99.5 308,98.3763161 308,96.9983284 L308,91.5016716 C308,90.1200365 309.121229,89 310.502261,89 L327.497739,89 C328.8797,89 330,90.1236839 330,91.5016716 L330,96.9983284 C330,97.8360741 329.589209,98.5776423 328.959584,99.0316669 L328.959584,98.5 Z"/>
    <path fill="#656153" d="M331,92.5 C331.862614,92.7220214 332.5,93.5050715 332.5,94.4369913 C332.5,95.368911 331.862614,96.1519611 331,96.3739825 L331,92.5 Z"/>
    <rect width="18" height="6.5" x="310" y="91" fill="#EEE3C1" rx="1"/>
    <path fill="#EEE3C1" d="M171.373729 98.7109375C169.346385 98.7109375 168.145214 97.0703125 168.145214 94.2636719 168.145214 91.46875 169.363964 89.8339844 171.373729 89.8339844 173.377635 89.8339844 174.596385 91.46875 174.596385 94.2753906 174.596385 97.0703125 173.395214 98.7109375 171.373729 98.7109375zM171.373729 97.4570312C172.445995 97.4570312 173.067089 96.34375 173.067089 94.2636719 173.067089 92.1953125 172.434276 91.09375 171.373729 91.09375 170.313182 91.09375 169.67451 92.2011719 169.67451 94.2636719 169.67451 96.34375 170.301464 97.4570312 171.373729 97.4570312zM177.332714 97.6035156C176.781932 97.6035156 176.395214 97.2050781 176.395214 96.6777344 176.395214 96.1445312 176.781932 95.7519531 177.332714 95.7519531 177.889354 95.7519531 178.270214 96.1445312 178.270214 96.6777344 178.270214 97.2050781 177.889354 97.6035156 177.332714 97.6035156zM177.332714 93.2089844C176.781932 93.2089844 176.395214 92.8164062 176.395214 92.2890625 176.395214 91.7558594 176.781932 91.3632812 177.332714 91.3632812 177.889354 91.3632812 178.270214 91.7558594 178.270214 92.2890625 178.270214 92.8164062 177.889354 93.2089844 177.332714 93.2089844zM183.297557 98.7109375C181.270214 98.7109375 180.069042 97.0703125 180.069042 94.2636719 180.069042 91.46875 181.287792 89.8339844 183.297557 89.8339844 185.301464 89.8339844 186.520214 91.46875 186.520214 94.2753906 186.520214 97.0703125 185.319042 98.7109375 183.297557 98.7109375zM183.297557 97.4570312C184.369823 97.4570312 184.990917 96.34375 184.990917 94.2636719 184.990917 92.1953125 184.358104 91.09375 183.297557 91.09375 182.23701 91.09375 181.598339 92.2011719 181.598339 94.2636719 181.598339 96.34375 182.225292 97.4570312 183.297557 97.4570312zM191.401073 98.7050781C190.158885 98.7050781 189.18037 98.1191406 188.61787 97.0351562 188.225292 96.34375 188.020214 95.4414062 188.020214 94.3632812 188.020214 91.5214844 189.291698 89.8339844 191.447948 89.8339844 192.988964 89.8339844 194.172557 90.7480469 194.42451 92.1367188L192.912792 92.1367188C192.725292 91.4980469 192.162792 91.0996094 191.436229 91.0996094 190.199901 91.0996094 189.467479 92.2539062 189.467479 94.1875L189.567089 94.1875C189.965526 93.3847656 190.762401 92.921875 191.758495 92.921875 193.363964 92.921875 194.541698 94.1113281 194.541698 95.734375 194.541698 97.4746094 193.240917 98.7050781 191.401073 98.7050781zM191.383495 97.4453125C192.332714 97.4453125 193.059276 96.7246094 193.059276 95.78125 193.059276 94.8144531 192.36201 94.1230469 191.395214 94.1230469 190.428417 94.1230469 189.719432 94.8144531 189.719432 95.7578125 189.719432 96.71875 190.440135 97.4453125 191.383495 97.4453125zM58.1444208 96.4385043L56.0225391 98.5 53.8601652 96.4053177C54.3778594 95.8314341 55.1390073 95.4689119 55.987563 95.4689119 56.8523616 95.4689119 57.626374 95.8454456 58.1444208 96.4385043zM60.3234964 94.3214425L59.2346215 95.3793293C58.4356305 94.518235 57.2768836 93.9766839 55.987563 93.9766839 54.713648 93.9766839 53.567205 94.5053708 52.7692987 95.3486L51.6792698 94.2926936C52.7566264 93.1797589 54.2882723 92.484456 55.987563 92.484456 57.7014387 92.484456 59.2447794 93.1917456 60.3234964 94.3214425zM62.5 92.2068793L61.4118698 93.2640427C60.0538809 91.8655261 58.1260026 90.992228 55.987563 90.992228 53.8628921 90.992228 51.9460798 91.8543165 50.5895579 93.2370944L49.5 92.1816443C51.1355496 90.528956 53.4375103 89.5 55.987563 89.5 58.5505699 89.5 60.8629578 90.5394367 62.5 92.2068793zM43 89.4973856C43 89.2226871 43.2307129 89 43.5059123 89L44.9940877 89C45.2734953 89 45.5 89.2162701 45.5 89.4973856L45.5 98.0026144C45.5 98.2773129 45.2692871 98.5 44.9940877 98.5L43.5059123 98.5C43.2265047 98.5 43 98.2837299 43 98.0026144L43 89.4973856zM39 92.0034227C39 91.72539 39.2307129 91.5 39.5059123 91.5L40.9940877 91.5C41.2734953 91.5 41.5 91.7329025 41.5 92.0034227L41.5 97.9965773C41.5 98.27461 41.2692871 98.5 40.9940877 98.5L39.5059123 98.5C39.2265047 98.5 39 98.2670975 39 97.9965773L39 92.0034227zM35 93.9976988C35 93.7228273 35.2307129 93.5 35.5059123 93.5L36.9940877 93.5C37.2734953 93.5 37.5 93.7148438 37.5 93.9976988L37.5 98.0023012C37.5 98.2771727 37.2692871 98.5 36.9940877 98.5L35.5059123 98.5C35.2265047 98.5 35 98.2851562 35 98.0023012L35 93.9976988zM31 95.995389C31 95.7217932 31.2307129 95.5 31.5059123 95.5L32.9940877 95.5C33.2734953 95.5 33.5 95.7157526 33.5 95.995389L33.5 98.004611C33.5 98.2782068 33.2692871 98.5 32.9940877 98.5L31.5059123 98.5C31.2265047 98.5 31 98.2842474 31 98.004611L31 95.995389z"/>
  </g>
</svg>
