<svg xmlns="http://www.w3.org/2000/svg" viewBox="0 0 886 443"><path fill="#EEE3C1" fill-rule="evenodd" d="M66.615 178.995c-10.027 0-19.113-1.684-27.26-5.053-8.147-3.368-15.118-8.029-20.915-13.982-5.797-5.953-10.262-12.964-13.395-21.032-3.133-8.069-4.7-16.803-4.7-26.203 0-9.4 1.567-18.134 4.7-26.203 3.133-8.068 7.598-15.079 13.395-21.032 5.797-5.953 12.768-10.614 20.915-13.982 8.147-3.369 17.233-5.053 27.26-5.053 9.87 0 18.878 1.684 27.025 5.053 8.147 3.368 15.08 8.029 20.797 13.982 5.719 5.953 10.145 12.964 13.278 21.032 3.133 8.069 4.7 16.803 4.7 26.203 0 9.4-1.567 18.134-4.7 26.203-3.133 8.068-7.56 15.079-13.278 21.032-5.718 5.953-12.65 10.614-20.797 13.982-8.147 3.369-17.155 5.053-27.025 5.053zm-.235-26.79c9.243 0 16.332-3.642 21.267-10.928 4.936-7.285 7.403-16.802 7.403-28.552 0-11.907-2.467-21.542-7.403-28.905-4.935-7.363-12.024-11.045-21.267-11.045-9.4 0-16.528 3.682-21.385 11.045-4.857 7.363-7.285 16.998-7.285 28.905 0 11.75 2.428 21.267 7.285 28.553 4.857 7.285 11.985 10.927 21.385 10.927zM171.115.16v55.225c0 1.88-.04 3.917-.118 6.11a177.946 177.946 0 0 0-.117 6.345h.705c3.76-6.737 8.773-11.985 15.04-15.745 6.267-3.76 13.787-5.64 22.56-5.64 13.787 0 24.48 4.19 32.077 12.573 7.599 8.381 11.398 19.622 11.398 33.722V175H216V99.8c0-6.893-1.762-12.416-5.287-16.567-3.526-4.152-8.735-6.228-15.628-6.228-7.207 0-13.003 2.585-17.39 7.755-4.387 5.17-6.58 11.75-6.58 19.74V175H134.22V.16h36.895zm84.55 201.147c5.53-1.422 9.954-4.305 13.272-8.65 3.318-4.346 4.977-10.073 4.977-17.183V175h-18.486v-38.868h39.342v36.498c0 7.426-1.027 13.904-3.081 19.434-2.054 5.53-4.819 10.112-8.295 13.746-3.476 3.634-7.623 6.438-12.442 8.413-4.82 1.976-9.915 3.2-15.287 3.674v-16.59zm0 85c5.53-1.422 9.954-4.305 13.272-8.65 3.318-4.346 4.977-10.073 4.977-17.183V260h-18.486v-38.868h39.342v36.498c0 7.426-1.027 13.904-3.081 19.434-2.054 5.53-4.819 10.112-8.295 13.746-3.476 3.634-7.623 6.438-12.442 8.413-4.82 1.976-9.915 3.2-15.287 3.674v-16.59zm-82.73-15.327h18.8v-39.95h36.19v39.95h24.44v23.5h-24.44v62.04c0 4.7 1.214 7.872 3.642 9.518 2.429 1.645 5.836 2.467 10.223 2.467 1.253 0 2.663-.04 4.23-.118a57.552 57.552 0 0 0 4.23-.352h1.88v27.495c-2.037.313-4.857.705-8.46 1.175-3.603.47-7.912.705-12.925.705-5.797 0-11.084-.51-15.863-1.528-4.778-1.018-8.89-2.82-12.337-5.404-3.447-2.586-6.11-5.954-7.99-10.106-1.88-4.151-2.82-9.439-2.82-15.862v-70.03h-18.8v-23.5zm-38.95-49.82h37.365v32.195h-37.365V221.16zm.235 49.82h36.895V396H134.22V270.98zm208.935 129.015c-9.087 0-17.233-1.018-24.44-3.055-7.207-2.037-13.356-4.935-18.447-8.695-5.092-3.76-9.087-8.264-11.985-13.512-2.899-5.249-4.583-11.006-5.053-17.273h34.78c1.097 5.953 3.8 10.497 8.108 13.63 4.308 3.133 10.065 4.7 17.272 4.7 6.58 0 11.672-1.253 15.275-3.76 3.603-2.507 5.405-6.032 5.405-10.575 0-2.82-.862-5.092-2.585-6.815-1.723-1.723-4.073-3.133-7.05-4.23-2.977-1.097-6.384-1.997-10.223-2.703-3.838-.705-7.95-1.449-12.337-2.232a252.959 252.959 0 0 1-16.45-3.76c-5.327-1.41-10.105-3.525-14.335-6.345s-7.637-6.502-10.222-11.045c-2.586-4.543-3.878-10.497-3.878-17.86 0-6.423 1.37-12.063 4.113-16.92 2.741-4.857 6.462-8.93 11.162-12.22 4.7-3.29 10.262-5.757 16.685-7.402 6.423-1.646 13.317-2.468 20.68-2.468 17.39 0 30.55 3.407 39.48 10.223 8.93 6.815 14.257 15.705 15.98 26.672h-34.31c-2.35-8.93-9.4-13.395-21.15-13.395-5.64 0-10.144 1.097-13.512 3.29-3.369 2.193-5.053 5.327-5.053 9.4 0 2.35.783 4.27 2.35 5.757 1.567 1.489 3.76 2.703 6.58 3.643 2.82.94 6.11 1.723 9.87 2.35 3.76.627 7.755 1.332 11.985 2.115 5.64.94 11.28 2.154 16.92 3.642 5.64 1.489 10.732 3.721 15.275 6.698 4.543 2.977 8.264 6.932 11.162 11.867 2.899 4.936 4.348 11.32 4.348 19.153 0 6.737-1.41 12.69-4.23 17.86-2.82 5.17-6.737 9.478-11.75 12.925-5.013 3.447-10.967 6.032-17.86 7.755-6.893 1.723-14.413 2.585-22.56 2.585zM397.355 262c-.94-1.41-1.802-3.407-2.585-5.993-.783-2.585-1.332-5.679-1.645-9.282h-.47c-4.073 5.797-8.97 10.34-14.688 13.63-5.718 3.29-13.434 4.935-23.147 4.935-6.11 0-11.79-.822-17.037-2.468-5.249-1.645-9.792-4.034-13.63-7.167-3.839-3.133-6.815-7.09-8.93-11.868-2.116-4.778-3.173-10.222-3.173-16.332 0-6.893 1.292-12.612 3.877-17.155 2.586-4.543 6.071-8.225 10.458-11.045 4.387-2.82 9.557-4.974 15.51-6.463 5.953-1.488 12.377-2.624 19.27-3.407 11.123-1.567 19.152-3.447 24.087-5.64 4.936-2.193 7.403-5.64 7.403-10.34 0-4.543-1.488-8.186-4.465-10.928-2.977-2.741-7.677-4.112-14.1-4.112-7.05 0-12.337 1.488-15.862 4.465-3.526 2.977-5.523 6.972-5.993 11.985H318.16c.157-5.327 1.41-10.497 3.76-15.51 2.35-5.013 5.797-9.44 10.34-13.278 4.543-3.838 10.262-6.893 17.155-9.164 6.893-2.272 14.962-3.408 24.205-3.408 7.99 0 14.883.587 20.68 1.762 5.797 1.176 10.888 3.095 15.275 5.758 6.58 3.76 11.397 8.812 14.452 15.157 3.056 6.346 4.583 13.748 4.583 22.208v64.155c0 9.557 1.567 15.353 4.7 17.39V262h-35.955zm-31.02-20.915c8.303 0 14.922-2.272 19.858-6.815 4.935-4.543 7.402-10.262 7.402-17.155V200.9c-2.663 1.723-5.914 3.094-9.753 4.112a375.971 375.971 0 0 1-11.867 2.938c-8.147 1.723-14.178 3.838-18.095 6.345-3.917 2.507-5.875 6.502-5.875 11.985s1.802 9.322 5.405 11.515c3.603 2.193 7.912 3.29 12.925 3.29zm105.605-85.07h.705c3.917-7.52 9.126-13.16 15.627-16.92 6.502-3.76 14.14-5.64 22.913-5.64 13.787 0 24.48 4.19 32.078 12.572 7.598 8.382 11.397 19.623 11.397 33.723V262H518v-75.2c0-6.893-1.762-12.416-5.288-16.568-3.525-4.151-8.734-6.227-15.627-6.227-7.207 0-13.003 2.585-17.39 7.755-4.387 5.17-6.58 11.75-6.58 19.74V262H436.22V136.98h35.72v19.035zm138.985 109.98c-8.147 0-15.51-1.527-22.09-4.582-6.58-3.056-12.22-7.442-16.92-13.16-4.7-5.719-8.303-12.69-10.81-20.915-2.507-8.226-3.76-17.508-3.76-27.848 0-9.557 1.292-18.37 3.877-26.438 2.586-8.068 6.228-15.04 10.928-20.915 4.7-5.875 10.38-10.457 17.038-13.747 6.658-3.29 14.06-4.935 22.207-4.935 8.617 0 15.902 1.84 21.855 5.522 5.953 3.682 11.045 8.813 15.275 15.393h.47c-.313-3.917-.548-8.382-.705-13.395a496.864 496.864 0 0 1-.235-15.51V87.16h36.895V262h-35.485v-18.33h-.47c-3.603 7.677-8.734 13.317-15.393 16.92-6.658 3.603-14.217 5.405-22.677 5.405zm9.87-29.61c8.93 0 15.902-3.407 20.915-10.222 5.013-6.816 7.52-15.706 7.52-26.673 0-5.483-.587-10.575-1.763-15.275-1.175-4.7-2.937-8.734-5.287-12.102-2.35-3.369-5.287-5.993-8.813-7.873-3.525-1.88-7.637-2.82-12.337-2.82-8.773 0-15.314 3.486-19.622 10.458-4.309 6.971-6.463 16.097-6.463 27.377 0 11.28 2.154 20.288 6.462 27.025 4.309 6.737 10.771 10.105 19.388 10.105zM472.7 313.98h18.8v-10.575c0-13.16 3.525-22.952 10.575-29.375 4.073-3.603 9.282-6.188 15.627-7.755 6.346-1.567 13.513-2.272 21.503-2.115 2.507 0 5.013.078 7.52.235 2.507.157 5.092.392 7.755.705v26.32c-4.7-.157-8.695-.157-11.985 0-3.29.157-5.992.744-8.107 1.762-2.116 1.019-3.643 2.546-4.583 4.583-.94 2.037-1.41 4.778-1.41 8.225v7.99h26.085v23.97h-26.085V439H491.5V337.95h-18.8v-23.97zm119.005 22.325h.705c4.073-8.773 8.93-15.04 14.57-18.8 5.64-3.76 12.377-5.64 20.21-5.64 3.76 0 6.345.313 7.755.94V345h-.94c-2.663-.47-5.248-.705-7.755-.705-10.027-.157-18.056 2.86-24.087 9.047-6.032 6.189-9.048 15.393-9.048 27.613V439H556.22V313.98h35.485v22.325zM695.38 442.76c-10.183 0-19.348-1.684-27.495-5.053-8.147-3.368-15.08-8.029-20.798-13.982-5.718-5.953-10.104-12.925-13.16-20.915-3.055-7.99-4.582-16.685-4.582-26.085 0-9.4 1.567-18.134 4.7-26.203 3.133-8.068 7.52-15.079 13.16-21.032 5.64-5.953 12.377-10.614 20.21-13.983 7.833-3.368 16.528-5.052 26.085-5.052 8.93 0 16.96 1.41 24.087 4.23 7.129 2.82 13.435 6.737 18.918 11.75 7.05 6.893 12.22 15.432 15.51 25.615 3.29 10.183 4.857 21.463 4.7 33.84h-91.18c1.253 9.4 4.387 16.763 9.4 22.09 5.013 5.327 11.985 7.99 20.915 7.99 5.797 0 10.536-1.057 14.217-3.173 3.682-2.115 6.541-5.13 8.578-9.047h35.72c-1.567 5.483-4.034 10.614-7.403 15.392-3.368 4.779-7.52 8.93-12.454 12.456-4.936 3.525-10.693 6.266-17.273 8.224-6.58 1.959-13.865 2.938-21.855 2.938zm-1.88-106.22c-8.46 0-14.883 2.507-19.27 7.52-4.387 5.013-7.207 11.828-8.46 20.445h53.345c-.627-8.773-3.212-15.627-7.755-20.563-4.543-4.935-10.497-7.402-17.86-7.402zm130.88 106.22c-10.183 0-19.348-1.684-27.495-5.053-8.147-3.368-15.08-8.029-20.798-13.982-5.718-5.953-10.104-12.925-13.16-20.915-3.055-7.99-4.582-16.685-4.582-26.085 0-9.4 1.567-18.134 4.7-26.203 3.133-8.068 7.52-15.079 13.16-21.032 5.64-5.953 12.377-10.614 20.21-13.983 7.833-3.368 16.528-5.052 26.085-5.052 8.93 0 16.96 1.41 24.087 4.23 7.129 2.82 13.435 6.737 18.918 11.75 7.05 6.893 12.22 15.432 15.51 25.615 3.29 10.183 4.857 21.463 4.7 33.84h-91.18c1.253 9.4 4.387 16.763 9.4 22.09 5.013 5.327 11.985 7.99 20.915 7.99 5.797 0 10.536-1.057 14.217-3.173 3.682-2.115 6.541-5.13 8.578-9.047h35.72c-1.567 5.483-4.034 10.614-7.403 15.392-3.368 4.779-7.52 8.93-12.454 12.456-4.936 3.525-10.693 6.266-17.273 8.224-6.58 1.959-13.865 2.938-21.855 2.938zm-1.88-106.22c-8.46 0-14.883 2.507-19.27 7.52-4.387 5.013-7.207 11.828-8.46 20.445h53.345c-.627-8.773-3.212-15.627-7.755-20.563-4.543-4.935-10.497-7.402-17.86-7.402zm-407.62-21.948h3.52v-1.98c0-2.464.66-4.297 1.98-5.5.763-.675 1.738-1.159 2.926-1.452 1.188-.293 2.53-.425 4.026-.396.47 0 .939.015 1.408.044.47.03.953.073 1.452.132v4.928a28.4 28.4 0 0 0-2.244 0c-.616.03-1.122.14-1.518.33-.396.19-.682.477-.858.858-.176.381-.264.895-.264 1.54v1.496h4.884v4.488h-4.884V338H418.4v-18.92h-3.52v-4.488zm27.656 24.156c-1.877 0-3.579-.315-5.104-.946-1.525-.63-2.83-1.503-3.916-2.618a11.59 11.59 0 0 1-2.508-3.938c-.587-1.51-.88-3.146-.88-4.906 0-1.76.293-3.395.88-4.906a11.59 11.59 0 0 1 2.508-3.938c1.085-1.115 2.39-1.987 3.916-2.618 1.525-.63 3.227-.946 5.104-.946 1.848 0 3.535.315 5.06.946 1.525.63 2.823 1.503 3.894 2.618 1.07 1.115 1.9 2.427 2.486 3.938.587 1.51.88 3.146.88 4.906 0 1.76-.293 3.395-.88 4.906-.587 1.51-1.415 2.823-2.486 3.938-1.07 1.115-2.369 1.987-3.894 2.618-1.525.63-3.212.946-5.06.946zm-.044-5.016c1.73 0 3.058-.682 3.982-2.046.924-1.364 1.386-3.146 1.386-5.346 0-2.23-.462-4.033-1.386-5.412-.924-1.379-2.251-2.068-3.982-2.068-1.76 0-3.095.69-4.004 2.068-.91 1.379-1.364 3.183-1.364 5.412 0 2.2.455 3.982 1.364 5.346.91 1.364 2.244 2.046 4.004 2.046zm20.484-14.96h.132c.763-1.643 1.672-2.816 2.728-3.52 1.056-.704 2.317-1.056 3.784-1.056.704 0 1.188.059 1.452.176v6.028h-.176a8.35 8.35 0 0 0-1.452-.132c-1.877-.03-3.38.535-4.51 1.694-1.13 1.159-1.694 2.882-1.694 5.17V338h-6.908v-23.408h6.644v4.18z"/></svg>