<svg width="1213" height="1120" viewBox="0 0 1213 1120" fill="none" xmlns="http://www.w3.org/2000/svg">
<path d="M276.728 450.831C254.368 450.831 234.321 448.325 216.587 443.313C198.853 438.301 183.625 431.169 170.903 421.917C158.566 412.664 148.735 401.677 141.41 388.955C134.471 375.847 130.423 361.583 129.266 346.162H214.852C217.551 360.812 224.105 371.992 234.514 379.702C245.308 387.413 259.572 391.268 277.306 391.268C293.498 391.268 306.028 388.184 314.895 382.015C323.762 375.847 328.195 367.173 328.195 355.993C328.195 349.053 326.075 343.463 321.834 339.222C317.593 334.982 311.811 331.512 304.486 328.813C297.161 326.115 288.679 323.994 279.041 322.452C269.789 320.525 259.765 318.597 248.971 316.67C235.092 313.971 221.599 310.887 208.491 307.417C195.383 303.947 183.625 298.743 173.216 291.803C162.807 284.864 154.325 275.804 147.771 264.624C141.603 253.444 138.519 238.794 138.519 220.675C138.519 204.868 141.796 190.99 148.35 179.039C155.289 167.087 164.542 157.064 176.107 148.968C187.673 140.872 201.359 134.896 217.165 131.041C232.971 126.8 249.934 124.68 268.054 124.68C310.847 124.68 343.23 133.162 365.205 150.124C387.18 166.702 400.288 188.484 404.528 215.47H320.099C314.316 193.496 296.968 182.508 268.054 182.508C254.175 182.508 242.995 185.207 234.514 190.604C226.418 196.001 222.37 203.712 222.37 213.735C222.37 219.518 224.297 224.337 228.152 228.192C232.008 231.662 237.405 234.554 244.344 236.867C251.284 239.18 259.38 241.107 268.632 242.649C277.885 244.192 287.715 245.926 298.125 247.854C312.003 250.167 325.882 253.251 339.761 257.107C353.64 260.576 366.169 265.974 377.349 273.298C388.529 280.623 397.589 290.454 404.528 302.791C411.853 314.742 415.516 330.356 415.516 349.632C415.516 366.209 412.046 380.859 405.107 393.581C398.167 406.303 388.529 416.905 376.192 425.386C363.856 433.868 349.206 440.229 332.243 444.47C315.28 448.71 296.775 450.831 276.728 450.831Z" fill="#EEE3C1"/>
<path d="M406.144 133.354H452.406V35.0465H541.462V133.354H601.603V191.182H541.462V343.849C541.462 355.414 544.353 363.318 550.136 367.558C556.304 371.413 564.786 373.341 575.58 373.341C578.665 373.341 582.134 373.341 585.989 373.341C589.845 372.956 593.314 372.57 596.398 372.185H601.025V439.843C596.013 440.614 589.074 441.578 580.207 442.735C571.34 443.891 560.738 444.47 548.401 444.47C534.137 444.47 521.029 443.313 509.078 441C497.512 438.301 487.489 433.868 479.007 427.7C470.526 421.146 463.972 412.857 459.346 402.833C454.72 392.424 452.406 379.317 452.406 363.51V191.182H406.144V133.354Z" fill="#EEE3C1"/>
<path d="M120.861 464.306C120.861 465.077 120.861 467.005 120.861 470.089C120.861 473.173 120.861 477.029 120.861 481.655C120.861 486.281 120.668 491.293 120.283 496.69C120.283 502.087 120.283 507.292 120.283 512.304H122.017C131.27 495.726 143.607 482.811 159.027 473.559C174.448 464.306 192.953 459.68 214.542 459.68C248.468 459.68 274.684 470.089 293.189 490.907C312.079 511.34 321.524 538.905 321.524 573.602V776H231.313V590.95C231.313 573.987 226.879 560.494 218.012 550.47C209.531 540.061 196.808 534.857 179.845 534.857C162.112 534.857 147.847 541.218 137.053 553.94C126.258 566.662 120.861 582.854 120.861 602.516V776H30.0706V345.759H120.861V464.306Z" fill="#EEE3C1"/>
<path d="M492.689 785.831C468.016 785.831 445.655 781.783 425.608 773.687C405.561 765.205 388.406 753.64 374.141 738.99C359.877 724.34 348.89 707.185 341.179 687.523C333.469 667.476 329.614 645.887 329.614 622.755C329.614 599.624 333.469 578.228 341.179 558.566C348.89 538.519 359.877 521.171 374.141 506.521C388.406 491.871 405.561 480.498 425.608 472.402C445.655 463.921 468.016 459.68 492.689 459.68C516.977 459.68 539.144 463.921 559.191 472.402C579.238 480.498 596.201 491.871 610.08 506.521C624.344 521.171 635.332 538.519 643.042 558.566C650.753 578.228 654.608 599.624 654.608 622.755C654.608 645.887 650.753 667.476 643.042 687.523C635.332 707.185 624.344 724.34 610.08 738.99C596.201 753.64 579.238 765.205 559.191 773.687C539.144 781.783 516.977 785.831 492.689 785.831ZM492.111 719.907C514.856 719.907 532.205 711.04 544.156 693.306C556.493 675.186 562.661 651.67 562.661 622.755C562.661 593.456 556.493 569.746 544.156 551.627C532.205 533.507 514.856 524.448 492.111 524.448C468.979 524.448 451.438 533.507 439.487 551.627C427.536 569.746 421.56 593.456 421.56 622.755C421.56 651.67 427.536 675.186 439.487 693.306C451.438 711.04 468.979 719.907 492.111 719.907Z" fill="#EEE3C1"/>
<path d="M408.071 795.417H495.391V843.414H497.126C507.149 824.909 519.486 810.838 534.136 801.2C549.171 791.562 567.676 786.743 589.651 786.743C630.131 786.743 658.274 806.212 674.08 845.149H675.237C687.959 824.331 702.416 809.489 718.608 800.622C735.185 791.369 753.305 786.743 772.966 786.743C807.278 786.743 833.107 797.152 850.456 817.97C867.804 838.403 876.479 865.775 876.479 900.086V1103.06H786.267V915.121C786.267 898.158 782.219 885.051 774.123 875.798C766.412 866.16 755.232 861.341 740.582 861.341C724.391 861.341 711.476 867.509 701.838 879.846C692.585 892.183 687.959 908.182 687.959 927.844V1103.06H597.169V915.121C597.169 898.158 593.313 885.051 585.603 875.798C578.278 866.16 567.098 861.341 552.063 861.341C535.871 861.341 522.956 867.509 513.318 879.846C503.68 892.183 498.861 908.182 498.861 927.844V1103.06H408.071V795.417Z" fill="#EEE3C1"/>
<path d="M1046.11 1112.32C1021.05 1112.32 998.499 1108.27 978.452 1100.17C958.405 1091.69 941.249 1080.12 926.985 1065.47C913.106 1050.82 902.311 1033.67 894.601 1014.01C887.276 994.346 883.614 972.949 883.614 949.818C883.614 926.687 887.469 905.291 895.179 885.629C902.89 865.582 913.684 848.233 927.563 833.584C941.442 818.934 958.019 807.561 977.295 799.465C996.571 790.984 1017.97 786.743 1041.48 786.743C1063.46 786.743 1083.12 790.213 1100.47 797.152C1118.2 804.091 1133.82 813.729 1147.31 826.066C1164.66 843.029 1177.38 864.04 1185.48 889.099C1193.57 914.158 1197.43 941.915 1197.04 972.371H972.669C975.753 995.502 983.464 1013.62 995.8 1026.73C1008.14 1039.84 1025.29 1046.39 1047.27 1046.39C1061.53 1046.39 1073.1 1043.89 1081.96 1038.87C1091.22 1033.48 1098.35 1025.96 1103.36 1016.32H1191.26C1187.4 1029.81 1181.24 1042.54 1172.75 1054.49C1164.66 1066.05 1154.44 1076.27 1142.11 1085.14C1130.15 1093.62 1116.08 1100.17 1099.89 1104.8C1083.7 1109.81 1065.77 1112.32 1046.11 1112.32ZM1041.48 850.932C1020.67 850.932 1004.86 857.1 994.065 869.437C983.271 881.774 976.331 898.544 973.247 919.748H1104.52C1102.97 898.158 1096.61 881.388 1085.43 869.437C1074.25 857.1 1059.6 850.932 1041.48 850.932Z" fill="#EEE3C1"/>
<path d="M817.726 540.748C815.413 537.278 813.293 532.459 811.365 526.291C809.437 519.737 808.088 512.026 807.317 503.159H806.16C796.137 517.424 783.993 528.604 769.729 536.7C755.85 544.796 736.959 548.843 713.057 548.843C698.022 548.843 683.95 546.723 670.843 542.482C658.12 538.627 646.94 532.844 637.302 525.134C628.05 517.424 620.725 507.786 615.328 496.22C610.316 484.269 607.81 470.776 607.81 455.74C607.81 438.777 610.894 424.706 617.062 413.526C623.616 402.346 632.29 393.286 643.085 386.346C653.88 379.407 666.602 374.203 681.252 370.733C695.901 366.878 711.708 363.986 728.671 362.059C756.043 358.203 775.704 353.577 787.655 348.18C799.992 342.783 806.16 334.301 806.16 322.736C806.16 311.555 802.498 302.688 795.173 296.135C787.848 289.195 776.282 285.725 760.476 285.725C743.128 285.725 730.02 289.388 721.153 296.713C712.672 304.038 707.853 313.869 706.696 326.205H622.845C623.231 313.097 626.315 300.375 632.098 288.039C637.88 275.702 646.362 264.907 657.542 255.655C668.722 246.017 682.794 238.499 699.757 233.102C716.72 227.319 736.574 224.428 759.32 224.428C778.981 224.428 795.944 225.97 810.208 229.054C824.473 231.753 837.002 236.379 847.797 242.933C863.988 252.185 875.747 264.715 883.072 280.521C890.782 295.942 894.637 314.061 894.637 334.879V492.75C894.637 516.267 898.493 530.531 906.203 535.543V540.748H817.726ZM741.393 489.281C761.825 489.281 778.017 483.69 789.968 472.51C802.305 461.33 808.473 447.259 808.473 430.296V390.394C801.92 394.635 793.824 398.105 784.186 400.803C774.933 403.117 765.295 405.43 755.272 407.743C735.225 411.984 720.382 417.188 710.744 423.356C701.106 429.525 696.287 439.356 696.287 452.849C696.287 466.342 700.72 475.787 709.587 481.185C718.454 486.582 729.056 489.281 741.393 489.281Z" fill="#EEE3C1"/>
<path d="M973.043 660.3C972.272 660.3 968.802 660.3 962.634 660.3C956.465 660.3 949.719 660.107 942.394 659.722C935.069 659.722 928.322 659.529 922.154 659.143C915.986 659.143 912.709 659.143 912.323 659.143V588.015H916.95C917.335 588.015 918.877 588.015 921.576 588.015C924.66 588.4 927.937 588.593 931.407 588.593C934.876 588.593 937.96 588.593 940.659 588.593C943.743 588.593 945.671 588.593 946.442 588.593C973.814 588.593 988.464 578.184 990.391 557.366C990.391 551.968 989.042 543.872 986.343 533.078C983.645 521.898 979.597 509.368 974.199 495.49L878.783 249.72H974.199L1013.52 367.689C1016.99 378.099 1020.27 389.664 1023.35 402.386C1026.44 414.723 1029.14 426.289 1031.45 437.083C1034.15 449.805 1036.65 462.335 1038.97 474.671H1040.12C1042.82 461.949 1045.71 449.227 1048.8 436.505C1051.5 425.71 1054.39 414.145 1057.47 401.808C1060.56 389.471 1063.83 378.099 1067.3 367.689L1104.89 249.72H1195.1L1085.23 564.883C1079.06 582.617 1072.51 597.46 1065.57 609.411C1058.63 621.748 1050.73 631.578 1041.86 638.903C1032.99 646.614 1022.97 652.011 1011.79 655.095C1000.61 658.565 987.693 660.3 973.043 660.3Z" fill="#EEE3C1"/>
</svg>
